G04 DipTrace 3.3.0.0*
G04 uTides_PCBpanel.GTS*
%MOIN*%
G04 #@! TF.FileFunction,Soldermask,Top*
G04 #@! TF.Part,Single*
%ADD12C,0.001*%
%ADD20C,0.122047*%
%ADD21C,0.212*%
%ADD22C,0.120079*%
%ADD23C,0.275591*%
%ADD27O,0.307213X0.185165*%
%ADD29C,0.342646*%
%FSLAX26Y26*%
G04*
G70*
G90*
G75*
G01*
G04 TopMask*
%LPD*%
D20*
X1189091Y4943948D3*
D21*
Y2568761D3*
D22*
Y3244188D3*
Y2768740D3*
D21*
X1182841Y3043711D3*
X1189091Y3518661D3*
D23*
X1589091Y3081448D3*
X789091Y4281448D3*
X1589091Y3681448D3*
Y4281448D3*
X789091Y3681448D3*
X1589049Y4881018D3*
X789091Y2481448D3*
Y3081448D3*
X1589091Y2481448D3*
D22*
X480591Y1281448D3*
X1897591D3*
X1114091D3*
X1268091D3*
D23*
X789091Y4881448D3*
D22*
X1189091Y3720014D3*
D29*
X1389001Y1044000D3*
X589000D3*
X989000D3*
X589000Y1519000D3*
X1789000D3*
X1389001D3*
X989000D3*
X589005Y1987751D3*
X1788995D3*
D27*
X1689000Y512058D3*
X689000D3*
D29*
X1789000Y1044000D3*
D27*
X689000Y5334892D3*
X1689000D3*
D29*
X989091Y1987697D3*
X1389091D3*
G36*
X641495Y4654761D2*
X651388Y4649051D1*
X689469Y4715007D1*
X679575Y4720719D1*
X641495Y4654761D1*
G37*
G36*
X575545Y4711294D2*
X583076Y4702706D1*
X640337Y4752920D1*
X632806Y4761509D1*
X575545Y4711294D1*
G37*
G36*
X1453995Y4054761D2*
X1463888Y4049051D1*
X1501969Y4115007D1*
X1492075Y4120719D1*
X1453995Y4054761D1*
G37*
G36*
X1388045Y4111294D2*
X1395576Y4102706D1*
X1452837Y4152920D1*
X1445306Y4161509D1*
X1388045Y4111294D1*
G37*
G36*
X1345232Y4186581D2*
X1348136Y4175471D1*
X1418500Y4204614D1*
X1414127Y4215169D1*
X1345232Y4186581D1*
G37*
G36*
X1345205Y4272253D2*
Y4260642D1*
X1402602Y4264602D1*
X1401856Y4276004D1*
X1345205Y4272253D1*
G37*
G36*
X1345386Y4355161D2*
X1345306Y4343073D1*
X1406829Y4326517D1*
X1409787Y4337552D1*
X1345386Y4355161D1*
G37*
G36*
X1373756Y4435600D2*
X1367411Y4426102D1*
X1430735Y4383789D1*
X1437081Y4393286D1*
X1373756Y4435600D1*
G37*
G36*
X1434482Y4497711D2*
X1425417Y4490756D1*
X1471782Y4430336D1*
X1480845Y4437289D1*
X1434482Y4497711D1*
G37*
G36*
X1511949Y4537008D2*
X1501129Y4533336D1*
X1525610Y4461218D1*
X1536429Y4464890D1*
X1511949Y4537008D1*
G37*
G36*
X1597934Y4549319D2*
X1586510D1*
Y4473157D1*
X1597934D1*
Y4549319D1*
G37*
G36*
X1683316Y4533336D2*
X1672497Y4537008D1*
X1648016Y4464890D1*
X1658835Y4461218D1*
X1683316Y4533336D1*
G37*
G36*
X1759028Y4490756D2*
X1749963Y4497711D1*
X1703600Y4437289D1*
X1712663Y4430336D1*
X1759028Y4490756D1*
G37*
G36*
X1817034Y4426102D2*
X1810689Y4435600D1*
X1747364Y4393287D1*
X1753709Y4383789D1*
X1817034Y4426102D1*
G37*
G36*
X1851181Y4346230D2*
X1848223Y4357265D1*
X1774657Y4337552D1*
X1777615Y4326517D1*
X1851181Y4346230D1*
G37*
G36*
X1857840Y4259623D2*
X1858588Y4271022D1*
X1782589Y4276004D1*
X1781843Y4264602D1*
X1857840Y4259623D1*
G37*
G36*
X1836310Y4175471D2*
X1840680Y4186024D1*
X1770318Y4215169D1*
X1765945Y4204614D1*
X1836310Y4175471D1*
G37*
G36*
X1788869Y4102703D2*
X1796400Y4111294D1*
X1739142Y4161509D1*
X1731608Y4152920D1*
X1788869Y4102703D1*
G37*
G36*
X1720556Y4049051D2*
X1730450Y4054761D1*
X1692370Y4120719D1*
X1682476Y4115007D1*
X1720556Y4049051D1*
G37*
G36*
X1447744Y4648510D2*
X1457638Y4642801D1*
X1495718Y4708757D1*
X1485824Y4714469D1*
X1447744Y4648510D1*
G37*
G36*
X1381794Y4705043D2*
X1389327Y4696455D1*
X1446587Y4746669D1*
X1439055Y4755260D1*
X1381794Y4705043D1*
G37*
G36*
X1338983Y4780332D2*
X1341887Y4769220D1*
X1412249Y4798364D1*
X1407878Y4808920D1*
X1338983Y4780332D1*
G37*
G36*
X1338955Y4866003D2*
Y4854392D1*
X1396352Y4858353D1*
X1395605Y4869753D1*
X1338955Y4866003D1*
G37*
G36*
X1339135Y4948911D2*
X1339056Y4936824D1*
X1400580Y4920268D1*
X1403537Y4931302D1*
X1339135Y4948911D1*
G37*
G36*
X1367507Y5029349D2*
X1361160Y5019852D1*
X1424486Y4977538D1*
X1430832Y4987035D1*
X1367507Y5029349D1*
G37*
G36*
X1428231Y5091462D2*
X1419168Y5084507D1*
X1465531Y5024085D1*
X1474594Y5031039D1*
X1428231Y5091462D1*
G37*
G36*
X1505698Y5130757D2*
X1494879Y5127085D1*
X1519361Y5054967D1*
X1530178Y5058639D1*
X1505698Y5130757D1*
G37*
G36*
X1591685Y5143068D2*
X1580260D1*
Y5066908D1*
X1591685D1*
Y5143068D1*
G37*
G36*
X1677066Y5127085D2*
X1666248Y5130757D1*
X1641766Y5058639D1*
X1652584Y5054967D1*
X1677066Y5127085D1*
G37*
G36*
X1752777Y5084507D2*
X1743714Y5091462D1*
X1697350Y5031039D1*
X1706413Y5024085D1*
X1752777Y5084507D1*
G37*
G36*
X1810785Y5019852D2*
X1804438Y5029349D1*
X1741113Y4987038D1*
X1747459Y4977538D1*
X1810785Y5019852D1*
G37*
G36*
X1844930Y4939980D2*
X1841974Y4951014D1*
X1768408Y4931302D1*
X1771365Y4920268D1*
X1844930Y4939980D1*
G37*
G36*
X1851591Y4853373D2*
X1852339Y4864772D1*
X1776340Y4869753D1*
X1775593Y4858353D1*
X1851591Y4853373D1*
G37*
G36*
X1830059Y4769220D2*
X1834430Y4779774D1*
X1764067Y4808920D1*
X1759696Y4798364D1*
X1830059Y4769220D1*
G37*
G36*
X1782618Y4696454D2*
X1790151Y4705043D1*
X1732891Y4755260D1*
X1725358Y4746669D1*
X1782618Y4696454D1*
G37*
G36*
X1714307Y4642801D2*
X1724201Y4648510D1*
X1686121Y4714469D1*
X1676227Y4708757D1*
X1714307Y4642801D1*
G37*
G36*
X1453995Y3448510D2*
X1463888Y3442801D1*
X1501969Y3508757D1*
X1492075Y3514469D1*
X1453995Y3448510D1*
G37*
G36*
X1388045Y3505043D2*
X1395576Y3496455D1*
X1452837Y3546669D1*
X1445306Y3555260D1*
X1388045Y3505043D1*
G37*
G36*
X1345232Y3580332D2*
X1348136Y3569220D1*
X1418500Y3598364D1*
X1414127Y3608920D1*
X1345232Y3580332D1*
G37*
G36*
X1345205Y3666003D2*
Y3654392D1*
X1402602Y3658353D1*
X1401856Y3669753D1*
X1345205Y3666003D1*
G37*
G36*
X1345386Y3748911D2*
X1345306Y3736824D1*
X1406829Y3720268D1*
X1409787Y3731302D1*
X1345386Y3748911D1*
G37*
G36*
X1373756Y3829349D2*
X1367411Y3819852D1*
X1430735Y3777538D1*
X1437081Y3787035D1*
X1373756Y3829349D1*
G37*
G36*
X1434482Y3891462D2*
X1425417Y3884507D1*
X1471782Y3824085D1*
X1480845Y3831039D1*
X1434482Y3891462D1*
G37*
G36*
X1511949Y3930757D2*
X1501129Y3927085D1*
X1525610Y3854967D1*
X1536429Y3858639D1*
X1511949Y3930757D1*
G37*
G36*
X1597934Y3943068D2*
X1586510D1*
Y3866908D1*
X1597934D1*
Y3943068D1*
G37*
G36*
X1683316Y3927085D2*
X1672497Y3930757D1*
X1648016Y3858639D1*
X1658835Y3854967D1*
X1683316Y3927085D1*
G37*
G36*
X1759028Y3884507D2*
X1749963Y3891462D1*
X1703600Y3831039D1*
X1712663Y3824085D1*
X1759028Y3884507D1*
G37*
G36*
X1817034Y3819852D2*
X1810689Y3829349D1*
X1747364Y3787038D1*
X1753709Y3777538D1*
X1817034Y3819852D1*
G37*
G36*
X1851181Y3739980D2*
X1848223Y3751014D1*
X1774657Y3731302D1*
X1777615Y3720268D1*
X1851181Y3739980D1*
G37*
G36*
X1857840Y3653373D2*
X1858588Y3664772D1*
X1782589Y3669753D1*
X1781843Y3658353D1*
X1857840Y3653373D1*
G37*
G36*
X1836310Y3569220D2*
X1840680Y3579774D1*
X1770318Y3608920D1*
X1765945Y3598364D1*
X1836310Y3569220D1*
G37*
G36*
X1788869Y3496454D2*
X1796400Y3505043D1*
X1739142Y3555260D1*
X1731608Y3546669D1*
X1788869Y3496454D1*
G37*
G36*
X1720556Y3442801D2*
X1730450Y3448510D1*
X1692370Y3514469D1*
X1682476Y3508757D1*
X1720556Y3442801D1*
G37*
G36*
X1447744Y2854761D2*
X1457638Y2849051D1*
X1495718Y2915007D1*
X1485824Y2920719D1*
X1447744Y2854761D1*
G37*
G36*
X1381794Y2911294D2*
X1389327Y2902706D1*
X1446587Y2952920D1*
X1439055Y2961509D1*
X1381794Y2911294D1*
G37*
G36*
X1338983Y2986581D2*
X1341887Y2975471D1*
X1412249Y3004614D1*
X1407878Y3015169D1*
X1338983Y2986581D1*
G37*
G36*
X1338955Y3072253D2*
Y3060642D1*
X1396352Y3064602D1*
X1395605Y3076004D1*
X1338955Y3072253D1*
G37*
G36*
X1339135Y3155161D2*
X1339056Y3143073D1*
X1400580Y3126517D1*
X1403537Y3137552D1*
X1339135Y3155161D1*
G37*
G36*
X1367507Y3235600D2*
X1361160Y3226102D1*
X1424486Y3183789D1*
X1430832Y3193286D1*
X1367507Y3235600D1*
G37*
G36*
X1428231Y3297711D2*
X1419168Y3290756D1*
X1465531Y3230336D1*
X1474594Y3237289D1*
X1428231Y3297711D1*
G37*
G36*
X1505698Y3337008D2*
X1494879Y3333336D1*
X1519361Y3261218D1*
X1530178Y3264890D1*
X1505698Y3337008D1*
G37*
G36*
X1591685Y3349319D2*
X1580260D1*
Y3273157D1*
X1591685D1*
Y3349319D1*
G37*
G36*
X1677066Y3333336D2*
X1666248Y3337008D1*
X1641766Y3264890D1*
X1652584Y3261218D1*
X1677066Y3333336D1*
G37*
G36*
X1752777Y3290756D2*
X1743714Y3297711D1*
X1697350Y3237289D1*
X1706413Y3230336D1*
X1752777Y3290756D1*
G37*
G36*
X1810785Y3226102D2*
X1804438Y3235600D1*
X1741113Y3193287D1*
X1747459Y3183789D1*
X1810785Y3226102D1*
G37*
G36*
X1844930Y3146230D2*
X1841974Y3157265D1*
X1768408Y3137552D1*
X1771365Y3126517D1*
X1844930Y3146230D1*
G37*
G36*
X1851591Y3059623D2*
X1852339Y3071022D1*
X1776340Y3076004D1*
X1775593Y3064602D1*
X1851591Y3059623D1*
G37*
G36*
X1830059Y2975471D2*
X1834430Y2986024D1*
X1764067Y3015169D1*
X1759696Y3004614D1*
X1830059Y2975471D1*
G37*
G36*
X1782618Y2902703D2*
X1790151Y2911294D1*
X1732891Y2961509D1*
X1725358Y2952920D1*
X1782618Y2902703D1*
G37*
G36*
X532732Y4786581D2*
X535636Y4775471D1*
X606000Y4804614D1*
X601627Y4815169D1*
X532732Y4786581D1*
G37*
G36*
X1714307Y2849051D2*
X1724201Y2854761D1*
X1686121Y2920719D1*
X1676227Y2915007D1*
X1714307Y2849051D1*
G37*
G36*
X1441495Y2248510D2*
X1451388Y2242801D1*
X1489469Y2308757D1*
X1479575Y2314469D1*
X1441495Y2248510D1*
G37*
G36*
X1375545Y2305043D2*
X1383076Y2296455D1*
X1440337Y2346669D1*
X1432806Y2355260D1*
X1375545Y2305043D1*
G37*
G36*
X1332732Y2380332D2*
X1335636Y2369220D1*
X1406000Y2398364D1*
X1401627Y2408920D1*
X1332732Y2380332D1*
G37*
G36*
X1332705Y2466003D2*
Y2454392D1*
X1390102Y2458353D1*
X1389356Y2469753D1*
X1332705Y2466003D1*
G37*
G36*
X1332886Y2548911D2*
X1332806Y2536824D1*
X1394329Y2520268D1*
X1397287Y2531302D1*
X1332886Y2548911D1*
G37*
G36*
X1361256Y2629349D2*
X1354911Y2619852D1*
X1418235Y2577538D1*
X1424581Y2587035D1*
X1361256Y2629349D1*
G37*
G36*
X1421982Y2691462D2*
X1412917Y2684507D1*
X1459282Y2624085D1*
X1468345Y2631039D1*
X1421982Y2691462D1*
G37*
G36*
X1499449Y2730757D2*
X1488629Y2727085D1*
X1513110Y2654967D1*
X1523929Y2658639D1*
X1499449Y2730757D1*
G37*
G36*
X1585434Y2743068D2*
X1574010D1*
Y2666908D1*
X1585434D1*
Y2743068D1*
G37*
G36*
X1670816Y2727085D2*
X1659997Y2730757D1*
X1635516Y2658639D1*
X1646335Y2654967D1*
X1670816Y2727085D1*
G37*
G36*
X1745340Y2687697D2*
X1737463Y2691462D1*
X1691100Y2631039D1*
X1700163Y2624085D1*
X1745340Y2687697D1*
G37*
G36*
X1804534Y2619852D2*
X1798189Y2629349D1*
X1734864Y2587038D1*
X1741209Y2577538D1*
X1804534Y2619852D1*
G37*
G36*
X1838681Y2539980D2*
X1835723Y2551014D1*
X1762157Y2531302D1*
X1765115Y2520268D1*
X1838681Y2539980D1*
G37*
G36*
X1845340Y2453373D2*
X1846088Y2464772D1*
X1770089Y2469753D1*
X1769343Y2458353D1*
X1845340Y2453373D1*
G37*
G36*
X1823810Y2369220D2*
X1828180Y2379774D1*
X1757818Y2408920D1*
X1753445Y2398364D1*
X1823810Y2369220D1*
G37*
G36*
X1776369Y2296454D2*
X1783900Y2305043D1*
X1726642Y2355260D1*
X1719108Y2346669D1*
X1776369Y2296454D1*
G37*
G36*
X1708056Y2242801D2*
X1717950Y2248510D1*
X1679870Y2314469D1*
X1669976Y2308757D1*
X1708056Y2242801D1*
G37*
G36*
X532705Y4872253D2*
Y4860642D1*
X590102Y4864602D1*
X589356Y4876004D1*
X532705Y4872253D1*
G37*
G36*
X532886Y4955161D2*
X532806Y4943073D1*
X594329Y4926517D1*
X597287Y4937552D1*
X532886Y4955161D1*
G37*
G36*
X561256Y5035600D2*
X554911Y5026102D1*
X618235Y4983789D1*
X624581Y4993286D1*
X561256Y5035600D1*
G37*
G36*
X621982Y5097711D2*
X612917Y5090756D1*
X659282Y5030336D1*
X668345Y5037289D1*
X621982Y5097711D1*
G37*
G36*
X699449Y5137008D2*
X688629Y5133335D1*
X713110Y5061218D1*
X723929Y5064890D1*
X699449Y5137008D1*
G37*
G36*
X785434Y5149319D2*
X774010D1*
Y5073157D1*
X785434D1*
Y5149319D1*
G37*
G36*
X870816Y5133335D2*
X859997Y5137008D1*
X835516Y5064890D1*
X846335Y5061218D1*
X870816Y5133335D1*
G37*
G36*
X946528Y5090756D2*
X937463Y5097711D1*
X891100Y5037289D1*
X900163Y5030336D1*
X946528Y5090756D1*
G37*
G36*
X1004534Y5026102D2*
X998189Y5035600D1*
X934864Y4993287D1*
X941209Y4983789D1*
X1004534Y5026102D1*
G37*
G36*
X1038681Y4946230D2*
X1035723Y4957265D1*
X962157Y4937552D1*
X965115Y4926517D1*
X1038681Y4946230D1*
G37*
G36*
X1045340Y4859623D2*
X1046088Y4871022D1*
X970089Y4876004D1*
X969343Y4864602D1*
X1045340Y4859623D1*
G37*
G36*
X1023810Y4775471D2*
X1028180Y4786024D1*
X957818Y4815169D1*
X953445Y4804614D1*
X1023810Y4775471D1*
G37*
G36*
X976369Y4702703D2*
X983900Y4711294D1*
X926642Y4761509D1*
X919108Y4752920D1*
X976369Y4702703D1*
G37*
G36*
X908056Y4649051D2*
X917950Y4654761D1*
X879870Y4720719D1*
X869976Y4715007D1*
X908056Y4649051D1*
G37*
G36*
X641495Y4048510D2*
X651388Y4042801D1*
X689469Y4108757D1*
X679575Y4114469D1*
X641495Y4048510D1*
G37*
G36*
X575545Y4105043D2*
X583076Y4096455D1*
X640337Y4146669D1*
X632806Y4155260D1*
X575545Y4105043D1*
G37*
G36*
X532732Y4180332D2*
X535636Y4169220D1*
X606000Y4198364D1*
X601627Y4208920D1*
X532732Y4180332D1*
G37*
G36*
X532705Y4266003D2*
Y4254392D1*
X590102Y4258353D1*
X589356Y4269753D1*
X532705Y4266003D1*
G37*
G36*
X532886Y4348911D2*
X532806Y4336824D1*
X594329Y4320268D1*
X597287Y4331302D1*
X532886Y4348911D1*
G37*
G36*
X561256Y4429349D2*
X554911Y4419852D1*
X618235Y4377538D1*
X624581Y4387035D1*
X561256Y4429349D1*
G37*
G36*
X621982Y4491462D2*
X612917Y4484507D1*
X659282Y4424085D1*
X668345Y4431039D1*
X621982Y4491462D1*
G37*
G36*
X699449Y4530757D2*
X688629Y4527085D1*
X713110Y4454967D1*
X723929Y4458639D1*
X699449Y4530757D1*
G37*
G36*
X785434Y4543068D2*
X774010D1*
Y4466908D1*
X785434D1*
Y4543068D1*
G37*
G36*
X870816Y4527085D2*
X859997Y4530757D1*
X835516Y4458639D1*
X846335Y4454967D1*
X870816Y4527085D1*
G37*
G36*
X946528Y4484507D2*
X937463Y4491462D1*
X891100Y4431039D1*
X900163Y4424085D1*
X946528Y4484507D1*
G37*
G36*
X1004534Y4419852D2*
X998189Y4429349D1*
X934864Y4387038D1*
X941209Y4377538D1*
X1004534Y4419852D1*
G37*
G36*
X1038681Y4339980D2*
X1035723Y4351014D1*
X962157Y4331302D1*
X965115Y4320268D1*
X1038681Y4339980D1*
G37*
G36*
X1045340Y4253373D2*
X1046088Y4264772D1*
X970089Y4269753D1*
X969343Y4258353D1*
X1045340Y4253373D1*
G37*
G36*
X1023810Y4169220D2*
X1028180Y4179774D1*
X957818Y4208920D1*
X953445Y4198364D1*
X1023810Y4169220D1*
G37*
G36*
X976369Y4096454D2*
X983900Y4105043D1*
X926642Y4155260D1*
X919108Y4146669D1*
X976369Y4096454D1*
G37*
G36*
X908056Y4042801D2*
X917950Y4048510D1*
X879870Y4114469D1*
X869976Y4108757D1*
X908056Y4042801D1*
G37*
G36*
X647744Y3448510D2*
X657638Y3442801D1*
X695718Y3508757D1*
X685824Y3514469D1*
X647744Y3448510D1*
G37*
G36*
X581794Y3505043D2*
X589327Y3496455D1*
X646587Y3546669D1*
X639055Y3555260D1*
X581794Y3505043D1*
G37*
G36*
X538983Y3580332D2*
X541887Y3569220D1*
X612249Y3598364D1*
X607878Y3608920D1*
X538983Y3580332D1*
G37*
G36*
X538955Y3666003D2*
Y3654392D1*
X596352Y3658353D1*
X595605Y3669753D1*
X538955Y3666003D1*
G37*
G36*
X539135Y3748911D2*
X539056Y3736824D1*
X600580Y3720268D1*
X603537Y3731302D1*
X539135Y3748911D1*
G37*
G36*
X567507Y3829349D2*
X561160Y3819852D1*
X624486Y3777538D1*
X630832Y3787035D1*
X567507Y3829349D1*
G37*
G36*
X628231Y3891462D2*
X619168Y3884507D1*
X665531Y3824085D1*
X674594Y3831039D1*
X628231Y3891462D1*
G37*
G36*
X705698Y3930757D2*
X694879Y3927085D1*
X719361Y3854967D1*
X730178Y3858639D1*
X705698Y3930757D1*
G37*
G36*
X791685Y3943068D2*
X780260D1*
Y3866908D1*
X791685D1*
Y3943068D1*
G37*
G36*
X877066Y3927085D2*
X866248Y3930757D1*
X841766Y3858639D1*
X852584Y3854967D1*
X877066Y3927085D1*
G37*
G36*
X952777Y3884507D2*
X943714Y3891462D1*
X897350Y3831039D1*
X906413Y3824085D1*
X952777Y3884507D1*
G37*
G36*
X1010785Y3819852D2*
X1004438Y3829349D1*
X941113Y3787038D1*
X947459Y3777538D1*
X1010785Y3819852D1*
G37*
G36*
X1044930Y3739980D2*
X1041974Y3751014D1*
X968408Y3731302D1*
X971365Y3720268D1*
X1044930Y3739980D1*
G37*
G36*
X1051591Y3653373D2*
X1052339Y3664772D1*
X976340Y3669753D1*
X975593Y3658353D1*
X1051591Y3653373D1*
G37*
G36*
X1030059Y3569220D2*
X1034430Y3579774D1*
X964067Y3608920D1*
X959696Y3598364D1*
X1030059Y3569220D1*
G37*
G36*
X982618Y3496454D2*
X990151Y3505043D1*
X932891Y3555260D1*
X925358Y3546669D1*
X982618Y3496454D1*
G37*
G36*
X914307Y3442801D2*
X924201Y3448510D1*
X886121Y3514469D1*
X876227Y3508757D1*
X914307Y3442801D1*
G37*
G36*
X647744Y2854761D2*
X657638Y2849051D1*
X695718Y2915007D1*
X685824Y2920719D1*
X647744Y2854761D1*
G37*
G36*
X581794Y2911294D2*
X589327Y2902706D1*
X646587Y2952920D1*
X639055Y2961509D1*
X581794Y2911294D1*
G37*
G36*
X538983Y2986581D2*
X541887Y2975471D1*
X612249Y3004614D1*
X607878Y3015169D1*
X538983Y2986581D1*
G37*
G36*
X538955Y3072253D2*
Y3060642D1*
X596352Y3064602D1*
X595605Y3076004D1*
X538955Y3072253D1*
G37*
G36*
X539135Y3155161D2*
X539056Y3143073D1*
X600580Y3126517D1*
X603537Y3137552D1*
X539135Y3155161D1*
G37*
G36*
X567507Y3235600D2*
X561160Y3226102D1*
X624486Y3183789D1*
X630832Y3193286D1*
X567507Y3235600D1*
G37*
G36*
X628231Y3297711D2*
X619168Y3290756D1*
X665531Y3230336D1*
X674594Y3237289D1*
X628231Y3297711D1*
G37*
G36*
X705698Y3337008D2*
X694879Y3333336D1*
X719361Y3261218D1*
X730178Y3264890D1*
X705698Y3337008D1*
G37*
G36*
X791685Y3349319D2*
X780260D1*
Y3273157D1*
X791685D1*
Y3349319D1*
G37*
G36*
X877066Y3333336D2*
X866248Y3337008D1*
X841766Y3264890D1*
X852584Y3261218D1*
X877066Y3333336D1*
G37*
G36*
X952777Y3290756D2*
X943714Y3297711D1*
X897350Y3237289D1*
X906413Y3230336D1*
X952777Y3290756D1*
G37*
G36*
X1010785Y3226102D2*
X1004438Y3235600D1*
X941113Y3193287D1*
X947459Y3183789D1*
X1010785Y3226102D1*
G37*
G36*
X1044930Y3146230D2*
X1041974Y3157265D1*
X968408Y3137552D1*
X971365Y3126517D1*
X1044930Y3146230D1*
G37*
G36*
X1051591Y3059623D2*
X1052339Y3071022D1*
X976340Y3076004D1*
X975593Y3064602D1*
X1051591Y3059623D1*
G37*
G36*
X1030059Y2975471D2*
X1034430Y2986024D1*
X964067Y3015169D1*
X959696Y3004614D1*
X1030059Y2975471D1*
G37*
G36*
X982618Y2902703D2*
X990151Y2911294D1*
X932891Y2961509D1*
X925358Y2952920D1*
X982618Y2902703D1*
G37*
G36*
X914307Y2849051D2*
X924201Y2854761D1*
X886121Y2920719D1*
X876227Y2915007D1*
X914307Y2849051D1*
G37*
G36*
X641495Y2254761D2*
X651388Y2249051D1*
X689469Y2315007D1*
X679575Y2320719D1*
X641495Y2254761D1*
G37*
G36*
X575545Y2311294D2*
X583076Y2302706D1*
X640337Y2352920D1*
X632806Y2361509D1*
X575545Y2311294D1*
G37*
G36*
X532732Y2386581D2*
X535636Y2375471D1*
X606000Y2404614D1*
X601627Y2415169D1*
X532732Y2386581D1*
G37*
G36*
X532705Y2472253D2*
Y2460642D1*
X590102Y2464602D1*
X589356Y2476004D1*
X532705Y2472253D1*
G37*
G36*
X532886Y2555161D2*
X532806Y2543073D1*
X594329Y2526517D1*
X597287Y2537552D1*
X532886Y2555161D1*
G37*
G36*
X561256Y2635600D2*
X554911Y2626102D1*
X618235Y2583789D1*
X624581Y2593286D1*
X561256Y2635600D1*
G37*
G36*
X621982Y2697711D2*
X612917Y2690756D1*
X659282Y2630336D1*
X668345Y2637289D1*
X621982Y2697711D1*
G37*
G36*
X699449Y2737008D2*
X688629Y2733336D1*
X713110Y2661218D1*
X723929Y2664890D1*
X699449Y2737008D1*
G37*
G36*
X785434Y2749319D2*
X774010D1*
Y2673157D1*
X785434D1*
Y2749319D1*
G37*
G36*
X870816Y2733336D2*
X859997Y2737008D1*
X835516Y2664890D1*
X846335Y2661218D1*
X870816Y2733336D1*
G37*
G36*
X946528Y2690756D2*
X937463Y2697711D1*
X891100Y2637289D1*
X900163Y2630336D1*
X946528Y2690756D1*
G37*
G36*
X1004534Y2626102D2*
X998189Y2635600D1*
X934864Y2593287D1*
X941209Y2583789D1*
X1004534Y2626102D1*
G37*
G36*
X1038681Y2546230D2*
X1035723Y2557265D1*
X962157Y2537552D1*
X965115Y2526517D1*
X1038681Y2546230D1*
G37*
G36*
X1045340Y2459623D2*
X1046088Y2471022D1*
X970089Y2476004D1*
X969343Y2464602D1*
X1045340Y2459623D1*
G37*
G36*
X1023810Y2375471D2*
X1028180Y2386024D1*
X957818Y2415169D1*
X953445Y2404614D1*
X1023810Y2375471D1*
G37*
G36*
X976369Y2302703D2*
X983900Y2311294D1*
X926642Y2361509D1*
X919108Y2352920D1*
X976369Y2302703D1*
G37*
G36*
X908056Y2249051D2*
X917950Y2254761D1*
X879870Y2320719D1*
X869976Y2315007D1*
X908056Y2249051D1*
G37*
X1169866Y5390428D2*
D12*
X1177866D1*
X1169866Y5389428D2*
X1178328D1*
X1169866Y5388428D2*
X1178615D1*
X1169866Y5387428D2*
X1178760D1*
X1169866Y5386428D2*
X1178825D1*
X1169866Y5385428D2*
X1178851D1*
X1169866Y5384428D2*
X1178861D1*
X1017866Y5383428D2*
X1083866D1*
X1169866D2*
X1178864D1*
X1333866D2*
X1342866D1*
X1361866D2*
X1370866D1*
X1017866Y5382428D2*
X1083866D1*
X1169866D2*
X1178866D1*
X1333866D2*
X1342866D1*
X1361866D2*
X1370866D1*
X1017866Y5381428D2*
X1083866D1*
X1169866D2*
X1178866D1*
X1333866D2*
X1342866D1*
X1361866D2*
X1370866D1*
X1017866Y5380428D2*
X1083866D1*
X1169866D2*
X1178866D1*
X1333866D2*
X1342866D1*
X1361866D2*
X1370866D1*
X1017866Y5379428D2*
X1083866D1*
X1169866D2*
X1178866D1*
X1333866D2*
X1342866D1*
X1361866D2*
X1370866D1*
X1017866Y5378428D2*
X1083866D1*
X1095866D2*
X1104866D1*
X1169866D2*
X1178866D1*
X1333866D2*
X1342866D1*
X1361866D2*
X1370866D1*
X1017866Y5377428D2*
X1083866D1*
X1095405D2*
X1105670D1*
X1169866D2*
X1178866D1*
X1333866D2*
X1342866D1*
X1361866D2*
X1370866D1*
X1017866Y5376428D2*
X1083866D1*
X1095117D2*
X1106254D1*
X1169866D2*
X1178866D1*
X1333866D2*
X1342866D1*
X1361866D2*
X1370866D1*
X1017866Y5375428D2*
X1083866D1*
X1094972D2*
X1106589D1*
X1169866D2*
X1178866D1*
X1333866D2*
X1342866D1*
X1361866D2*
X1370866D1*
X1017866Y5374428D2*
X1083866D1*
X1094908D2*
X1106752D1*
X1169866D2*
X1178866D1*
X1333866D2*
X1342866D1*
X1361866D2*
X1370866D1*
X1045866Y5373428D2*
X1054866D1*
X1094881D2*
X1106822D1*
X1169866D2*
X1178866D1*
X1333866D2*
X1342866D1*
X1361866D2*
X1370866D1*
X1045866Y5372428D2*
X1054866D1*
X1094872D2*
X1106850D1*
X1169866D2*
X1178866D1*
X1333866D2*
X1342866D1*
X1361866D2*
X1370866D1*
X1045866Y5371428D2*
X1054866D1*
X1094868D2*
X1106860D1*
X1169866D2*
X1178866D1*
X1333866D2*
X1342866D1*
X1361866D2*
X1370866D1*
X1045866Y5370428D2*
X1054866D1*
X1094867D2*
X1106860D1*
X1169866D2*
X1178866D1*
X1333866D2*
X1342866D1*
X1361866D2*
X1370866D1*
X1045866Y5369428D2*
X1054866D1*
X1094874D2*
X1106823D1*
X1169866D2*
X1178866D1*
X1333866D2*
X1342866D1*
X1361866D2*
X1370866D1*
X1045866Y5368428D2*
X1054866D1*
X1094950D2*
X1106657D1*
X1169866D2*
X1178866D1*
X1333866D2*
X1342866D1*
X1361866D2*
X1370866D1*
X1045866Y5367428D2*
X1054866D1*
X1095132D2*
X1106254D1*
X1169866D2*
X1178866D1*
X1333866D2*
X1342866D1*
X1361866D2*
X1370866D1*
X1045866Y5366428D2*
X1054866D1*
X1095911D2*
X1105615D1*
X1169866D2*
X1178866D1*
X1333866D2*
X1342866D1*
X1361866D2*
X1370866D1*
X1045866Y5365428D2*
X1054866D1*
X1096866D2*
X1104866D1*
X1169866D2*
X1178866D1*
X1333866D2*
X1342866D1*
X1361866D2*
X1370866D1*
X1045866Y5364428D2*
X1054866D1*
X1169866D2*
X1178866D1*
X1333866D2*
X1342866D1*
X1361866D2*
X1370866D1*
X1045866Y5363428D2*
X1054866D1*
X1169866D2*
X1178866D1*
X1333866D2*
X1342866D1*
X1361866D2*
X1370866D1*
X1045866Y5362428D2*
X1054866D1*
X1169866D2*
X1178866D1*
X1333866D2*
X1342866D1*
X1361866D2*
X1370866D1*
X1045866Y5361428D2*
X1054866D1*
X1169866D2*
X1178866D1*
X1333866D2*
X1342866D1*
X1361866D2*
X1370866D1*
X1045866Y5360428D2*
X1054866D1*
X1169866D2*
X1178866D1*
X1333866D2*
X1342866D1*
X1361866D2*
X1370866D1*
X1045866Y5359428D2*
X1054866D1*
X1169866D2*
X1178866D1*
X1333866D2*
X1342866D1*
X1361866D2*
X1370866D1*
X1045866Y5358428D2*
X1054866D1*
X1169866D2*
X1178866D1*
X1333866D2*
X1342866D1*
X1361866D2*
X1370866D1*
X1045866Y5357428D2*
X1054866D1*
X1137866D2*
X1150866D1*
X1169866D2*
X1178866D1*
X1218866D2*
X1228866D1*
X1274866D2*
X1288866D1*
X1333866D2*
X1342866D1*
X1361866D2*
X1370866D1*
X946866Y5356428D2*
X955866D1*
X993866D2*
X1002866D1*
X1045866D2*
X1054866D1*
X1095866D2*
X1104866D1*
X1135447D2*
X1155713D1*
X1169858D2*
X1178866D1*
X1213297D2*
X1233974D1*
X1271985D2*
X1303866D1*
X1333866D2*
X1342866D1*
X1361866D2*
X1370866D1*
X946866Y5355428D2*
X955866D1*
X993866D2*
X1002866D1*
X1045866D2*
X1054866D1*
X1095866D2*
X1104866D1*
X1133327D2*
X1160030D1*
X1169782D2*
X1178866D1*
X1209028D2*
X1237956D1*
X1269578D2*
X1312866D1*
X1333866D2*
X1342866D1*
X1361866D2*
X1370866D1*
X946866Y5354428D2*
X955866D1*
X993866D2*
X1002866D1*
X1045866D2*
X1054866D1*
X1095866D2*
X1104866D1*
X1131587D2*
X1163825D1*
X1169601D2*
X1178866D1*
X1205988D2*
X1240851D1*
X1267697D2*
X1312866D1*
X1333866D2*
X1342866D1*
X1361866D2*
X1370866D1*
X946866Y5353428D2*
X955866D1*
X993866D2*
X1002866D1*
X1045866D2*
X1054866D1*
X1095866D2*
X1104866D1*
X1130185D2*
X1167363D1*
X1168821D2*
X1178866D1*
X1203844D2*
X1242925D1*
X1266266D2*
X1312866D1*
X1333866D2*
X1342866D1*
X1361866D2*
X1370866D1*
X946866Y5352428D2*
X955866D1*
X993866D2*
X1002866D1*
X1045866D2*
X1054866D1*
X1095866D2*
X1104866D1*
X1129000D2*
X1178866D1*
X1202280D2*
X1244429D1*
X1265182D2*
X1312866D1*
X1333866D2*
X1342866D1*
X1361866D2*
X1370866D1*
X946866Y5351428D2*
X955866D1*
X993866D2*
X1002866D1*
X1045866D2*
X1054866D1*
X1095866D2*
X1104866D1*
X1127955D2*
X1178866D1*
X1201033D2*
X1245538D1*
X1264366D2*
X1312866D1*
X1333866D2*
X1342866D1*
X1361866D2*
X1370866D1*
X946866Y5350428D2*
X955866D1*
X993866D2*
X1002866D1*
X1045866D2*
X1054866D1*
X1095866D2*
X1104866D1*
X1127055D2*
X1178866D1*
X1199966D2*
X1246362D1*
X1263719D2*
X1312866D1*
X1333866D2*
X1342866D1*
X1361866D2*
X1370866D1*
X946866Y5349428D2*
X955866D1*
X993866D2*
X1002866D1*
X1045866D2*
X1054866D1*
X1095866D2*
X1104866D1*
X1126318D2*
X1178866D1*
X1199058D2*
X1247012D1*
X1263159D2*
X1312866D1*
X1333866D2*
X1342866D1*
X1361866D2*
X1370866D1*
X946866Y5348428D2*
X955866D1*
X993866D2*
X1002866D1*
X1045866D2*
X1054866D1*
X1095866D2*
X1104866D1*
X1125701D2*
X1178866D1*
X1198319D2*
X1247573D1*
X1262670D2*
X1312866D1*
X1333866D2*
X1342866D1*
X1361866D2*
X1370866D1*
X946866Y5347428D2*
X955866D1*
X993866D2*
X1002866D1*
X1045866D2*
X1054866D1*
X1095866D2*
X1104866D1*
X1125153D2*
X1138067D1*
X1156419D2*
X1178866D1*
X1197701D2*
X1215498D1*
X1231431D2*
X1248062D1*
X1262291D2*
X1274105D1*
X1333866D2*
X1342866D1*
X1361866D2*
X1370866D1*
X946866Y5346428D2*
X955866D1*
X993866D2*
X1002866D1*
X1045866D2*
X1054866D1*
X1095866D2*
X1104866D1*
X1124664D2*
X1136517D1*
X1161305D2*
X1178866D1*
X1197153D2*
X1211914D1*
X1234430D2*
X1248445D1*
X1262063D2*
X1272687D1*
X1333866D2*
X1342866D1*
X1361866D2*
X1370866D1*
X946866Y5345428D2*
X955866D1*
X993866D2*
X1002866D1*
X1045866D2*
X1054866D1*
X1095866D2*
X1104866D1*
X1124251D2*
X1135309D1*
X1165069D2*
X1178866D1*
X1196668D2*
X1209351D1*
X1236658D2*
X1248708D1*
X1261949D2*
X1271597D1*
X1333866D2*
X1342866D1*
X1361866D2*
X1370866D1*
X946866Y5344428D2*
X955866D1*
X993866D2*
X1002866D1*
X1045866D2*
X1054866D1*
X1095866D2*
X1104866D1*
X1123897D2*
X1134390D1*
X1167938D2*
X1178866D1*
X1196287D2*
X1207654D1*
X1238189D2*
X1248950D1*
X1261899D2*
X1271180D1*
X1333866D2*
X1342866D1*
X1361866D2*
X1370866D1*
X946866Y5343428D2*
X955866D1*
X993866D2*
X1002866D1*
X1045866D2*
X1054866D1*
X1095866D2*
X1104866D1*
X1123543D2*
X1133616D1*
X1169107D2*
X1178866D1*
X1196024D2*
X1206523D1*
X1239214D2*
X1249240D1*
X1261878D2*
X1270849D1*
X1333866D2*
X1342866D1*
X1361866D2*
X1370866D1*
X946866Y5342428D2*
X955866D1*
X993866D2*
X1002866D1*
X1045866D2*
X1054866D1*
X1095866D2*
X1104866D1*
X1123232D2*
X1132925D1*
X1169515D2*
X1178866D1*
X1195783D2*
X1205664D1*
X1239918D2*
X1249517D1*
X1261870D2*
X1270518D1*
X1333866D2*
X1342866D1*
X1361866D2*
X1370866D1*
X946866Y5341428D2*
X955866D1*
X993866D2*
X1002866D1*
X1045866D2*
X1054866D1*
X1095866D2*
X1104866D1*
X1123002D2*
X1132378D1*
X1169723D2*
X1178866D1*
X1195493D2*
X1204946D1*
X1240386D2*
X1249699D1*
X1261868D2*
X1270225D1*
X1333866D2*
X1342866D1*
X1361866D2*
X1370866D1*
X946866Y5340428D2*
X955866D1*
X993866D2*
X1002866D1*
X1045866D2*
X1054866D1*
X1095866D2*
X1104866D1*
X1122774D2*
X1131951D1*
X1169812D2*
X1178866D1*
X1195216D2*
X1204419D1*
X1240649D2*
X1249794D1*
X1261867D2*
X1270037D1*
X1333866D2*
X1342866D1*
X1361866D2*
X1370866D1*
X946866Y5339428D2*
X955866D1*
X993866D2*
X1002866D1*
X1045866D2*
X1054866D1*
X1095866D2*
X1104866D1*
X1122490D2*
X1131565D1*
X1169847D2*
X1178866D1*
X1195034D2*
X1204081D1*
X1240776D2*
X1249838D1*
X1261866D2*
X1269939D1*
X1333866D2*
X1342866D1*
X1361866D2*
X1370866D1*
X946866Y5338428D2*
X955866D1*
X993866D2*
X1002866D1*
X1045866D2*
X1054866D1*
X1095866D2*
X1104866D1*
X1122215D2*
X1131244D1*
X1169860D2*
X1178866D1*
X1194934D2*
X1203805D1*
X1240831D2*
X1249855D1*
X1261866D2*
X1269895D1*
X1333866D2*
X1342866D1*
X1361866D2*
X1370866D1*
X946866Y5337428D2*
X955866D1*
X993866D2*
X1002866D1*
X1045866D2*
X1054866D1*
X1095866D2*
X1104866D1*
X1122029D2*
X1131040D1*
X1169864D2*
X1178866D1*
X1194856D2*
X1203501D1*
X1240853D2*
X1249862D1*
X1261866D2*
X1269877D1*
X1333866D2*
X1342866D1*
X1361866D2*
X1370866D1*
X946866Y5336428D2*
X955866D1*
X993866D2*
X1002866D1*
X1045866D2*
X1054866D1*
X1095866D2*
X1104866D1*
X1121899D2*
X1130903D1*
X1169865D2*
X1178866D1*
X1194710D2*
X1203219D1*
X1240862D2*
X1249865D1*
X1261866D2*
X1269874D1*
X1333866D2*
X1342866D1*
X1361866D2*
X1370866D1*
X946866Y5335428D2*
X955866D1*
X993866D2*
X1002866D1*
X1045866D2*
X1054866D1*
X1095866D2*
X1104866D1*
X1121728D2*
X1130729D1*
X1169866D2*
X1178866D1*
X1194464D2*
X1203035D1*
X1240865D2*
X1249866D1*
X1261866D2*
X1269907D1*
X1333866D2*
X1342866D1*
X1361866D2*
X1370866D1*
X946866Y5334428D2*
X955866D1*
X993866D2*
X1002866D1*
X1045866D2*
X1054866D1*
X1095866D2*
X1104866D1*
X1121471D2*
X1130471D1*
X1169866D2*
X1178866D1*
X1194205D2*
X1202938D1*
X1240866D2*
X1249866D1*
X1261866D2*
X1270033D1*
X1333866D2*
X1342866D1*
X1361866D2*
X1370866D1*
X946866Y5333428D2*
X955866D1*
X993866D2*
X1002866D1*
X1045866D2*
X1054866D1*
X1095866D2*
X1104866D1*
X1121208D2*
X1130208D1*
X1169866D2*
X1178866D1*
X1194030D2*
X1202895D1*
X1240866D2*
X1249866D1*
X1261866D2*
X1270272D1*
X1333866D2*
X1342866D1*
X1361866D2*
X1370866D1*
X946866Y5332428D2*
X955866D1*
X993866D2*
X1002866D1*
X1045866D2*
X1054866D1*
X1095866D2*
X1104866D1*
X1121031D2*
X1130031D1*
X1169866D2*
X1178866D1*
X1193937D2*
X1202877D1*
X1240862D2*
X1249866D1*
X1261866D2*
X1270532D1*
X1333866D2*
X1342866D1*
X1361866D2*
X1370866D1*
X946866Y5331428D2*
X955866D1*
X993866D2*
X1002866D1*
X1045866D2*
X1054866D1*
X1095866D2*
X1104866D1*
X1120937D2*
X1129937D1*
X1169866D2*
X1178866D1*
X1193894D2*
X1202870D1*
X1240823D2*
X1249866D1*
X1261866D2*
X1270750D1*
X1333866D2*
X1342866D1*
X1361866D2*
X1370866D1*
X946866Y5330428D2*
X955866D1*
X993866D2*
X1002866D1*
X1045866D2*
X1054866D1*
X1095866D2*
X1104866D1*
X1120894D2*
X1129894D1*
X1169866D2*
X1178866D1*
X1193877D2*
X1202867D1*
X1240645D2*
X1249866D1*
X1261866D2*
X1271048D1*
X1333866D2*
X1342866D1*
X1361866D2*
X1370866D1*
X946866Y5329428D2*
X955866D1*
X993866D2*
X1002866D1*
X1045866D2*
X1054866D1*
X1095866D2*
X1104866D1*
X1120877D2*
X1129877D1*
X1169866D2*
X1178866D1*
X1193870D2*
X1202867D1*
X1240298D2*
X1249862D1*
X1261870D2*
X1271506D1*
X1333866D2*
X1342866D1*
X1361866D2*
X1370866D1*
X946866Y5328428D2*
X955866D1*
X993866D2*
X1002866D1*
X1045866D2*
X1054866D1*
X1095866D2*
X1104866D1*
X1120870D2*
X1129870D1*
X1169866D2*
X1178866D1*
X1193867D2*
X1202866D1*
X1239005D2*
X1249827D1*
X1261905D2*
X1272705D1*
X1333866D2*
X1342866D1*
X1361866D2*
X1370866D1*
X946866Y5327428D2*
X955866D1*
X993866D2*
X1002866D1*
X1045866D2*
X1054866D1*
X1095866D2*
X1104866D1*
X1120867D2*
X1129867D1*
X1169866D2*
X1178866D1*
X1193867D2*
X1202866D1*
X1236928D2*
X1249696D1*
X1262037D2*
X1274210D1*
X1333866D2*
X1342866D1*
X1361866D2*
X1370866D1*
X946866Y5326428D2*
X955866D1*
X993866D2*
X1002866D1*
X1045866D2*
X1054866D1*
X1095866D2*
X1104866D1*
X1120867D2*
X1129867D1*
X1169866D2*
X1178866D1*
X1193866D2*
X1202866D1*
X1234074D2*
X1249421D1*
X1262311D2*
X1302866D1*
X1333866D2*
X1342866D1*
X1361866D2*
X1370866D1*
X946866Y5325428D2*
X955866D1*
X993866D2*
X1002866D1*
X1045866D2*
X1054866D1*
X1095866D2*
X1104866D1*
X1120866D2*
X1129866D1*
X1169866D2*
X1178866D1*
X1193866D2*
X1249033D1*
X1262699D2*
X1305747D1*
X1333866D2*
X1342866D1*
X1361866D2*
X1370866D1*
X946866Y5324428D2*
X955866D1*
X993866D2*
X1002866D1*
X1045866D2*
X1054866D1*
X1095866D2*
X1104866D1*
X1120866D2*
X1129866D1*
X1169866D2*
X1178866D1*
X1193866D2*
X1248580D1*
X1263152D2*
X1308155D1*
X1333866D2*
X1342866D1*
X1361866D2*
X1370866D1*
X946866Y5323428D2*
X955866D1*
X993866D2*
X1002866D1*
X1045866D2*
X1054866D1*
X1095866D2*
X1104866D1*
X1120866D2*
X1129866D1*
X1169866D2*
X1178866D1*
X1193866D2*
X1248061D1*
X1263668D2*
X1310035D1*
X1333866D2*
X1342866D1*
X1361866D2*
X1370866D1*
X946866Y5322428D2*
X955866D1*
X993866D2*
X1002866D1*
X1045866D2*
X1054866D1*
X1095866D2*
X1104866D1*
X1120866D2*
X1129866D1*
X1169866D2*
X1178866D1*
X1193866D2*
X1247399D1*
X1264298D2*
X1311466D1*
X1333866D2*
X1342866D1*
X1361866D2*
X1370866D1*
X946866Y5321428D2*
X955866D1*
X993866D2*
X1002866D1*
X1045866D2*
X1054866D1*
X1095866D2*
X1104866D1*
X1120866D2*
X1129866D1*
X1169866D2*
X1178866D1*
X1193866D2*
X1246460D1*
X1265149D2*
X1312550D1*
X1333866D2*
X1342866D1*
X1361866D2*
X1370866D1*
X946866Y5320428D2*
X955866D1*
X993866D2*
X1002866D1*
X1045866D2*
X1054866D1*
X1095866D2*
X1104866D1*
X1120866D2*
X1129866D1*
X1169866D2*
X1178866D1*
X1193866D2*
X1245168D1*
X1266367D2*
X1313366D1*
X1333866D2*
X1342866D1*
X1361866D2*
X1370866D1*
X946866Y5319428D2*
X955866D1*
X993866D2*
X1002866D1*
X1045866D2*
X1054866D1*
X1095866D2*
X1104866D1*
X1120866D2*
X1129866D1*
X1169866D2*
X1178866D1*
X1193866D2*
X1243557D1*
X1268122D2*
X1314013D1*
X1333866D2*
X1342866D1*
X1361866D2*
X1370866D1*
X946866Y5318428D2*
X955866D1*
X993866D2*
X1002866D1*
X1045866D2*
X1054866D1*
X1095866D2*
X1104866D1*
X1120866D2*
X1129866D1*
X1169866D2*
X1178866D1*
X1193866D2*
X1241749D1*
X1270380D2*
X1314573D1*
X1333866D2*
X1342866D1*
X1361866D2*
X1370866D1*
X946866Y5317428D2*
X955866D1*
X993866D2*
X1002866D1*
X1045866D2*
X1054866D1*
X1095866D2*
X1104866D1*
X1120866D2*
X1129866D1*
X1169866D2*
X1178866D1*
X1193866D2*
X1239866D1*
X1272866D2*
X1315066D1*
X1333866D2*
X1342866D1*
X1361866D2*
X1370866D1*
X946866Y5316428D2*
X955866D1*
X993866D2*
X1002866D1*
X1045866D2*
X1054866D1*
X1095866D2*
X1104866D1*
X1120866D2*
X1129866D1*
X1169866D2*
X1178866D1*
X1193866D2*
X1202866D1*
X1303632D2*
X1315480D1*
X1333866D2*
X1342866D1*
X1361866D2*
X1370866D1*
X946866Y5315428D2*
X955866D1*
X993866D2*
X1002866D1*
X1045866D2*
X1054866D1*
X1095866D2*
X1104866D1*
X1120866D2*
X1129866D1*
X1169866D2*
X1178866D1*
X1193866D2*
X1202866D1*
X1305084D2*
X1315835D1*
X1333866D2*
X1342866D1*
X1361866D2*
X1370866D1*
X946866Y5314428D2*
X955866D1*
X993866D2*
X1002866D1*
X1045866D2*
X1054866D1*
X1095866D2*
X1104866D1*
X1120870D2*
X1129870D1*
X1169866D2*
X1178866D1*
X1193866D2*
X1202866D1*
X1306140D2*
X1316189D1*
X1333866D2*
X1342866D1*
X1361866D2*
X1370866D1*
X946866Y5313428D2*
X955866D1*
X993866D2*
X1002866D1*
X1045866D2*
X1054866D1*
X1095866D2*
X1104866D1*
X1120905D2*
X1129905D1*
X1169866D2*
X1178866D1*
X1193866D2*
X1202866D1*
X1306880D2*
X1316496D1*
X1333866D2*
X1342866D1*
X1361866D2*
X1370866D1*
X946866Y5312428D2*
X955866D1*
X993866D2*
X1002866D1*
X1045866D2*
X1054866D1*
X1095866D2*
X1104866D1*
X1121033D2*
X1130033D1*
X1169866D2*
X1178866D1*
X1193870D2*
X1202866D1*
X1307370D2*
X1316691D1*
X1333866D2*
X1342866D1*
X1361866D2*
X1370866D1*
X946866Y5311428D2*
X955866D1*
X993866D2*
X1002866D1*
X1045866D2*
X1054866D1*
X1095866D2*
X1104866D1*
X1121272D2*
X1130272D1*
X1169866D2*
X1178866D1*
X1193905D2*
X1202866D1*
X1307643D2*
X1316791D1*
X1333866D2*
X1342866D1*
X1361866D2*
X1370866D1*
X946866Y5310428D2*
X955866D1*
X993866D2*
X1002866D1*
X1045866D2*
X1054866D1*
X1095866D2*
X1104866D1*
X1121529D2*
X1130532D1*
X1169866D2*
X1178866D1*
X1194033D2*
X1202866D1*
X1307774D2*
X1316837D1*
X1333866D2*
X1342866D1*
X1361866D2*
X1370866D1*
X946866Y5309428D2*
X955866D1*
X993866D2*
X1002866D1*
X1045866D2*
X1054866D1*
X1095866D2*
X1104866D1*
X1121707D2*
X1130742D1*
X1169866D2*
X1178866D1*
X1194272D2*
X1202870D1*
X1307830D2*
X1316855D1*
X1333866D2*
X1342866D1*
X1361866D2*
X1370866D1*
X946866Y5308428D2*
X955866D1*
X993866D2*
X1002866D1*
X1045866D2*
X1054866D1*
X1095866D2*
X1104866D1*
X1121835D2*
X1130962D1*
X1169866D2*
X1178866D1*
X1194529D2*
X1202905D1*
X1307853D2*
X1316862D1*
X1333866D2*
X1342866D1*
X1361866D2*
X1370866D1*
X946866Y5307428D2*
X955866D1*
X993866D2*
X1002866D1*
X1045866D2*
X1054866D1*
X1095866D2*
X1104866D1*
X1122005D2*
X1131248D1*
X1169866D2*
X1178866D1*
X1194703D2*
X1203033D1*
X1307862D2*
X1316865D1*
X1333866D2*
X1342866D1*
X1361866D2*
X1370866D1*
X946866Y5306428D2*
X955870D1*
X993862D2*
X1002866D1*
X1045866D2*
X1054866D1*
X1095866D2*
X1104866D1*
X1122266D2*
X1131557D1*
X1169866D2*
X1178866D1*
X1194800D2*
X1203272D1*
X1307865D2*
X1316866D1*
X1333866D2*
X1342866D1*
X1361866D2*
X1370866D1*
X946870Y5305428D2*
X955905D1*
X993819D2*
X1002866D1*
X1045866D2*
X1054866D1*
X1095866D2*
X1104866D1*
X1122564D2*
X1131870D1*
X1169858D2*
X1178866D1*
X1194877D2*
X1203532D1*
X1307866D2*
X1316866D1*
X1333866D2*
X1342866D1*
X1361866D2*
X1370866D1*
X946905Y5304428D2*
X956037D1*
X993714D2*
X1002866D1*
X1045866D2*
X1054866D1*
X1095866D2*
X1104866D1*
X1122868D2*
X1132239D1*
X1169780D2*
X1178866D1*
X1195022D2*
X1203742D1*
X1307866D2*
X1316866D1*
X1333866D2*
X1342866D1*
X1361866D2*
X1370866D1*
X947033Y5303428D2*
X956311D1*
X993208D2*
X1002866D1*
X1045866D2*
X1054866D1*
X1095866D2*
X1104866D1*
X1123205D2*
X1132670D1*
X1169593D2*
X1178866D1*
X1195268D2*
X1203966D1*
X1307862D2*
X1316866D1*
X1333866D2*
X1342866D1*
X1361866D2*
X1370866D1*
X947276Y5302428D2*
X956699D1*
X992011D2*
X1002866D1*
X1045866D2*
X1054866D1*
X1095866D2*
X1104866D1*
X1123539D2*
X1133141D1*
X1168630D2*
X1178866D1*
X1195531D2*
X1204287D1*
X1307827D2*
X1316866D1*
X1333866D2*
X1342866D1*
X1361866D2*
X1370866D1*
X947568Y5301428D2*
X957156D1*
X990441D2*
X1002866D1*
X1045866D2*
X1054866D1*
X1095866D2*
X1104866D1*
X1123859D2*
X1133664D1*
X1167106D2*
X1178866D1*
X1195742D2*
X1204731D1*
X1307696D2*
X1316862D1*
X1333866D2*
X1342866D1*
X1361866D2*
X1370866D1*
X947873Y5300428D2*
X957711D1*
X988496D2*
X1002866D1*
X1045866D2*
X1054866D1*
X1095866D2*
X1104866D1*
X1124202D2*
X1134297D1*
X1164977D2*
X1178866D1*
X1195962D2*
X1205362D1*
X1307409D2*
X1316827D1*
X1333866D2*
X1342866D1*
X1361866D2*
X1370866D1*
X948241Y5299428D2*
X958500D1*
X986148D2*
X1002866D1*
X1045866D2*
X1054866D1*
X1095866D2*
X1104866D1*
X1124538D2*
X1135188D1*
X1162209D2*
X1178866D1*
X1196248D2*
X1206325D1*
X1306908D2*
X1316700D1*
X1333866D2*
X1342866D1*
X1361866D2*
X1370866D1*
X948671Y5298428D2*
X959678D1*
X983357D2*
X1002866D1*
X1045866D2*
X1054866D1*
X1095866D2*
X1104866D1*
X1124862D2*
X1136353D1*
X1158475D2*
X1178866D1*
X1196557D2*
X1207777D1*
X1306204D2*
X1316460D1*
X1333866D2*
X1342866D1*
X1361866D2*
X1370866D1*
X949141Y5297428D2*
X961226D1*
X980133D2*
X1002866D1*
X1045866D2*
X1054866D1*
X1095866D2*
X1104866D1*
X1125241D2*
X1139979D1*
X1152957D2*
X1178866D1*
X1196870D2*
X1209788D1*
X1304488D2*
X1316200D1*
X1333866D2*
X1342866D1*
X1361866D2*
X1370866D1*
X949664Y5296428D2*
X963002D1*
X976571D2*
X1002866D1*
X1045866D2*
X1054866D1*
X1095866D2*
X1104866D1*
X1125709D2*
X1145737D1*
X1145106D2*
X1178866D1*
X1197243D2*
X1212235D1*
X1238866D2*
X1248866D1*
X1302297D2*
X1315990D1*
X1333866D2*
X1342866D1*
X1361866D2*
X1370866D1*
X950289Y5295428D2*
X1002866D1*
X1045866D2*
X1054866D1*
X1095866D2*
X1104866D1*
X1126307D2*
X1178866D1*
X1197710D2*
X1248866D1*
X1263866D2*
X1315766D1*
X1333866D2*
X1342866D1*
X1361866D2*
X1370866D1*
X951063Y5294428D2*
X991670D1*
X994904D2*
X1002866D1*
X1045866D2*
X1054866D1*
X1095866D2*
X1104866D1*
X1127070D2*
X1178866D1*
X1198308D2*
X1248866D1*
X1263866D2*
X1315445D1*
X1333866D2*
X1342866D1*
X1361866D2*
X1370866D1*
X951949Y5293428D2*
X990254D1*
X995032D2*
X1002866D1*
X1045866D2*
X1054866D1*
X1095866D2*
X1104866D1*
X1127951D2*
X1166828D1*
X1169674D2*
X1178866D1*
X1199070D2*
X1248858D1*
X1263866D2*
X1315005D1*
X1333866D2*
X1342866D1*
X1361866D2*
X1370866D1*
X952899Y5292428D2*
X988589D1*
X995276D2*
X1002866D1*
X1045866D2*
X1054866D1*
X1095866D2*
X1104866D1*
X1128903D2*
X1164696D1*
X1170294D2*
X1178866D1*
X1199955D2*
X1248772D1*
X1263882D2*
X1314414D1*
X1333866D2*
X1342866D1*
X1361866D2*
X1370866D1*
X953882Y5291428D2*
X986752D1*
X995568D2*
X1002866D1*
X1045866D2*
X1054866D1*
X1095866D2*
X1104866D1*
X1129921D2*
X1162417D1*
X1170756D2*
X1178866D1*
X1200946D2*
X1248561D1*
X1263964D2*
X1313617D1*
X1333866D2*
X1342866D1*
X1361866D2*
X1370866D1*
X954917Y5290428D2*
X984814D1*
X995870D2*
X1002866D1*
X1045866D2*
X1054866D1*
X1095866D2*
X1104866D1*
X1131088D2*
X1159986D1*
X1171158D2*
X1178866D1*
X1202139D2*
X1247503D1*
X1264116D2*
X1312559D1*
X1333866D2*
X1342866D1*
X1361866D2*
X1370866D1*
X956119Y5289428D2*
X982766D1*
X996211D2*
X1002866D1*
X1045866D2*
X1054866D1*
X1095866D2*
X1104866D1*
X1132567D2*
X1157330D1*
X1171487D2*
X1178866D1*
X1203779D2*
X1244603D1*
X1267227D2*
X1311091D1*
X1333866D2*
X1342866D1*
X1361866D2*
X1370866D1*
X957675Y5288428D2*
X980467D1*
X996553D2*
X1002866D1*
X1045866D2*
X1054866D1*
X1095866D2*
X1104866D1*
X1134536D2*
X1154267D1*
X1171706D2*
X1178866D1*
X1206149D2*
X1240563D1*
X1272023D2*
X1308987D1*
X1333866D2*
X1342866D1*
X1361866D2*
X1370866D1*
X959656Y5287428D2*
X977788D1*
X996866D2*
X1002866D1*
X1045866D2*
X1054866D1*
X1095866D2*
X1104866D1*
X1137049D2*
X1150710D1*
X1171866D2*
X1178866D1*
X1209300D2*
X1235866D1*
X1277866D2*
X1306141D1*
X1333866D2*
X1342866D1*
X1361866D2*
X1370866D1*
X961866Y5286428D2*
X974866D1*
X1139866D2*
X1146866D1*
X1212866D2*
X1223866D1*
X1293866D2*
X1302866D1*
X1042841Y568948D2*
X1050841D1*
X1198841D2*
X1206841D1*
X1042841Y567948D2*
X1050841D1*
X1198841D2*
X1206841D1*
X1042841Y566948D2*
X1050841D1*
X1198841D2*
X1206841D1*
X1042841Y565948D2*
X1050841D1*
X1198841D2*
X1206841D1*
X1042841Y564948D2*
X1050841D1*
X1198841D2*
X1206841D1*
X1042841Y563948D2*
X1050841D1*
X1198841D2*
X1206841D1*
X959841Y562948D2*
X966841D1*
X1042841D2*
X1050841D1*
X1130841D2*
X1168841D1*
X1198841D2*
X1206841D1*
X959841Y561948D2*
X966841D1*
X1042841D2*
X1050841D1*
X1130841D2*
X1172184D1*
X1198841D2*
X1206841D1*
X959841Y560948D2*
X966841D1*
X1042841D2*
X1050841D1*
X1130841D2*
X1174878D1*
X1198841D2*
X1206841D1*
X959841Y559948D2*
X966841D1*
X1042841D2*
X1050841D1*
X1130841D2*
X1176908D1*
X1198841D2*
X1206841D1*
X959841Y558948D2*
X966841D1*
X1042841D2*
X1050841D1*
X1130841D2*
X1178435D1*
X1198841D2*
X1206841D1*
X959841Y557948D2*
X966841D1*
X1042841D2*
X1050841D1*
X1130841D2*
X1179642D1*
X1198841D2*
X1206841D1*
X959841Y556948D2*
X966841D1*
X1042841D2*
X1050841D1*
X1130841D2*
X1180610D1*
X1198841D2*
X1206841D1*
X959841Y555948D2*
X966841D1*
X1042841D2*
X1050841D1*
X1130841D2*
X1181374D1*
X1198841D2*
X1206841D1*
X959841Y554948D2*
X966841D1*
X1042841D2*
X1050841D1*
X1130841D2*
X1182001D1*
X1198841D2*
X1206841D1*
X959841Y553948D2*
X966841D1*
X1042841D2*
X1050841D1*
X1130841D2*
X1138841D1*
X1169799D2*
X1182557D1*
X1198841D2*
X1206841D1*
X959841Y552948D2*
X966841D1*
X1042841D2*
X1050841D1*
X1130841D2*
X1138841D1*
X1171628D2*
X1183078D1*
X1198841D2*
X1206841D1*
X959841Y551948D2*
X966841D1*
X1042841D2*
X1050841D1*
X1130841D2*
X1138841D1*
X1173187D2*
X1183583D1*
X1198841D2*
X1206841D1*
X959841Y550948D2*
X966841D1*
X1042841D2*
X1050841D1*
X1130841D2*
X1138841D1*
X1174393D2*
X1184050D1*
X1198841D2*
X1206841D1*
X959841Y549948D2*
X966841D1*
X1042841D2*
X1050841D1*
X1130841D2*
X1138841D1*
X1175278D2*
X1184425D1*
X1198841D2*
X1206841D1*
X959841Y548948D2*
X966841D1*
X1042841D2*
X1050841D1*
X1130841D2*
X1138841D1*
X1175925D2*
X1184685D1*
X1198841D2*
X1206841D1*
X959841Y547948D2*
X966841D1*
X1042841D2*
X1050841D1*
X1130841D2*
X1138841D1*
X1176377D2*
X1184925D1*
X1198841D2*
X1206841D1*
X959841Y546948D2*
X966841D1*
X1042841D2*
X1050841D1*
X1130841D2*
X1138841D1*
X1176667D2*
X1185215D1*
X1198841D2*
X1206841D1*
X959841Y545948D2*
X966841D1*
X1042841D2*
X1050841D1*
X1130841D2*
X1138841D1*
X1176919D2*
X1185492D1*
X1198841D2*
X1206841D1*
X959841Y544948D2*
X966841D1*
X1042841D2*
X1050841D1*
X1130841D2*
X1138841D1*
X1177213D2*
X1185674D1*
X1198841D2*
X1206841D1*
X959841Y543948D2*
X966841D1*
X1042841D2*
X1050841D1*
X1130841D2*
X1138841D1*
X1177491D2*
X1185769D1*
X1198841D2*
X1206841D1*
X959841Y542948D2*
X966841D1*
X1042841D2*
X1050841D1*
X1130841D2*
X1138841D1*
X1177674D2*
X1185813D1*
X1198841D2*
X1206841D1*
X959841Y541948D2*
X966841D1*
X1042841D2*
X1050841D1*
X1130841D2*
X1138841D1*
X1177769D2*
X1185831D1*
X1198841D2*
X1206841D1*
X959841Y540948D2*
X966841D1*
X1042841D2*
X1050841D1*
X1130841D2*
X1138841D1*
X1177813D2*
X1185837D1*
X1198841D2*
X1206841D1*
X959841Y539948D2*
X966841D1*
X996841D2*
X1017841D1*
X1042841D2*
X1050841D1*
X1130841D2*
X1138841D1*
X1177831D2*
X1185840D1*
X1198841D2*
X1206841D1*
X959841Y538948D2*
X966841D1*
X991437D2*
X1019799D1*
X1042841D2*
X1050841D1*
X1079841D2*
X1090841D1*
X1130841D2*
X1138841D1*
X1177837D2*
X1185841D1*
X1198841D2*
X1206841D1*
X1232841D2*
X1240841D1*
X1274841D2*
X1282841D1*
X1309841D2*
X1352841D1*
X1374841D2*
X1417841D1*
X959841Y537948D2*
X966841D1*
X987195D2*
X1021628D1*
X1042841D2*
X1050841D1*
X1078687D2*
X1089841D1*
X1130841D2*
X1138841D1*
X1177840D2*
X1185841D1*
X1198841D2*
X1206841D1*
X1232841D2*
X1240841D1*
X1274841D2*
X1282841D1*
X1307883D2*
X1352841D1*
X1372883D2*
X1417841D1*
X959841Y536948D2*
X966841D1*
X983971D2*
X1023187D1*
X1042841D2*
X1050841D1*
X1077439D2*
X1088841D1*
X1130841D2*
X1138841D1*
X1177841D2*
X1185841D1*
X1198841D2*
X1206841D1*
X1232841D2*
X1240841D1*
X1274841D2*
X1282841D1*
X1306050D2*
X1352837D1*
X1371050D2*
X1417837D1*
X959841Y535948D2*
X966841D1*
X982675D2*
X1024397D1*
X1042841D2*
X1050841D1*
X1076180D2*
X1087841D1*
X1130841D2*
X1138841D1*
X1177841D2*
X1185841D1*
X1198841D2*
X1206841D1*
X1232841D2*
X1240841D1*
X1274841D2*
X1282841D1*
X1304461D2*
X1352783D1*
X1369461D2*
X1417783D1*
X959841Y534948D2*
X966841D1*
X982226D2*
X1025317D1*
X1042841D2*
X1050841D1*
X1075005D2*
X1086841D1*
X1130841D2*
X1138841D1*
X1177841D2*
X1185841D1*
X1198841D2*
X1206841D1*
X1232841D2*
X1240841D1*
X1274841D2*
X1282841D1*
X1303158D2*
X1352642D1*
X1368158D2*
X1417642D1*
X959841Y533948D2*
X966841D1*
X981997D2*
X1026092D1*
X1042841D2*
X1050841D1*
X1073912D2*
X1085841D1*
X1130841D2*
X1138841D1*
X1177841D2*
X1185841D1*
X1198841D2*
X1206841D1*
X1232841D2*
X1240841D1*
X1274841D2*
X1282841D1*
X1302122D2*
X1351804D1*
X1367122D2*
X1416804D1*
X959841Y532948D2*
X966841D1*
X981897D2*
X1026783D1*
X1042841D2*
X1050841D1*
X1072869D2*
X1084837D1*
X1130841D2*
X1138841D1*
X1177837D2*
X1185837D1*
X1198841D2*
X1206841D1*
X1232841D2*
X1240841D1*
X1274841D2*
X1282841D1*
X1301295D2*
X1349726D1*
X1366295D2*
X1414726D1*
X959841Y531948D2*
X966841D1*
X981841D2*
X997841D1*
X1014444D2*
X1027330D1*
X1042841D2*
X1050841D1*
X1071852D2*
X1083802D1*
X1130841D2*
X1138841D1*
X1177802D2*
X1185802D1*
X1198841D2*
X1206841D1*
X1232841D2*
X1240841D1*
X1274841D2*
X1282841D1*
X1300563D2*
X1347453D1*
X1365563D2*
X1412453D1*
X959841Y530948D2*
X966841D1*
X1016579D2*
X1027756D1*
X1042841D2*
X1050841D1*
X1070845D2*
X1082675D1*
X1130841D2*
X1138841D1*
X1177675D2*
X1185675D1*
X1198841D2*
X1206841D1*
X1232841D2*
X1240841D1*
X1274841D2*
X1282841D1*
X1299889D2*
X1314431D1*
X1330565D2*
X1345499D1*
X1364889D2*
X1379431D1*
X1395565D2*
X1410499D1*
X959841Y529948D2*
X966841D1*
X1018117D2*
X1028142D1*
X1042841D2*
X1050841D1*
X1069842D2*
X1081435D1*
X1130841D2*
X1138841D1*
X1177431D2*
X1185435D1*
X1198841D2*
X1206841D1*
X1232841D2*
X1240841D1*
X1274841D2*
X1282841D1*
X1299349D2*
X1311676D1*
X1332854D2*
X1343841D1*
X1364349D2*
X1376676D1*
X1397854D2*
X1408841D1*
X959841Y528948D2*
X966841D1*
X1019163D2*
X1028463D1*
X1042841D2*
X1050841D1*
X1068842D2*
X1080179D1*
X1130841D2*
X1138841D1*
X1177140D2*
X1185175D1*
X1198841D2*
X1206841D1*
X1232841D2*
X1240841D1*
X1274841D2*
X1282841D1*
X1298925D2*
X1309675D1*
X1334539D2*
X1344457D1*
X1363925D2*
X1374675D1*
X1399539D2*
X1409457D1*
X959841Y527948D2*
X966841D1*
X1019881D2*
X1028663D1*
X1042841D2*
X1050841D1*
X1067841D2*
X1079004D1*
X1130841D2*
X1138841D1*
X1176834D2*
X1184965D1*
X1198841D2*
X1206841D1*
X1232841D2*
X1240841D1*
X1274841D2*
X1282841D1*
X1298536D2*
X1308227D1*
X1335744D2*
X1344996D1*
X1363536D2*
X1373227D1*
X1400744D2*
X1409996D1*
X959841Y526948D2*
X966841D1*
X1020357D2*
X1028765D1*
X1042841D2*
X1050841D1*
X1066841D2*
X1077912D1*
X1130841D2*
X1138841D1*
X1176463D2*
X1184745D1*
X1198841D2*
X1206841D1*
X1232841D2*
X1240841D1*
X1274841D2*
X1282841D1*
X1298180D2*
X1307179D1*
X1336640D2*
X1345436D1*
X1363180D2*
X1372179D1*
X1401640D2*
X1410436D1*
X959841Y525948D2*
X966841D1*
X1020626D2*
X1028811D1*
X1042841D2*
X1050841D1*
X1065837D2*
X1076869D1*
X1130841D2*
X1138841D1*
X1175993D2*
X1184459D1*
X1198841D2*
X1206841D1*
X1232841D2*
X1240841D1*
X1274841D2*
X1282841D1*
X1297853D2*
X1306466D1*
X1337275D2*
X1345803D1*
X1362853D2*
X1371466D1*
X1402275D2*
X1410803D1*
X959841Y524948D2*
X966841D1*
X1020790D2*
X1028830D1*
X1042841D2*
X1050841D1*
X1064802D2*
X1075852D1*
X1130841D2*
X1138841D1*
X1175356D2*
X1184150D1*
X1198841D2*
X1206841D1*
X1232841D2*
X1240841D1*
X1274841D2*
X1282841D1*
X1297511D2*
X1305970D1*
X1337736D2*
X1346161D1*
X1362511D2*
X1370970D1*
X1402736D2*
X1411161D1*
X959841Y523948D2*
X966841D1*
X1020973D2*
X1028837D1*
X1042841D2*
X1050841D1*
X1063675D2*
X1074845D1*
X1130841D2*
X1138841D1*
X1174428D2*
X1183838D1*
X1198841D2*
X1206841D1*
X1232841D2*
X1240841D1*
X1274841D2*
X1282841D1*
X1297209D2*
X1305556D1*
X1338135D2*
X1346470D1*
X1362209D2*
X1370556D1*
X1403135D2*
X1411470D1*
X959841Y522948D2*
X966841D1*
X1021234D2*
X1028840D1*
X1042841D2*
X1050841D1*
X1062435D2*
X1073842D1*
X1130841D2*
X1138841D1*
X1173144D2*
X1183468D1*
X1198841D2*
X1206841D1*
X1232841D2*
X1240841D1*
X1274841D2*
X1282841D1*
X1297015D2*
X1305225D1*
X1338461D2*
X1346666D1*
X1362015D2*
X1370225D1*
X1403461D2*
X1411666D1*
X959841Y521948D2*
X966841D1*
X1021499D2*
X1028841D1*
X1042841D2*
X1050841D1*
X1061179D2*
X1072842D1*
X1130841D2*
X1138841D1*
X1171559D2*
X1183037D1*
X1198841D2*
X1206841D1*
X1232841D2*
X1240841D1*
X1274841D2*
X1282841D1*
X1296916D2*
X1305021D1*
X1338662D2*
X1346766D1*
X1361916D2*
X1370021D1*
X1403662D2*
X1411766D1*
X959841Y520948D2*
X966841D1*
X1021673D2*
X1028841D1*
X1042841D2*
X1050841D1*
X1059985D2*
X1071841D1*
X1130841D2*
X1182566D1*
X1198841D2*
X1206841D1*
X1232841D2*
X1240841D1*
X1274841D2*
X1282841D1*
X1296871D2*
X1304918D1*
X1338765D2*
X1346812D1*
X1361871D2*
X1369918D1*
X1403765D2*
X1411812D1*
X959841Y519948D2*
X966841D1*
X1021731D2*
X1028841D1*
X1042841D2*
X1050841D1*
X1058702D2*
X1070841D1*
X1130841D2*
X1182044D1*
X1198841D2*
X1206841D1*
X1232841D2*
X1240841D1*
X1274841D2*
X1282841D1*
X1296852D2*
X1304871D1*
X1338811D2*
X1346830D1*
X1361852D2*
X1369871D1*
X1403811D2*
X1411830D1*
X959841Y518948D2*
X966841D1*
X1021646D2*
X1028841D1*
X1042841D2*
X1050841D1*
X1056887D2*
X1069841D1*
X1130841D2*
X1181414D1*
X1198841D2*
X1206841D1*
X1232841D2*
X1240841D1*
X1274841D2*
X1282841D1*
X1296845D2*
X1304852D1*
X1338830D2*
X1346837D1*
X1361845D2*
X1369852D1*
X1403830D2*
X1411837D1*
X959841Y517948D2*
X966841D1*
X1021425D2*
X1028841D1*
X1042841D2*
X1050841D1*
X1054159D2*
X1068841D1*
X1130841D2*
X1180602D1*
X1198841D2*
X1206841D1*
X1232841D2*
X1240841D1*
X1274841D2*
X1282841D1*
X1296843D2*
X1304845D1*
X1338837D2*
X1346840D1*
X1361843D2*
X1369845D1*
X1403837D2*
X1411840D1*
X959841Y516948D2*
X966841D1*
X1021175D2*
X1028841D1*
X1042841D2*
X1067841D1*
X1130841D2*
X1179549D1*
X1198841D2*
X1206841D1*
X1232841D2*
X1240841D1*
X1274841D2*
X1282841D1*
X1296842D2*
X1304843D1*
X1338840D2*
X1346841D1*
X1361842D2*
X1369843D1*
X1403840D2*
X1411841D1*
X959841Y515948D2*
X966841D1*
X1021002D2*
X1028841D1*
X1042841D2*
X1066841D1*
X1130841D2*
X1178193D1*
X1198841D2*
X1206841D1*
X1232841D2*
X1240841D1*
X1274841D2*
X1282841D1*
X1296841D2*
X1304846D1*
X1338841D2*
X1346837D1*
X1361841D2*
X1369846D1*
X1403841D2*
X1411837D1*
X959841Y514948D2*
X966841D1*
X1020905D2*
X1028841D1*
X1042841D2*
X1065841D1*
X1130841D2*
X1176552D1*
X1198841D2*
X1206841D1*
X1232841D2*
X1240841D1*
X1274841D2*
X1282841D1*
X1296845D2*
X1304880D1*
X1338837D2*
X1346802D1*
X1361845D2*
X1369880D1*
X1403837D2*
X1411802D1*
X959841Y513948D2*
X966841D1*
X988841D2*
X1028841D1*
X1042841D2*
X1064841D1*
X1130841D2*
X1138841D1*
X1144841D2*
X1174731D1*
X1198841D2*
X1206841D1*
X1232841D2*
X1240841D1*
X1274841D2*
X1282841D1*
X1296880D2*
X1305008D1*
X1338802D2*
X1346675D1*
X1361880D2*
X1370008D1*
X1403802D2*
X1411675D1*
X959841Y512948D2*
X966841D1*
X987229D2*
X1028841D1*
X1042841D2*
X1063841D1*
X1130841D2*
X1138841D1*
X1155841D2*
X1172841D1*
X1198841D2*
X1206841D1*
X1232841D2*
X1240841D1*
X1274841D2*
X1282841D1*
X1297008D2*
X1305251D1*
X1338671D2*
X1346435D1*
X1362008D2*
X1370251D1*
X1403671D2*
X1411435D1*
X959841Y511948D2*
X966841D1*
X985729D2*
X1028841D1*
X1042841D2*
X1064687D1*
X1130841D2*
X1138841D1*
X1198841D2*
X1206841D1*
X1232841D2*
X1240841D1*
X1274841D2*
X1282841D1*
X1297247D2*
X1305543D1*
X1338396D2*
X1346175D1*
X1362247D2*
X1370543D1*
X1403396D2*
X1411175D1*
X959841Y510948D2*
X966841D1*
X984452D2*
X1028841D1*
X1042841D2*
X1065439D1*
X1130841D2*
X1138841D1*
X1198841D2*
X1206841D1*
X1232841D2*
X1240841D1*
X1274841D2*
X1282841D1*
X1297508D2*
X1305848D1*
X1338008D2*
X1345965D1*
X1362508D2*
X1370848D1*
X1403008D2*
X1410965D1*
X959841Y509948D2*
X966841D1*
X983456D2*
X1028841D1*
X1042841D2*
X1066180D1*
X1130841D2*
X1138841D1*
X1198841D2*
X1206841D1*
X1232841D2*
X1240841D1*
X1274841D2*
X1282841D1*
X1297717D2*
X1306220D1*
X1337555D2*
X1345745D1*
X1362717D2*
X1371220D1*
X1402555D2*
X1410745D1*
X959841Y508948D2*
X966841D1*
X982632D2*
X1028841D1*
X1042841D2*
X1067001D1*
X1130841D2*
X1138841D1*
X1198841D2*
X1206841D1*
X1232841D2*
X1240841D1*
X1274841D2*
X1282841D1*
X1297941D2*
X1306685D1*
X1337040D2*
X1345459D1*
X1362941D2*
X1371685D1*
X1402040D2*
X1410459D1*
X959841Y507948D2*
X966841D1*
X981917D2*
X1018841D1*
X1020841D2*
X1028841D1*
X1042841D2*
X1050841D1*
X1056837D2*
X1067873D1*
X1130841D2*
X1138841D1*
X1198841D2*
X1206841D1*
X1232841D2*
X1240841D1*
X1274841D2*
X1282841D1*
X1298258D2*
X1307291D1*
X1336409D2*
X1345150D1*
X1363258D2*
X1372291D1*
X1401409D2*
X1410150D1*
X959841Y506948D2*
X966841D1*
X981360D2*
X1004841D1*
X1020841D2*
X1028841D1*
X1042841D2*
X1050841D1*
X1057802D2*
X1068703D1*
X1130841D2*
X1138841D1*
X1198841D2*
X1206841D1*
X1232841D2*
X1240841D1*
X1274841D2*
X1282841D1*
X1298664D2*
X1308131D1*
X1335558D2*
X1344838D1*
X1363664D2*
X1373131D1*
X1400558D2*
X1409838D1*
X959841Y505948D2*
X966841D1*
X980929D2*
X993038D1*
X1020841D2*
X1028841D1*
X1042841D2*
X1050841D1*
X1058675D2*
X1069446D1*
X1130841D2*
X1138841D1*
X1198841D2*
X1206841D1*
X1232841D2*
X1240841D1*
X1274841D2*
X1282841D1*
X1299123D2*
X1309345D1*
X1334340D2*
X1344468D1*
X1364123D2*
X1374345D1*
X1399340D2*
X1409468D1*
X959841Y504948D2*
X966841D1*
X980541D2*
X991457D1*
X1020841D2*
X1028841D1*
X1042841D2*
X1050841D1*
X1059435D2*
X1070179D1*
X1130841D2*
X1138841D1*
X1198841D2*
X1206841D1*
X1232841D2*
X1240841D1*
X1274841D2*
X1282841D1*
X1299641D2*
X1311098D1*
X1332585D2*
X1344037D1*
X1364641D2*
X1376098D1*
X1397585D2*
X1409037D1*
X959841Y503948D2*
X966841D1*
X980220D2*
X990161D1*
X1020841D2*
X1028841D1*
X1042841D2*
X1050841D1*
X1060179D2*
X1070967D1*
X1130841D2*
X1138841D1*
X1198841D2*
X1206841D1*
X1232841D2*
X1240841D1*
X1274841D2*
X1282841D1*
X1300265D2*
X1313355D1*
X1330328D2*
X1343566D1*
X1365265D2*
X1378355D1*
X1395328D2*
X1408566D1*
X959841Y502948D2*
X966841D1*
X980019D2*
X989165D1*
X1020841D2*
X1028841D1*
X1042841D2*
X1050841D1*
X1061000D2*
X1071746D1*
X1130841D2*
X1138841D1*
X1198841D2*
X1206841D1*
X1232841D2*
X1240841D1*
X1274841D2*
X1282841D1*
X1301037D2*
X1343044D1*
X1366037D2*
X1408044D1*
X959841Y501948D2*
X966841D1*
X979917D2*
X988389D1*
X1020841D2*
X1028841D1*
X1042841D2*
X1050841D1*
X1061873D2*
X1072463D1*
X1130841D2*
X1138841D1*
X1198841D2*
X1206841D1*
X1232841D2*
X1240841D1*
X1274841D2*
X1282841D1*
X1301917D2*
X1342418D1*
X1366917D2*
X1407418D1*
X959841Y500948D2*
X966841D1*
X979871D2*
X988107D1*
X1020841D2*
X1028841D1*
X1042841D2*
X1050841D1*
X1062703D2*
X1073185D1*
X1130841D2*
X1138841D1*
X1198841D2*
X1206841D1*
X1232841D2*
X1240841D1*
X1274841D2*
X1282841D1*
X1302841D2*
X1341641D1*
X1367841D2*
X1406641D1*
X959841Y499948D2*
X966841D1*
X979852D2*
X987955D1*
X1020841D2*
X1028841D1*
X1042841D2*
X1050841D1*
X1063446D2*
X1073969D1*
X1130841D2*
X1138841D1*
X1198841D2*
X1206841D1*
X1232841D2*
X1240841D1*
X1274841D2*
X1282841D1*
X1301537D2*
X1340715D1*
X1366537D2*
X1405715D1*
X959841Y498948D2*
X966841D1*
X979845D2*
X987886D1*
X1020841D2*
X1028841D1*
X1042841D2*
X1050841D1*
X1064183D2*
X1074746D1*
X1130841D2*
X1138841D1*
X1198841D2*
X1206841D1*
X1232841D2*
X1240841D1*
X1274841D2*
X1282841D1*
X1300372D2*
X1339588D1*
X1365372D2*
X1404588D1*
X959837Y497948D2*
X966841D1*
X979843D2*
X987858D1*
X1020841D2*
X1028841D1*
X1042841D2*
X1050841D1*
X1065002D2*
X1075464D1*
X1130841D2*
X1138841D1*
X1198845D2*
X1206841D1*
X1232841D2*
X1240841D1*
X1274841D2*
X1282841D1*
X1299457D2*
X1338088D1*
X1364457D2*
X1403088D1*
X959802Y496948D2*
X966841D1*
X979842D2*
X987847D1*
X1020841D2*
X1028841D1*
X1042841D2*
X1050841D1*
X1065873D2*
X1076189D1*
X1130841D2*
X1138841D1*
X1198880D2*
X1206845D1*
X1232841D2*
X1240841D1*
X1274841D2*
X1282841D1*
X1298747D2*
X1335971D1*
X1363747D2*
X1400971D1*
X959675Y495948D2*
X966841D1*
X979841D2*
X987843D1*
X1020841D2*
X1028841D1*
X1042841D2*
X1050841D1*
X1066703D2*
X1077004D1*
X1130841D2*
X1138841D1*
X1199008D2*
X1206880D1*
X1232841D2*
X1240841D1*
X1274841D2*
X1282841D1*
X1298156D2*
X1333119D1*
X1363156D2*
X1398119D1*
X959435Y494948D2*
X966841D1*
X979841D2*
X987842D1*
X1020837D2*
X1028841D1*
X1042841D2*
X1050841D1*
X1067446D2*
X1077874D1*
X1130841D2*
X1138841D1*
X1199247D2*
X1207008D1*
X1232845D2*
X1240845D1*
X1274837D2*
X1282841D1*
X1297653D2*
X1329841D1*
X1362653D2*
X1394841D1*
X959175Y493948D2*
X966841D1*
X979841D2*
X987841D1*
X1020790D2*
X1028841D1*
X1042841D2*
X1050841D1*
X1068183D2*
X1078703D1*
X1130841D2*
X1138841D1*
X1199504D2*
X1207251D1*
X1232880D2*
X1240880D1*
X1274794D2*
X1282841D1*
X1297269D2*
X1306038D1*
X1362269D2*
X1371038D1*
X958965Y492948D2*
X966841D1*
X979841D2*
X987841D1*
X1020673D2*
X1028841D1*
X1042841D2*
X1050841D1*
X1069002D2*
X1079446D1*
X1130841D2*
X1138841D1*
X1199678D2*
X1207543D1*
X1233008D2*
X1241012D1*
X1274689D2*
X1282841D1*
X1297039D2*
X1305453D1*
X1362039D2*
X1370453D1*
X958741Y491948D2*
X966841D1*
X979841D2*
X987845D1*
X1020046D2*
X1028841D1*
X1042841D2*
X1050841D1*
X1069873D2*
X1080179D1*
X1130841D2*
X1138841D1*
X1199775D2*
X1207848D1*
X1233251D2*
X1241290D1*
X1274167D2*
X1282841D1*
X1296925D2*
X1305126D1*
X1361925D2*
X1370126D1*
X958424Y490948D2*
X966837D1*
X979845D2*
X987884D1*
X1018350D2*
X1028841D1*
X1042841D2*
X1050841D1*
X1070703D2*
X1080967D1*
X1130841D2*
X1138841D1*
X1199852D2*
X1208224D1*
X1233543D2*
X1241713D1*
X1272825D2*
X1282841D1*
X1296874D2*
X1304949D1*
X1361874D2*
X1369949D1*
X958015Y489948D2*
X966802D1*
X979880D2*
X988051D1*
X1015973D2*
X1028841D1*
X1042841D2*
X1050841D1*
X1071446D2*
X1081746D1*
X1130841D2*
X1138841D1*
X1199997D2*
X1208732D1*
X1233848D2*
X1242297D1*
X1271008D2*
X1282841D1*
X1296857D2*
X1305141D1*
X1361857D2*
X1370141D1*
X957516Y488948D2*
X966675D1*
X980008D2*
X988363D1*
X1012878D2*
X1028841D1*
X1042841D2*
X1050841D1*
X1072183D2*
X1082463D1*
X1130841D2*
X1138841D1*
X1200247D2*
X1209377D1*
X1234216D2*
X1243092D1*
X1268770D2*
X1282841D1*
X1296885D2*
X1306040D1*
X1361885D2*
X1371040D1*
X956796Y487948D2*
X966431D1*
X980251D2*
X989191D1*
X1008873D2*
X1028841D1*
X1042841D2*
X1050841D1*
X1073002D2*
X1083189D1*
X1130841D2*
X1138841D1*
X1200541D2*
X1210872D1*
X1234646D2*
X1244137D1*
X1266120D2*
X1282841D1*
X1297013D2*
X1307339D1*
X1362013D2*
X1372339D1*
X955808Y486948D2*
X966140D1*
X980547D2*
X991648D1*
X1003309D2*
X1028841D1*
X1042841D2*
X1050841D1*
X1073873D2*
X1084004D1*
X1130841D2*
X1138841D1*
X1200848D2*
X1213007D1*
X1235116D2*
X1245487D1*
X1263001D2*
X1282841D1*
X1297287D2*
X1338841D1*
X1362287D2*
X1403841D1*
X952696Y485948D2*
X965834D1*
X980884D2*
X995709D1*
X995690D2*
X1028841D1*
X1042841D2*
X1050841D1*
X1074703D2*
X1084874D1*
X1130841D2*
X1138841D1*
X1201220D2*
X1215747D1*
X1235639D2*
X1247104D1*
X1259503D2*
X1282841D1*
X1297678D2*
X1340915D1*
X1362678D2*
X1405915D1*
X937841Y484948D2*
X942841D1*
X947838D2*
X965463D1*
X981347D2*
X1028841D1*
X1042841D2*
X1050841D1*
X1075446D2*
X1085703D1*
X1130841D2*
X1138841D1*
X1201685D2*
X1218618D1*
X1236264D2*
X1282841D1*
X1298162D2*
X1342702D1*
X1363162D2*
X1407702D1*
X937691Y483948D2*
X964997D1*
X981925D2*
X1019034D1*
X1021879D2*
X1028841D1*
X1042841D2*
X1050841D1*
X1076183D2*
X1086446D1*
X1130841D2*
X1138841D1*
X1202283D2*
X1220965D1*
X1237038D2*
X1272996D1*
X1274683D2*
X1282841D1*
X1298762D2*
X1344124D1*
X1363762D2*
X1409124D1*
X937482Y482948D2*
X964396D1*
X982543D2*
X1016410D1*
X1022007D2*
X1028841D1*
X1042841D2*
X1050841D1*
X1077002D2*
X1087179D1*
X1130841D2*
X1138841D1*
X1203049D2*
X1222730D1*
X1237924D2*
X1271244D1*
X1275396D2*
X1282841D1*
X1299423D2*
X1345185D1*
X1364423D2*
X1410185D1*
X937290Y481948D2*
X963595D1*
X983262D2*
X1013909D1*
X1022251D2*
X1028841D1*
X1042841D2*
X1050841D1*
X1077873D2*
X1087967D1*
X1130841D2*
X1138841D1*
X1203970D2*
X1223413D1*
X1238878D2*
X1269499D1*
X1275974D2*
X1282841D1*
X1300040D2*
X1346035D1*
X1365040D2*
X1411035D1*
X937511Y480948D2*
X962535D1*
X984233D2*
X1011332D1*
X1022546D2*
X1028841D1*
X1042841D2*
X1050841D1*
X1078702D2*
X1088745D1*
X1130841D2*
X1138841D1*
X1205084D2*
X1223645D1*
X1239900D2*
X1267635D1*
X1276431D2*
X1282841D1*
X1300156D2*
X1346760D1*
X1365156D2*
X1411760D1*
X938285Y479948D2*
X961067D1*
X985574D2*
X1008523D1*
X1022875D2*
X1028841D1*
X1042841D2*
X1050841D1*
X1079437D2*
X1089454D1*
X1130841D2*
X1138841D1*
X1206465D2*
X1223762D1*
X1241097D2*
X1265561D1*
X1276831D2*
X1282841D1*
X1299851D2*
X1347321D1*
X1364851D2*
X1412321D1*
X940125Y478948D2*
X958963D1*
X987344D2*
X1005350D1*
X1023315D2*
X1028841D1*
X1042841D2*
X1050841D1*
X1080132D2*
X1090138D1*
X1130841D2*
X1138841D1*
X1208097D2*
X1223813D1*
X1242651D2*
X1263202D1*
X1277300D2*
X1282841D1*
X1299375D2*
X1303841D1*
X1307841D2*
X1347753D1*
X1364375D2*
X1368841D1*
X1372841D2*
X1412753D1*
X942744Y477948D2*
X956116D1*
X989496D2*
X1001728D1*
X1023841D2*
X1028841D1*
X1042841D2*
X1050841D1*
X1080841D2*
X1090841D1*
X1130841D2*
X1138841D1*
X1209841D2*
X1223841D1*
X1244631D2*
X1260580D1*
X1277841D2*
X1282841D1*
X1298784D2*
X1303841D1*
X1338799D2*
X1348141D1*
X1363784D2*
X1368841D1*
X1403799D2*
X1413141D1*
X945841Y476948D2*
X952841D1*
X991841D2*
X997841D1*
X1246841D2*
X1257841D1*
X1298196D2*
X1303841D1*
X1339636D2*
X1348463D1*
X1363196D2*
X1368841D1*
X1404636D2*
X1413463D1*
X1297677Y475948D2*
X1303841D1*
X1340265D2*
X1348663D1*
X1362677D2*
X1368841D1*
X1405265D2*
X1413663D1*
X1297280Y474948D2*
X1303841D1*
X1340730D2*
X1348765D1*
X1362280D2*
X1368841D1*
X1405730D2*
X1413765D1*
X1297044Y473948D2*
X1303841D1*
X1341133D2*
X1348811D1*
X1362044D2*
X1368841D1*
X1406133D2*
X1413811D1*
X1296926Y472948D2*
X1303841D1*
X1341459D2*
X1348830D1*
X1361926D2*
X1368841D1*
X1406459D2*
X1413830D1*
X1296874Y471948D2*
X1303841D1*
X1341662D2*
X1348837D1*
X1361874D2*
X1368841D1*
X1406662D2*
X1413837D1*
X1296853Y470948D2*
X1303841D1*
X1341765D2*
X1348840D1*
X1361853D2*
X1368841D1*
X1406765D2*
X1413840D1*
X1296846Y469948D2*
X1303841D1*
X1341811D2*
X1348841D1*
X1361846D2*
X1368841D1*
X1406811D2*
X1413841D1*
X1296843Y468948D2*
X1303841D1*
X1341830D2*
X1348841D1*
X1361843D2*
X1368841D1*
X1406830D2*
X1413841D1*
X1296842Y467948D2*
X1303841D1*
X1341837D2*
X1348841D1*
X1361842D2*
X1368841D1*
X1406837D2*
X1413841D1*
X1296841Y466948D2*
X1303841D1*
X1341840D2*
X1348841D1*
X1361841D2*
X1368841D1*
X1406840D2*
X1413841D1*
X1296841Y465948D2*
X1303841D1*
X1341841D2*
X1348841D1*
X1361841D2*
X1368841D1*
X1406841D2*
X1413841D1*
X1296841Y464948D2*
X1303845D1*
X1341837D2*
X1348841D1*
X1361841D2*
X1368845D1*
X1406837D2*
X1413841D1*
X1296841Y463948D2*
X1303880D1*
X1341802D2*
X1348841D1*
X1361841D2*
X1368880D1*
X1406802D2*
X1413841D1*
X1296841Y462948D2*
X1304008D1*
X1341675D2*
X1348841D1*
X1361841D2*
X1369008D1*
X1406675D2*
X1413841D1*
X1296841Y461948D2*
X1304251D1*
X1341431D2*
X1348841D1*
X1361841D2*
X1369251D1*
X1406431D2*
X1413841D1*
X1296841Y460948D2*
X1304547D1*
X1341140D2*
X1348841D1*
X1361841D2*
X1369547D1*
X1406140D2*
X1413841D1*
X1296845Y459948D2*
X1304887D1*
X1340830D2*
X1348837D1*
X1361845D2*
X1369887D1*
X1405830D2*
X1413837D1*
X1296880Y458948D2*
X1305394D1*
X1340420D2*
X1348802D1*
X1361880D2*
X1370394D1*
X1405420D2*
X1413802D1*
X1297012Y457948D2*
X1306177D1*
X1339788D2*
X1348671D1*
X1362012D2*
X1371177D1*
X1404788D2*
X1413671D1*
X1297286Y456948D2*
X1307364D1*
X1338784D2*
X1348396D1*
X1362286D2*
X1372364D1*
X1403784D2*
X1413396D1*
X1297674Y455948D2*
X1309105D1*
X1337362D2*
X1348008D1*
X1362674D2*
X1374105D1*
X1402362D2*
X1413008D1*
X1298127Y454948D2*
X1311358D1*
X1335657D2*
X1347559D1*
X1363127D2*
X1376358D1*
X1400657D2*
X1412559D1*
X1298643Y453948D2*
X1347079D1*
X1363643D2*
X1412079D1*
X1299269Y452948D2*
X1346580D1*
X1364269D2*
X1411580D1*
X1300077Y451948D2*
X1346011D1*
X1365077D2*
X1411011D1*
X1301098Y450948D2*
X1345246D1*
X1366098D2*
X1410246D1*
X1302373Y449948D2*
X1344150D1*
X1367373D2*
X1409150D1*
X1304018Y448948D2*
X1342636D1*
X1369018D2*
X1407636D1*
X1306299Y447948D2*
X1340551D1*
X1371299D2*
X1405551D1*
X1309357Y446948D2*
X1337854D1*
X1374357D2*
X1402854D1*
X1312841Y445948D2*
X1334841D1*
X1377841D2*
X1399841D1*
X1169866Y5390428D2*
Y5389428D1*
Y5388428D1*
Y5387428D1*
Y5386428D1*
Y5385428D1*
Y5384428D1*
Y5383428D1*
Y5382428D1*
Y5381428D1*
Y5380428D1*
Y5379428D1*
Y5378428D1*
Y5377428D1*
Y5376428D1*
Y5375428D1*
Y5374428D1*
Y5373428D1*
Y5372428D1*
Y5371428D1*
Y5370428D1*
Y5369428D1*
Y5368428D1*
Y5367428D1*
Y5366428D1*
Y5365428D1*
Y5364428D1*
Y5363428D1*
Y5362428D1*
Y5361428D1*
Y5360428D1*
Y5359428D1*
Y5358428D1*
Y5357428D1*
X1169858Y5356428D1*
X1169782Y5355428D1*
X1169601Y5354428D1*
X1168821Y5353428D1*
X1167866Y5352428D1*
X1177866Y5390428D2*
X1178328Y5389428D1*
X1178615Y5388428D1*
X1178760Y5387428D1*
X1178825Y5386428D1*
X1178851Y5385428D1*
X1178861Y5384428D1*
X1178864Y5383428D1*
X1178866Y5382428D1*
Y5381428D1*
Y5380428D1*
Y5379428D1*
Y5378428D1*
Y5377428D1*
Y5376428D1*
Y5375428D1*
Y5374428D1*
Y5373428D1*
Y5372428D1*
Y5371428D1*
Y5370428D1*
Y5369428D1*
Y5368428D1*
Y5367428D1*
Y5366428D1*
Y5365428D1*
Y5364428D1*
Y5363428D1*
Y5362428D1*
Y5361428D1*
Y5360428D1*
Y5359428D1*
Y5358428D1*
Y5357428D1*
Y5356428D1*
Y5355428D1*
Y5354428D1*
Y5353428D1*
Y5352428D1*
Y5351428D1*
Y5350428D1*
Y5349428D1*
Y5348428D1*
Y5347428D1*
Y5346428D1*
Y5345428D1*
Y5344428D1*
Y5343428D1*
Y5342428D1*
Y5341428D1*
Y5340428D1*
Y5339428D1*
Y5338428D1*
Y5337428D1*
Y5336428D1*
Y5335428D1*
Y5334428D1*
Y5333428D1*
Y5332428D1*
Y5331428D1*
Y5330428D1*
Y5329428D1*
Y5328428D1*
Y5327428D1*
Y5326428D1*
Y5325428D1*
Y5324428D1*
Y5323428D1*
Y5322428D1*
Y5321428D1*
Y5320428D1*
Y5319428D1*
Y5318428D1*
Y5317428D1*
Y5316428D1*
Y5315428D1*
Y5314428D1*
Y5313428D1*
Y5312428D1*
Y5311428D1*
Y5310428D1*
Y5309428D1*
Y5308428D1*
Y5307428D1*
Y5306428D1*
Y5305428D1*
Y5304428D1*
Y5303428D1*
Y5302428D1*
Y5301428D1*
Y5300428D1*
Y5299428D1*
Y5298428D1*
Y5297428D1*
Y5296428D1*
Y5295428D1*
Y5294428D1*
Y5293428D1*
Y5292428D1*
Y5291428D1*
Y5290428D1*
Y5289428D1*
Y5288428D1*
Y5287428D1*
X1017866Y5383428D2*
Y5382428D1*
Y5381428D1*
Y5380428D1*
Y5379428D1*
Y5378428D1*
Y5377428D1*
Y5376428D1*
Y5375428D1*
Y5374428D1*
X1083866Y5383428D2*
Y5382428D1*
Y5381428D1*
Y5380428D1*
Y5379428D1*
Y5378428D1*
Y5377428D1*
Y5376428D1*
Y5375428D1*
Y5374428D1*
X1333866Y5383428D2*
Y5382428D1*
Y5381428D1*
Y5380428D1*
Y5379428D1*
Y5378428D1*
Y5377428D1*
Y5376428D1*
Y5375428D1*
Y5374428D1*
Y5373428D1*
Y5372428D1*
Y5371428D1*
Y5370428D1*
Y5369428D1*
Y5368428D1*
Y5367428D1*
Y5366428D1*
Y5365428D1*
Y5364428D1*
Y5363428D1*
Y5362428D1*
Y5361428D1*
Y5360428D1*
Y5359428D1*
Y5358428D1*
Y5357428D1*
Y5356428D1*
Y5355428D1*
Y5354428D1*
Y5353428D1*
Y5352428D1*
Y5351428D1*
Y5350428D1*
Y5349428D1*
Y5348428D1*
Y5347428D1*
Y5346428D1*
Y5345428D1*
Y5344428D1*
Y5343428D1*
Y5342428D1*
Y5341428D1*
Y5340428D1*
Y5339428D1*
Y5338428D1*
Y5337428D1*
Y5336428D1*
Y5335428D1*
Y5334428D1*
Y5333428D1*
Y5332428D1*
Y5331428D1*
Y5330428D1*
Y5329428D1*
Y5328428D1*
Y5327428D1*
Y5326428D1*
Y5325428D1*
Y5324428D1*
Y5323428D1*
Y5322428D1*
Y5321428D1*
Y5320428D1*
Y5319428D1*
Y5318428D1*
Y5317428D1*
Y5316428D1*
Y5315428D1*
Y5314428D1*
Y5313428D1*
Y5312428D1*
Y5311428D1*
Y5310428D1*
Y5309428D1*
Y5308428D1*
Y5307428D1*
Y5306428D1*
Y5305428D1*
Y5304428D1*
Y5303428D1*
Y5302428D1*
Y5301428D1*
Y5300428D1*
Y5299428D1*
Y5298428D1*
Y5297428D1*
Y5296428D1*
Y5295428D1*
Y5294428D1*
Y5293428D1*
Y5292428D1*
Y5291428D1*
Y5290428D1*
Y5289428D1*
Y5288428D1*
Y5287428D1*
X1342866Y5383428D2*
Y5382428D1*
Y5381428D1*
Y5380428D1*
Y5379428D1*
Y5378428D1*
Y5377428D1*
Y5376428D1*
Y5375428D1*
Y5374428D1*
Y5373428D1*
Y5372428D1*
Y5371428D1*
Y5370428D1*
Y5369428D1*
Y5368428D1*
Y5367428D1*
Y5366428D1*
Y5365428D1*
Y5364428D1*
Y5363428D1*
Y5362428D1*
Y5361428D1*
Y5360428D1*
Y5359428D1*
Y5358428D1*
Y5357428D1*
Y5356428D1*
Y5355428D1*
Y5354428D1*
Y5353428D1*
Y5352428D1*
Y5351428D1*
Y5350428D1*
Y5349428D1*
Y5348428D1*
Y5347428D1*
Y5346428D1*
Y5345428D1*
Y5344428D1*
Y5343428D1*
Y5342428D1*
Y5341428D1*
Y5340428D1*
Y5339428D1*
Y5338428D1*
Y5337428D1*
Y5336428D1*
Y5335428D1*
Y5334428D1*
Y5333428D1*
Y5332428D1*
Y5331428D1*
Y5330428D1*
Y5329428D1*
Y5328428D1*
Y5327428D1*
Y5326428D1*
Y5325428D1*
Y5324428D1*
Y5323428D1*
Y5322428D1*
Y5321428D1*
Y5320428D1*
Y5319428D1*
Y5318428D1*
Y5317428D1*
Y5316428D1*
Y5315428D1*
Y5314428D1*
Y5313428D1*
Y5312428D1*
Y5311428D1*
Y5310428D1*
Y5309428D1*
Y5308428D1*
Y5307428D1*
Y5306428D1*
Y5305428D1*
Y5304428D1*
Y5303428D1*
Y5302428D1*
Y5301428D1*
Y5300428D1*
Y5299428D1*
Y5298428D1*
Y5297428D1*
Y5296428D1*
Y5295428D1*
Y5294428D1*
Y5293428D1*
Y5292428D1*
Y5291428D1*
Y5290428D1*
Y5289428D1*
Y5288428D1*
Y5287428D1*
X1361866Y5383428D2*
Y5382428D1*
Y5381428D1*
Y5380428D1*
Y5379428D1*
Y5378428D1*
Y5377428D1*
Y5376428D1*
Y5375428D1*
Y5374428D1*
Y5373428D1*
Y5372428D1*
Y5371428D1*
Y5370428D1*
Y5369428D1*
Y5368428D1*
Y5367428D1*
Y5366428D1*
Y5365428D1*
Y5364428D1*
Y5363428D1*
Y5362428D1*
Y5361428D1*
Y5360428D1*
Y5359428D1*
Y5358428D1*
Y5357428D1*
Y5356428D1*
Y5355428D1*
Y5354428D1*
Y5353428D1*
Y5352428D1*
Y5351428D1*
Y5350428D1*
Y5349428D1*
Y5348428D1*
Y5347428D1*
Y5346428D1*
Y5345428D1*
Y5344428D1*
Y5343428D1*
Y5342428D1*
Y5341428D1*
Y5340428D1*
Y5339428D1*
Y5338428D1*
Y5337428D1*
Y5336428D1*
Y5335428D1*
Y5334428D1*
Y5333428D1*
Y5332428D1*
Y5331428D1*
Y5330428D1*
Y5329428D1*
Y5328428D1*
Y5327428D1*
Y5326428D1*
Y5325428D1*
Y5324428D1*
Y5323428D1*
Y5322428D1*
Y5321428D1*
Y5320428D1*
Y5319428D1*
Y5318428D1*
Y5317428D1*
Y5316428D1*
Y5315428D1*
Y5314428D1*
Y5313428D1*
Y5312428D1*
Y5311428D1*
Y5310428D1*
Y5309428D1*
Y5308428D1*
Y5307428D1*
Y5306428D1*
Y5305428D1*
Y5304428D1*
Y5303428D1*
Y5302428D1*
Y5301428D1*
Y5300428D1*
Y5299428D1*
Y5298428D1*
Y5297428D1*
Y5296428D1*
Y5295428D1*
Y5294428D1*
Y5293428D1*
Y5292428D1*
Y5291428D1*
Y5290428D1*
Y5289428D1*
Y5288428D1*
Y5287428D1*
X1370866Y5383428D2*
Y5382428D1*
Y5381428D1*
Y5380428D1*
Y5379428D1*
Y5378428D1*
Y5377428D1*
Y5376428D1*
Y5375428D1*
Y5374428D1*
Y5373428D1*
Y5372428D1*
Y5371428D1*
Y5370428D1*
Y5369428D1*
Y5368428D1*
Y5367428D1*
Y5366428D1*
Y5365428D1*
Y5364428D1*
Y5363428D1*
Y5362428D1*
Y5361428D1*
Y5360428D1*
Y5359428D1*
Y5358428D1*
Y5357428D1*
Y5356428D1*
Y5355428D1*
Y5354428D1*
Y5353428D1*
Y5352428D1*
Y5351428D1*
Y5350428D1*
Y5349428D1*
Y5348428D1*
Y5347428D1*
Y5346428D1*
Y5345428D1*
Y5344428D1*
Y5343428D1*
Y5342428D1*
Y5341428D1*
Y5340428D1*
Y5339428D1*
Y5338428D1*
Y5337428D1*
Y5336428D1*
Y5335428D1*
Y5334428D1*
Y5333428D1*
Y5332428D1*
Y5331428D1*
Y5330428D1*
Y5329428D1*
Y5328428D1*
Y5327428D1*
Y5326428D1*
Y5325428D1*
Y5324428D1*
Y5323428D1*
Y5322428D1*
Y5321428D1*
Y5320428D1*
Y5319428D1*
Y5318428D1*
Y5317428D1*
Y5316428D1*
Y5315428D1*
Y5314428D1*
Y5313428D1*
Y5312428D1*
Y5311428D1*
Y5310428D1*
Y5309428D1*
Y5308428D1*
Y5307428D1*
Y5306428D1*
Y5305428D1*
Y5304428D1*
Y5303428D1*
Y5302428D1*
Y5301428D1*
Y5300428D1*
Y5299428D1*
Y5298428D1*
Y5297428D1*
Y5296428D1*
Y5295428D1*
Y5294428D1*
Y5293428D1*
Y5292428D1*
Y5291428D1*
Y5290428D1*
Y5289428D1*
Y5288428D1*
Y5287428D1*
X1095866Y5378428D2*
X1095405Y5377428D1*
X1095117Y5376428D1*
X1094972Y5375428D1*
X1094908Y5374428D1*
X1094881Y5373428D1*
X1094872Y5372428D1*
X1094868Y5371428D1*
X1094867Y5370428D1*
X1094874Y5369428D1*
X1094950Y5368428D1*
X1095132Y5367428D1*
X1095911Y5366428D1*
X1096866Y5365428D1*
X1104866Y5378428D2*
X1105670Y5377428D1*
X1106254Y5376428D1*
X1106589Y5375428D1*
X1106752Y5374428D1*
X1106822Y5373428D1*
X1106850Y5372428D1*
X1106860Y5371428D1*
Y5370428D1*
X1106823Y5369428D1*
X1106657Y5368428D1*
X1106254Y5367428D1*
X1105615Y5366428D1*
X1104866Y5365428D1*
X1045866Y5374428D2*
Y5373428D1*
Y5372428D1*
Y5371428D1*
Y5370428D1*
Y5369428D1*
Y5368428D1*
Y5367428D1*
Y5366428D1*
Y5365428D1*
Y5364428D1*
Y5363428D1*
Y5362428D1*
Y5361428D1*
Y5360428D1*
Y5359428D1*
Y5358428D1*
Y5357428D1*
Y5356428D1*
Y5355428D1*
Y5354428D1*
Y5353428D1*
Y5352428D1*
Y5351428D1*
Y5350428D1*
Y5349428D1*
Y5348428D1*
Y5347428D1*
Y5346428D1*
Y5345428D1*
Y5344428D1*
Y5343428D1*
Y5342428D1*
Y5341428D1*
Y5340428D1*
Y5339428D1*
Y5338428D1*
Y5337428D1*
Y5336428D1*
Y5335428D1*
Y5334428D1*
Y5333428D1*
Y5332428D1*
Y5331428D1*
Y5330428D1*
Y5329428D1*
Y5328428D1*
Y5327428D1*
Y5326428D1*
Y5325428D1*
Y5324428D1*
Y5323428D1*
Y5322428D1*
Y5321428D1*
Y5320428D1*
Y5319428D1*
Y5318428D1*
Y5317428D1*
Y5316428D1*
Y5315428D1*
Y5314428D1*
Y5313428D1*
Y5312428D1*
Y5311428D1*
Y5310428D1*
Y5309428D1*
Y5308428D1*
Y5307428D1*
Y5306428D1*
Y5305428D1*
Y5304428D1*
Y5303428D1*
Y5302428D1*
Y5301428D1*
Y5300428D1*
Y5299428D1*
Y5298428D1*
Y5297428D1*
Y5296428D1*
Y5295428D1*
Y5294428D1*
Y5293428D1*
Y5292428D1*
Y5291428D1*
Y5290428D1*
Y5289428D1*
Y5288428D1*
Y5287428D1*
X1054866Y5374428D2*
Y5373428D1*
Y5372428D1*
Y5371428D1*
Y5370428D1*
Y5369428D1*
Y5368428D1*
Y5367428D1*
Y5366428D1*
Y5365428D1*
Y5364428D1*
Y5363428D1*
Y5362428D1*
Y5361428D1*
Y5360428D1*
Y5359428D1*
Y5358428D1*
Y5357428D1*
Y5356428D1*
Y5355428D1*
Y5354428D1*
Y5353428D1*
Y5352428D1*
Y5351428D1*
Y5350428D1*
Y5349428D1*
Y5348428D1*
Y5347428D1*
Y5346428D1*
Y5345428D1*
Y5344428D1*
Y5343428D1*
Y5342428D1*
Y5341428D1*
Y5340428D1*
Y5339428D1*
Y5338428D1*
Y5337428D1*
Y5336428D1*
Y5335428D1*
Y5334428D1*
Y5333428D1*
Y5332428D1*
Y5331428D1*
Y5330428D1*
Y5329428D1*
Y5328428D1*
Y5327428D1*
Y5326428D1*
Y5325428D1*
Y5324428D1*
Y5323428D1*
Y5322428D1*
Y5321428D1*
Y5320428D1*
Y5319428D1*
Y5318428D1*
Y5317428D1*
Y5316428D1*
Y5315428D1*
Y5314428D1*
Y5313428D1*
Y5312428D1*
Y5311428D1*
Y5310428D1*
Y5309428D1*
Y5308428D1*
Y5307428D1*
Y5306428D1*
Y5305428D1*
Y5304428D1*
Y5303428D1*
Y5302428D1*
Y5301428D1*
Y5300428D1*
Y5299428D1*
Y5298428D1*
Y5297428D1*
Y5296428D1*
Y5295428D1*
Y5294428D1*
Y5293428D1*
Y5292428D1*
Y5291428D1*
Y5290428D1*
Y5289428D1*
Y5288428D1*
Y5287428D1*
X1137866Y5357428D2*
X1135447Y5356428D1*
X1133327Y5355428D1*
X1131587Y5354428D1*
X1130185Y5353428D1*
X1129000Y5352428D1*
X1127955Y5351428D1*
X1127055Y5350428D1*
X1126318Y5349428D1*
X1125701Y5348428D1*
X1125153Y5347428D1*
X1124664Y5346428D1*
X1124251Y5345428D1*
X1123897Y5344428D1*
X1123543Y5343428D1*
X1123232Y5342428D1*
X1123002Y5341428D1*
X1122774Y5340428D1*
X1122490Y5339428D1*
X1122215Y5338428D1*
X1122029Y5337428D1*
X1121899Y5336428D1*
X1121728Y5335428D1*
X1121471Y5334428D1*
X1121208Y5333428D1*
X1121031Y5332428D1*
X1120937Y5331428D1*
X1120894Y5330428D1*
X1120877Y5329428D1*
X1120870Y5328428D1*
X1120867Y5327428D1*
Y5326428D1*
X1120866Y5325428D1*
Y5324428D1*
Y5323428D1*
Y5322428D1*
Y5321428D1*
Y5320428D1*
Y5319428D1*
Y5318428D1*
Y5317428D1*
Y5316428D1*
Y5315428D1*
X1120870Y5314428D1*
X1120905Y5313428D1*
X1121033Y5312428D1*
X1121272Y5311428D1*
X1121529Y5310428D1*
X1121707Y5309428D1*
X1121835Y5308428D1*
X1122005Y5307428D1*
X1122266Y5306428D1*
X1122564Y5305428D1*
X1122868Y5304428D1*
X1123205Y5303428D1*
X1123539Y5302428D1*
X1123859Y5301428D1*
X1124202Y5300428D1*
X1124538Y5299428D1*
X1124862Y5298428D1*
X1125241Y5297428D1*
X1125709Y5296428D1*
X1126307Y5295428D1*
X1127070Y5294428D1*
X1127951Y5293428D1*
X1128903Y5292428D1*
X1129921Y5291428D1*
X1131088Y5290428D1*
X1132567Y5289428D1*
X1134536Y5288428D1*
X1137049Y5287428D1*
X1139866Y5286428D1*
X1150866Y5357428D2*
X1155713Y5356428D1*
X1160030Y5355428D1*
X1163825Y5354428D1*
X1167363Y5353428D1*
X1170866Y5352428D1*
X1218866Y5357428D2*
X1213297Y5356428D1*
X1209028Y5355428D1*
X1205988Y5354428D1*
X1203844Y5353428D1*
X1202280Y5352428D1*
X1201033Y5351428D1*
X1199966Y5350428D1*
X1199058Y5349428D1*
X1198319Y5348428D1*
X1197701Y5347428D1*
X1197153Y5346428D1*
X1196668Y5345428D1*
X1196287Y5344428D1*
X1196024Y5343428D1*
X1195783Y5342428D1*
X1195493Y5341428D1*
X1195216Y5340428D1*
X1195034Y5339428D1*
X1194934Y5338428D1*
X1194856Y5337428D1*
X1194710Y5336428D1*
X1194464Y5335428D1*
X1194205Y5334428D1*
X1194030Y5333428D1*
X1193937Y5332428D1*
X1193894Y5331428D1*
X1193877Y5330428D1*
X1193870Y5329428D1*
X1193867Y5328428D1*
Y5327428D1*
X1193866Y5326428D1*
Y5325428D1*
Y5324428D1*
Y5323428D1*
Y5322428D1*
Y5321428D1*
Y5320428D1*
Y5319428D1*
Y5318428D1*
Y5317428D1*
Y5316428D1*
Y5315428D1*
Y5314428D1*
Y5313428D1*
X1193870Y5312428D1*
X1193905Y5311428D1*
X1194033Y5310428D1*
X1194272Y5309428D1*
X1194529Y5308428D1*
X1194703Y5307428D1*
X1194800Y5306428D1*
X1194877Y5305428D1*
X1195022Y5304428D1*
X1195268Y5303428D1*
X1195531Y5302428D1*
X1195742Y5301428D1*
X1195962Y5300428D1*
X1196248Y5299428D1*
X1196557Y5298428D1*
X1196870Y5297428D1*
X1197243Y5296428D1*
X1197710Y5295428D1*
X1198308Y5294428D1*
X1199070Y5293428D1*
X1199955Y5292428D1*
X1200946Y5291428D1*
X1202139Y5290428D1*
X1203779Y5289428D1*
X1206149Y5288428D1*
X1209300Y5287428D1*
X1212866Y5286428D1*
X1228866Y5357428D2*
X1233974Y5356428D1*
X1237956Y5355428D1*
X1240851Y5354428D1*
X1242925Y5353428D1*
X1244429Y5352428D1*
X1245538Y5351428D1*
X1246362Y5350428D1*
X1247012Y5349428D1*
X1247573Y5348428D1*
X1248062Y5347428D1*
X1248445Y5346428D1*
X1248708Y5345428D1*
X1248950Y5344428D1*
X1249240Y5343428D1*
X1249517Y5342428D1*
X1249699Y5341428D1*
X1249794Y5340428D1*
X1249838Y5339428D1*
X1249855Y5338428D1*
X1249862Y5337428D1*
X1249865Y5336428D1*
X1249866Y5335428D1*
Y5334428D1*
Y5333428D1*
Y5332428D1*
Y5331428D1*
Y5330428D1*
X1249862Y5329428D1*
X1249827Y5328428D1*
X1249696Y5327428D1*
X1249421Y5326428D1*
X1249033Y5325428D1*
X1248580Y5324428D1*
X1248061Y5323428D1*
X1247399Y5322428D1*
X1246460Y5321428D1*
X1245168Y5320428D1*
X1243557Y5319428D1*
X1241749Y5318428D1*
X1239866Y5317428D1*
X1274866Y5357428D2*
X1271985Y5356428D1*
X1269578Y5355428D1*
X1267697Y5354428D1*
X1266266Y5353428D1*
X1265182Y5352428D1*
X1264366Y5351428D1*
X1263719Y5350428D1*
X1263159Y5349428D1*
X1262670Y5348428D1*
X1262291Y5347428D1*
X1262063Y5346428D1*
X1261949Y5345428D1*
X1261899Y5344428D1*
X1261878Y5343428D1*
X1261870Y5342428D1*
X1261868Y5341428D1*
X1261867Y5340428D1*
X1261866Y5339428D1*
Y5338428D1*
Y5337428D1*
Y5336428D1*
Y5335428D1*
Y5334428D1*
Y5333428D1*
Y5332428D1*
Y5331428D1*
Y5330428D1*
X1261870Y5329428D1*
X1261905Y5328428D1*
X1262037Y5327428D1*
X1262311Y5326428D1*
X1262699Y5325428D1*
X1263152Y5324428D1*
X1263668Y5323428D1*
X1264298Y5322428D1*
X1265149Y5321428D1*
X1266367Y5320428D1*
X1268122Y5319428D1*
X1270380Y5318428D1*
X1272866Y5317428D1*
X1288866Y5357428D2*
Y5356428D1*
X946866D2*
Y5355428D1*
Y5354428D1*
Y5353428D1*
Y5352428D1*
Y5351428D1*
Y5350428D1*
Y5349428D1*
Y5348428D1*
Y5347428D1*
Y5346428D1*
Y5345428D1*
Y5344428D1*
Y5343428D1*
Y5342428D1*
Y5341428D1*
Y5340428D1*
Y5339428D1*
Y5338428D1*
Y5337428D1*
Y5336428D1*
Y5335428D1*
Y5334428D1*
Y5333428D1*
Y5332428D1*
Y5331428D1*
Y5330428D1*
Y5329428D1*
Y5328428D1*
Y5327428D1*
Y5326428D1*
Y5325428D1*
Y5324428D1*
Y5323428D1*
Y5322428D1*
Y5321428D1*
Y5320428D1*
Y5319428D1*
Y5318428D1*
Y5317428D1*
Y5316428D1*
Y5315428D1*
Y5314428D1*
Y5313428D1*
Y5312428D1*
Y5311428D1*
Y5310428D1*
Y5309428D1*
Y5308428D1*
Y5307428D1*
Y5306428D1*
X946870Y5305428D1*
X946905Y5304428D1*
X947033Y5303428D1*
X947276Y5302428D1*
X947568Y5301428D1*
X947873Y5300428D1*
X948241Y5299428D1*
X948671Y5298428D1*
X949141Y5297428D1*
X949664Y5296428D1*
X950289Y5295428D1*
X951063Y5294428D1*
X951949Y5293428D1*
X952899Y5292428D1*
X953882Y5291428D1*
X954917Y5290428D1*
X956119Y5289428D1*
X957675Y5288428D1*
X959656Y5287428D1*
X961866Y5286428D1*
X955866Y5356428D2*
Y5355428D1*
Y5354428D1*
Y5353428D1*
Y5352428D1*
Y5351428D1*
Y5350428D1*
Y5349428D1*
Y5348428D1*
Y5347428D1*
Y5346428D1*
Y5345428D1*
Y5344428D1*
Y5343428D1*
Y5342428D1*
Y5341428D1*
Y5340428D1*
Y5339428D1*
Y5338428D1*
Y5337428D1*
Y5336428D1*
Y5335428D1*
Y5334428D1*
Y5333428D1*
Y5332428D1*
Y5331428D1*
Y5330428D1*
Y5329428D1*
Y5328428D1*
Y5327428D1*
Y5326428D1*
Y5325428D1*
Y5324428D1*
Y5323428D1*
Y5322428D1*
Y5321428D1*
Y5320428D1*
Y5319428D1*
Y5318428D1*
Y5317428D1*
Y5316428D1*
Y5315428D1*
Y5314428D1*
Y5313428D1*
Y5312428D1*
Y5311428D1*
Y5310428D1*
Y5309428D1*
Y5308428D1*
Y5307428D1*
X955870Y5306428D1*
X955905Y5305428D1*
X956037Y5304428D1*
X956311Y5303428D1*
X956699Y5302428D1*
X957156Y5301428D1*
X957711Y5300428D1*
X958500Y5299428D1*
X959678Y5298428D1*
X961226Y5297428D1*
X963002Y5296428D1*
X964866Y5295428D1*
X993866Y5356428D2*
Y5355428D1*
Y5354428D1*
Y5353428D1*
Y5352428D1*
Y5351428D1*
Y5350428D1*
Y5349428D1*
Y5348428D1*
Y5347428D1*
Y5346428D1*
Y5345428D1*
Y5344428D1*
Y5343428D1*
Y5342428D1*
Y5341428D1*
Y5340428D1*
Y5339428D1*
Y5338428D1*
Y5337428D1*
Y5336428D1*
Y5335428D1*
Y5334428D1*
Y5333428D1*
Y5332428D1*
Y5331428D1*
Y5330428D1*
Y5329428D1*
Y5328428D1*
Y5327428D1*
Y5326428D1*
Y5325428D1*
Y5324428D1*
Y5323428D1*
Y5322428D1*
Y5321428D1*
Y5320428D1*
Y5319428D1*
Y5318428D1*
Y5317428D1*
Y5316428D1*
Y5315428D1*
Y5314428D1*
Y5313428D1*
Y5312428D1*
Y5311428D1*
Y5310428D1*
Y5309428D1*
Y5308428D1*
Y5307428D1*
X993862Y5306428D1*
X993819Y5305428D1*
X993714Y5304428D1*
X993208Y5303428D1*
X992011Y5302428D1*
X990441Y5301428D1*
X988496Y5300428D1*
X986148Y5299428D1*
X983357Y5298428D1*
X980133Y5297428D1*
X976571Y5296428D1*
X972866Y5295428D1*
X1002866Y5356428D2*
Y5355428D1*
Y5354428D1*
Y5353428D1*
Y5352428D1*
Y5351428D1*
Y5350428D1*
Y5349428D1*
Y5348428D1*
Y5347428D1*
Y5346428D1*
Y5345428D1*
Y5344428D1*
Y5343428D1*
Y5342428D1*
Y5341428D1*
Y5340428D1*
Y5339428D1*
Y5338428D1*
Y5337428D1*
Y5336428D1*
Y5335428D1*
Y5334428D1*
Y5333428D1*
Y5332428D1*
Y5331428D1*
Y5330428D1*
Y5329428D1*
Y5328428D1*
Y5327428D1*
Y5326428D1*
Y5325428D1*
Y5324428D1*
Y5323428D1*
Y5322428D1*
Y5321428D1*
Y5320428D1*
Y5319428D1*
Y5318428D1*
Y5317428D1*
Y5316428D1*
Y5315428D1*
Y5314428D1*
Y5313428D1*
Y5312428D1*
Y5311428D1*
Y5310428D1*
Y5309428D1*
Y5308428D1*
Y5307428D1*
Y5306428D1*
Y5305428D1*
Y5304428D1*
Y5303428D1*
Y5302428D1*
Y5301428D1*
Y5300428D1*
Y5299428D1*
Y5298428D1*
Y5297428D1*
Y5296428D1*
Y5295428D1*
Y5294428D1*
Y5293428D1*
Y5292428D1*
Y5291428D1*
Y5290428D1*
Y5289428D1*
Y5288428D1*
Y5287428D1*
X1095866Y5356428D2*
Y5355428D1*
Y5354428D1*
Y5353428D1*
Y5352428D1*
Y5351428D1*
Y5350428D1*
Y5349428D1*
Y5348428D1*
Y5347428D1*
Y5346428D1*
Y5345428D1*
Y5344428D1*
Y5343428D1*
Y5342428D1*
Y5341428D1*
Y5340428D1*
Y5339428D1*
Y5338428D1*
Y5337428D1*
Y5336428D1*
Y5335428D1*
Y5334428D1*
Y5333428D1*
Y5332428D1*
Y5331428D1*
Y5330428D1*
Y5329428D1*
Y5328428D1*
Y5327428D1*
Y5326428D1*
Y5325428D1*
Y5324428D1*
Y5323428D1*
Y5322428D1*
Y5321428D1*
Y5320428D1*
Y5319428D1*
Y5318428D1*
Y5317428D1*
Y5316428D1*
Y5315428D1*
Y5314428D1*
Y5313428D1*
Y5312428D1*
Y5311428D1*
Y5310428D1*
Y5309428D1*
Y5308428D1*
Y5307428D1*
Y5306428D1*
Y5305428D1*
Y5304428D1*
Y5303428D1*
Y5302428D1*
Y5301428D1*
Y5300428D1*
Y5299428D1*
Y5298428D1*
Y5297428D1*
Y5296428D1*
Y5295428D1*
Y5294428D1*
Y5293428D1*
Y5292428D1*
Y5291428D1*
Y5290428D1*
Y5289428D1*
Y5288428D1*
Y5287428D1*
X1104866Y5356428D2*
Y5355428D1*
Y5354428D1*
Y5353428D1*
Y5352428D1*
Y5351428D1*
Y5350428D1*
Y5349428D1*
Y5348428D1*
Y5347428D1*
Y5346428D1*
Y5345428D1*
Y5344428D1*
Y5343428D1*
Y5342428D1*
Y5341428D1*
Y5340428D1*
Y5339428D1*
Y5338428D1*
Y5337428D1*
Y5336428D1*
Y5335428D1*
Y5334428D1*
Y5333428D1*
Y5332428D1*
Y5331428D1*
Y5330428D1*
Y5329428D1*
Y5328428D1*
Y5327428D1*
Y5326428D1*
Y5325428D1*
Y5324428D1*
Y5323428D1*
Y5322428D1*
Y5321428D1*
Y5320428D1*
Y5319428D1*
Y5318428D1*
Y5317428D1*
Y5316428D1*
Y5315428D1*
Y5314428D1*
Y5313428D1*
Y5312428D1*
Y5311428D1*
Y5310428D1*
Y5309428D1*
Y5308428D1*
Y5307428D1*
Y5306428D1*
Y5305428D1*
Y5304428D1*
Y5303428D1*
Y5302428D1*
Y5301428D1*
Y5300428D1*
Y5299428D1*
Y5298428D1*
Y5297428D1*
Y5296428D1*
Y5295428D1*
Y5294428D1*
Y5293428D1*
Y5292428D1*
Y5291428D1*
Y5290428D1*
Y5289428D1*
Y5288428D1*
Y5287428D1*
X1303866Y5356428D2*
X1312866Y5355428D1*
Y5354428D1*
Y5353428D1*
Y5352428D1*
Y5351428D1*
Y5350428D1*
Y5349428D1*
Y5348428D1*
X1139866D2*
X1138067Y5347428D1*
X1136517Y5346428D1*
X1135309Y5345428D1*
X1134390Y5344428D1*
X1133616Y5343428D1*
X1132925Y5342428D1*
X1132378Y5341428D1*
X1131951Y5340428D1*
X1131565Y5339428D1*
X1131244Y5338428D1*
X1131040Y5337428D1*
X1130903Y5336428D1*
X1130729Y5335428D1*
X1130471Y5334428D1*
X1130208Y5333428D1*
X1130031Y5332428D1*
X1129937Y5331428D1*
X1129894Y5330428D1*
X1129877Y5329428D1*
X1129870Y5328428D1*
X1129867Y5327428D1*
Y5326428D1*
X1129866Y5325428D1*
Y5324428D1*
Y5323428D1*
Y5322428D1*
Y5321428D1*
Y5320428D1*
Y5319428D1*
Y5318428D1*
Y5317428D1*
Y5316428D1*
Y5315428D1*
X1129870Y5314428D1*
X1129905Y5313428D1*
X1130033Y5312428D1*
X1130272Y5311428D1*
X1130532Y5310428D1*
X1130742Y5309428D1*
X1130962Y5308428D1*
X1131248Y5307428D1*
X1131557Y5306428D1*
X1131870Y5305428D1*
X1132239Y5304428D1*
X1132670Y5303428D1*
X1133141Y5302428D1*
X1133664Y5301428D1*
X1134297Y5300428D1*
X1135188Y5299428D1*
X1136353Y5298428D1*
X1139979Y5297428D1*
X1145737Y5296428D1*
X1152866Y5295428D1*
X1150866Y5348428D2*
X1156419Y5347428D1*
X1161305Y5346428D1*
X1165069Y5345428D1*
X1167938Y5344428D1*
X1169107Y5343428D1*
X1169515Y5342428D1*
X1169723Y5341428D1*
X1169812Y5340428D1*
X1169847Y5339428D1*
X1169860Y5338428D1*
X1169864Y5337428D1*
X1169865Y5336428D1*
X1169866Y5335428D1*
Y5334428D1*
Y5333428D1*
Y5332428D1*
Y5331428D1*
Y5330428D1*
Y5329428D1*
Y5328428D1*
Y5327428D1*
Y5326428D1*
Y5325428D1*
Y5324428D1*
Y5323428D1*
Y5322428D1*
Y5321428D1*
Y5320428D1*
Y5319428D1*
Y5318428D1*
Y5317428D1*
Y5316428D1*
Y5315428D1*
Y5314428D1*
Y5313428D1*
Y5312428D1*
Y5311428D1*
Y5310428D1*
Y5309428D1*
Y5308428D1*
Y5307428D1*
Y5306428D1*
X1169858Y5305428D1*
X1169780Y5304428D1*
X1169593Y5303428D1*
X1168630Y5302428D1*
X1167106Y5301428D1*
X1164977Y5300428D1*
X1162209Y5299428D1*
X1158475Y5298428D1*
X1152957Y5297428D1*
X1145106Y5296428D1*
X1135866Y5295428D1*
X1219866Y5348428D2*
X1215498Y5347428D1*
X1211914Y5346428D1*
X1209351Y5345428D1*
X1207654Y5344428D1*
X1206523Y5343428D1*
X1205664Y5342428D1*
X1204946Y5341428D1*
X1204419Y5340428D1*
X1204081Y5339428D1*
X1203805Y5338428D1*
X1203501Y5337428D1*
X1203219Y5336428D1*
X1203035Y5335428D1*
X1202938Y5334428D1*
X1202895Y5333428D1*
X1202877Y5332428D1*
X1202870Y5331428D1*
X1202867Y5330428D1*
Y5329428D1*
X1202866Y5328428D1*
Y5327428D1*
Y5326428D1*
Y5325428D1*
X1227866Y5348428D2*
X1231431Y5347428D1*
X1234430Y5346428D1*
X1236658Y5345428D1*
X1238189Y5344428D1*
X1239214Y5343428D1*
X1239918Y5342428D1*
X1240386Y5341428D1*
X1240649Y5340428D1*
X1240776Y5339428D1*
X1240831Y5338428D1*
X1240853Y5337428D1*
X1240862Y5336428D1*
X1240865Y5335428D1*
X1240866Y5334428D1*
Y5333428D1*
X1240862Y5332428D1*
X1240823Y5331428D1*
X1240645Y5330428D1*
X1240298Y5329428D1*
X1239005Y5328428D1*
X1236928Y5327428D1*
X1234074Y5326428D1*
X1230866Y5325428D1*
X1275866Y5348428D2*
X1274105Y5347428D1*
X1272687Y5346428D1*
X1271597Y5345428D1*
X1271180Y5344428D1*
X1270849Y5343428D1*
X1270518Y5342428D1*
X1270225Y5341428D1*
X1270037Y5340428D1*
X1269939Y5339428D1*
X1269895Y5338428D1*
X1269877Y5337428D1*
X1269874Y5336428D1*
X1269907Y5335428D1*
X1270033Y5334428D1*
X1270272Y5333428D1*
X1270532Y5332428D1*
X1270750Y5331428D1*
X1271048Y5330428D1*
X1271506Y5329428D1*
X1272705Y5328428D1*
X1274210Y5327428D1*
X1275866Y5326428D1*
X1302866D2*
X1305747Y5325428D1*
X1308155Y5324428D1*
X1310035Y5323428D1*
X1311466Y5322428D1*
X1312550Y5321428D1*
X1313366Y5320428D1*
X1314013Y5319428D1*
X1314573Y5318428D1*
X1315066Y5317428D1*
X1315480Y5316428D1*
X1315835Y5315428D1*
X1316189Y5314428D1*
X1316496Y5313428D1*
X1316691Y5312428D1*
X1316791Y5311428D1*
X1316837Y5310428D1*
X1316855Y5309428D1*
X1316862Y5308428D1*
X1316865Y5307428D1*
X1316866Y5306428D1*
Y5305428D1*
Y5304428D1*
Y5303428D1*
Y5302428D1*
X1316862Y5301428D1*
X1316827Y5300428D1*
X1316700Y5299428D1*
X1316460Y5298428D1*
X1316200Y5297428D1*
X1315990Y5296428D1*
X1315766Y5295428D1*
X1315445Y5294428D1*
X1315005Y5293428D1*
X1314414Y5292428D1*
X1313617Y5291428D1*
X1312559Y5290428D1*
X1311091Y5289428D1*
X1308987Y5288428D1*
X1306141Y5287428D1*
X1302866Y5286428D1*
X1202866Y5317428D2*
Y5316428D1*
Y5315428D1*
Y5314428D1*
Y5313428D1*
Y5312428D1*
Y5311428D1*
Y5310428D1*
X1202870Y5309428D1*
X1202905Y5308428D1*
X1203033Y5307428D1*
X1203272Y5306428D1*
X1203532Y5305428D1*
X1203742Y5304428D1*
X1203966Y5303428D1*
X1204287Y5302428D1*
X1204731Y5301428D1*
X1205362Y5300428D1*
X1206325Y5299428D1*
X1207777Y5298428D1*
X1209788Y5297428D1*
X1212235Y5296428D1*
X1214866Y5295428D1*
X1301866Y5317428D2*
X1303632Y5316428D1*
X1305084Y5315428D1*
X1306140Y5314428D1*
X1306880Y5313428D1*
X1307370Y5312428D1*
X1307643Y5311428D1*
X1307774Y5310428D1*
X1307830Y5309428D1*
X1307853Y5308428D1*
X1307862Y5307428D1*
X1307865Y5306428D1*
X1307866Y5305428D1*
Y5304428D1*
X1307862Y5303428D1*
X1307827Y5302428D1*
X1307696Y5301428D1*
X1307409Y5300428D1*
X1306908Y5299428D1*
X1306204Y5298428D1*
X1304488Y5297428D1*
X1302297Y5296428D1*
X1299866Y5295428D1*
X1238866Y5296428D2*
Y5295428D1*
X1248866Y5296428D2*
Y5295428D1*
Y5294428D1*
X1248858Y5293428D1*
X1248772Y5292428D1*
X1248561Y5291428D1*
X1247503Y5290428D1*
X1244603Y5289428D1*
X1240563Y5288428D1*
X1235866Y5287428D1*
X1263866Y5295428D2*
Y5294428D1*
Y5293428D1*
X1263882Y5292428D1*
X1263964Y5291428D1*
X1264116Y5290428D1*
X1267227Y5289428D1*
X1272023Y5288428D1*
X1277866Y5287428D1*
X992866Y5295428D2*
X991670Y5294428D1*
X990254Y5293428D1*
X988589Y5292428D1*
X986752Y5291428D1*
X984814Y5290428D1*
X982766Y5289428D1*
X980467Y5288428D1*
X977788Y5287428D1*
X974866Y5286428D1*
X994866Y5295428D2*
X994904Y5294428D1*
X995032Y5293428D1*
X995276Y5292428D1*
X995568Y5291428D1*
X995870Y5290428D1*
X996211Y5289428D1*
X996553Y5288428D1*
X996866Y5287428D1*
X1168866Y5294428D2*
X1166828Y5293428D1*
X1164696Y5292428D1*
X1162417Y5291428D1*
X1159986Y5290428D1*
X1157330Y5289428D1*
X1154267Y5288428D1*
X1150710Y5287428D1*
X1146866Y5286428D1*
X1168866Y5294428D2*
X1169674Y5293428D1*
X1170294Y5292428D1*
X1170756Y5291428D1*
X1171158Y5290428D1*
X1171487Y5289428D1*
X1171706Y5288428D1*
X1171866Y5287428D1*
X1224866D2*
X1223866Y5286428D1*
X1292866Y5287428D2*
X1293866Y5286428D1*
X1042841Y568948D2*
Y567948D1*
Y566948D1*
Y565948D1*
Y564948D1*
Y563948D1*
Y562948D1*
Y561948D1*
Y560948D1*
Y559948D1*
Y558948D1*
Y557948D1*
Y556948D1*
Y555948D1*
Y554948D1*
Y553948D1*
Y552948D1*
Y551948D1*
Y550948D1*
Y549948D1*
Y548948D1*
Y547948D1*
Y546948D1*
Y545948D1*
Y544948D1*
Y543948D1*
Y542948D1*
Y541948D1*
Y540948D1*
Y539948D1*
Y538948D1*
Y537948D1*
Y536948D1*
Y535948D1*
Y534948D1*
Y533948D1*
Y532948D1*
Y531948D1*
Y530948D1*
Y529948D1*
Y528948D1*
Y527948D1*
Y526948D1*
Y525948D1*
Y524948D1*
Y523948D1*
Y522948D1*
Y521948D1*
Y520948D1*
Y519948D1*
Y518948D1*
Y517948D1*
Y516948D1*
Y515948D1*
Y514948D1*
Y513948D1*
Y512948D1*
Y511948D1*
Y510948D1*
Y509948D1*
Y508948D1*
Y507948D1*
Y506948D1*
Y505948D1*
Y504948D1*
Y503948D1*
Y502948D1*
Y501948D1*
Y500948D1*
Y499948D1*
Y498948D1*
Y497948D1*
Y496948D1*
Y495948D1*
Y494948D1*
Y493948D1*
Y492948D1*
Y491948D1*
Y490948D1*
Y489948D1*
Y488948D1*
Y487948D1*
Y486948D1*
Y485948D1*
Y484948D1*
Y483948D1*
Y482948D1*
Y481948D1*
Y480948D1*
Y479948D1*
Y478948D1*
Y477948D1*
X1050841Y568948D2*
Y567948D1*
Y566948D1*
Y565948D1*
Y564948D1*
Y563948D1*
Y562948D1*
Y561948D1*
Y560948D1*
Y559948D1*
Y558948D1*
Y557948D1*
Y556948D1*
Y555948D1*
Y554948D1*
Y553948D1*
Y552948D1*
Y551948D1*
Y550948D1*
Y549948D1*
Y548948D1*
Y547948D1*
Y546948D1*
Y545948D1*
Y544948D1*
Y543948D1*
Y542948D1*
Y541948D1*
Y540948D1*
Y539948D1*
Y538948D1*
Y537948D1*
Y536948D1*
Y535948D1*
Y534948D1*
Y533948D1*
Y532948D1*
Y531948D1*
Y530948D1*
Y529948D1*
Y528948D1*
Y527948D1*
Y526948D1*
Y525948D1*
Y524948D1*
Y523948D1*
Y522948D1*
Y521948D1*
Y520948D1*
Y519948D1*
Y518948D1*
Y517948D1*
X1055841Y516948D1*
X1198841Y568948D2*
Y567948D1*
Y566948D1*
Y565948D1*
Y564948D1*
Y563948D1*
Y562948D1*
Y561948D1*
Y560948D1*
Y559948D1*
Y558948D1*
Y557948D1*
Y556948D1*
Y555948D1*
Y554948D1*
Y553948D1*
Y552948D1*
Y551948D1*
Y550948D1*
Y549948D1*
Y548948D1*
Y547948D1*
Y546948D1*
Y545948D1*
Y544948D1*
Y543948D1*
Y542948D1*
Y541948D1*
Y540948D1*
Y539948D1*
Y538948D1*
Y537948D1*
Y536948D1*
Y535948D1*
Y534948D1*
Y533948D1*
Y532948D1*
Y531948D1*
Y530948D1*
Y529948D1*
Y528948D1*
Y527948D1*
Y526948D1*
Y525948D1*
Y524948D1*
Y523948D1*
Y522948D1*
Y521948D1*
Y520948D1*
Y519948D1*
Y518948D1*
Y517948D1*
Y516948D1*
Y515948D1*
Y514948D1*
Y513948D1*
Y512948D1*
Y511948D1*
Y510948D1*
Y509948D1*
Y508948D1*
Y507948D1*
Y506948D1*
Y505948D1*
Y504948D1*
Y503948D1*
Y502948D1*
Y501948D1*
Y500948D1*
Y499948D1*
Y498948D1*
X1198845Y497948D1*
X1198880Y496948D1*
X1199008Y495948D1*
X1199247Y494948D1*
X1199504Y493948D1*
X1199678Y492948D1*
X1199775Y491948D1*
X1199852Y490948D1*
X1199997Y489948D1*
X1200247Y488948D1*
X1200541Y487948D1*
X1200848Y486948D1*
X1201220Y485948D1*
X1201685Y484948D1*
X1202283Y483948D1*
X1203049Y482948D1*
X1203970Y481948D1*
X1205084Y480948D1*
X1206465Y479948D1*
X1208097Y478948D1*
X1209841Y477948D1*
X1206841Y568948D2*
Y567948D1*
Y566948D1*
Y565948D1*
Y564948D1*
Y563948D1*
Y562948D1*
Y561948D1*
Y560948D1*
Y559948D1*
Y558948D1*
Y557948D1*
Y556948D1*
Y555948D1*
Y554948D1*
Y553948D1*
Y552948D1*
Y551948D1*
Y550948D1*
Y549948D1*
Y548948D1*
Y547948D1*
Y546948D1*
Y545948D1*
Y544948D1*
Y543948D1*
Y542948D1*
Y541948D1*
Y540948D1*
Y539948D1*
Y538948D1*
Y537948D1*
Y536948D1*
Y535948D1*
Y534948D1*
Y533948D1*
Y532948D1*
Y531948D1*
Y530948D1*
Y529948D1*
Y528948D1*
Y527948D1*
Y526948D1*
Y525948D1*
Y524948D1*
Y523948D1*
Y522948D1*
Y521948D1*
Y520948D1*
Y519948D1*
Y518948D1*
Y517948D1*
Y516948D1*
Y515948D1*
Y514948D1*
Y513948D1*
Y512948D1*
Y511948D1*
Y510948D1*
Y509948D1*
Y508948D1*
Y507948D1*
Y506948D1*
Y505948D1*
Y504948D1*
Y503948D1*
Y502948D1*
Y501948D1*
Y500948D1*
Y499948D1*
Y498948D1*
Y497948D1*
X1206845Y496948D1*
X1206880Y495948D1*
X1207008Y494948D1*
X1207251Y493948D1*
X1207543Y492948D1*
X1207848Y491948D1*
X1208224Y490948D1*
X1208732Y489948D1*
X1209377Y488948D1*
X1210872Y487948D1*
X1213007Y486948D1*
X1215747Y485948D1*
X1218618Y484948D1*
X1220965Y483948D1*
X1222730Y482948D1*
X1223413Y481948D1*
X1223645Y480948D1*
X1223762Y479948D1*
X1223813Y478948D1*
X1223841Y477948D1*
X959841Y562948D2*
Y561948D1*
Y560948D1*
Y559948D1*
Y558948D1*
Y557948D1*
Y556948D1*
Y555948D1*
Y554948D1*
Y553948D1*
Y552948D1*
Y551948D1*
Y550948D1*
Y549948D1*
Y548948D1*
Y547948D1*
Y546948D1*
Y545948D1*
Y544948D1*
Y543948D1*
Y542948D1*
Y541948D1*
Y540948D1*
Y539948D1*
Y538948D1*
Y537948D1*
Y536948D1*
Y535948D1*
Y534948D1*
Y533948D1*
Y532948D1*
Y531948D1*
Y530948D1*
Y529948D1*
Y528948D1*
Y527948D1*
Y526948D1*
Y525948D1*
Y524948D1*
Y523948D1*
Y522948D1*
Y521948D1*
Y520948D1*
Y519948D1*
Y518948D1*
Y517948D1*
Y516948D1*
Y515948D1*
Y514948D1*
Y513948D1*
Y512948D1*
Y511948D1*
Y510948D1*
Y509948D1*
Y508948D1*
Y507948D1*
Y506948D1*
Y505948D1*
Y504948D1*
Y503948D1*
Y502948D1*
Y501948D1*
Y500948D1*
Y499948D1*
Y498948D1*
X959837Y497948D1*
X959802Y496948D1*
X959675Y495948D1*
X959435Y494948D1*
X959175Y493948D1*
X958965Y492948D1*
X958741Y491948D1*
X958424Y490948D1*
X958015Y489948D1*
X957516Y488948D1*
X956796Y487948D1*
X955808Y486948D1*
X952696Y485948D1*
X947838Y484948D1*
X941841Y483948D1*
X966841Y562948D2*
Y561948D1*
Y560948D1*
Y559948D1*
Y558948D1*
Y557948D1*
Y556948D1*
Y555948D1*
Y554948D1*
Y553948D1*
Y552948D1*
Y551948D1*
Y550948D1*
Y549948D1*
Y548948D1*
Y547948D1*
Y546948D1*
Y545948D1*
Y544948D1*
Y543948D1*
Y542948D1*
Y541948D1*
Y540948D1*
Y539948D1*
Y538948D1*
Y537948D1*
Y536948D1*
Y535948D1*
Y534948D1*
Y533948D1*
Y532948D1*
Y531948D1*
Y530948D1*
Y529948D1*
Y528948D1*
Y527948D1*
Y526948D1*
Y525948D1*
Y524948D1*
Y523948D1*
Y522948D1*
Y521948D1*
Y520948D1*
Y519948D1*
Y518948D1*
Y517948D1*
Y516948D1*
Y515948D1*
Y514948D1*
Y513948D1*
Y512948D1*
Y511948D1*
Y510948D1*
Y509948D1*
Y508948D1*
Y507948D1*
Y506948D1*
Y505948D1*
Y504948D1*
Y503948D1*
Y502948D1*
Y501948D1*
Y500948D1*
Y499948D1*
Y498948D1*
Y497948D1*
Y496948D1*
Y495948D1*
Y494948D1*
Y493948D1*
Y492948D1*
Y491948D1*
X966837Y490948D1*
X966802Y489948D1*
X966675Y488948D1*
X966431Y487948D1*
X966140Y486948D1*
X965834Y485948D1*
X965463Y484948D1*
X964997Y483948D1*
X964396Y482948D1*
X963595Y481948D1*
X962535Y480948D1*
X961067Y479948D1*
X958963Y478948D1*
X956116Y477948D1*
X952841Y476948D1*
X1130841Y562948D2*
Y561948D1*
Y560948D1*
Y559948D1*
Y558948D1*
Y557948D1*
Y556948D1*
Y555948D1*
Y554948D1*
Y553948D1*
Y552948D1*
Y551948D1*
Y550948D1*
Y549948D1*
Y548948D1*
Y547948D1*
Y546948D1*
Y545948D1*
Y544948D1*
Y543948D1*
Y542948D1*
Y541948D1*
Y540948D1*
Y539948D1*
Y538948D1*
Y537948D1*
Y536948D1*
Y535948D1*
Y534948D1*
Y533948D1*
Y532948D1*
Y531948D1*
Y530948D1*
Y529948D1*
Y528948D1*
Y527948D1*
Y526948D1*
Y525948D1*
Y524948D1*
Y523948D1*
Y522948D1*
Y521948D1*
Y520948D1*
Y519948D1*
Y518948D1*
Y517948D1*
Y516948D1*
Y515948D1*
Y514948D1*
Y513948D1*
Y512948D1*
Y511948D1*
Y510948D1*
Y509948D1*
Y508948D1*
Y507948D1*
Y506948D1*
Y505948D1*
Y504948D1*
Y503948D1*
Y502948D1*
Y501948D1*
Y500948D1*
Y499948D1*
Y498948D1*
Y497948D1*
Y496948D1*
Y495948D1*
Y494948D1*
Y493948D1*
Y492948D1*
Y491948D1*
Y490948D1*
Y489948D1*
Y488948D1*
Y487948D1*
Y486948D1*
Y485948D1*
Y484948D1*
Y483948D1*
Y482948D1*
Y481948D1*
Y480948D1*
Y479948D1*
Y478948D1*
Y477948D1*
X1168841Y562948D2*
X1172184Y561948D1*
X1174878Y560948D1*
X1176908Y559948D1*
X1178435Y558948D1*
X1179642Y557948D1*
X1180610Y556948D1*
X1181374Y555948D1*
X1182001Y554948D1*
X1182557Y553948D1*
X1183078Y552948D1*
X1183583Y551948D1*
X1184050Y550948D1*
X1184425Y549948D1*
X1184685Y548948D1*
X1184925Y547948D1*
X1185215Y546948D1*
X1185492Y545948D1*
X1185674Y544948D1*
X1185769Y543948D1*
X1185813Y542948D1*
X1185831Y541948D1*
X1185837Y540948D1*
X1185840Y539948D1*
X1185841Y538948D1*
Y537948D1*
Y536948D1*
Y535948D1*
Y534948D1*
Y533948D1*
X1185837Y532948D1*
X1185802Y531948D1*
X1185675Y530948D1*
X1185435Y529948D1*
X1185175Y528948D1*
X1184965Y527948D1*
X1184745Y526948D1*
X1184459Y525948D1*
X1184150Y524948D1*
X1183838Y523948D1*
X1183468Y522948D1*
X1183037Y521948D1*
X1182566Y520948D1*
X1182044Y519948D1*
X1181414Y518948D1*
X1180602Y517948D1*
X1179549Y516948D1*
X1178193Y515948D1*
X1176552Y514948D1*
X1174731Y513948D1*
X1172841Y512948D1*
X1138841Y554948D2*
Y553948D1*
Y552948D1*
Y551948D1*
Y550948D1*
Y549948D1*
Y548948D1*
Y547948D1*
Y546948D1*
Y545948D1*
Y544948D1*
Y543948D1*
Y542948D1*
Y541948D1*
Y540948D1*
Y539948D1*
Y538948D1*
Y537948D1*
Y536948D1*
Y535948D1*
Y534948D1*
Y533948D1*
Y532948D1*
Y531948D1*
Y530948D1*
Y529948D1*
Y528948D1*
Y527948D1*
Y526948D1*
Y525948D1*
Y524948D1*
Y523948D1*
Y522948D1*
Y521948D1*
Y520948D1*
X1167841Y554948D2*
X1169799Y553948D1*
X1171628Y552948D1*
X1173187Y551948D1*
X1174393Y550948D1*
X1175278Y549948D1*
X1175925Y548948D1*
X1176377Y547948D1*
X1176667Y546948D1*
X1176919Y545948D1*
X1177213Y544948D1*
X1177491Y543948D1*
X1177674Y542948D1*
X1177769Y541948D1*
X1177813Y540948D1*
X1177831Y539948D1*
X1177837Y538948D1*
X1177840Y537948D1*
X1177841Y536948D1*
Y535948D1*
Y534948D1*
Y533948D1*
X1177837Y532948D1*
X1177802Y531948D1*
X1177675Y530948D1*
X1177431Y529948D1*
X1177140Y528948D1*
X1176834Y527948D1*
X1176463Y526948D1*
X1175993Y525948D1*
X1175356Y524948D1*
X1174428Y523948D1*
X1173144Y522948D1*
X1171559Y521948D1*
X1169841Y520948D1*
X996841Y539948D2*
X991437Y538948D1*
X987195Y537948D1*
X983971Y536948D1*
X982675Y535948D1*
X982226Y534948D1*
X981997Y533948D1*
X981897Y532948D1*
X981841Y531948D1*
X1017841Y539948D2*
X1019799Y538948D1*
X1021628Y537948D1*
X1023187Y536948D1*
X1024397Y535948D1*
X1025317Y534948D1*
X1026092Y533948D1*
X1026783Y532948D1*
X1027330Y531948D1*
X1027756Y530948D1*
X1028142Y529948D1*
X1028463Y528948D1*
X1028663Y527948D1*
X1028765Y526948D1*
X1028811Y525948D1*
X1028830Y524948D1*
X1028837Y523948D1*
X1028840Y522948D1*
X1028841Y521948D1*
Y520948D1*
Y519948D1*
Y518948D1*
Y517948D1*
Y516948D1*
Y515948D1*
Y514948D1*
Y513948D1*
Y512948D1*
Y511948D1*
Y510948D1*
Y509948D1*
Y508948D1*
Y507948D1*
Y506948D1*
Y505948D1*
Y504948D1*
Y503948D1*
Y502948D1*
Y501948D1*
Y500948D1*
Y499948D1*
Y498948D1*
Y497948D1*
Y496948D1*
Y495948D1*
Y494948D1*
Y493948D1*
Y492948D1*
Y491948D1*
Y490948D1*
Y489948D1*
Y488948D1*
Y487948D1*
Y486948D1*
Y485948D1*
Y484948D1*
Y483948D1*
Y482948D1*
Y481948D1*
Y480948D1*
Y479948D1*
Y478948D1*
Y477948D1*
X1079841Y538948D2*
X1078687Y537948D1*
X1077439Y536948D1*
X1076180Y535948D1*
X1075005Y534948D1*
X1073912Y533948D1*
X1072869Y532948D1*
X1071852Y531948D1*
X1070845Y530948D1*
X1069842Y529948D1*
X1068842Y528948D1*
X1067841Y527948D1*
X1066841Y526948D1*
X1065837Y525948D1*
X1064802Y524948D1*
X1063675Y523948D1*
X1062435Y522948D1*
X1061179Y521948D1*
X1059985Y520948D1*
X1058702Y519948D1*
X1056887Y518948D1*
X1054159Y517948D1*
X1050841Y516948D1*
X1090841Y538948D2*
X1089841Y537948D1*
X1088841Y536948D1*
X1087841Y535948D1*
X1086841Y534948D1*
X1085841Y533948D1*
X1084837Y532948D1*
X1083802Y531948D1*
X1082675Y530948D1*
X1081435Y529948D1*
X1080179Y528948D1*
X1079004Y527948D1*
X1077912Y526948D1*
X1076869Y525948D1*
X1075852Y524948D1*
X1074845Y523948D1*
X1073842Y522948D1*
X1072842Y521948D1*
X1071841Y520948D1*
X1070841Y519948D1*
X1069841Y518948D1*
X1068841Y517948D1*
X1067841Y516948D1*
X1066841Y515948D1*
X1065841Y514948D1*
X1064841Y513948D1*
X1063841Y512948D1*
X1064687Y511948D1*
X1065439Y510948D1*
X1066180Y509948D1*
X1067001Y508948D1*
X1067873Y507948D1*
X1068703Y506948D1*
X1069446Y505948D1*
X1070179Y504948D1*
X1070967Y503948D1*
X1071746Y502948D1*
X1072463Y501948D1*
X1073185Y500948D1*
X1073969Y499948D1*
X1074746Y498948D1*
X1075464Y497948D1*
X1076189Y496948D1*
X1077004Y495948D1*
X1077874Y494948D1*
X1078703Y493948D1*
X1079446Y492948D1*
X1080179Y491948D1*
X1080967Y490948D1*
X1081746Y489948D1*
X1082463Y488948D1*
X1083189Y487948D1*
X1084004Y486948D1*
X1084874Y485948D1*
X1085703Y484948D1*
X1086446Y483948D1*
X1087179Y482948D1*
X1087967Y481948D1*
X1088745Y480948D1*
X1089454Y479948D1*
X1090138Y478948D1*
X1090841Y477948D1*
X1232841Y538948D2*
Y537948D1*
Y536948D1*
Y535948D1*
Y534948D1*
Y533948D1*
Y532948D1*
Y531948D1*
Y530948D1*
Y529948D1*
Y528948D1*
Y527948D1*
Y526948D1*
Y525948D1*
Y524948D1*
Y523948D1*
Y522948D1*
Y521948D1*
Y520948D1*
Y519948D1*
Y518948D1*
Y517948D1*
Y516948D1*
Y515948D1*
Y514948D1*
Y513948D1*
Y512948D1*
Y511948D1*
Y510948D1*
Y509948D1*
Y508948D1*
Y507948D1*
Y506948D1*
Y505948D1*
Y504948D1*
Y503948D1*
Y502948D1*
Y501948D1*
Y500948D1*
Y499948D1*
Y498948D1*
Y497948D1*
Y496948D1*
Y495948D1*
X1232845Y494948D1*
X1232880Y493948D1*
X1233008Y492948D1*
X1233251Y491948D1*
X1233543Y490948D1*
X1233848Y489948D1*
X1234216Y488948D1*
X1234646Y487948D1*
X1235116Y486948D1*
X1235639Y485948D1*
X1236264Y484948D1*
X1237038Y483948D1*
X1237924Y482948D1*
X1238878Y481948D1*
X1239900Y480948D1*
X1241097Y479948D1*
X1242651Y478948D1*
X1244631Y477948D1*
X1246841Y476948D1*
X1240841Y538948D2*
Y537948D1*
Y536948D1*
Y535948D1*
Y534948D1*
Y533948D1*
Y532948D1*
Y531948D1*
Y530948D1*
Y529948D1*
Y528948D1*
Y527948D1*
Y526948D1*
Y525948D1*
Y524948D1*
Y523948D1*
Y522948D1*
Y521948D1*
Y520948D1*
Y519948D1*
Y518948D1*
Y517948D1*
Y516948D1*
Y515948D1*
Y514948D1*
Y513948D1*
Y512948D1*
Y511948D1*
Y510948D1*
Y509948D1*
Y508948D1*
Y507948D1*
Y506948D1*
Y505948D1*
Y504948D1*
Y503948D1*
Y502948D1*
Y501948D1*
Y500948D1*
Y499948D1*
Y498948D1*
Y497948D1*
Y496948D1*
Y495948D1*
X1240845Y494948D1*
X1240880Y493948D1*
X1241012Y492948D1*
X1241290Y491948D1*
X1241713Y490948D1*
X1242297Y489948D1*
X1243092Y488948D1*
X1244137Y487948D1*
X1245487Y486948D1*
X1247104Y485948D1*
X1248841Y484948D1*
X1274841Y538948D2*
Y537948D1*
Y536948D1*
Y535948D1*
Y534948D1*
Y533948D1*
Y532948D1*
Y531948D1*
Y530948D1*
Y529948D1*
Y528948D1*
Y527948D1*
Y526948D1*
Y525948D1*
Y524948D1*
Y523948D1*
Y522948D1*
Y521948D1*
Y520948D1*
Y519948D1*
Y518948D1*
Y517948D1*
Y516948D1*
Y515948D1*
Y514948D1*
Y513948D1*
Y512948D1*
Y511948D1*
Y510948D1*
Y509948D1*
Y508948D1*
Y507948D1*
Y506948D1*
Y505948D1*
Y504948D1*
Y503948D1*
Y502948D1*
Y501948D1*
Y500948D1*
Y499948D1*
Y498948D1*
Y497948D1*
Y496948D1*
Y495948D1*
X1274837Y494948D1*
X1274794Y493948D1*
X1274689Y492948D1*
X1274167Y491948D1*
X1272825Y490948D1*
X1271008Y489948D1*
X1268770Y488948D1*
X1266120Y487948D1*
X1263001Y486948D1*
X1259503Y485948D1*
X1255841Y484948D1*
X1282841Y538948D2*
Y537948D1*
Y536948D1*
Y535948D1*
Y534948D1*
Y533948D1*
Y532948D1*
Y531948D1*
Y530948D1*
Y529948D1*
Y528948D1*
Y527948D1*
Y526948D1*
Y525948D1*
Y524948D1*
Y523948D1*
Y522948D1*
Y521948D1*
Y520948D1*
Y519948D1*
Y518948D1*
Y517948D1*
Y516948D1*
Y515948D1*
Y514948D1*
Y513948D1*
Y512948D1*
Y511948D1*
Y510948D1*
Y509948D1*
Y508948D1*
Y507948D1*
Y506948D1*
Y505948D1*
Y504948D1*
Y503948D1*
Y502948D1*
Y501948D1*
Y500948D1*
Y499948D1*
Y498948D1*
Y497948D1*
Y496948D1*
Y495948D1*
Y494948D1*
Y493948D1*
Y492948D1*
Y491948D1*
Y490948D1*
Y489948D1*
Y488948D1*
Y487948D1*
Y486948D1*
Y485948D1*
Y484948D1*
Y483948D1*
Y482948D1*
Y481948D1*
Y480948D1*
Y479948D1*
Y478948D1*
Y477948D1*
X1309841Y538948D2*
X1307883Y537948D1*
X1306050Y536948D1*
X1304461Y535948D1*
X1303158Y534948D1*
X1302122Y533948D1*
X1301295Y532948D1*
X1300563Y531948D1*
X1299889Y530948D1*
X1299349Y529948D1*
X1298925Y528948D1*
X1298536Y527948D1*
X1298180Y526948D1*
X1297853Y525948D1*
X1297511Y524948D1*
X1297209Y523948D1*
X1297015Y522948D1*
X1296916Y521948D1*
X1296871Y520948D1*
X1296852Y519948D1*
X1296845Y518948D1*
X1296843Y517948D1*
X1296842Y516948D1*
X1296841Y515948D1*
X1296845Y514948D1*
X1296880Y513948D1*
X1297008Y512948D1*
X1297247Y511948D1*
X1297508Y510948D1*
X1297717Y509948D1*
X1297941Y508948D1*
X1298258Y507948D1*
X1298664Y506948D1*
X1299123Y505948D1*
X1299641Y504948D1*
X1300265Y503948D1*
X1301037Y502948D1*
X1301917Y501948D1*
X1302841Y500948D1*
X1301537Y499948D1*
X1300372Y498948D1*
X1299457Y497948D1*
X1298747Y496948D1*
X1298156Y495948D1*
X1297653Y494948D1*
X1297269Y493948D1*
X1297039Y492948D1*
X1296925Y491948D1*
X1296874Y490948D1*
X1296857Y489948D1*
X1296885Y488948D1*
X1297013Y487948D1*
X1297287Y486948D1*
X1297678Y485948D1*
X1298162Y484948D1*
X1298762Y483948D1*
X1299423Y482948D1*
X1300040Y481948D1*
X1300156Y480948D1*
X1299851Y479948D1*
X1299375Y478948D1*
X1298784Y477948D1*
X1298196Y476948D1*
X1297677Y475948D1*
X1297280Y474948D1*
X1297044Y473948D1*
X1296926Y472948D1*
X1296874Y471948D1*
X1296853Y470948D1*
X1296846Y469948D1*
X1296843Y468948D1*
X1296842Y467948D1*
X1296841Y466948D1*
Y465948D1*
Y464948D1*
Y463948D1*
Y462948D1*
Y461948D1*
Y460948D1*
X1296845Y459948D1*
X1296880Y458948D1*
X1297012Y457948D1*
X1297286Y456948D1*
X1297674Y455948D1*
X1298127Y454948D1*
X1298643Y453948D1*
X1299269Y452948D1*
X1300077Y451948D1*
X1301098Y450948D1*
X1302373Y449948D1*
X1304018Y448948D1*
X1306299Y447948D1*
X1309357Y446948D1*
X1312841Y445948D1*
X1352841Y538948D2*
Y537948D1*
X1352837Y536948D1*
X1352783Y535948D1*
X1352642Y534948D1*
X1351804Y533948D1*
X1349726Y532948D1*
X1347453Y531948D1*
X1345499Y530948D1*
X1343841Y529948D1*
X1344457Y528948D1*
X1344996Y527948D1*
X1345436Y526948D1*
X1345803Y525948D1*
X1346161Y524948D1*
X1346470Y523948D1*
X1346666Y522948D1*
X1346766Y521948D1*
X1346812Y520948D1*
X1346830Y519948D1*
X1346837Y518948D1*
X1346840Y517948D1*
X1346841Y516948D1*
X1346837Y515948D1*
X1346802Y514948D1*
X1346675Y513948D1*
X1346435Y512948D1*
X1346175Y511948D1*
X1345965Y510948D1*
X1345745Y509948D1*
X1345459Y508948D1*
X1345150Y507948D1*
X1344838Y506948D1*
X1344468Y505948D1*
X1344037Y504948D1*
X1343566Y503948D1*
X1343044Y502948D1*
X1342418Y501948D1*
X1341641Y500948D1*
X1340715Y499948D1*
X1339588Y498948D1*
X1338088Y497948D1*
X1335971Y496948D1*
X1333119Y495948D1*
X1329841Y494948D1*
X1374841Y538948D2*
X1372883Y537948D1*
X1371050Y536948D1*
X1369461Y535948D1*
X1368158Y534948D1*
X1367122Y533948D1*
X1366295Y532948D1*
X1365563Y531948D1*
X1364889Y530948D1*
X1364349Y529948D1*
X1363925Y528948D1*
X1363536Y527948D1*
X1363180Y526948D1*
X1362853Y525948D1*
X1362511Y524948D1*
X1362209Y523948D1*
X1362015Y522948D1*
X1361916Y521948D1*
X1361871Y520948D1*
X1361852Y519948D1*
X1361845Y518948D1*
X1361843Y517948D1*
X1361842Y516948D1*
X1361841Y515948D1*
X1361845Y514948D1*
X1361880Y513948D1*
X1362008Y512948D1*
X1362247Y511948D1*
X1362508Y510948D1*
X1362717Y509948D1*
X1362941Y508948D1*
X1363258Y507948D1*
X1363664Y506948D1*
X1364123Y505948D1*
X1364641Y504948D1*
X1365265Y503948D1*
X1366037Y502948D1*
X1366917Y501948D1*
X1367841Y500948D1*
X1366537Y499948D1*
X1365372Y498948D1*
X1364457Y497948D1*
X1363747Y496948D1*
X1363156Y495948D1*
X1362653Y494948D1*
X1362269Y493948D1*
X1362039Y492948D1*
X1361925Y491948D1*
X1361874Y490948D1*
X1361857Y489948D1*
X1361885Y488948D1*
X1362013Y487948D1*
X1362287Y486948D1*
X1362678Y485948D1*
X1363162Y484948D1*
X1363762Y483948D1*
X1364423Y482948D1*
X1365040Y481948D1*
X1365156Y480948D1*
X1364851Y479948D1*
X1364375Y478948D1*
X1363784Y477948D1*
X1363196Y476948D1*
X1362677Y475948D1*
X1362280Y474948D1*
X1362044Y473948D1*
X1361926Y472948D1*
X1361874Y471948D1*
X1361853Y470948D1*
X1361846Y469948D1*
X1361843Y468948D1*
X1361842Y467948D1*
X1361841Y466948D1*
Y465948D1*
Y464948D1*
Y463948D1*
Y462948D1*
Y461948D1*
Y460948D1*
X1361845Y459948D1*
X1361880Y458948D1*
X1362012Y457948D1*
X1362286Y456948D1*
X1362674Y455948D1*
X1363127Y454948D1*
X1363643Y453948D1*
X1364269Y452948D1*
X1365077Y451948D1*
X1366098Y450948D1*
X1367373Y449948D1*
X1369018Y448948D1*
X1371299Y447948D1*
X1374357Y446948D1*
X1377841Y445948D1*
X1417841Y538948D2*
Y537948D1*
X1417837Y536948D1*
X1417783Y535948D1*
X1417642Y534948D1*
X1416804Y533948D1*
X1414726Y532948D1*
X1412453Y531948D1*
X1410499Y530948D1*
X1408841Y529948D1*
X1409457Y528948D1*
X1409996Y527948D1*
X1410436Y526948D1*
X1410803Y525948D1*
X1411161Y524948D1*
X1411470Y523948D1*
X1411666Y522948D1*
X1411766Y521948D1*
X1411812Y520948D1*
X1411830Y519948D1*
X1411837Y518948D1*
X1411840Y517948D1*
X1411841Y516948D1*
X1411837Y515948D1*
X1411802Y514948D1*
X1411675Y513948D1*
X1411435Y512948D1*
X1411175Y511948D1*
X1410965Y510948D1*
X1410745Y509948D1*
X1410459Y508948D1*
X1410150Y507948D1*
X1409838Y506948D1*
X1409468Y505948D1*
X1409037Y504948D1*
X1408566Y503948D1*
X1408044Y502948D1*
X1407418Y501948D1*
X1406641Y500948D1*
X1405715Y499948D1*
X1404588Y498948D1*
X1403088Y497948D1*
X1400971Y496948D1*
X1398119Y495948D1*
X1394841Y494948D1*
X998841Y532948D2*
X997841Y531948D1*
X1011841Y532948D2*
X1014444Y531948D1*
X1016579Y530948D1*
X1018117Y529948D1*
X1019163Y528948D1*
X1019881Y527948D1*
X1020357Y526948D1*
X1020626Y525948D1*
X1020790Y524948D1*
X1020973Y523948D1*
X1021234Y522948D1*
X1021499Y521948D1*
X1021673Y520948D1*
X1021731Y519948D1*
X1021646Y518948D1*
X1021425Y517948D1*
X1021175Y516948D1*
X1021002Y515948D1*
X1020905Y514948D1*
X1020841Y513948D1*
X1317841Y531948D2*
X1314431Y530948D1*
X1311676Y529948D1*
X1309675Y528948D1*
X1308227Y527948D1*
X1307179Y526948D1*
X1306466Y525948D1*
X1305970Y524948D1*
X1305556Y523948D1*
X1305225Y522948D1*
X1305021Y521948D1*
X1304918Y520948D1*
X1304871Y519948D1*
X1304852Y518948D1*
X1304845Y517948D1*
X1304843Y516948D1*
X1304846Y515948D1*
X1304880Y514948D1*
X1305008Y513948D1*
X1305251Y512948D1*
X1305543Y511948D1*
X1305848Y510948D1*
X1306220Y509948D1*
X1306685Y508948D1*
X1307291Y507948D1*
X1308131Y506948D1*
X1309345Y505948D1*
X1311098Y504948D1*
X1313355Y503948D1*
X1315841Y502948D1*
X1327841Y531948D2*
X1330565Y530948D1*
X1332854Y529948D1*
X1334539Y528948D1*
X1335744Y527948D1*
X1336640Y526948D1*
X1337275Y525948D1*
X1337736Y524948D1*
X1338135Y523948D1*
X1338461Y522948D1*
X1338662Y521948D1*
X1338765Y520948D1*
X1338811Y519948D1*
X1338830Y518948D1*
X1338837Y517948D1*
X1338840Y516948D1*
X1338841Y515948D1*
X1338837Y514948D1*
X1338802Y513948D1*
X1338671Y512948D1*
X1338396Y511948D1*
X1338008Y510948D1*
X1337555Y509948D1*
X1337040Y508948D1*
X1336409Y507948D1*
X1335558Y506948D1*
X1334340Y505948D1*
X1332585Y504948D1*
X1330328Y503948D1*
X1327841Y502948D1*
X1382841Y531948D2*
X1379431Y530948D1*
X1376676Y529948D1*
X1374675Y528948D1*
X1373227Y527948D1*
X1372179Y526948D1*
X1371466Y525948D1*
X1370970Y524948D1*
X1370556Y523948D1*
X1370225Y522948D1*
X1370021Y521948D1*
X1369918Y520948D1*
X1369871Y519948D1*
X1369852Y518948D1*
X1369845Y517948D1*
X1369843Y516948D1*
X1369846Y515948D1*
X1369880Y514948D1*
X1370008Y513948D1*
X1370251Y512948D1*
X1370543Y511948D1*
X1370848Y510948D1*
X1371220Y509948D1*
X1371685Y508948D1*
X1372291Y507948D1*
X1373131Y506948D1*
X1374345Y505948D1*
X1376098Y504948D1*
X1378355Y503948D1*
X1380841Y502948D1*
X1392841Y531948D2*
X1395565Y530948D1*
X1397854Y529948D1*
X1399539Y528948D1*
X1400744Y527948D1*
X1401640Y526948D1*
X1402275Y525948D1*
X1402736Y524948D1*
X1403135Y523948D1*
X1403461Y522948D1*
X1403662Y521948D1*
X1403765Y520948D1*
X1403811Y519948D1*
X1403830Y518948D1*
X1403837Y517948D1*
X1403840Y516948D1*
X1403841Y515948D1*
X1403837Y514948D1*
X1403802Y513948D1*
X1403671Y512948D1*
X1403396Y511948D1*
X1403008Y510948D1*
X1402555Y509948D1*
X1402040Y508948D1*
X1401409Y507948D1*
X1400558Y506948D1*
X1399340Y505948D1*
X1397585Y504948D1*
X1395328Y503948D1*
X1392841Y502948D1*
X988841Y513948D2*
X987229Y512948D1*
X985729Y511948D1*
X984452Y510948D1*
X983456Y509948D1*
X982632Y508948D1*
X981917Y507948D1*
X981360Y506948D1*
X980929Y505948D1*
X980541Y504948D1*
X980220Y503948D1*
X980019Y502948D1*
X979917Y501948D1*
X979871Y500948D1*
X979852Y499948D1*
X979845Y498948D1*
X979843Y497948D1*
X979842Y496948D1*
X979841Y495948D1*
Y494948D1*
Y493948D1*
Y492948D1*
Y491948D1*
X979845Y490948D1*
X979880Y489948D1*
X980008Y488948D1*
X980251Y487948D1*
X980547Y486948D1*
X980884Y485948D1*
X981347Y484948D1*
X981925Y483948D1*
X982543Y482948D1*
X983262Y481948D1*
X984233Y480948D1*
X985574Y479948D1*
X987344Y478948D1*
X989496Y477948D1*
X991841Y476948D1*
X1138841Y514948D2*
Y513948D1*
Y512948D1*
Y511948D1*
Y510948D1*
Y509948D1*
Y508948D1*
Y507948D1*
Y506948D1*
Y505948D1*
Y504948D1*
Y503948D1*
Y502948D1*
Y501948D1*
Y500948D1*
Y499948D1*
Y498948D1*
Y497948D1*
Y496948D1*
Y495948D1*
Y494948D1*
Y493948D1*
Y492948D1*
Y491948D1*
Y490948D1*
Y489948D1*
Y488948D1*
Y487948D1*
Y486948D1*
Y485948D1*
Y484948D1*
Y483948D1*
Y482948D1*
Y481948D1*
Y480948D1*
Y479948D1*
Y478948D1*
Y477948D1*
X1133841Y514948D2*
X1144841Y513948D1*
X1155841Y512948D1*
X1019841Y508948D2*
X1018841Y507948D1*
X1020841Y508948D2*
Y507948D1*
Y506948D1*
Y505948D1*
Y504948D1*
Y503948D1*
Y502948D1*
Y501948D1*
Y500948D1*
Y499948D1*
Y498948D1*
Y497948D1*
Y496948D1*
Y495948D1*
X1020837Y494948D1*
X1020790Y493948D1*
X1020673Y492948D1*
X1020046Y491948D1*
X1018350Y490948D1*
X1015973Y489948D1*
X1012878Y488948D1*
X1008873Y487948D1*
X1003309Y486948D1*
X995690Y485948D1*
X986841Y484948D1*
X1050841Y508948D2*
Y507948D1*
Y506948D1*
Y505948D1*
Y504948D1*
Y503948D1*
Y502948D1*
Y501948D1*
Y500948D1*
Y499948D1*
Y498948D1*
Y497948D1*
Y496948D1*
Y495948D1*
Y494948D1*
Y493948D1*
Y492948D1*
Y491948D1*
Y490948D1*
Y489948D1*
Y488948D1*
Y487948D1*
Y486948D1*
Y485948D1*
Y484948D1*
Y483948D1*
Y482948D1*
Y481948D1*
Y480948D1*
Y479948D1*
Y478948D1*
Y477948D1*
X1055841Y508948D2*
X1056837Y507948D1*
X1057802Y506948D1*
X1058675Y505948D1*
X1059435Y504948D1*
X1060179Y503948D1*
X1061000Y502948D1*
X1061873Y501948D1*
X1062703Y500948D1*
X1063446Y499948D1*
X1064183Y498948D1*
X1065002Y497948D1*
X1065873Y496948D1*
X1066703Y495948D1*
X1067446Y494948D1*
X1068183Y493948D1*
X1069002Y492948D1*
X1069873Y491948D1*
X1070703Y490948D1*
X1071446Y489948D1*
X1072183Y488948D1*
X1073002Y487948D1*
X1073873Y486948D1*
X1074703Y485948D1*
X1075446Y484948D1*
X1076183Y483948D1*
X1077002Y482948D1*
X1077873Y481948D1*
X1078702Y480948D1*
X1079437Y479948D1*
X1080132Y478948D1*
X1080841Y477948D1*
X1005841Y507948D2*
X1004841Y506948D1*
X994841D2*
X993038Y505948D1*
X991457Y504948D1*
X990161Y503948D1*
X989165Y502948D1*
X988389Y501948D1*
X988107Y500948D1*
X987955Y499948D1*
X987886Y498948D1*
X987858Y497948D1*
X987847Y496948D1*
X987843Y495948D1*
X987842Y494948D1*
X987841Y493948D1*
Y492948D1*
X987845Y491948D1*
X987884Y490948D1*
X988051Y489948D1*
X988363Y488948D1*
X989191Y487948D1*
X991648Y486948D1*
X995709Y485948D1*
X1000841Y484948D1*
X1306841Y494948D2*
X1306038Y493948D1*
X1305453Y492948D1*
X1305126Y491948D1*
X1304949Y490948D1*
X1305141Y489948D1*
X1306040Y488948D1*
X1307339Y487948D1*
X1308841Y486948D1*
X1371841Y494948D2*
X1371038Y493948D1*
X1370453Y492948D1*
X1370126Y491948D1*
X1369949Y490948D1*
X1370141Y489948D1*
X1371040Y488948D1*
X1372339Y487948D1*
X1373841Y486948D1*
X1338841D2*
X1340915Y485948D1*
X1342702Y484948D1*
X1344124Y483948D1*
X1345185Y482948D1*
X1346035Y481948D1*
X1346760Y480948D1*
X1347321Y479948D1*
X1347753Y478948D1*
X1348141Y477948D1*
X1348463Y476948D1*
X1348663Y475948D1*
X1348765Y474948D1*
X1348811Y473948D1*
X1348830Y472948D1*
X1348837Y471948D1*
X1348840Y470948D1*
X1348841Y469948D1*
Y468948D1*
Y467948D1*
Y466948D1*
Y465948D1*
Y464948D1*
Y463948D1*
Y462948D1*
Y461948D1*
Y460948D1*
X1348837Y459948D1*
X1348802Y458948D1*
X1348671Y457948D1*
X1348396Y456948D1*
X1348008Y455948D1*
X1347559Y454948D1*
X1347079Y453948D1*
X1346580Y452948D1*
X1346011Y451948D1*
X1345246Y450948D1*
X1344150Y449948D1*
X1342636Y448948D1*
X1340551Y447948D1*
X1337854Y446948D1*
X1334841Y445948D1*
X1403841Y486948D2*
X1405915Y485948D1*
X1407702Y484948D1*
X1409124Y483948D1*
X1410185Y482948D1*
X1411035Y481948D1*
X1411760Y480948D1*
X1412321Y479948D1*
X1412753Y478948D1*
X1413141Y477948D1*
X1413463Y476948D1*
X1413663Y475948D1*
X1413765Y474948D1*
X1413811Y473948D1*
X1413830Y472948D1*
X1413837Y471948D1*
X1413840Y470948D1*
X1413841Y469948D1*
Y468948D1*
Y467948D1*
Y466948D1*
Y465948D1*
Y464948D1*
Y463948D1*
Y462948D1*
Y461948D1*
Y460948D1*
X1413837Y459948D1*
X1413802Y458948D1*
X1413671Y457948D1*
X1413396Y456948D1*
X1413008Y455948D1*
X1412559Y454948D1*
X1412079Y453948D1*
X1411580Y452948D1*
X1411011Y451948D1*
X1410246Y450948D1*
X1409150Y449948D1*
X1407636Y448948D1*
X1405551Y447948D1*
X1402854Y446948D1*
X1399841Y445948D1*
X937841Y484948D2*
X937691Y483948D1*
X937482Y482948D1*
X937290Y481948D1*
X937511Y480948D1*
X938285Y479948D1*
X940125Y478948D1*
X942744Y477948D1*
X945841Y476948D1*
X942841Y484948D2*
X943841Y483948D1*
X1021841Y484948D2*
X1019034Y483948D1*
X1016410Y482948D1*
X1013909Y481948D1*
X1011332Y480948D1*
X1008523Y479948D1*
X1005350Y478948D1*
X1001728Y477948D1*
X997841Y476948D1*
X1021841Y484948D2*
X1021879Y483948D1*
X1022007Y482948D1*
X1022251Y481948D1*
X1022546Y480948D1*
X1022875Y479948D1*
X1023315Y478948D1*
X1023841Y477948D1*
X1274841Y484948D2*
X1272996Y483948D1*
X1271244Y482948D1*
X1269499Y481948D1*
X1267635Y480948D1*
X1265561Y479948D1*
X1263202Y478948D1*
X1260580Y477948D1*
X1257841Y476948D1*
X1273841Y484948D2*
X1274683Y483948D1*
X1275396Y482948D1*
X1275974Y481948D1*
X1276431Y480948D1*
X1276831Y479948D1*
X1277300Y478948D1*
X1277841Y477948D1*
X1303841Y479948D2*
Y478948D1*
Y477948D1*
Y476948D1*
Y475948D1*
Y474948D1*
Y473948D1*
Y472948D1*
Y471948D1*
Y470948D1*
Y469948D1*
Y468948D1*
Y467948D1*
Y466948D1*
Y465948D1*
X1303845Y464948D1*
X1303880Y463948D1*
X1304008Y462948D1*
X1304251Y461948D1*
X1304547Y460948D1*
X1304887Y459948D1*
X1305394Y458948D1*
X1306177Y457948D1*
X1307364Y456948D1*
X1309105Y455948D1*
X1311358Y454948D1*
X1313841Y453948D1*
X1306841Y479948D2*
X1307841Y478948D1*
X1368841Y479948D2*
Y478948D1*
Y477948D1*
Y476948D1*
Y475948D1*
Y474948D1*
Y473948D1*
Y472948D1*
Y471948D1*
Y470948D1*
Y469948D1*
Y468948D1*
Y467948D1*
Y466948D1*
Y465948D1*
X1368845Y464948D1*
X1368880Y463948D1*
X1369008Y462948D1*
X1369251Y461948D1*
X1369547Y460948D1*
X1369887Y459948D1*
X1370394Y458948D1*
X1371177Y457948D1*
X1372364Y456948D1*
X1374105Y455948D1*
X1376358Y454948D1*
X1378841Y453948D1*
X1371841Y479948D2*
X1372841Y478948D1*
X1337841D2*
X1338799Y477948D1*
X1339636Y476948D1*
X1340265Y475948D1*
X1340730Y474948D1*
X1341133Y473948D1*
X1341459Y472948D1*
X1341662Y471948D1*
X1341765Y470948D1*
X1341811Y469948D1*
X1341830Y468948D1*
X1341837Y467948D1*
X1341840Y466948D1*
X1341841Y465948D1*
X1341837Y464948D1*
X1341802Y463948D1*
X1341675Y462948D1*
X1341431Y461948D1*
X1341140Y460948D1*
X1340830Y459948D1*
X1340420Y458948D1*
X1339788Y457948D1*
X1338784Y456948D1*
X1337362Y455948D1*
X1335657Y454948D1*
X1333841Y453948D1*
X1402841Y478948D2*
X1403799Y477948D1*
X1404636Y476948D1*
X1405265Y475948D1*
X1405730Y474948D1*
X1406133Y473948D1*
X1406459Y472948D1*
X1406662Y471948D1*
X1406765Y470948D1*
X1406811Y469948D1*
X1406830Y468948D1*
X1406837Y467948D1*
X1406840Y466948D1*
X1406841Y465948D1*
X1406837Y464948D1*
X1406802Y463948D1*
X1406675Y462948D1*
X1406431Y461948D1*
X1406140Y460948D1*
X1405830Y459948D1*
X1405420Y458948D1*
X1404788Y457948D1*
X1403784Y456948D1*
X1402362Y455948D1*
X1400657Y454948D1*
X1398841Y453948D1*
M02*
