G04 DipTrace 3.3.0.0*
G04 uTides_PCBpanel.GBL*
%MOIN*%
G04 #@! TF.FileFunction,Copper,L2,Bot*
G04 #@! TF.Part,Single*
G04 #@! TA.AperFunction,CopperBalancing*
%ADD15C,0.01*%
G04 #@! TA.AperFunction,ComponentPad*
%ADD18C,0.334646*%
%ADD19O,0.299213X0.177165*%
%FSLAX26Y26*%
G04*
G70*
G90*
G75*
G01*
G04 Bottom*
%LPD*%
X416009Y5419079D2*
D15*
X567663D1*
X810345D2*
X1567663D1*
X1810345D2*
X1962096D1*
X416009Y5409210D2*
X555689D1*
X822319D2*
X1555689D1*
X1822319D2*
X1962096D1*
X416009Y5399341D2*
X546647D1*
X831341D2*
X1546647D1*
X1831341D2*
X1962096D1*
X416009Y5389472D2*
X539655D1*
X838353D2*
X1539655D1*
X1838353D2*
X1962096D1*
X416009Y5379604D2*
X534205D1*
X843803D2*
X1534205D1*
X1843803D2*
X1962096D1*
X416009Y5369735D2*
X530064D1*
X847924D2*
X1530064D1*
X1847924D2*
X1962096D1*
X416009Y5359866D2*
X527076D1*
X850932D2*
X1527076D1*
X1850932D2*
X1962096D1*
X416009Y5349997D2*
X525104D1*
X852885D2*
X1525104D1*
X1852885D2*
X1962096D1*
X416009Y5340129D2*
X524127D1*
X853881D2*
X1524127D1*
X1853881D2*
X1962096D1*
X416009Y5330260D2*
X524108D1*
X853900D2*
X1524108D1*
X1853900D2*
X1962096D1*
X416009Y5320391D2*
X525025D1*
X852983D2*
X1525025D1*
X1852983D2*
X1962096D1*
X416009Y5310522D2*
X526920D1*
X851088D2*
X1526920D1*
X1851088D2*
X1962096D1*
X416009Y5300654D2*
X529849D1*
X848139D2*
X1529849D1*
X1848139D2*
X1962096D1*
X416009Y5290785D2*
X533912D1*
X844076D2*
X1533912D1*
X1844076D2*
X1962096D1*
X416009Y5280916D2*
X539264D1*
X838724D2*
X1539264D1*
X1838724D2*
X1962096D1*
X416009Y5271047D2*
X546177D1*
X831831D2*
X1546177D1*
X1831831D2*
X1962096D1*
X416009Y5261178D2*
X555064D1*
X822944D2*
X1555064D1*
X1822944D2*
X1962096D1*
X416009Y5251310D2*
X566823D1*
X811185D2*
X1566823D1*
X1811185D2*
X1962096D1*
X416009Y5241441D2*
X583697D1*
X794291D2*
X1583697D1*
X1794291D2*
X1962096D1*
X416009Y5231572D2*
X1962096D1*
X416009Y5221703D2*
X1962096D1*
X416009Y5211835D2*
X1962096D1*
X416009Y5201966D2*
X1962096D1*
X416009Y5192097D2*
X1962076D1*
X416009Y5182228D2*
X1962076D1*
X416009Y5172360D2*
X1962076D1*
X416009Y5162491D2*
X1962076D1*
X416009Y5152622D2*
X1962076D1*
X416009Y5142753D2*
X1962076D1*
X416009Y5132885D2*
X1962076D1*
X416009Y5123016D2*
X1962076D1*
X416009Y5113147D2*
X1962076D1*
X416009Y5103278D2*
X1962076D1*
X416009Y5093409D2*
X1962076D1*
X416009Y5083541D2*
X1962076D1*
X416009Y5073672D2*
X1962076D1*
X416009Y5063803D2*
X1962076D1*
X416009Y5053934D2*
X1962076D1*
X416009Y5044066D2*
X1962076D1*
X416009Y5034197D2*
X785631D1*
X792551D2*
X1962076D1*
X416009Y5024328D2*
X734029D1*
X844155D2*
X1535123D1*
X1642963D2*
X1962076D1*
X416009Y5014459D2*
X712955D1*
X865228D2*
X1161315D1*
X1216869D2*
X1513677D1*
X1664428D2*
X1962076D1*
X416009Y5004591D2*
X697681D1*
X880501D2*
X1143248D1*
X1234936D2*
X1498228D1*
X1679877D2*
X1962076D1*
X416009Y4994722D2*
X685592D1*
X892592D2*
X1132311D1*
X1245873D2*
X1486021D1*
X1692084D2*
X1962076D1*
X416009Y4984853D2*
X675631D1*
X902552D2*
X1124732D1*
X1253451D2*
X1475983D1*
X1702104D2*
X1962076D1*
X416009Y4974984D2*
X667311D1*
X910873D2*
X1119341D1*
X1258841D2*
X1467604D1*
X1710501D2*
X1962076D1*
X416009Y4965115D2*
X660280D1*
X917904D2*
X1115689D1*
X1262475D2*
X1460513D1*
X1717592D2*
X1962076D1*
X416009Y4955247D2*
X654323D1*
X923861D2*
X1113521D1*
X1264663D2*
X1454517D1*
X1723568D2*
X1962076D1*
X416009Y4945378D2*
X649341D1*
X928841D2*
X1112681D1*
X1265501D2*
X1449497D1*
X1728608D2*
X1962076D1*
X416009Y4935509D2*
X645201D1*
X932983D2*
X1113131D1*
X1265033D2*
X1445337D1*
X1732768D2*
X1962076D1*
X416009Y4925640D2*
X641861D1*
X936323D2*
X1114928D1*
X1263256D2*
X1441940D1*
X1736147D2*
X1962076D1*
X416009Y4915772D2*
X639224D1*
X938959D2*
X1118131D1*
X1260052D2*
X1439283D1*
X1738803D2*
X1962076D1*
X416009Y4905903D2*
X637291D1*
X940892D2*
X1122975D1*
X1255209D2*
X1437311D1*
X1740776D2*
X1962076D1*
X416009Y4896034D2*
X636021D1*
X942163D2*
X1129849D1*
X1248333D2*
X1436021D1*
X1742084D2*
X1962076D1*
X416009Y4886165D2*
X635396D1*
X942787D2*
X1139615D1*
X1238568D2*
X1435357D1*
X1742728D2*
X1962076D1*
X416009Y4876297D2*
X635416D1*
X942768D2*
X1154752D1*
X1223432D2*
X1435357D1*
X1742748D2*
X1962076D1*
X416009Y4866428D2*
X636060D1*
X942123D2*
X1435983D1*
X1742123D2*
X1962076D1*
X416009Y4856559D2*
X637369D1*
X940815D2*
X1437252D1*
X1740853D2*
X1962076D1*
X416009Y4846690D2*
X639323D1*
X938861D2*
X1439185D1*
X1738920D2*
X1962076D1*
X416009Y4836822D2*
X641979D1*
X936205D2*
X1441803D1*
X1736283D2*
X1962076D1*
X416009Y4826953D2*
X645377D1*
X932807D2*
X1445163D1*
X1732924D2*
X1962076D1*
X416009Y4817084D2*
X649537D1*
X928647D2*
X1449303D1*
X1728803D2*
X1962076D1*
X416009Y4807215D2*
X654576D1*
X923608D2*
X1454283D1*
X1723803D2*
X1962076D1*
X416009Y4797346D2*
X660552D1*
X917631D2*
X1460240D1*
X1717865D2*
X1962076D1*
X416009Y4787478D2*
X667643D1*
X910541D2*
X1467272D1*
X1710833D2*
X1962076D1*
X416009Y4777609D2*
X676041D1*
X902143D2*
X1475592D1*
X1702495D2*
X1962076D1*
X416009Y4767740D2*
X686060D1*
X892123D2*
X1485552D1*
X1692552D2*
X1962076D1*
X416009Y4757871D2*
X698268D1*
X879916D2*
X1497643D1*
X1680463D2*
X1962076D1*
X416009Y4748003D2*
X713717D1*
X864467D2*
X1512916D1*
X1665189D2*
X1962076D1*
X416009Y4738134D2*
X735181D1*
X843001D2*
X1533991D1*
X1644115D2*
X1962076D1*
X416009Y4728265D2*
X1585845D1*
X1592257D2*
X1962076D1*
X416009Y4718396D2*
X1962076D1*
X416009Y4708528D2*
X1962076D1*
X416009Y4698659D2*
X1962076D1*
X416009Y4688790D2*
X1962076D1*
X416009Y4678921D2*
X1962076D1*
X416009Y4669052D2*
X1962076D1*
X416009Y4659184D2*
X1962076D1*
X416009Y4649315D2*
X1962076D1*
X416009Y4639446D2*
X1962076D1*
X416009Y4629577D2*
X1962076D1*
X416009Y4619709D2*
X1962076D1*
X416009Y4609840D2*
X1962076D1*
X416009Y4599971D2*
X1962076D1*
X416009Y4590102D2*
X1962076D1*
X416009Y4580234D2*
X1962076D1*
X416009Y4570365D2*
X1962076D1*
X416009Y4560496D2*
X1962076D1*
X416009Y4550627D2*
X1962076D1*
X416009Y4540759D2*
X1962076D1*
X416009Y4530890D2*
X1962076D1*
X416009Y4521021D2*
X1962076D1*
X416009Y4511152D2*
X1962076D1*
X416009Y4501283D2*
X1962076D1*
X416009Y4491415D2*
X1962076D1*
X416009Y4481546D2*
X1962076D1*
X416009Y4471677D2*
X1962076D1*
X416009Y4461808D2*
X1962076D1*
X416009Y4451940D2*
X1962076D1*
X416009Y4442071D2*
X1962076D1*
X416009Y4432202D2*
X763365D1*
X814819D2*
X1563365D1*
X1614819D2*
X1962076D1*
X416009Y4422333D2*
X729009D1*
X849155D2*
X1529009D1*
X1649155D2*
X1962076D1*
X416009Y4412465D2*
X709517D1*
X868665D2*
X1509517D1*
X1668665D2*
X1962076D1*
X416009Y4402596D2*
X695025D1*
X883159D2*
X1495025D1*
X1683159D2*
X1962076D1*
X416009Y4392727D2*
X683424D1*
X894760D2*
X1483424D1*
X1694760D2*
X1962076D1*
X416009Y4382858D2*
X673833D1*
X904349D2*
X1473833D1*
X1704349D2*
X1962076D1*
X416009Y4372990D2*
X665787D1*
X912396D2*
X1465787D1*
X1712396D2*
X1962076D1*
X416009Y4363121D2*
X658991D1*
X919193D2*
X1458991D1*
X1719193D2*
X1962076D1*
X416009Y4353252D2*
X653248D1*
X924936D2*
X1453248D1*
X1724936D2*
X1962076D1*
X416009Y4343383D2*
X648444D1*
X929740D2*
X1448444D1*
X1729740D2*
X1962076D1*
X416009Y4333514D2*
X644459D1*
X933705D2*
X1444459D1*
X1733705D2*
X1962076D1*
X416009Y4323646D2*
X641256D1*
X936908D2*
X1441256D1*
X1736908D2*
X1962076D1*
X416009Y4313777D2*
X638776D1*
X939408D2*
X1438776D1*
X1739408D2*
X1962076D1*
X416009Y4303908D2*
X636979D1*
X941205D2*
X1436979D1*
X1741205D2*
X1962076D1*
X416009Y4294039D2*
X635845D1*
X942337D2*
X1435845D1*
X1742337D2*
X1962076D1*
X416009Y4284171D2*
X635337D1*
X942827D2*
X1435337D1*
X1742827D2*
X1962076D1*
X416009Y4274302D2*
X635495D1*
X942689D2*
X1435495D1*
X1742689D2*
X1962076D1*
X416009Y4264433D2*
X636276D1*
X941908D2*
X1436276D1*
X1741908D2*
X1962076D1*
X416009Y4254564D2*
X637701D1*
X940483D2*
X1437701D1*
X1740483D2*
X1962076D1*
X416009Y4244696D2*
X639811D1*
X938373D2*
X1439811D1*
X1738373D2*
X1962076D1*
X416009Y4234827D2*
X642604D1*
X935580D2*
X1442604D1*
X1735580D2*
X1962076D1*
X416009Y4224958D2*
X646159D1*
X932025D2*
X1446159D1*
X1732025D2*
X1962076D1*
X416009Y4215089D2*
X650495D1*
X927689D2*
X1450495D1*
X1727689D2*
X1962076D1*
X416009Y4205220D2*
X655689D1*
X922475D2*
X1455689D1*
X1722475D2*
X1962076D1*
X416009Y4195352D2*
X661900D1*
X916283D2*
X1461900D1*
X1716283D2*
X1962076D1*
X416009Y4185483D2*
X669224D1*
X908959D2*
X1469224D1*
X1708959D2*
X1962076D1*
X416009Y4175614D2*
X677916D1*
X900268D2*
X1477916D1*
X1700268D2*
X1962076D1*
X416009Y4165745D2*
X688327D1*
X889837D2*
X1488327D1*
X1689837D2*
X1962076D1*
X416009Y4155877D2*
X701080D1*
X877104D2*
X1501080D1*
X1677104D2*
X1962076D1*
X416009Y4146008D2*
X717428D1*
X860756D2*
X1517428D1*
X1660756D2*
X1962076D1*
X416009Y4136139D2*
X740924D1*
X837240D2*
X1540924D1*
X1637240D2*
X1962076D1*
X416009Y4126270D2*
X1962076D1*
X416009Y4116402D2*
X1962076D1*
X416009Y4106533D2*
X1962056D1*
X416009Y4096664D2*
X1962056D1*
X416009Y4086795D2*
X1962056D1*
X416009Y4076927D2*
X1962056D1*
X416009Y4067058D2*
X1962056D1*
X416009Y4057189D2*
X1962056D1*
X416009Y4047320D2*
X1962056D1*
X416009Y4037451D2*
X1962056D1*
X416009Y4027583D2*
X1962056D1*
X416009Y4017714D2*
X1962056D1*
X416009Y4007845D2*
X1962056D1*
X416009Y3997976D2*
X1962056D1*
X416009Y3988108D2*
X1962056D1*
X416009Y3978239D2*
X1962056D1*
X416009Y3968370D2*
X1962056D1*
X416009Y3958501D2*
X1962056D1*
X416009Y3948633D2*
X1962056D1*
X416009Y3938764D2*
X1962056D1*
X416009Y3928895D2*
X1962056D1*
X416009Y3919026D2*
X1962056D1*
X416009Y3909157D2*
X1962056D1*
X416009Y3899289D2*
X1962056D1*
X416009Y3889420D2*
X1962056D1*
X416009Y3879551D2*
X1962056D1*
X416009Y3869682D2*
X1962056D1*
X416009Y3859814D2*
X1962056D1*
X416009Y3849945D2*
X1962056D1*
X416009Y3840076D2*
X1962056D1*
X416009Y3830207D2*
X753327D1*
X824857D2*
X1553327D1*
X1624857D2*
X1962056D1*
X416009Y3820339D2*
X724479D1*
X853705D2*
X1524479D1*
X1653705D2*
X1962056D1*
X416009Y3810470D2*
X706295D1*
X871888D2*
X1506295D1*
X1671888D2*
X1962056D1*
X416009Y3800601D2*
X692487D1*
X885697D2*
X1492487D1*
X1685697D2*
X1962056D1*
X416009Y3790732D2*
X681333D1*
X896831D2*
X1164849D1*
X1213333D2*
X1481333D1*
X1696831D2*
X1962056D1*
X416009Y3780864D2*
X672096D1*
X906088D2*
X1145220D1*
X1232963D2*
X1472096D1*
X1706088D2*
X1962056D1*
X416009Y3770995D2*
X664323D1*
X913861D2*
X1133853D1*
X1244331D2*
X1464323D1*
X1713861D2*
X1962056D1*
X416009Y3761126D2*
X657740D1*
X920444D2*
X1126041D1*
X1252143D2*
X1457740D1*
X1720444D2*
X1962056D1*
X416009Y3751257D2*
X652213D1*
X925971D2*
X1120533D1*
X1257651D2*
X1452213D1*
X1725971D2*
X1962056D1*
X416009Y3741388D2*
X647564D1*
X930600D2*
X1116783D1*
X1261400D2*
X1447564D1*
X1730600D2*
X1962056D1*
X416009Y3731520D2*
X643756D1*
X934428D2*
X1114537D1*
X1263627D2*
X1443756D1*
X1734428D2*
X1962056D1*
X416009Y3721651D2*
X640709D1*
X937475D2*
X1113677D1*
X1264505D2*
X1440709D1*
X1737475D2*
X1962056D1*
X416009Y3711782D2*
X638365D1*
X939819D2*
X1114108D1*
X1264076D2*
X1438365D1*
X1739819D2*
X1962056D1*
X416009Y3701913D2*
X636705D1*
X941479D2*
X1115885D1*
X1262299D2*
X1436705D1*
X1741479D2*
X1962056D1*
X416009Y3692045D2*
X635689D1*
X942495D2*
X1119108D1*
X1259076D2*
X1435689D1*
X1742495D2*
X1962056D1*
X416009Y3682176D2*
X635319D1*
X942865D2*
X1123991D1*
X1254193D2*
X1435319D1*
X1742865D2*
X1962056D1*
X416009Y3672307D2*
X635592D1*
X942592D2*
X1130944D1*
X1247240D2*
X1435592D1*
X1742592D2*
X1962056D1*
X416009Y3662438D2*
X636509D1*
X941673D2*
X1140904D1*
X1237280D2*
X1436509D1*
X1741673D2*
X1962056D1*
X416009Y3652570D2*
X638072D1*
X940112D2*
X1156588D1*
X1221596D2*
X1438072D1*
X1740112D2*
X1962056D1*
X416009Y3642701D2*
X640319D1*
X937865D2*
X1134479D1*
X1243705D2*
X1440319D1*
X1737865D2*
X1962056D1*
X416009Y3632832D2*
X643268D1*
X934916D2*
X1115807D1*
X1262377D2*
X1443268D1*
X1734916D2*
X1962056D1*
X416009Y3622963D2*
X646959D1*
X931224D2*
X1102173D1*
X1276009D2*
X1446959D1*
X1731224D2*
X1962056D1*
X416009Y3613094D2*
X651471D1*
X926713D2*
X1091432D1*
X1286752D2*
X1451471D1*
X1726713D2*
X1962056D1*
X416009Y3603226D2*
X656861D1*
X921323D2*
X1082681D1*
X1295483D2*
X1456861D1*
X1721323D2*
X1962056D1*
X416009Y3593357D2*
X663268D1*
X914896D2*
X1075475D1*
X1302709D2*
X1463268D1*
X1714896D2*
X1962056D1*
X416009Y3583488D2*
X670865D1*
X907319D2*
X1069517D1*
X1308665D2*
X1470865D1*
X1707319D2*
X1962056D1*
X416009Y3573619D2*
X679869D1*
X898315D2*
X1064635D1*
X1313549D2*
X1479869D1*
X1698315D2*
X1962056D1*
X416009Y3563751D2*
X690689D1*
X887495D2*
X1060709D1*
X1317475D2*
X1490689D1*
X1687495D2*
X1962056D1*
X416009Y3553882D2*
X704029D1*
X874155D2*
X1057623D1*
X1320560D2*
X1504029D1*
X1674155D2*
X1962056D1*
X416009Y3544013D2*
X721373D1*
X856791D2*
X1055357D1*
X1322827D2*
X1521373D1*
X1656791D2*
X1962056D1*
X416009Y3534144D2*
X747584D1*
X830580D2*
X1053853D1*
X1324331D2*
X1547584D1*
X1630580D2*
X1962056D1*
X416009Y3524276D2*
X1053072D1*
X1325112D2*
X1962056D1*
X416009Y3514407D2*
X1053033D1*
X1325151D2*
X1962056D1*
X416009Y3504538D2*
X1053697D1*
X1324487D2*
X1962056D1*
X416009Y3494669D2*
X1055104D1*
X1323080D2*
X1962056D1*
X416009Y3484801D2*
X1057272D1*
X1320912D2*
X1962056D1*
X416009Y3474932D2*
X1060240D1*
X1317944D2*
X1962056D1*
X416009Y3465063D2*
X1064049D1*
X1314135D2*
X1962056D1*
X416009Y3455194D2*
X1068795D1*
X1309388D2*
X1962056D1*
X416009Y3445325D2*
X1074596D1*
X1303588D2*
X1962056D1*
X416009Y3435457D2*
X1081608D1*
X1296576D2*
X1962056D1*
X416009Y3425588D2*
X1090123D1*
X1288060D2*
X1962056D1*
X416009Y3415719D2*
X1100552D1*
X1277631D2*
X1962056D1*
X416009Y3405850D2*
X1113697D1*
X1264487D2*
X1962056D1*
X416009Y3395982D2*
X1131432D1*
X1246752D2*
X1962056D1*
X416009Y3386113D2*
X1161803D1*
X1216381D2*
X1962056D1*
X416009Y3376244D2*
X1962056D1*
X416009Y3366375D2*
X1962056D1*
X416009Y3356507D2*
X1962056D1*
X416009Y3346638D2*
X1962056D1*
X416009Y3336769D2*
X1962056D1*
X416009Y3326900D2*
X1962056D1*
X416009Y3317031D2*
X1172760D1*
X1205424D2*
X1962056D1*
X416009Y3307163D2*
X1148404D1*
X1229780D2*
X1962056D1*
X416009Y3297294D2*
X1135924D1*
X1242260D2*
X1962056D1*
X416009Y3287425D2*
X1127487D1*
X1250677D2*
X1962056D1*
X416009Y3277556D2*
X1121549D1*
X1256635D2*
X1962056D1*
X416009Y3267688D2*
X1117467D1*
X1260717D2*
X1962056D1*
X416009Y3257819D2*
X1114908D1*
X1263276D2*
X1962056D1*
X416009Y3247950D2*
X1113756D1*
X1264428D2*
X1962056D1*
X416009Y3238081D2*
X1113892D1*
X1264272D2*
X1962056D1*
X416009Y3228213D2*
X745689D1*
X832495D2*
X1115377D1*
X1262787D2*
X1545689D1*
X1632495D2*
X1962056D1*
X416009Y3218344D2*
X720280D1*
X857904D2*
X1118287D1*
X1259896D2*
X1520280D1*
X1657904D2*
X1962056D1*
X416009Y3208475D2*
X703228D1*
X874955D2*
X1122780D1*
X1255404D2*
X1503228D1*
X1674955D2*
X1962056D1*
X416009Y3198606D2*
X690045D1*
X888139D2*
X1129244D1*
X1248940D2*
X1490045D1*
X1688139D2*
X1962056D1*
X416009Y3188738D2*
X679341D1*
X898841D2*
X1138424D1*
X1239760D2*
X1479341D1*
X1698841D2*
X1962056D1*
X416009Y3178869D2*
X670416D1*
X907768D2*
X1152388D1*
X1225795D2*
X1470416D1*
X1707768D2*
X1962056D1*
X416009Y3169000D2*
X662896D1*
X915287D2*
X1131217D1*
X1234467D2*
X1462896D1*
X1715287D2*
X1962056D1*
X416009Y3159131D2*
X656549D1*
X921635D2*
X1111568D1*
X1254115D2*
X1456549D1*
X1721635D2*
X1962056D1*
X416009Y3149262D2*
X651197D1*
X926987D2*
X1097467D1*
X1268217D2*
X1451197D1*
X1726987D2*
X1962056D1*
X416009Y3139394D2*
X646744D1*
X931440D2*
X1086412D1*
X1279272D2*
X1446744D1*
X1731440D2*
X1962056D1*
X416009Y3129525D2*
X643092D1*
X935092D2*
X1077448D1*
X1288236D2*
X1443092D1*
X1735092D2*
X1962056D1*
X416009Y3119656D2*
X640181D1*
X938001D2*
X1070064D1*
X1295619D2*
X1440181D1*
X1738001D2*
X1962056D1*
X416009Y3109787D2*
X637975D1*
X940209D2*
X1063971D1*
X1301713D2*
X1437975D1*
X1740209D2*
X1962056D1*
X416009Y3099919D2*
X636451D1*
X941732D2*
X1058951D1*
X1306732D2*
X1436451D1*
X1741732D2*
X1962056D1*
X416009Y3090050D2*
X635572D1*
X942612D2*
X1054908D1*
X1310776D2*
X1435572D1*
X1742612D2*
X1962056D1*
X416009Y3080181D2*
X635319D1*
X942845D2*
X1051724D1*
X1313959D2*
X1435319D1*
X1742845D2*
X1962056D1*
X416009Y3070312D2*
X635728D1*
X942455D2*
X1049361D1*
X1316323D2*
X1435728D1*
X1742455D2*
X1962056D1*
X416009Y3060444D2*
X636764D1*
X941400D2*
X1047740D1*
X1317924D2*
X1436764D1*
X1741400D2*
X1962056D1*
X416009Y3050575D2*
X638483D1*
X939701D2*
X1046881D1*
X1318803D2*
X1438483D1*
X1739701D2*
X1962056D1*
X416009Y3040706D2*
X640845D1*
X937319D2*
X1046744D1*
X1318940D2*
X1440845D1*
X1737319D2*
X1962056D1*
X416009Y3030837D2*
X643951D1*
X934232D2*
X1047331D1*
X1318353D2*
X1443951D1*
X1734232D2*
X1962056D1*
X416009Y3020969D2*
X647799D1*
X930385D2*
X1048639D1*
X1317045D2*
X1447799D1*
X1730385D2*
X1962056D1*
X416009Y3011100D2*
X652487D1*
X925697D2*
X1050709D1*
X1314975D2*
X1452487D1*
X1725697D2*
X1962037D1*
X416009Y3001231D2*
X658072D1*
X920112D2*
X1053560D1*
X1312123D2*
X1458072D1*
X1720112D2*
X1962037D1*
X416009Y2991362D2*
X664713D1*
X913471D2*
X1057272D1*
X1308412D2*
X1464713D1*
X1713471D2*
X1962037D1*
X416009Y2981493D2*
X672564D1*
X905619D2*
X1061881D1*
X1303803D2*
X1472564D1*
X1705619D2*
X1962037D1*
X416009Y2971625D2*
X681900D1*
X896283D2*
X1067545D1*
X1298139D2*
X1481900D1*
X1696283D2*
X1962037D1*
X416009Y2961756D2*
X693151D1*
X885033D2*
X1074400D1*
X1291283D2*
X1493151D1*
X1685033D2*
X1962037D1*
X416009Y2951887D2*
X707135D1*
X871029D2*
X1082701D1*
X1282983D2*
X1507135D1*
X1671029D2*
X1962037D1*
X416009Y2942018D2*
X725651D1*
X852533D2*
X1092857D1*
X1272827D2*
X1525651D1*
X1652533D2*
X1962037D1*
X416009Y2932150D2*
X755709D1*
X822475D2*
X1105592D1*
X1260092D2*
X1555709D1*
X1622475D2*
X1962037D1*
X416009Y2922281D2*
X1122545D1*
X1243139D2*
X1962037D1*
X416009Y2912412D2*
X1149888D1*
X1215795D2*
X1962037D1*
X416009Y2902543D2*
X1962037D1*
X416009Y2892675D2*
X1962037D1*
X416009Y2882806D2*
X1962037D1*
X416009Y2872937D2*
X1962037D1*
X416009Y2863068D2*
X1962037D1*
X416009Y2853199D2*
X1962037D1*
X416009Y2843331D2*
X1962037D1*
X416009Y2833462D2*
X1151315D1*
X1226869D2*
X1962037D1*
X416009Y2823593D2*
X1137760D1*
X1240404D2*
X1962037D1*
X416009Y2813724D2*
X1128776D1*
X1249408D2*
X1962037D1*
X416009Y2803856D2*
X1122448D1*
X1255736D2*
X1962037D1*
X416009Y2793987D2*
X1118072D1*
X1260112D2*
X1962037D1*
X416009Y2784118D2*
X1115260D1*
X1262924D2*
X1962037D1*
X416009Y2774249D2*
X1113853D1*
X1264331D2*
X1962037D1*
X416009Y2764381D2*
X1113776D1*
X1264408D2*
X1962037D1*
X416009Y2754512D2*
X1115025D1*
X1263159D2*
X1962037D1*
X416009Y2744643D2*
X1117663D1*
X1260521D2*
X1962037D1*
X416009Y2734774D2*
X1121861D1*
X1256323D2*
X1962037D1*
X416009Y2724906D2*
X1127936D1*
X1250248D2*
X1962037D1*
X416009Y2715037D2*
X1136549D1*
X1241635D2*
X1962037D1*
X416009Y2705168D2*
X1149361D1*
X1228823D2*
X1962037D1*
X416009Y2695299D2*
X1140669D1*
X1237513D2*
X1962037D1*
X416009Y2685430D2*
X1119908D1*
X1258276D2*
X1962037D1*
X416009Y2675562D2*
X1105299D1*
X1272885D2*
X1962037D1*
X416009Y2665693D2*
X1093932D1*
X1284252D2*
X1962037D1*
X416009Y2655824D2*
X1084752D1*
X1293432D2*
X1962037D1*
X416009Y2645955D2*
X1077173D1*
X1301009D2*
X1962037D1*
X416009Y2636087D2*
X1070924D1*
X1307260D2*
X1962037D1*
X416009Y2626218D2*
X739303D1*
X838881D2*
X1065787D1*
X1312396D2*
X1539303D1*
X1638881D2*
X1962037D1*
X416009Y2616349D2*
X716392D1*
X861791D2*
X1061608D1*
X1316556D2*
X1516392D1*
X1661791D2*
X1962037D1*
X416009Y2606480D2*
X700319D1*
X877865D2*
X1058327D1*
X1319857D2*
X1500319D1*
X1677865D2*
X1962037D1*
X416009Y2596612D2*
X687720D1*
X890463D2*
X1055865D1*
X1322319D2*
X1487720D1*
X1690463D2*
X1962037D1*
X416009Y2586743D2*
X677408D1*
X900776D2*
X1054165D1*
X1324017D2*
X1477408D1*
X1700776D2*
X1962037D1*
X416009Y2576874D2*
X668795D1*
X909388D2*
X1053209D1*
X1324975D2*
X1468795D1*
X1709388D2*
X1962037D1*
X416009Y2567005D2*
X661529D1*
X916655D2*
X1052975D1*
X1325209D2*
X1461529D1*
X1716655D2*
X1962037D1*
X416009Y2557136D2*
X655396D1*
X922787D2*
X1053463D1*
X1324720D2*
X1455396D1*
X1722787D2*
X1962037D1*
X416009Y2547268D2*
X650220D1*
X927944D2*
X1054673D1*
X1323509D2*
X1450220D1*
X1727944D2*
X1962037D1*
X416009Y2537399D2*
X645944D1*
X932240D2*
X1056647D1*
X1321537D2*
X1445944D1*
X1732240D2*
X1962037D1*
X416009Y2527530D2*
X642448D1*
X935736D2*
X1059400D1*
X1318783D2*
X1442448D1*
X1735736D2*
X1962037D1*
X416009Y2517661D2*
X639673D1*
X938509D2*
X1062995D1*
X1315189D2*
X1439673D1*
X1738509D2*
X1962037D1*
X416009Y2507793D2*
X637604D1*
X940580D2*
X1067487D1*
X1310677D2*
X1437604D1*
X1740580D2*
X1962037D1*
X416009Y2497924D2*
X636217D1*
X941967D2*
X1073013D1*
X1305169D2*
X1436217D1*
X1741967D2*
X1962037D1*
X416009Y2488055D2*
X635455D1*
X942709D2*
X1079713D1*
X1298471D2*
X1435455D1*
X1742709D2*
X1962037D1*
X416009Y2478186D2*
X635357D1*
X942827D2*
X1087799D1*
X1290365D2*
X1435357D1*
X1742827D2*
X1962037D1*
X416009Y2468318D2*
X635885D1*
X942299D2*
X1097701D1*
X1280483D2*
X1435885D1*
X1742299D2*
X1962037D1*
X416009Y2458449D2*
X637056D1*
X941127D2*
X1110045D1*
X1268139D2*
X1437056D1*
X1741127D2*
X1962037D1*
X416009Y2448580D2*
X638892D1*
X939291D2*
X1126315D1*
X1251869D2*
X1438892D1*
X1739291D2*
X1962037D1*
X416009Y2438711D2*
X641412D1*
X936752D2*
X1151373D1*
X1226791D2*
X1441412D1*
X1736752D2*
X1962037D1*
X416009Y2428843D2*
X644673D1*
X933509D2*
X1444673D1*
X1733509D2*
X1962037D1*
X416009Y2418974D2*
X648677D1*
X929505D2*
X1448677D1*
X1729505D2*
X1962037D1*
X416009Y2409105D2*
X653541D1*
X924643D2*
X1453541D1*
X1724643D2*
X1962037D1*
X416009Y2399236D2*
X659323D1*
X918861D2*
X1459323D1*
X1718861D2*
X1962037D1*
X416009Y2389367D2*
X666197D1*
X911987D2*
X1466197D1*
X1711987D2*
X1962037D1*
X416009Y2379499D2*
X674323D1*
X903861D2*
X1474323D1*
X1703861D2*
X1962037D1*
X416009Y2369630D2*
X683991D1*
X894173D2*
X1483991D1*
X1694173D2*
X1962037D1*
X416009Y2359761D2*
X695728D1*
X882455D2*
X1495728D1*
X1682455D2*
X1962037D1*
X416009Y2349892D2*
X710436D1*
X867748D2*
X1510436D1*
X1667748D2*
X1962037D1*
X416009Y2340024D2*
X730319D1*
X847865D2*
X1530319D1*
X1647865D2*
X1962037D1*
X416009Y2330155D2*
X766900D1*
X811283D2*
X1566900D1*
X1611283D2*
X1962037D1*
X416009Y2320286D2*
X1962037D1*
X416009Y2310417D2*
X1962037D1*
X416009Y2300549D2*
X1962037D1*
X416009Y2290680D2*
X1962037D1*
X416009Y2280811D2*
X1962037D1*
X416009Y2270942D2*
X1962037D1*
X416009Y2261073D2*
X1962037D1*
X416009Y2251205D2*
X1962037D1*
X416009Y2241336D2*
X1962037D1*
X416009Y2231467D2*
X1962037D1*
X416009Y2221598D2*
X1962037D1*
X416009Y2211730D2*
X1962037D1*
X416009Y2201861D2*
X1962037D1*
X416009Y2191992D2*
X1962037D1*
X416009Y2182123D2*
X1962037D1*
X416009Y2172255D2*
X1962037D1*
X416009Y2162386D2*
X537740D1*
X640268D2*
X938013D1*
X1040169D2*
X1338013D1*
X1440169D2*
X1737740D1*
X1840248D2*
X1962037D1*
X416009Y2152517D2*
X511353D1*
X666655D2*
X911549D1*
X1066635D2*
X1311549D1*
X1466635D2*
X1711353D1*
X1866655D2*
X1962037D1*
X416009Y2142648D2*
X492975D1*
X685033D2*
X893151D1*
X1085033D2*
X1293151D1*
X1485033D2*
X1692975D1*
X1885013D2*
X1962037D1*
X416009Y2132780D2*
X478501D1*
X699505D2*
X878659D1*
X1099525D2*
X1278659D1*
X1499525D2*
X1678501D1*
X1899487D2*
X1962037D1*
X416009Y2122911D2*
X466529D1*
X711479D2*
X866685D1*
X1111497D2*
X1266685D1*
X1511497D2*
X1666529D1*
X1911459D2*
X1962037D1*
X416009Y2113042D2*
X456373D1*
X721635D2*
X856509D1*
X1121673D2*
X1256509D1*
X1521673D2*
X1656373D1*
X1921615D2*
X1962037D1*
X416009Y2103173D2*
X447643D1*
X730365D2*
X847780D1*
X1130404D2*
X1247780D1*
X1530404D2*
X1647643D1*
X1930345D2*
X1962037D1*
X416009Y2093304D2*
X440084D1*
X737924D2*
X840201D1*
X1137983D2*
X1240201D1*
X1537983D2*
X1640064D1*
X1937924D2*
X1962037D1*
X416009Y2083436D2*
X433521D1*
X744505D2*
X833639D1*
X1144545D2*
X1233639D1*
X1544545D2*
X1633501D1*
X1944487D2*
X1962037D1*
X416009Y2073567D2*
X427819D1*
X750189D2*
X827936D1*
X1150248D2*
X1227936D1*
X1550248D2*
X1627819D1*
X1950169D2*
X1962037D1*
X416009Y2063698D2*
X422927D1*
X755092D2*
X823033D1*
X1155151D2*
X1223033D1*
X1555151D2*
X1622896D1*
X1955092D2*
X1962037D1*
X759291Y2053829D2*
X818833D1*
X1159349D2*
X1218833D1*
X1559349D2*
X1618717D1*
X762807Y2043961D2*
X815299D1*
X1162885D2*
X1215299D1*
X1562885D2*
X1615181D1*
X765717Y2034092D2*
X812388D1*
X1165795D2*
X1212388D1*
X1565795D2*
X1612272D1*
X768021Y2024223D2*
X810084D1*
X1168100D2*
X1210084D1*
X1568100D2*
X1609967D1*
X769780Y2014354D2*
X808327D1*
X1169837D2*
X1208327D1*
X1569837D2*
X1608228D1*
X770951Y2004486D2*
X807155D1*
X1171029D2*
X1207155D1*
X1571029D2*
X1607037D1*
X771596Y1994617D2*
X806491D1*
X1171673D2*
X1206491D1*
X1571673D2*
X1606392D1*
X771713Y1984748D2*
X806392D1*
X1171791D2*
X1206392D1*
X1571791D2*
X1606295D1*
X771264Y1974879D2*
X806823D1*
X1171361D2*
X1206823D1*
X1571361D2*
X1606724D1*
X770307Y1965010D2*
X807799D1*
X1170385D2*
X1207799D1*
X1570385D2*
X1607701D1*
X768783Y1955142D2*
X809303D1*
X1168881D2*
X1209303D1*
X1568881D2*
X1609224D1*
X766693Y1945273D2*
X811392D1*
X1166791D2*
X1211392D1*
X1566791D2*
X1611315D1*
X764017Y1935404D2*
X814049D1*
X1164135D2*
X1214049D1*
X1564135D2*
X1613971D1*
X760756Y1925535D2*
X817331D1*
X1160853D2*
X1217331D1*
X1560853D2*
X1617252D1*
X416009Y1915667D2*
X421210D1*
X756811D2*
X821256D1*
X1156928D2*
X1221256D1*
X1556928D2*
X1621177D1*
X1956811D2*
X1962043D1*
X416009Y1905798D2*
X425807D1*
X752201D2*
X825865D1*
X1152319D2*
X1225865D1*
X1552319D2*
X1625807D1*
X1952181D2*
X1962017D1*
X416009Y1895929D2*
X431177D1*
X746831D2*
X831236D1*
X1146948D2*
X1231236D1*
X1546948D2*
X1631177D1*
X1946811D2*
X1962017D1*
X416009Y1886060D2*
X437408D1*
X740619D2*
X837448D1*
X1140736D2*
X1237448D1*
X1540736D2*
X1637388D1*
X1940600D2*
X1962017D1*
X416009Y1876192D2*
X444556D1*
X733451D2*
X844596D1*
X1133588D2*
X1244596D1*
X1533588D2*
X1644537D1*
X1933451D2*
X1962017D1*
X416009Y1866323D2*
X452799D1*
X725209D2*
X852837D1*
X1125345D2*
X1252837D1*
X1525345D2*
X1652799D1*
X1925189D2*
X1962017D1*
X416009Y1856454D2*
X462369D1*
X715639D2*
X862408D1*
X1115776D2*
X1262408D1*
X1515776D2*
X1662349D1*
X1915639D2*
X1962017D1*
X416009Y1846585D2*
X473560D1*
X704448D2*
X873580D1*
X1104584D2*
X1273580D1*
X1504584D2*
X1673560D1*
X1904428D2*
X1962017D1*
X416009Y1836717D2*
X486959D1*
X691068D2*
X886959D1*
X1091224D2*
X1286959D1*
X1491224D2*
X1686940D1*
X1891049D2*
X1962017D1*
X416009Y1826848D2*
X503541D1*
X674467D2*
X903521D1*
X1074643D2*
X1303521D1*
X1474643D2*
X1703541D1*
X1874448D2*
X1962017D1*
X416009Y1816979D2*
X525865D1*
X652143D2*
X925807D1*
X1052377D2*
X1325807D1*
X1452377D2*
X1725865D1*
X1852123D2*
X1962017D1*
X416009Y1807110D2*
X568209D1*
X609819D2*
X967799D1*
X1010365D2*
X1367799D1*
X1410365D2*
X1768189D1*
X1809799D2*
X1962017D1*
X416009Y1797241D2*
X1962017D1*
X416009Y1787373D2*
X1962017D1*
X416009Y1777504D2*
X1962017D1*
X416009Y1767635D2*
X1962017D1*
X416009Y1757766D2*
X1962017D1*
X416009Y1747898D2*
X1962017D1*
X416009Y1738029D2*
X1962017D1*
X416009Y1728160D2*
X1962017D1*
X416009Y1718291D2*
X1962017D1*
X416009Y1708423D2*
X1962017D1*
X416009Y1698554D2*
X560005D1*
X618001D2*
X960005D1*
X1018001D2*
X1360005D1*
X1418001D2*
X1760005D1*
X1818001D2*
X1962017D1*
X416009Y1688685D2*
X522955D1*
X655033D2*
X922955D1*
X1055033D2*
X1322955D1*
X1455033D2*
X1722955D1*
X1855033D2*
X1962017D1*
X416009Y1678816D2*
X501509D1*
X676497D2*
X901509D1*
X1076497D2*
X1301509D1*
X1476497D2*
X1701509D1*
X1876497D2*
X1962017D1*
X416009Y1668948D2*
X485337D1*
X692651D2*
X885337D1*
X1092651D2*
X1285337D1*
X1492651D2*
X1685337D1*
X1892651D2*
X1962017D1*
X416009Y1659079D2*
X472232D1*
X705756D2*
X872232D1*
X1105756D2*
X1272232D1*
X1505756D2*
X1672232D1*
X1905756D2*
X1962017D1*
X416009Y1649210D2*
X461236D1*
X716772D2*
X861236D1*
X1116752D2*
X1261236D1*
X1516772D2*
X1661236D1*
X1916772D2*
X1962017D1*
X416009Y1639341D2*
X451841D1*
X726165D2*
X851841D1*
X1126165D2*
X1251841D1*
X1526165D2*
X1651841D1*
X1926165D2*
X1962017D1*
X416009Y1629472D2*
X443717D1*
X734291D2*
X843717D1*
X1134291D2*
X1243717D1*
X1534291D2*
X1643717D1*
X1934291D2*
X1962017D1*
X416009Y1619604D2*
X436665D1*
X741341D2*
X836665D1*
X1141341D2*
X1236665D1*
X1541341D2*
X1636665D1*
X1941341D2*
X1962017D1*
X416009Y1609735D2*
X430552D1*
X747455D2*
X830552D1*
X1147455D2*
X1230552D1*
X1547455D2*
X1630552D1*
X1947455D2*
X1962017D1*
X416009Y1599866D2*
X425260D1*
X752748D2*
X825260D1*
X1152728D2*
X1225260D1*
X1552748D2*
X1625260D1*
X1952748D2*
X1962017D1*
X416009Y1589997D2*
X420702D1*
X757280D2*
X820728D1*
X1157280D2*
X1220728D1*
X1557280D2*
X1620728D1*
X1957280D2*
X1962007D1*
X761127Y1580129D2*
X816861D1*
X1161127D2*
X1216861D1*
X1561127D2*
X1616861D1*
X764349Y1570260D2*
X813659D1*
X1164349D2*
X1213659D1*
X1564349D2*
X1613659D1*
X766948Y1560391D2*
X811060D1*
X1166948D2*
X1211060D1*
X1566948D2*
X1611060D1*
X768959Y1550522D2*
X809029D1*
X1168959D2*
X1209029D1*
X1568959D2*
X1609029D1*
X770424Y1540654D2*
X807564D1*
X1170424D2*
X1207564D1*
X1570424D2*
X1607564D1*
X771341Y1530785D2*
X806665D1*
X1171341D2*
X1206665D1*
X1571341D2*
X1606665D1*
X771713Y1520916D2*
X806295D1*
X1171713D2*
X1206295D1*
X1571713D2*
X1606295D1*
X771556Y1511047D2*
X806451D1*
X1171556D2*
X1206451D1*
X1571556D2*
X1606451D1*
X770853Y1501178D2*
X807155D1*
X1170853D2*
X1207155D1*
X1570853D2*
X1607155D1*
X769604Y1491310D2*
X808404D1*
X1169604D2*
X1208404D1*
X1569604D2*
X1608404D1*
X767807Y1481441D2*
X810201D1*
X1167807D2*
X1210201D1*
X1567807D2*
X1610201D1*
X765424Y1471572D2*
X812584D1*
X1165424D2*
X1212584D1*
X1565424D2*
X1612584D1*
X762455Y1461703D2*
X815552D1*
X1162455D2*
X1215552D1*
X1562455D2*
X1615552D1*
X416009Y1451835D2*
X419142D1*
X758861D2*
X819147D1*
X1158861D2*
X1219147D1*
X1558861D2*
X1619147D1*
X1958861D2*
X1962007D1*
X416009Y1441966D2*
X423395D1*
X754584D2*
X823404D1*
X1154584D2*
X1223404D1*
X1554584D2*
X1623404D1*
X1954584D2*
X1962017D1*
X416009Y1432097D2*
X428404D1*
X749604D2*
X828404D1*
X1149604D2*
X1228404D1*
X1549604D2*
X1628404D1*
X1949604D2*
X1962017D1*
X416009Y1422228D2*
X434185D1*
X743823D2*
X834185D1*
X1143803D2*
X1234185D1*
X1543823D2*
X1634185D1*
X1943823D2*
X1962017D1*
X416009Y1412360D2*
X440865D1*
X737143D2*
X840865D1*
X1137143D2*
X1240865D1*
X1537143D2*
X1640865D1*
X1937143D2*
X1962017D1*
X416009Y1402491D2*
X448541D1*
X729467D2*
X848541D1*
X1129467D2*
X1248541D1*
X1529467D2*
X1648541D1*
X1929467D2*
X1962017D1*
X416009Y1392622D2*
X457408D1*
X720580D2*
X857408D1*
X1120580D2*
X1257428D1*
X1520580D2*
X1657408D1*
X1920580D2*
X1962017D1*
X416009Y1382753D2*
X467760D1*
X710248D2*
X867740D1*
X1110248D2*
X1267760D1*
X1510248D2*
X1667760D1*
X1910248D2*
X1962017D1*
X416009Y1372885D2*
X479948D1*
X698041D2*
X879948D1*
X1098041D2*
X1279948D1*
X1498041D2*
X1679948D1*
X1898041D2*
X1962017D1*
X416009Y1363016D2*
X494772D1*
X683236D2*
X894772D1*
X1083236D2*
X1294772D1*
X1483236D2*
X1694772D1*
X1883236D2*
X1962017D1*
X416009Y1353147D2*
X459576D1*
X501596D2*
X513736D1*
X664272D2*
X913736D1*
X1064272D2*
X1093072D1*
X1135092D2*
X1247076D1*
X1289096D2*
X1313736D1*
X1464272D2*
X1713736D1*
X1864272D2*
X1876588D1*
X1918608D2*
X1962017D1*
X416009Y1343278D2*
X438131D1*
X523041D2*
X541685D1*
X636323D2*
X941685D1*
X1036323D2*
X1071647D1*
X1156537D2*
X1225631D1*
X1310541D2*
X1341685D1*
X1436323D2*
X1741685D1*
X1836323D2*
X1855143D1*
X1940033D2*
X1962017D1*
X416009Y1333409D2*
X426295D1*
X534896D2*
X1059791D1*
X1168392D2*
X1213795D1*
X1322396D2*
X1843287D1*
X1951888D2*
X1962017D1*
X542983Y1323541D2*
X1051685D1*
X1176479D2*
X1205689D1*
X1330483D2*
X1835201D1*
X548685Y1313672D2*
X1045983D1*
X1182201D2*
X1199987D1*
X1336185D2*
X1829479D1*
X552592Y1303803D2*
X1042096D1*
X1186088D2*
X1196080D1*
X1340092D2*
X1825592D1*
X554975Y1293934D2*
X1039713D1*
X1188471D2*
X1193720D1*
X1342475D2*
X1823209D1*
X555991Y1284066D2*
X1038697D1*
X1189487D2*
X1192689D1*
X1343491D2*
X1822193D1*
X555677Y1274197D2*
X1039009D1*
X1189173D2*
X1193000D1*
X1343177D2*
X1822505D1*
X554037Y1264328D2*
X1040651D1*
X1187533D2*
X1194655D1*
X1341537D2*
X1824147D1*
X550971Y1254459D2*
X1043717D1*
X1184467D2*
X1197720D1*
X1338471D2*
X1827213D1*
X546264Y1244591D2*
X1048424D1*
X1179760D2*
X1202408D1*
X1333764D2*
X1831920D1*
X416009Y1234722D2*
X421639D1*
X539545D2*
X1055143D1*
X1173041D2*
X1209147D1*
X1327045D2*
X1838639D1*
X1956537D2*
X1962022D1*
X416009Y1224853D2*
X431236D1*
X529955D2*
X570240D1*
X607768D2*
X970240D1*
X1007768D2*
X1064732D1*
X1163451D2*
X1218736D1*
X1317455D2*
X1370240D1*
X1407768D2*
X1770240D1*
X1807768D2*
X1848228D1*
X1946948D2*
X1962017D1*
X416009Y1214984D2*
X446060D1*
X515112D2*
X526451D1*
X651537D2*
X926451D1*
X1051537D2*
X1079576D1*
X1148608D2*
X1233560D1*
X1302612D2*
X1326451D1*
X1451537D2*
X1726451D1*
X1851537D2*
X1863072D1*
X1932123D2*
X1962017D1*
X416009Y1205115D2*
X503951D1*
X674056D2*
X903951D1*
X1074056D2*
X1303951D1*
X1474056D2*
X1703951D1*
X1874056D2*
X1962017D1*
X416009Y1195247D2*
X487272D1*
X690736D2*
X887272D1*
X1090736D2*
X1287272D1*
X1490736D2*
X1687272D1*
X1890736D2*
X1962017D1*
X416009Y1185378D2*
X473833D1*
X704173D2*
X873833D1*
X1104173D2*
X1273833D1*
X1504173D2*
X1673833D1*
X1904173D2*
X1962017D1*
X416009Y1175509D2*
X462584D1*
X715404D2*
X862584D1*
X1115404D2*
X1262584D1*
X1515404D2*
X1662584D1*
X1915404D2*
X1962017D1*
X416009Y1165640D2*
X452995D1*
X725013D2*
X852995D1*
X1125013D2*
X1252995D1*
X1525013D2*
X1652995D1*
X1925013D2*
X1962017D1*
X416009Y1155772D2*
X444713D1*
X733276D2*
X844713D1*
X1133276D2*
X1244713D1*
X1533276D2*
X1644713D1*
X1933276D2*
X1962017D1*
X416009Y1145903D2*
X437545D1*
X740463D2*
X837545D1*
X1140463D2*
X1237545D1*
X1540463D2*
X1637545D1*
X1940463D2*
X1962017D1*
X416009Y1136034D2*
X431315D1*
X746693D2*
X831315D1*
X1146693D2*
X1231315D1*
X1546693D2*
X1631315D1*
X1946693D2*
X1962017D1*
X416009Y1126165D2*
X425904D1*
X752084D2*
X825904D1*
X1152084D2*
X1225924D1*
X1552084D2*
X1625904D1*
X1952084D2*
X1962017D1*
X416009Y1116297D2*
X421287D1*
X756713D2*
X821276D1*
X1156713D2*
X1221276D1*
X1556732D2*
X1621276D1*
X1956713D2*
X1962022D1*
X760659Y1106428D2*
X817331D1*
X1160659D2*
X1217331D1*
X1560659D2*
X1617331D1*
X763959Y1096559D2*
X814049D1*
X1163959D2*
X1214049D1*
X1563959D2*
X1614049D1*
X766635Y1086690D2*
X811353D1*
X1166635D2*
X1211373D1*
X1566635D2*
X1611353D1*
X768724Y1076822D2*
X809264D1*
X1168724D2*
X1209264D1*
X1568744D2*
X1609264D1*
X770268Y1066953D2*
X807740D1*
X1170268D2*
X1207740D1*
X1570268D2*
X1607740D1*
X771244Y1057084D2*
X806744D1*
X1171244D2*
X1206744D1*
X1571244D2*
X1606744D1*
X771693Y1047215D2*
X806315D1*
X1171693D2*
X1206315D1*
X1571693D2*
X1606315D1*
X771596Y1037346D2*
X806392D1*
X1171596D2*
X1206392D1*
X1571596D2*
X1606392D1*
X770971Y1027478D2*
X807037D1*
X1170971D2*
X1207037D1*
X1570971D2*
X1607037D1*
X769799Y1017609D2*
X808209D1*
X1169799D2*
X1208209D1*
X1569799D2*
X1608209D1*
X768060Y1007740D2*
X809928D1*
X1168060D2*
X1209928D1*
X1568060D2*
X1609928D1*
X765776Y997871D2*
X812232D1*
X1165776D2*
X1212232D1*
X1565776D2*
X1612232D1*
X762885Y988003D2*
X815123D1*
X1162885D2*
X1215123D1*
X1562885D2*
X1615123D1*
X759369Y978134D2*
X818639D1*
X1159369D2*
X1218639D1*
X1559369D2*
X1618639D1*
X416009Y968265D2*
X422810D1*
X755189D2*
X822819D1*
X1155189D2*
X1222819D1*
X1555189D2*
X1622819D1*
X1955189D2*
X1962017D1*
X416009Y958396D2*
X427701D1*
X750307D2*
X827701D1*
X1150287D2*
X1227701D1*
X1550307D2*
X1627701D1*
X1950307D2*
X1962017D1*
X416009Y948528D2*
X433385D1*
X744623D2*
X833385D1*
X1144623D2*
X1233385D1*
X1544623D2*
X1633385D1*
X1944623D2*
X1962017D1*
X416009Y938659D2*
X439928D1*
X738080D2*
X839928D1*
X1138080D2*
X1239928D1*
X1538080D2*
X1639928D1*
X1938080D2*
X1962017D1*
X416009Y928790D2*
X447467D1*
X730541D2*
X847467D1*
X1130541D2*
X1247467D1*
X1530541D2*
X1647467D1*
X1930541D2*
X1962017D1*
X416009Y918921D2*
X456177D1*
X721831D2*
X856177D1*
X1121831D2*
X1256177D1*
X1521831D2*
X1656177D1*
X1921831D2*
X1962017D1*
X416009Y909052D2*
X466295D1*
X711713D2*
X866295D1*
X1111713D2*
X1266295D1*
X1511713D2*
X1666295D1*
X1911713D2*
X1962017D1*
X416009Y899184D2*
X478228D1*
X699780D2*
X878228D1*
X1099780D2*
X1278228D1*
X1499780D2*
X1678228D1*
X1899780D2*
X1962017D1*
X416009Y889315D2*
X492623D1*
X685365D2*
X892623D1*
X1085365D2*
X1292623D1*
X1485365D2*
X1692623D1*
X1885365D2*
X1962017D1*
X416009Y879446D2*
X510904D1*
X667104D2*
X910885D1*
X1067104D2*
X1310904D1*
X1467104D2*
X1710904D1*
X1867104D2*
X1962017D1*
X416009Y869577D2*
X537017D1*
X640991D2*
X937017D1*
X1040991D2*
X1337017D1*
X1440991D2*
X1737017D1*
X1840991D2*
X1962017D1*
X416009Y859709D2*
X1962017D1*
X416009Y849840D2*
X1962017D1*
X416009Y839971D2*
X1962017D1*
X416009Y830102D2*
X1961997D1*
X416009Y820234D2*
X1961997D1*
X416009Y810365D2*
X1961997D1*
X416009Y800496D2*
X1961997D1*
X416009Y790627D2*
X1961997D1*
X416009Y780759D2*
X1961997D1*
X416009Y770890D2*
X1961997D1*
X416009Y761021D2*
X1961997D1*
X416009Y751152D2*
X1961997D1*
X416009Y741283D2*
X1961997D1*
X416009Y731415D2*
X1961997D1*
X416009Y721546D2*
X1961997D1*
X416009Y711677D2*
X1961997D1*
X416009Y701808D2*
X1961997D1*
X416009Y691940D2*
X1961997D1*
X416009Y682071D2*
X1961997D1*
X416009Y672202D2*
X1961997D1*
X416009Y662333D2*
X1961997D1*
X416009Y652465D2*
X1961997D1*
X416009Y642596D2*
X1961997D1*
X416009Y632727D2*
X1961997D1*
X416009Y622858D2*
X1961997D1*
X416009Y612990D2*
X606529D1*
X771479D2*
X1606529D1*
X1771479D2*
X1961997D1*
X416009Y603121D2*
X578892D1*
X799115D2*
X1578892D1*
X1799115D2*
X1961997D1*
X416009Y593252D2*
X563619D1*
X814369D2*
X1563619D1*
X1814369D2*
X1961997D1*
X416009Y583383D2*
X552701D1*
X825307D2*
X1552701D1*
X1825307D2*
X1961997D1*
X416009Y573514D2*
X544341D1*
X833665D2*
X1544341D1*
X1833665D2*
X1961997D1*
X416009Y563646D2*
X537837D1*
X840151D2*
X1537837D1*
X1840151D2*
X1961997D1*
X416009Y553777D2*
X532819D1*
X845169D2*
X1532819D1*
X1845169D2*
X1961997D1*
X416009Y543908D2*
X529049D1*
X848959D2*
X1529049D1*
X1848959D2*
X1961997D1*
X416009Y534039D2*
X526373D1*
X851635D2*
X1526373D1*
X1851635D2*
X1961997D1*
X416009Y524171D2*
X524713D1*
X853295D2*
X1524713D1*
X1853295D2*
X1961997D1*
X416009Y514302D2*
X524009D1*
X853979D2*
X1524009D1*
X1853979D2*
X1961997D1*
X416009Y504433D2*
X524283D1*
X853724D2*
X1524283D1*
X1853724D2*
X1961997D1*
X416009Y494564D2*
X525495D1*
X852513D2*
X1525495D1*
X1852513D2*
X1961997D1*
X416009Y484696D2*
X527701D1*
X850307D2*
X1527701D1*
X1850307D2*
X1961997D1*
X416009Y474827D2*
X530963D1*
X847045D2*
X1530963D1*
X1847045D2*
X1961997D1*
X416009Y464958D2*
X535396D1*
X842612D2*
X1535396D1*
X1842612D2*
X1961997D1*
X416009Y455089D2*
X541177D1*
X836811D2*
X1541177D1*
X1836811D2*
X1961997D1*
X416009Y445220D2*
X548639D1*
X829369D2*
X1548639D1*
X1829369D2*
X1961997D1*
X416009Y435352D2*
X558268D1*
X819740D2*
X1558268D1*
X1819740D2*
X1961997D1*
X416009Y425483D2*
X571197D1*
X806791D2*
X1571197D1*
X1806791D2*
X1961997D1*
X416009Y415614D2*
X590865D1*
X787143D2*
X1590865D1*
X1787143D2*
X1961997D1*
X1264349Y4938951D2*
X1263852Y4933976D1*
X1263028Y4929046D1*
X1261878Y4924181D1*
X1260408Y4919403D1*
X1258626Y4914732D1*
X1256538Y4910190D1*
X1254154Y4905797D1*
X1251483Y4901570D1*
X1248539Y4897530D1*
X1245333Y4893694D1*
X1241882Y4890079D1*
X1238197Y4886699D1*
X1234297Y4883572D1*
X1230198Y4880710D1*
X1225919Y4878126D1*
X1221478Y4875831D1*
X1216894Y4873836D1*
X1212189Y4872148D1*
X1207382Y4870776D1*
X1202495Y4869724D1*
X1197547Y4869000D1*
X1192564Y4868604D1*
X1187566Y4868539D1*
X1182573Y4868806D1*
X1177610Y4869403D1*
X1172698Y4870327D1*
X1167857Y4871575D1*
X1163109Y4873140D1*
X1158475Y4875017D1*
X1153976Y4877197D1*
X1149633Y4879669D1*
X1145461Y4882424D1*
X1141480Y4885449D1*
X1137710Y4888732D1*
X1134165Y4892257D1*
X1130862Y4896009D1*
X1127814Y4899971D1*
X1125035Y4904127D1*
X1122538Y4908458D1*
X1120333Y4912945D1*
X1118430Y4917567D1*
X1116839Y4922306D1*
X1115563Y4927139D1*
X1114612Y4932047D1*
X1113987Y4937007D1*
X1113692Y4941997D1*
X1113728Y4946996D1*
X1114096Y4951982D1*
X1114793Y4956932D1*
X1115816Y4961825D1*
X1117161Y4966640D1*
X1118823Y4971356D1*
X1120793Y4975950D1*
X1123063Y4980404D1*
X1125623Y4984698D1*
X1128462Y4988812D1*
X1131567Y4992730D1*
X1134925Y4996433D1*
X1138521Y4999907D1*
X1142339Y5003134D1*
X1146362Y5006101D1*
X1150573Y5008794D1*
X1154953Y5011203D1*
X1159483Y5013318D1*
X1164144Y5015126D1*
X1168913Y5016622D1*
X1173773Y5017799D1*
X1178698Y5018652D1*
X1183669Y5019176D1*
X1188665Y5019370D1*
X1193663Y5019232D1*
X1198639Y5018764D1*
X1203575Y5017967D1*
X1208446Y5016845D1*
X1213232Y5015403D1*
X1217913Y5013647D1*
X1222467Y5011584D1*
X1226874Y5009224D1*
X1231115Y5006579D1*
X1235172Y5003657D1*
X1239026Y5000474D1*
X1242661Y4997041D1*
X1246060Y4993375D1*
X1249210Y4989493D1*
X1252094Y4985411D1*
X1254703Y4981146D1*
X1257022Y4976718D1*
X1259045Y4972146D1*
X1260759Y4967450D1*
X1262159Y4962651D1*
X1263236Y4957769D1*
X1263990Y4952828D1*
X1264413Y4947846D1*
X1264514Y4943948D1*
X1264349Y4938951D1*
X1324130Y2563762D2*
X1323390Y2553791D1*
X1321916Y2543903D1*
X1319714Y2534151D1*
X1316798Y2524588D1*
X1313182Y2515268D1*
X1308888Y2506239D1*
X1303937Y2497552D1*
X1298358Y2489256D1*
X1292181Y2481395D1*
X1285440Y2474013D1*
X1278171Y2467148D1*
X1270415Y2460840D1*
X1262213Y2455123D1*
X1253610Y2450028D1*
X1244656Y2445583D1*
X1235396Y2441811D1*
X1225883Y2438735D1*
X1216169Y2436371D1*
X1206307Y2434731D1*
X1196350Y2433825D1*
X1186354Y2433657D1*
X1176373Y2434230D1*
X1166462Y2435538D1*
X1156673Y2437576D1*
X1147063Y2440332D1*
X1137682Y2443790D1*
X1128584Y2447933D1*
X1119816Y2452738D1*
X1111428Y2458177D1*
X1103465Y2464222D1*
X1095970Y2470839D1*
X1088984Y2477991D1*
X1082547Y2485640D1*
X1076693Y2493745D1*
X1071454Y2502261D1*
X1066860Y2511140D1*
X1062934Y2520335D1*
X1059699Y2529795D1*
X1057172Y2539469D1*
X1055367Y2549302D1*
X1054295Y2559241D1*
X1053961Y2569234D1*
X1054365Y2579223D1*
X1055507Y2589156D1*
X1057381Y2598976D1*
X1059975Y2608631D1*
X1063276Y2618068D1*
X1067266Y2627235D1*
X1071923Y2636083D1*
X1077220Y2644562D1*
X1083131Y2652625D1*
X1089622Y2660230D1*
X1096656Y2667333D1*
X1104197Y2673898D1*
X1112203Y2679886D1*
X1120630Y2685266D1*
X1129430Y2690009D1*
X1138558Y2694088D1*
X1147963Y2697482D1*
X1157592Y2700171D1*
X1159252Y2700535D1*
X1152657Y2703825D1*
X1148383Y2706417D1*
X1144291Y2709290D1*
X1140403Y2712432D1*
X1136734Y2715825D1*
X1133299Y2719459D1*
X1130118Y2723315D1*
X1127202Y2727375D1*
X1124566Y2731623D1*
X1122219Y2736037D1*
X1120176Y2740600D1*
X1118442Y2745289D1*
X1117028Y2750083D1*
X1115937Y2754962D1*
X1115177Y2759903D1*
X1114751Y2764883D1*
X1114660Y2769882D1*
X1114904Y2774875D1*
X1115483Y2779840D1*
X1116395Y2784756D1*
X1117634Y2789598D1*
X1119194Y2794348D1*
X1121071Y2798982D1*
X1123255Y2803479D1*
X1125734Y2807819D1*
X1128500Y2811983D1*
X1131539Y2815953D1*
X1134837Y2819709D1*
X1138381Y2823235D1*
X1142152Y2826516D1*
X1146136Y2829537D1*
X1150314Y2832282D1*
X1154665Y2834741D1*
X1159173Y2836903D1*
X1163816Y2838757D1*
X1168572Y2840295D1*
X1173421Y2841512D1*
X1178341Y2842399D1*
X1183310Y2842954D1*
X1188303Y2843176D1*
X1193301Y2843060D1*
X1198280Y2842610D1*
X1203217Y2841827D1*
X1208091Y2840714D1*
X1212878Y2839277D1*
X1217559Y2837521D1*
X1222112Y2835455D1*
X1226514Y2833088D1*
X1230749Y2830430D1*
X1234795Y2827496D1*
X1238636Y2824295D1*
X1242253Y2820845D1*
X1245631Y2817159D1*
X1248753Y2813256D1*
X1251606Y2809151D1*
X1254177Y2804864D1*
X1256455Y2800413D1*
X1258429Y2795820D1*
X1260091Y2791105D1*
X1261432Y2786290D1*
X1262446Y2781395D1*
X1263130Y2776442D1*
X1263530Y2768740D1*
X1263362Y2763744D1*
X1262860Y2758770D1*
X1262024Y2753841D1*
X1260860Y2748980D1*
X1259371Y2744207D1*
X1257566Y2739546D1*
X1255453Y2735016D1*
X1253039Y2730638D1*
X1250337Y2726432D1*
X1247360Y2722416D1*
X1244119Y2718609D1*
X1240630Y2715029D1*
X1236909Y2711692D1*
X1232972Y2708610D1*
X1228837Y2705801D1*
X1224524Y2703274D1*
X1218915Y2700571D1*
X1226793Y2698526D1*
X1236283Y2695383D1*
X1245516Y2691549D1*
X1254440Y2687041D1*
X1263007Y2681885D1*
X1271168Y2676110D1*
X1278879Y2669748D1*
X1286100Y2662833D1*
X1292790Y2655403D1*
X1298912Y2647500D1*
X1304433Y2639164D1*
X1309323Y2630444D1*
X1313554Y2621386D1*
X1317104Y2612039D1*
X1319953Y2602457D1*
X1322087Y2592689D1*
X1323492Y2582790D1*
X1324161Y2572815D1*
X1324130Y2563762D1*
X1263362Y3239192D2*
X1262860Y3234218D1*
X1262024Y3229289D1*
X1260860Y3224428D1*
X1259371Y3219655D1*
X1257566Y3214993D1*
X1255453Y3210463D1*
X1253039Y3206085D1*
X1250337Y3201879D1*
X1247360Y3197864D1*
X1244119Y3194056D1*
X1240630Y3190476D1*
X1236909Y3187138D1*
X1232972Y3184058D1*
X1228837Y3181248D1*
X1224524Y3178722D1*
X1220050Y3176492D1*
X1215850Y3174739D1*
X1225318Y3171993D1*
X1234686Y3168501D1*
X1243770Y3164327D1*
X1252521Y3159492D1*
X1260891Y3154024D1*
X1268833Y3147950D1*
X1276304Y3141307D1*
X1283265Y3134130D1*
X1289675Y3126458D1*
X1295500Y3118333D1*
X1300709Y3109799D1*
X1305273Y3100904D1*
X1309167Y3091696D1*
X1312367Y3082224D1*
X1314861Y3072542D1*
X1316631Y3062703D1*
X1317669Y3052759D1*
X1317972Y3043711D1*
X1317602Y3033720D1*
X1316495Y3023785D1*
X1314656Y3013957D1*
X1312096Y3004293D1*
X1308827Y2994844D1*
X1304870Y2985664D1*
X1300244Y2976801D1*
X1294975Y2968303D1*
X1289093Y2960219D1*
X1282630Y2952592D1*
X1275619Y2945463D1*
X1268101Y2938873D1*
X1260117Y2932856D1*
X1251710Y2927446D1*
X1242925Y2922672D1*
X1233811Y2918562D1*
X1224419Y2915135D1*
X1214799Y2912413D1*
X1205004Y2910409D1*
X1195088Y2909136D1*
X1185105Y2908598D1*
X1175109Y2908802D1*
X1165156Y2909743D1*
X1155299Y2911416D1*
X1145593Y2913815D1*
X1136092Y2916924D1*
X1126845Y2920728D1*
X1117906Y2925205D1*
X1109322Y2930329D1*
X1101140Y2936076D1*
X1093406Y2942411D1*
X1086161Y2949301D1*
X1079446Y2956707D1*
X1073295Y2964589D1*
X1067745Y2972906D1*
X1062825Y2981609D1*
X1058563Y2990652D1*
X1054980Y2999986D1*
X1052097Y3009559D1*
X1049930Y3019319D1*
X1048490Y3029213D1*
X1047786Y3039185D1*
X1047820Y3049182D1*
X1048594Y3059150D1*
X1050104Y3069033D1*
X1052339Y3078778D1*
X1055289Y3088331D1*
X1058937Y3097639D1*
X1063264Y3106652D1*
X1068244Y3115322D1*
X1073852Y3123597D1*
X1080056Y3131437D1*
X1086824Y3138797D1*
X1094117Y3145635D1*
X1101895Y3151916D1*
X1110117Y3157605D1*
X1118736Y3162669D1*
X1127707Y3167084D1*
X1136980Y3170822D1*
X1146503Y3173865D1*
X1156226Y3176196D1*
X1158051Y3176528D1*
X1152657Y3179273D1*
X1148383Y3181865D1*
X1144291Y3184738D1*
X1140403Y3187878D1*
X1136734Y3191273D1*
X1133299Y3194907D1*
X1130118Y3198762D1*
X1127202Y3202823D1*
X1124566Y3207071D1*
X1122219Y3211484D1*
X1120176Y3216047D1*
X1118442Y3220736D1*
X1117028Y3225530D1*
X1115937Y3230409D1*
X1115177Y3235350D1*
X1114751Y3240331D1*
X1114660Y3245329D1*
X1114904Y3250323D1*
X1115483Y3255287D1*
X1116395Y3260203D1*
X1117634Y3265046D1*
X1119194Y3269795D1*
X1121071Y3274429D1*
X1123255Y3278927D1*
X1125734Y3283266D1*
X1128500Y3287430D1*
X1131539Y3291400D1*
X1134837Y3295156D1*
X1138381Y3298682D1*
X1142152Y3301963D1*
X1146136Y3304984D1*
X1150314Y3307730D1*
X1154665Y3310189D1*
X1159173Y3312350D1*
X1163816Y3314205D1*
X1168572Y3315743D1*
X1173421Y3316959D1*
X1178341Y3317846D1*
X1183310Y3318402D1*
X1188303Y3318623D1*
X1193301Y3318508D1*
X1198280Y3318058D1*
X1203217Y3317274D1*
X1208091Y3316161D1*
X1212878Y3314724D1*
X1217559Y3312969D1*
X1222112Y3310903D1*
X1226514Y3308535D1*
X1230749Y3305878D1*
X1234795Y3302944D1*
X1238636Y3299743D1*
X1242253Y3296293D1*
X1245631Y3292606D1*
X1248753Y3288702D1*
X1251606Y3284598D1*
X1254177Y3280311D1*
X1256455Y3275861D1*
X1258429Y3271268D1*
X1260091Y3266552D1*
X1261432Y3261738D1*
X1262446Y3256843D1*
X1263130Y3251890D1*
X1263530Y3244188D1*
X1263362Y3239192D1*
X1324130Y3513663D2*
X1323390Y3503692D1*
X1321916Y3493803D1*
X1319714Y3484051D1*
X1316798Y3474488D1*
X1313182Y3465168D1*
X1308888Y3456139D1*
X1303937Y3447453D1*
X1298358Y3439156D1*
X1292181Y3431295D1*
X1285440Y3423913D1*
X1278171Y3417049D1*
X1270415Y3410740D1*
X1262213Y3405024D1*
X1253610Y3399928D1*
X1244656Y3395483D1*
X1235396Y3391711D1*
X1225883Y3388635D1*
X1216169Y3386272D1*
X1206307Y3384631D1*
X1196350Y3383726D1*
X1186354Y3383558D1*
X1176373Y3384130D1*
X1166462Y3385438D1*
X1156673Y3387476D1*
X1147063Y3390232D1*
X1137682Y3393690D1*
X1128584Y3397833D1*
X1119816Y3402638D1*
X1111428Y3408077D1*
X1103465Y3414122D1*
X1095970Y3420739D1*
X1088984Y3427891D1*
X1082547Y3435541D1*
X1076693Y3443646D1*
X1071454Y3452161D1*
X1066860Y3461041D1*
X1062934Y3470235D1*
X1059699Y3479696D1*
X1057172Y3489369D1*
X1055367Y3499202D1*
X1054295Y3509142D1*
X1053961Y3519134D1*
X1054365Y3529123D1*
X1055507Y3539056D1*
X1057381Y3548877D1*
X1059975Y3558531D1*
X1063276Y3567969D1*
X1067266Y3577135D1*
X1071923Y3585983D1*
X1077220Y3594462D1*
X1083131Y3602525D1*
X1089622Y3610130D1*
X1096656Y3617234D1*
X1104197Y3623798D1*
X1112203Y3629786D1*
X1120630Y3635167D1*
X1129430Y3639909D1*
X1138558Y3643988D1*
X1147963Y3647382D1*
X1157592Y3650071D1*
X1161425Y3650915D1*
X1157097Y3652801D1*
X1152657Y3655100D1*
X1148383Y3657692D1*
X1144291Y3660564D1*
X1140403Y3663705D1*
X1136734Y3667100D1*
X1133299Y3670734D1*
X1130118Y3674589D1*
X1127202Y3678650D1*
X1124566Y3682896D1*
X1122219Y3687311D1*
X1120176Y3691873D1*
X1118442Y3696562D1*
X1117028Y3701357D1*
X1115937Y3706236D1*
X1115177Y3711177D1*
X1114751Y3716157D1*
X1114660Y3721156D1*
X1114904Y3726148D1*
X1115483Y3731114D1*
X1116395Y3736029D1*
X1117634Y3740873D1*
X1119194Y3745622D1*
X1121071Y3750255D1*
X1123255Y3754752D1*
X1125734Y3759093D1*
X1128500Y3763257D1*
X1131539Y3767227D1*
X1134837Y3770983D1*
X1138381Y3774509D1*
X1142152Y3777790D1*
X1146136Y3780810D1*
X1150314Y3783556D1*
X1154665Y3786016D1*
X1159173Y3788177D1*
X1163816Y3790031D1*
X1168572Y3791570D1*
X1173421Y3792785D1*
X1178341Y3793673D1*
X1183310Y3794228D1*
X1188303Y3794449D1*
X1193301Y3794335D1*
X1198280Y3793885D1*
X1203217Y3793101D1*
X1208091Y3791988D1*
X1212878Y3790550D1*
X1217559Y3788794D1*
X1222112Y3786728D1*
X1226514Y3784362D1*
X1230749Y3781705D1*
X1234795Y3778769D1*
X1238636Y3775570D1*
X1242253Y3772119D1*
X1245631Y3768433D1*
X1248753Y3764529D1*
X1251606Y3760424D1*
X1254177Y3756136D1*
X1256455Y3751688D1*
X1258429Y3747094D1*
X1260091Y3742379D1*
X1261432Y3737563D1*
X1262446Y3732668D1*
X1263130Y3727717D1*
X1263530Y3720014D1*
X1263362Y3715017D1*
X1262860Y3710043D1*
X1262024Y3705115D1*
X1260860Y3700253D1*
X1259371Y3695482D1*
X1257566Y3690819D1*
X1255453Y3686289D1*
X1253039Y3681911D1*
X1250337Y3677705D1*
X1247360Y3673690D1*
X1244119Y3669883D1*
X1240630Y3666303D1*
X1236909Y3662965D1*
X1232972Y3659883D1*
X1228837Y3657075D1*
X1224524Y3654549D1*
X1220050Y3652318D1*
X1216752Y3650941D1*
X1226793Y3648427D1*
X1236283Y3645283D1*
X1245516Y3641449D1*
X1254440Y3636941D1*
X1263007Y3631785D1*
X1271168Y3626010D1*
X1278879Y3619648D1*
X1286100Y3612734D1*
X1292790Y3605303D1*
X1298912Y3597400D1*
X1304433Y3589064D1*
X1309323Y3580344D1*
X1313554Y3571286D1*
X1317104Y3561940D1*
X1319953Y3552357D1*
X1322087Y3542589D1*
X1323492Y3532690D1*
X1324161Y3522715D1*
X1324130Y3513663D1*
X1741778Y3076449D2*
X1741123Y3066471D1*
X1739819Y3056559D1*
X1737867Y3046753D1*
X1735280Y3037096D1*
X1732066Y3027629D1*
X1728239Y3018391D1*
X1723816Y3009424D1*
X1718816Y3000766D1*
X1713261Y2992453D1*
X1707175Y2984521D1*
X1700581Y2977005D1*
X1693510Y2969936D1*
X1685992Y2963344D1*
X1678060Y2957259D1*
X1669745Y2951705D1*
X1661087Y2946707D1*
X1652119Y2942286D1*
X1642881Y2938462D1*
X1633413Y2935249D1*
X1623755Y2932663D1*
X1613949Y2930714D1*
X1604035Y2929411D1*
X1594059Y2928760D1*
X1584060Y2928761D1*
X1574084Y2929417D1*
X1564172Y2930724D1*
X1554366Y2932677D1*
X1544709Y2935268D1*
X1535241Y2938483D1*
X1526005Y2942312D1*
X1517039Y2946736D1*
X1508382Y2951738D1*
X1500071Y2957295D1*
X1492140Y2963383D1*
X1484626Y2969978D1*
X1477558Y2977050D1*
X1470967Y2984570D1*
X1464883Y2992504D1*
X1459332Y3000819D1*
X1454336Y3009479D1*
X1449917Y3018448D1*
X1446093Y3027686D1*
X1442883Y3037155D1*
X1440299Y3046814D1*
X1438353Y3056619D1*
X1437051Y3066533D1*
X1436402Y3076510D1*
X1436406Y3086508D1*
X1437063Y3096486D1*
X1438373Y3106398D1*
X1440327Y3116202D1*
X1442920Y3125858D1*
X1446138Y3135325D1*
X1449967Y3144560D1*
X1454394Y3153525D1*
X1459398Y3162182D1*
X1464955Y3170492D1*
X1471046Y3178421D1*
X1477643Y3185936D1*
X1484715Y3193001D1*
X1492236Y3199589D1*
X1500172Y3205672D1*
X1508488Y3211223D1*
X1517150Y3216217D1*
X1526118Y3220634D1*
X1535358Y3224455D1*
X1544827Y3227664D1*
X1554487Y3230245D1*
X1564294Y3232190D1*
X1574207Y3233490D1*
X1584184Y3234138D1*
X1594182Y3234131D1*
X1604159Y3233471D1*
X1614071Y3232160D1*
X1623875Y3230203D1*
X1633531Y3227610D1*
X1642997Y3224390D1*
X1652232Y3220558D1*
X1661196Y3216130D1*
X1669852Y3211125D1*
X1678160Y3205564D1*
X1686088Y3199472D1*
X1693601Y3192874D1*
X1700665Y3185799D1*
X1707252Y3178278D1*
X1713333Y3170341D1*
X1718882Y3162024D1*
X1723874Y3153362D1*
X1728290Y3144391D1*
X1732109Y3135151D1*
X1735316Y3125681D1*
X1737896Y3116021D1*
X1739839Y3106214D1*
X1741136Y3096301D1*
X1741782Y3086323D1*
X1741778Y3076449D1*
X941778Y4276449D2*
X941123Y4266471D1*
X939819Y4256559D1*
X937867Y4246753D1*
X935280Y4237096D1*
X932066Y4227629D1*
X928239Y4218391D1*
X923816Y4209424D1*
X918816Y4200766D1*
X913261Y4192453D1*
X907175Y4184521D1*
X900581Y4177005D1*
X893510Y4169936D1*
X885992Y4163344D1*
X878060Y4157259D1*
X869745Y4151705D1*
X861087Y4146707D1*
X852119Y4142286D1*
X842881Y4138462D1*
X833413Y4135249D1*
X823755Y4132663D1*
X813949Y4130714D1*
X804035Y4129411D1*
X794059Y4128760D1*
X784060Y4128761D1*
X774084Y4129417D1*
X764172Y4130724D1*
X754366Y4132677D1*
X744709Y4135268D1*
X735241Y4138483D1*
X726005Y4142312D1*
X717039Y4146736D1*
X708382Y4151738D1*
X700071Y4157295D1*
X692140Y4163383D1*
X684626Y4169978D1*
X677558Y4177050D1*
X670967Y4184570D1*
X664883Y4192504D1*
X659332Y4200819D1*
X654336Y4209479D1*
X649917Y4218448D1*
X646093Y4227686D1*
X642883Y4237155D1*
X640299Y4246814D1*
X638353Y4256619D1*
X637051Y4266533D1*
X636402Y4276510D1*
X636406Y4286508D1*
X637063Y4296486D1*
X638373Y4306398D1*
X640327Y4316202D1*
X642920Y4325858D1*
X646138Y4335325D1*
X649967Y4344560D1*
X654394Y4353525D1*
X659398Y4362182D1*
X664955Y4370492D1*
X671046Y4378421D1*
X677643Y4385936D1*
X684715Y4393001D1*
X692236Y4399589D1*
X700172Y4405672D1*
X708488Y4411223D1*
X717150Y4416217D1*
X726118Y4420634D1*
X735358Y4424455D1*
X744827Y4427664D1*
X754487Y4430245D1*
X764294Y4432190D1*
X774207Y4433490D1*
X784184Y4434138D1*
X794182Y4434131D1*
X804159Y4433471D1*
X814071Y4432160D1*
X823875Y4430203D1*
X833531Y4427610D1*
X842997Y4424390D1*
X852232Y4420558D1*
X861196Y4416130D1*
X869852Y4411125D1*
X878160Y4405564D1*
X886088Y4399472D1*
X893601Y4392874D1*
X900665Y4385799D1*
X907252Y4378278D1*
X913333Y4370341D1*
X918882Y4362024D1*
X923874Y4353362D1*
X928290Y4344391D1*
X932109Y4335151D1*
X935316Y4325681D1*
X937896Y4316021D1*
X939839Y4306214D1*
X941136Y4296301D1*
X941782Y4286323D1*
X941778Y4276449D1*
X1741778Y3676449D2*
X1741123Y3666471D1*
X1739819Y3656559D1*
X1737867Y3646753D1*
X1735280Y3637096D1*
X1732066Y3627629D1*
X1728239Y3618391D1*
X1723816Y3609424D1*
X1718816Y3600766D1*
X1713261Y3592453D1*
X1707175Y3584521D1*
X1700581Y3577005D1*
X1693510Y3569936D1*
X1685992Y3563344D1*
X1678060Y3557259D1*
X1669745Y3551705D1*
X1661087Y3546707D1*
X1652119Y3542286D1*
X1642881Y3538462D1*
X1633413Y3535249D1*
X1623755Y3532663D1*
X1613949Y3530714D1*
X1604035Y3529411D1*
X1594059Y3528760D1*
X1584060Y3528761D1*
X1574084Y3529417D1*
X1564172Y3530724D1*
X1554366Y3532677D1*
X1544709Y3535268D1*
X1535241Y3538483D1*
X1526005Y3542312D1*
X1517039Y3546736D1*
X1508382Y3551738D1*
X1500071Y3557295D1*
X1492140Y3563383D1*
X1484626Y3569978D1*
X1477558Y3577050D1*
X1470967Y3584570D1*
X1464883Y3592504D1*
X1459332Y3600819D1*
X1454336Y3609479D1*
X1449917Y3618448D1*
X1446093Y3627686D1*
X1442883Y3637155D1*
X1440299Y3646814D1*
X1438353Y3656619D1*
X1437051Y3666533D1*
X1436402Y3676510D1*
X1436406Y3686508D1*
X1437063Y3696486D1*
X1438373Y3706398D1*
X1440327Y3716202D1*
X1442920Y3725858D1*
X1446138Y3735325D1*
X1449967Y3744560D1*
X1454394Y3753525D1*
X1459398Y3762182D1*
X1464955Y3770492D1*
X1471046Y3778421D1*
X1477643Y3785936D1*
X1484715Y3793001D1*
X1492236Y3799589D1*
X1500172Y3805672D1*
X1508488Y3811223D1*
X1517150Y3816217D1*
X1526118Y3820634D1*
X1535358Y3824455D1*
X1544827Y3827664D1*
X1554487Y3830245D1*
X1564294Y3832190D1*
X1574207Y3833490D1*
X1584184Y3834138D1*
X1594182Y3834131D1*
X1604159Y3833471D1*
X1614071Y3832160D1*
X1623875Y3830203D1*
X1633531Y3827610D1*
X1642997Y3824390D1*
X1652232Y3820558D1*
X1661196Y3816130D1*
X1669852Y3811125D1*
X1678160Y3805564D1*
X1686088Y3799472D1*
X1693601Y3792874D1*
X1700665Y3785799D1*
X1707252Y3778278D1*
X1713333Y3770341D1*
X1718882Y3762024D1*
X1723874Y3753362D1*
X1728290Y3744391D1*
X1732109Y3735151D1*
X1735316Y3725681D1*
X1737896Y3716021D1*
X1739839Y3706214D1*
X1741136Y3696301D1*
X1741782Y3686323D1*
X1741778Y3676449D1*
Y4276449D2*
X1741123Y4266471D1*
X1739819Y4256559D1*
X1737867Y4246753D1*
X1735280Y4237096D1*
X1732066Y4227629D1*
X1728239Y4218391D1*
X1723816Y4209424D1*
X1718816Y4200766D1*
X1713261Y4192453D1*
X1707175Y4184521D1*
X1700581Y4177005D1*
X1693510Y4169936D1*
X1685992Y4163344D1*
X1678060Y4157259D1*
X1669745Y4151705D1*
X1661087Y4146707D1*
X1652119Y4142286D1*
X1642881Y4138462D1*
X1633413Y4135249D1*
X1623755Y4132663D1*
X1613949Y4130714D1*
X1604035Y4129411D1*
X1594059Y4128760D1*
X1584060Y4128761D1*
X1574084Y4129417D1*
X1564172Y4130724D1*
X1554366Y4132677D1*
X1544709Y4135268D1*
X1535241Y4138483D1*
X1526005Y4142312D1*
X1517039Y4146736D1*
X1508382Y4151738D1*
X1500071Y4157295D1*
X1492140Y4163383D1*
X1484626Y4169978D1*
X1477558Y4177050D1*
X1470967Y4184570D1*
X1464883Y4192504D1*
X1459332Y4200819D1*
X1454336Y4209479D1*
X1449917Y4218448D1*
X1446093Y4227686D1*
X1442883Y4237155D1*
X1440299Y4246814D1*
X1438353Y4256619D1*
X1437051Y4266533D1*
X1436402Y4276510D1*
X1436406Y4286508D1*
X1437063Y4296486D1*
X1438373Y4306398D1*
X1440327Y4316202D1*
X1442920Y4325858D1*
X1446138Y4335325D1*
X1449967Y4344560D1*
X1454394Y4353525D1*
X1459398Y4362182D1*
X1464955Y4370492D1*
X1471046Y4378421D1*
X1477643Y4385936D1*
X1484715Y4393001D1*
X1492236Y4399589D1*
X1500172Y4405672D1*
X1508488Y4411223D1*
X1517150Y4416217D1*
X1526118Y4420634D1*
X1535358Y4424455D1*
X1544827Y4427664D1*
X1554487Y4430245D1*
X1564294Y4432190D1*
X1574207Y4433490D1*
X1584184Y4434138D1*
X1594182Y4434131D1*
X1604159Y4433471D1*
X1614071Y4432160D1*
X1623875Y4430203D1*
X1633531Y4427610D1*
X1642997Y4424390D1*
X1652232Y4420558D1*
X1661196Y4416130D1*
X1669852Y4411125D1*
X1678160Y4405564D1*
X1686088Y4399472D1*
X1693601Y4392874D1*
X1700665Y4385799D1*
X1707252Y4378278D1*
X1713333Y4370341D1*
X1718882Y4362024D1*
X1723874Y4353362D1*
X1728290Y4344391D1*
X1732109Y4335151D1*
X1735316Y4325681D1*
X1737896Y4316021D1*
X1739839Y4306214D1*
X1741136Y4296301D1*
X1741782Y4286323D1*
X1741778Y4276449D1*
X941778Y3676449D2*
X941123Y3666471D1*
X939819Y3656559D1*
X937867Y3646753D1*
X935280Y3637096D1*
X932066Y3627629D1*
X928239Y3618391D1*
X923816Y3609424D1*
X918816Y3600766D1*
X913261Y3592453D1*
X907175Y3584521D1*
X900581Y3577005D1*
X893510Y3569936D1*
X885992Y3563344D1*
X878060Y3557259D1*
X869745Y3551705D1*
X861087Y3546707D1*
X852119Y3542286D1*
X842881Y3538462D1*
X833413Y3535249D1*
X823755Y3532663D1*
X813949Y3530714D1*
X804035Y3529411D1*
X794059Y3528760D1*
X784060Y3528761D1*
X774084Y3529417D1*
X764172Y3530724D1*
X754366Y3532677D1*
X744709Y3535268D1*
X735241Y3538483D1*
X726005Y3542312D1*
X717039Y3546736D1*
X708382Y3551738D1*
X700071Y3557295D1*
X692140Y3563383D1*
X684626Y3569978D1*
X677558Y3577050D1*
X670967Y3584570D1*
X664883Y3592504D1*
X659332Y3600819D1*
X654336Y3609479D1*
X649917Y3618448D1*
X646093Y3627686D1*
X642883Y3637155D1*
X640299Y3646814D1*
X638353Y3656619D1*
X637051Y3666533D1*
X636402Y3676510D1*
X636406Y3686508D1*
X637063Y3696486D1*
X638373Y3706398D1*
X640327Y3716202D1*
X642920Y3725858D1*
X646138Y3735325D1*
X649967Y3744560D1*
X654394Y3753525D1*
X659398Y3762182D1*
X664955Y3770492D1*
X671046Y3778421D1*
X677643Y3785936D1*
X684715Y3793001D1*
X692236Y3799589D1*
X700172Y3805672D1*
X708488Y3811223D1*
X717150Y3816217D1*
X726118Y3820634D1*
X735358Y3824455D1*
X744827Y3827664D1*
X754487Y3830245D1*
X764294Y3832190D1*
X774207Y3833490D1*
X784184Y3834138D1*
X794182Y3834131D1*
X804159Y3833471D1*
X814071Y3832160D1*
X823875Y3830203D1*
X833531Y3827610D1*
X842997Y3824390D1*
X852232Y3820558D1*
X861196Y3816130D1*
X869852Y3811125D1*
X878160Y3805564D1*
X886088Y3799472D1*
X893601Y3792874D1*
X900665Y3785799D1*
X907252Y3778278D1*
X913333Y3770341D1*
X918882Y3762024D1*
X923874Y3753362D1*
X928290Y3744391D1*
X932109Y3735151D1*
X935316Y3725681D1*
X937896Y3716021D1*
X939839Y3706214D1*
X941136Y3696301D1*
X941782Y3686323D1*
X941778Y3676449D1*
X1741736Y4876020D2*
X1741081Y4866042D1*
X1739777Y4856130D1*
X1737825Y4846324D1*
X1735238Y4836667D1*
X1732024Y4827199D1*
X1728197Y4817962D1*
X1723774Y4808995D1*
X1718774Y4800337D1*
X1713219Y4792024D1*
X1707133Y4784092D1*
X1700539Y4776576D1*
X1693469Y4769507D1*
X1685950Y4762915D1*
X1678018Y4756829D1*
X1669703Y4751276D1*
X1661045Y4746278D1*
X1652077Y4741857D1*
X1642839Y4738033D1*
X1633371Y4734820D1*
X1623713Y4732234D1*
X1613907Y4730285D1*
X1603993Y4728982D1*
X1594017Y4728331D1*
X1584018Y4728332D1*
X1574042Y4728988D1*
X1564130Y4730295D1*
X1554324Y4732248D1*
X1544667Y4734839D1*
X1535199Y4738054D1*
X1525963Y4741883D1*
X1516997Y4746307D1*
X1508340Y4751308D1*
X1500029Y4756866D1*
X1492098Y4762954D1*
X1484584Y4769549D1*
X1477516Y4776621D1*
X1470925Y4784140D1*
X1464841Y4792075D1*
X1459290Y4800390D1*
X1454294Y4809050D1*
X1449875Y4818018D1*
X1446051Y4827257D1*
X1442841Y4836726D1*
X1440257Y4846385D1*
X1438311Y4856190D1*
X1437009Y4866104D1*
X1436360Y4876081D1*
X1436364Y4886079D1*
X1437021Y4896056D1*
X1438331Y4905969D1*
X1440285Y4915773D1*
X1442878Y4925429D1*
X1446096Y4934896D1*
X1449925Y4944131D1*
X1454352Y4953096D1*
X1459356Y4961753D1*
X1464913Y4970063D1*
X1471004Y4977992D1*
X1477601Y4985507D1*
X1484673Y4992572D1*
X1492194Y4999160D1*
X1500130Y5005243D1*
X1508446Y5010794D1*
X1517108Y5015787D1*
X1526076Y5020205D1*
X1535316Y5024026D1*
X1544785Y5027235D1*
X1554445Y5029816D1*
X1564252Y5031761D1*
X1574165Y5033060D1*
X1584142Y5033709D1*
X1594140Y5033702D1*
X1604117Y5033042D1*
X1614029Y5031731D1*
X1623833Y5029774D1*
X1633490Y5027181D1*
X1642955Y5023961D1*
X1652190Y5020129D1*
X1661154Y5015701D1*
X1669810Y5010696D1*
X1678118Y5005135D1*
X1686046Y4999043D1*
X1693559Y4992445D1*
X1700623Y4985370D1*
X1707210Y4977849D1*
X1713291Y4969912D1*
X1718840Y4961594D1*
X1723832Y4952933D1*
X1728248Y4943962D1*
X1732067Y4934722D1*
X1735274Y4925252D1*
X1737854Y4915592D1*
X1739797Y4905785D1*
X1741094Y4895871D1*
X1741740Y4885894D1*
X1741736Y4876020D1*
X941778Y2476449D2*
X941123Y2466471D1*
X939819Y2456559D1*
X937867Y2446753D1*
X935280Y2437096D1*
X932066Y2427629D1*
X928239Y2418391D1*
X923816Y2409424D1*
X918816Y2400766D1*
X913261Y2392453D1*
X907175Y2384521D1*
X900581Y2377005D1*
X893510Y2369936D1*
X885992Y2363344D1*
X878060Y2357259D1*
X869745Y2351705D1*
X861087Y2346707D1*
X852119Y2342286D1*
X842881Y2338462D1*
X833413Y2335249D1*
X823755Y2332663D1*
X813949Y2330714D1*
X804035Y2329411D1*
X794059Y2328760D1*
X784060Y2328761D1*
X774084Y2329417D1*
X764172Y2330724D1*
X754366Y2332677D1*
X744709Y2335268D1*
X735241Y2338483D1*
X726005Y2342312D1*
X717039Y2346736D1*
X708382Y2351738D1*
X700071Y2357295D1*
X692140Y2363383D1*
X684626Y2369978D1*
X677558Y2377050D1*
X670967Y2384570D1*
X664883Y2392504D1*
X659332Y2400819D1*
X654336Y2409479D1*
X649917Y2418448D1*
X646093Y2427686D1*
X642883Y2437155D1*
X640299Y2446814D1*
X638353Y2456619D1*
X637051Y2466533D1*
X636402Y2476510D1*
X636406Y2486508D1*
X637063Y2496486D1*
X638373Y2506398D1*
X640327Y2516202D1*
X642920Y2525858D1*
X646138Y2535325D1*
X649967Y2544560D1*
X654394Y2553525D1*
X659398Y2562182D1*
X664955Y2570492D1*
X671046Y2578421D1*
X677643Y2585936D1*
X684715Y2593001D1*
X692236Y2599589D1*
X700172Y2605672D1*
X708488Y2611223D1*
X717150Y2616217D1*
X726118Y2620634D1*
X735358Y2624455D1*
X744827Y2627664D1*
X754487Y2630245D1*
X764294Y2632190D1*
X774207Y2633490D1*
X784184Y2634138D1*
X794182Y2634131D1*
X804159Y2633471D1*
X814071Y2632160D1*
X823875Y2630203D1*
X833531Y2627610D1*
X842997Y2624390D1*
X852232Y2620558D1*
X861196Y2616130D1*
X869852Y2611125D1*
X878160Y2605564D1*
X886088Y2599472D1*
X893601Y2592874D1*
X900665Y2585799D1*
X907252Y2578278D1*
X913333Y2570341D1*
X918882Y2562024D1*
X923874Y2553362D1*
X928290Y2544391D1*
X932109Y2535151D1*
X935316Y2525681D1*
X937896Y2516021D1*
X939839Y2506214D1*
X941136Y2496301D1*
X941782Y2486323D1*
X941778Y2476449D1*
Y3076449D2*
X941123Y3066471D1*
X939819Y3056559D1*
X937867Y3046753D1*
X935280Y3037096D1*
X932066Y3027629D1*
X928239Y3018391D1*
X923816Y3009424D1*
X918816Y3000766D1*
X913261Y2992453D1*
X907175Y2984521D1*
X900581Y2977005D1*
X893510Y2969936D1*
X885992Y2963344D1*
X878060Y2957259D1*
X869745Y2951705D1*
X861087Y2946707D1*
X852119Y2942286D1*
X842881Y2938462D1*
X833413Y2935249D1*
X823755Y2932663D1*
X813949Y2930714D1*
X804035Y2929411D1*
X794059Y2928760D1*
X784060Y2928761D1*
X774084Y2929417D1*
X764172Y2930724D1*
X754366Y2932677D1*
X744709Y2935268D1*
X735241Y2938483D1*
X726005Y2942312D1*
X717039Y2946736D1*
X708382Y2951738D1*
X700071Y2957295D1*
X692140Y2963383D1*
X684626Y2969978D1*
X677558Y2977050D1*
X670967Y2984570D1*
X664883Y2992504D1*
X659332Y3000819D1*
X654336Y3009479D1*
X649917Y3018448D1*
X646093Y3027686D1*
X642883Y3037155D1*
X640299Y3046814D1*
X638353Y3056619D1*
X637051Y3066533D1*
X636402Y3076510D1*
X636406Y3086508D1*
X637063Y3096486D1*
X638373Y3106398D1*
X640327Y3116202D1*
X642920Y3125858D1*
X646138Y3135325D1*
X649967Y3144560D1*
X654394Y3153525D1*
X659398Y3162182D1*
X664955Y3170492D1*
X671046Y3178421D1*
X677643Y3185936D1*
X684715Y3193001D1*
X692236Y3199589D1*
X700172Y3205672D1*
X708488Y3211223D1*
X717150Y3216217D1*
X726118Y3220634D1*
X735358Y3224455D1*
X744827Y3227664D1*
X754487Y3230245D1*
X764294Y3232190D1*
X774207Y3233490D1*
X784184Y3234138D1*
X794182Y3234131D1*
X804159Y3233471D1*
X814071Y3232160D1*
X823875Y3230203D1*
X833531Y3227610D1*
X842997Y3224390D1*
X852232Y3220558D1*
X861196Y3216130D1*
X869852Y3211125D1*
X878160Y3205564D1*
X886088Y3199472D1*
X893601Y3192874D1*
X900665Y3185799D1*
X907252Y3178278D1*
X913333Y3170341D1*
X918882Y3162024D1*
X923874Y3153362D1*
X928290Y3144391D1*
X932109Y3135151D1*
X935316Y3125681D1*
X937896Y3116021D1*
X939839Y3106214D1*
X941136Y3096301D1*
X941782Y3086323D1*
X941778Y3076449D1*
X1741778Y2476449D2*
X1741123Y2466471D1*
X1739819Y2456559D1*
X1737867Y2446753D1*
X1735280Y2437096D1*
X1732066Y2427629D1*
X1728239Y2418391D1*
X1723816Y2409424D1*
X1718816Y2400766D1*
X1713261Y2392453D1*
X1707175Y2384521D1*
X1700581Y2377005D1*
X1693510Y2369936D1*
X1685992Y2363344D1*
X1678060Y2357259D1*
X1669745Y2351705D1*
X1661087Y2346707D1*
X1652119Y2342286D1*
X1642881Y2338462D1*
X1633413Y2335249D1*
X1623755Y2332663D1*
X1613949Y2330714D1*
X1604035Y2329411D1*
X1594059Y2328760D1*
X1584060Y2328761D1*
X1574084Y2329417D1*
X1564172Y2330724D1*
X1554366Y2332677D1*
X1544709Y2335268D1*
X1535241Y2338483D1*
X1526005Y2342312D1*
X1517039Y2346736D1*
X1508382Y2351738D1*
X1500071Y2357295D1*
X1492140Y2363383D1*
X1484626Y2369978D1*
X1477558Y2377050D1*
X1470967Y2384570D1*
X1464883Y2392504D1*
X1459332Y2400819D1*
X1454336Y2409479D1*
X1449917Y2418448D1*
X1446093Y2427686D1*
X1442883Y2437155D1*
X1440299Y2446814D1*
X1438353Y2456619D1*
X1437051Y2466533D1*
X1436402Y2476510D1*
X1436406Y2486508D1*
X1437063Y2496486D1*
X1438373Y2506398D1*
X1440327Y2516202D1*
X1442920Y2525858D1*
X1446138Y2535325D1*
X1449967Y2544560D1*
X1454394Y2553525D1*
X1459398Y2562182D1*
X1464955Y2570492D1*
X1471046Y2578421D1*
X1477643Y2585936D1*
X1484715Y2593001D1*
X1492236Y2599589D1*
X1500172Y2605672D1*
X1508488Y2611223D1*
X1517150Y2616217D1*
X1526118Y2620634D1*
X1535358Y2624455D1*
X1544827Y2627664D1*
X1554487Y2630245D1*
X1564294Y2632190D1*
X1574207Y2633490D1*
X1584184Y2634138D1*
X1594182Y2634131D1*
X1604159Y2633471D1*
X1614071Y2632160D1*
X1623875Y2630203D1*
X1633531Y2627610D1*
X1642997Y2624390D1*
X1652232Y2620558D1*
X1661196Y2616130D1*
X1669852Y2611125D1*
X1678160Y2605564D1*
X1686088Y2599472D1*
X1693601Y2592874D1*
X1700665Y2585799D1*
X1707252Y2578278D1*
X1713333Y2570341D1*
X1718882Y2562024D1*
X1723874Y2553362D1*
X1728290Y2544391D1*
X1732109Y2535151D1*
X1735316Y2525681D1*
X1737896Y2516021D1*
X1739839Y2506214D1*
X1741136Y2496301D1*
X1741782Y2486323D1*
X1741778Y2476449D1*
X941778Y4876449D2*
X941123Y4866471D1*
X939819Y4856559D1*
X937867Y4846753D1*
X935280Y4837096D1*
X932066Y4827629D1*
X928239Y4818391D1*
X923816Y4809424D1*
X918816Y4800766D1*
X913261Y4792453D1*
X907175Y4784521D1*
X900581Y4777005D1*
X893510Y4769936D1*
X885992Y4763344D1*
X878060Y4757259D1*
X869745Y4751705D1*
X861087Y4746707D1*
X852119Y4742286D1*
X842881Y4738462D1*
X833413Y4735249D1*
X823755Y4732663D1*
X813949Y4730714D1*
X804035Y4729411D1*
X794059Y4728760D1*
X784060Y4728761D1*
X774084Y4729417D1*
X764172Y4730724D1*
X754366Y4732677D1*
X744709Y4735268D1*
X735241Y4738483D1*
X726005Y4742312D1*
X717039Y4746736D1*
X708382Y4751738D1*
X700071Y4757295D1*
X692140Y4763383D1*
X684626Y4769978D1*
X677558Y4777050D1*
X670967Y4784570D1*
X664883Y4792504D1*
X659332Y4800819D1*
X654336Y4809479D1*
X649917Y4818448D1*
X646093Y4827686D1*
X642883Y4837155D1*
X640299Y4846814D1*
X638353Y4856619D1*
X637051Y4866533D1*
X636402Y4876510D1*
X636406Y4886508D1*
X637063Y4896486D1*
X638373Y4906398D1*
X640327Y4916202D1*
X642920Y4925858D1*
X646138Y4935325D1*
X649967Y4944560D1*
X654394Y4953525D1*
X659398Y4962182D1*
X664955Y4970492D1*
X671046Y4978421D1*
X677643Y4985936D1*
X684715Y4993001D1*
X692236Y4999589D1*
X700172Y5005672D1*
X708488Y5011223D1*
X717150Y5016217D1*
X726118Y5020634D1*
X735358Y5024455D1*
X744827Y5027664D1*
X754487Y5030245D1*
X764294Y5032190D1*
X774207Y5033490D1*
X784184Y5034138D1*
X794182Y5034131D1*
X804159Y5033471D1*
X814071Y5032160D1*
X823875Y5030203D1*
X833531Y5027610D1*
X842997Y5024390D1*
X852232Y5020558D1*
X861196Y5016130D1*
X869852Y5011125D1*
X878160Y5005564D1*
X886088Y4999472D1*
X893601Y4992874D1*
X900665Y4985799D1*
X907252Y4978278D1*
X913333Y4970341D1*
X918882Y4962024D1*
X923874Y4953362D1*
X928290Y4944391D1*
X932109Y4935151D1*
X935316Y4925681D1*
X937896Y4916021D1*
X939839Y4906214D1*
X941136Y4896301D1*
X941782Y4886323D1*
X941778Y4876449D1*
X1570655Y1039000D2*
X1570105Y1029017D1*
X1569007Y1019079D1*
X1567364Y1009217D1*
X1565180Y999458D1*
X1562463Y989836D1*
X1559222Y980377D1*
X1555465Y971112D1*
X1551205Y962066D1*
X1546453Y953269D1*
X1541223Y944745D1*
X1535534Y936524D1*
X1529400Y928627D1*
X1522843Y921079D1*
X1515879Y913904D1*
X1508531Y907122D1*
X1500823Y900755D1*
X1492774Y894822D1*
X1484412Y889340D1*
X1475761Y884327D1*
X1466848Y879795D1*
X1457698Y875762D1*
X1448341Y872239D1*
X1438804Y869235D1*
X1429117Y866760D1*
X1419308Y864823D1*
X1409407Y863427D1*
X1399445Y862577D1*
X1389450Y862278D1*
X1379454Y862528D1*
X1369488Y863328D1*
X1359580Y864675D1*
X1349761Y866564D1*
X1340062Y868991D1*
X1330510Y871948D1*
X1321135Y875425D1*
X1311967Y879413D1*
X1303030Y883899D1*
X1294356Y888870D1*
X1285966Y894310D1*
X1277888Y900203D1*
X1270148Y906533D1*
X1262768Y913278D1*
X1255769Y920419D1*
X1249173Y927933D1*
X1243001Y935799D1*
X1237270Y943993D1*
X1232000Y952491D1*
X1227205Y961264D1*
X1222899Y970289D1*
X1219096Y979535D1*
X1215807Y988978D1*
X1213043Y998588D1*
X1210812Y1008333D1*
X1209121Y1018189D1*
X1207972Y1028121D1*
X1207374Y1038102D1*
X1207324Y1048101D1*
X1207824Y1058087D1*
X1208874Y1068030D1*
X1210469Y1077902D1*
X1212602Y1087669D1*
X1215272Y1097306D1*
X1218467Y1106780D1*
X1222177Y1116064D1*
X1226394Y1125131D1*
X1231102Y1133951D1*
X1236289Y1142500D1*
X1241937Y1150751D1*
X1248031Y1158677D1*
X1254552Y1166257D1*
X1261480Y1173467D1*
X1268794Y1180285D1*
X1276471Y1186690D1*
X1284490Y1192663D1*
X1292824Y1198186D1*
X1301450Y1203243D1*
X1310341Y1207816D1*
X1319471Y1211895D1*
X1328811Y1215466D1*
X1338332Y1218516D1*
X1348008Y1221039D1*
X1357807Y1223025D1*
X1367701Y1224470D1*
X1377659Y1225369D1*
X1387652Y1225718D1*
X1397648Y1225517D1*
X1407619Y1224766D1*
X1417533Y1223469D1*
X1427361Y1221627D1*
X1437073Y1219249D1*
X1446639Y1216340D1*
X1456030Y1212908D1*
X1465219Y1208966D1*
X1474177Y1204525D1*
X1482878Y1199597D1*
X1491293Y1194198D1*
X1499399Y1188344D1*
X1507172Y1182054D1*
X1514585Y1175345D1*
X1521619Y1168239D1*
X1528252Y1160757D1*
X1534463Y1152921D1*
X1540234Y1144756D1*
X1545547Y1136285D1*
X1550386Y1127535D1*
X1554736Y1118533D1*
X1558584Y1109304D1*
X1561919Y1099878D1*
X1564731Y1090282D1*
X1567010Y1080547D1*
X1568751Y1070701D1*
X1569948Y1060774D1*
X1570596Y1050797D1*
X1570655Y1039000D1*
X770654D2*
X770104Y1029017D1*
X769005Y1019079D1*
X767362Y1009217D1*
X765180Y999458D1*
X762463Y989836D1*
X759222Y980377D1*
X755465Y971112D1*
X751203Y962066D1*
X746451Y953269D1*
X741223Y944745D1*
X735533Y936524D1*
X729400Y928627D1*
X722843Y921079D1*
X715878Y913904D1*
X708531Y907122D1*
X700822Y900755D1*
X692774Y894822D1*
X684412Y889340D1*
X675761Y884327D1*
X666848Y879795D1*
X657698Y875762D1*
X648341Y872239D1*
X638804Y869235D1*
X629117Y866760D1*
X619307Y864823D1*
X609407Y863427D1*
X599444Y862577D1*
X589450Y862278D1*
X579454Y862528D1*
X569487Y863328D1*
X559580Y864675D1*
X549761Y866564D1*
X540062Y868991D1*
X530509Y871948D1*
X521135Y875425D1*
X511966Y879413D1*
X503030Y883899D1*
X494354Y888870D1*
X485966Y894310D1*
X477888Y900203D1*
X470147Y906533D1*
X462766Y913278D1*
X455768Y920419D1*
X449172Y927933D1*
X443000Y935799D1*
X437270Y943993D1*
X432000Y952491D1*
X427203Y961264D1*
X422898Y970289D1*
X419096Y979535D1*
X415807Y988978D1*
X414999Y991651D1*
X415000Y414983D1*
X593535Y415000D1*
X586000Y418018D1*
X577080Y422531D1*
X568640Y427887D1*
X560760Y434037D1*
X553512Y440920D1*
X546966Y448475D1*
X541184Y456629D1*
X536218Y465304D1*
X532118Y474421D1*
X528920Y483891D1*
X526656Y493627D1*
X525346Y503538D1*
X525004Y513528D1*
X525631Y523504D1*
X527223Y533373D1*
X529765Y543041D1*
X533231Y552416D1*
X537591Y561412D1*
X542802Y569942D1*
X548815Y577928D1*
X555573Y585293D1*
X563014Y591967D1*
X571068Y597888D1*
X579657Y603001D1*
X588702Y607257D1*
X598117Y610617D1*
X607814Y613047D1*
X617699Y614526D1*
X627682Y615039D1*
X754727Y614933D1*
X764680Y613992D1*
X774493Y612091D1*
X784076Y609248D1*
X793339Y605488D1*
X802193Y600849D1*
X810555Y595373D1*
X818348Y589112D1*
X825496Y582125D1*
X831933Y574478D1*
X837600Y566241D1*
X842440Y557496D1*
X846409Y548323D1*
X849471Y538807D1*
X851597Y529039D1*
X852765Y519112D1*
X853007Y512058D1*
X852521Y502073D1*
X851071Y492184D1*
X848668Y482480D1*
X845335Y473056D1*
X841105Y463999D1*
X836017Y455395D1*
X830118Y447325D1*
X823465Y439865D1*
X816119Y433084D1*
X808151Y427049D1*
X799636Y421814D1*
X790654Y417429D1*
X784370Y415000D1*
X1593535D1*
X1586000Y418018D1*
X1577080Y422531D1*
X1568640Y427887D1*
X1560760Y434037D1*
X1553512Y440920D1*
X1546966Y448475D1*
X1541184Y456629D1*
X1536218Y465304D1*
X1532118Y474421D1*
X1528920Y483891D1*
X1526656Y493627D1*
X1525346Y503538D1*
X1525004Y513528D1*
X1525631Y523504D1*
X1527223Y533373D1*
X1529765Y543041D1*
X1533231Y552416D1*
X1537591Y561412D1*
X1542802Y569942D1*
X1548815Y577928D1*
X1555573Y585293D1*
X1563014Y591967D1*
X1571068Y597888D1*
X1579657Y603001D1*
X1588702Y607257D1*
X1598117Y610617D1*
X1607814Y613047D1*
X1617699Y614526D1*
X1627682Y615039D1*
X1754727Y614933D1*
X1764680Y613992D1*
X1774493Y612091D1*
X1784076Y609248D1*
X1793339Y605488D1*
X1802193Y600849D1*
X1810555Y595373D1*
X1818348Y589112D1*
X1825496Y582125D1*
X1831933Y574478D1*
X1837600Y566241D1*
X1842440Y557496D1*
X1846409Y548323D1*
X1849471Y538807D1*
X1851597Y529039D1*
X1852765Y519112D1*
X1853007Y512058D1*
X1852521Y502073D1*
X1851071Y492184D1*
X1848668Y482480D1*
X1845335Y473056D1*
X1841105Y463999D1*
X1836017Y455395D1*
X1830118Y447325D1*
X1823465Y439865D1*
X1816119Y433084D1*
X1808151Y427049D1*
X1799636Y421814D1*
X1790654Y417429D1*
X1784370Y415000D1*
X1962988D1*
X1963010Y991621D1*
X1959222Y980377D1*
X1955465Y971112D1*
X1951203Y962066D1*
X1946451Y953269D1*
X1941223Y944745D1*
X1935533Y936524D1*
X1929400Y928627D1*
X1922843Y921079D1*
X1915878Y913904D1*
X1908531Y907122D1*
X1900822Y900755D1*
X1892774Y894822D1*
X1884412Y889340D1*
X1875761Y884327D1*
X1866848Y879795D1*
X1857698Y875762D1*
X1848341Y872239D1*
X1838804Y869235D1*
X1829117Y866760D1*
X1819307Y864823D1*
X1809407Y863427D1*
X1799444Y862577D1*
X1789450Y862278D1*
X1779454Y862528D1*
X1769487Y863328D1*
X1759580Y864675D1*
X1749761Y866564D1*
X1740062Y868991D1*
X1730509Y871948D1*
X1721135Y875425D1*
X1711966Y879413D1*
X1703030Y883899D1*
X1694354Y888870D1*
X1685966Y894310D1*
X1677888Y900203D1*
X1670147Y906533D1*
X1662766Y913278D1*
X1655768Y920419D1*
X1649172Y927933D1*
X1643000Y935799D1*
X1637270Y943993D1*
X1632000Y952491D1*
X1627203Y961264D1*
X1622898Y970289D1*
X1619096Y979535D1*
X1615807Y988978D1*
X1613043Y998588D1*
X1610811Y1008333D1*
X1609119Y1018189D1*
X1607972Y1028121D1*
X1607373Y1038102D1*
X1607323Y1048101D1*
X1607824Y1058087D1*
X1608873Y1068030D1*
X1610467Y1077902D1*
X1612602Y1087669D1*
X1615272Y1097306D1*
X1618466Y1106780D1*
X1622177Y1116064D1*
X1626394Y1125131D1*
X1631101Y1133951D1*
X1636287Y1142500D1*
X1641937Y1150751D1*
X1648030Y1158677D1*
X1654551Y1166257D1*
X1661479Y1173467D1*
X1668793Y1180285D1*
X1676471Y1186690D1*
X1684490Y1192663D1*
X1692824Y1198186D1*
X1701450Y1203243D1*
X1710341Y1207816D1*
X1719470Y1211895D1*
X1728810Y1215466D1*
X1738332Y1218516D1*
X1748007Y1221039D1*
X1757807Y1223025D1*
X1767701Y1224470D1*
X1777659Y1225369D1*
X1787651Y1225718D1*
X1797648Y1225517D1*
X1807618Y1224766D1*
X1817533Y1223469D1*
X1827361Y1221627D1*
X1837072Y1219249D1*
X1846638Y1216340D1*
X1856030Y1212908D1*
X1865219Y1208966D1*
X1874177Y1204525D1*
X1882877Y1199597D1*
X1891293Y1194198D1*
X1899399Y1188344D1*
X1907171Y1182054D1*
X1914585Y1175345D1*
X1921619Y1168239D1*
X1928252Y1160757D1*
X1934462Y1152921D1*
X1940234Y1144756D1*
X1945546Y1136285D1*
X1950385Y1127535D1*
X1954735Y1118533D1*
X1958584Y1109304D1*
X1961919Y1099878D1*
X1963017Y1096312D1*
X1963016Y1245957D1*
X1958837Y1239139D1*
X1955860Y1235123D1*
X1952619Y1231316D1*
X1949130Y1227736D1*
X1945409Y1224399D1*
X1941472Y1221318D1*
X1937337Y1218508D1*
X1933024Y1215982D1*
X1928550Y1213752D1*
X1923936Y1211827D1*
X1919203Y1210215D1*
X1914374Y1208925D1*
X1909469Y1207962D1*
X1904509Y1207331D1*
X1899520Y1207033D1*
X1894521Y1207071D1*
X1889535Y1207445D1*
X1884587Y1208152D1*
X1879697Y1209190D1*
X1874887Y1210555D1*
X1870180Y1212239D1*
X1865597Y1214234D1*
X1861157Y1216533D1*
X1856883Y1219125D1*
X1852791Y1221997D1*
X1848903Y1225139D1*
X1845234Y1228533D1*
X1841799Y1232167D1*
X1838618Y1236022D1*
X1835702Y1240083D1*
X1833066Y1244331D1*
X1830719Y1248744D1*
X1828676Y1253307D1*
X1826942Y1257996D1*
X1825528Y1262790D1*
X1824437Y1267669D1*
X1823677Y1272610D1*
X1823251Y1277591D1*
X1823160Y1282589D1*
X1823404Y1287583D1*
X1823983Y1292547D1*
X1824895Y1297463D1*
X1826134Y1302306D1*
X1827694Y1307055D1*
X1829571Y1311689D1*
X1831755Y1316186D1*
X1834234Y1320526D1*
X1837000Y1324690D1*
X1840039Y1328660D1*
X1843337Y1332416D1*
X1846881Y1335942D1*
X1850652Y1339223D1*
X1854636Y1342244D1*
X1858814Y1344990D1*
X1863165Y1347449D1*
X1867673Y1349610D1*
X1872316Y1351465D1*
X1877072Y1353003D1*
X1881921Y1354219D1*
X1886841Y1355106D1*
X1891810Y1355661D1*
X1896803Y1355883D1*
X1901801Y1355768D1*
X1906780Y1355318D1*
X1911717Y1354534D1*
X1916591Y1353421D1*
X1921378Y1351984D1*
X1926059Y1350228D1*
X1930612Y1348163D1*
X1935014Y1345795D1*
X1939249Y1343138D1*
X1943295Y1340203D1*
X1947136Y1337003D1*
X1950753Y1333552D1*
X1954131Y1329866D1*
X1957253Y1325963D1*
X1960106Y1321858D1*
X1963025Y1316892D1*
X1963020Y1466660D1*
X1959222Y1455377D1*
X1955465Y1446112D1*
X1951203Y1437066D1*
X1946451Y1428269D1*
X1941223Y1419745D1*
X1935533Y1411524D1*
X1929400Y1403627D1*
X1922843Y1396079D1*
X1915878Y1388904D1*
X1908531Y1382122D1*
X1900822Y1375755D1*
X1892774Y1369822D1*
X1884412Y1364340D1*
X1875761Y1359327D1*
X1866848Y1354795D1*
X1857698Y1350762D1*
X1848341Y1347239D1*
X1838804Y1344235D1*
X1829117Y1341760D1*
X1819307Y1339823D1*
X1809407Y1338427D1*
X1799444Y1337577D1*
X1789450Y1337278D1*
X1779454Y1337528D1*
X1769487Y1338328D1*
X1759580Y1339675D1*
X1749761Y1341564D1*
X1740062Y1343991D1*
X1730509Y1346948D1*
X1721135Y1350425D1*
X1711966Y1354413D1*
X1703030Y1358899D1*
X1694354Y1363870D1*
X1685966Y1369310D1*
X1677888Y1375203D1*
X1670147Y1381533D1*
X1662766Y1388278D1*
X1655768Y1395419D1*
X1649172Y1402933D1*
X1643000Y1410799D1*
X1637270Y1418993D1*
X1632000Y1427491D1*
X1627203Y1436264D1*
X1622898Y1445289D1*
X1619096Y1454535D1*
X1615807Y1463978D1*
X1613043Y1473588D1*
X1610811Y1483333D1*
X1609119Y1493189D1*
X1607972Y1503121D1*
X1607373Y1513102D1*
X1607323Y1523101D1*
X1607824Y1533087D1*
X1608873Y1543030D1*
X1610467Y1552902D1*
X1612602Y1562669D1*
X1615272Y1572306D1*
X1618466Y1581780D1*
X1622177Y1591064D1*
X1626394Y1600131D1*
X1631101Y1608951D1*
X1636287Y1617500D1*
X1641937Y1625751D1*
X1648030Y1633677D1*
X1654551Y1641257D1*
X1661479Y1648467D1*
X1668793Y1655285D1*
X1676471Y1661690D1*
X1684490Y1667663D1*
X1692824Y1673186D1*
X1701450Y1678243D1*
X1710341Y1682816D1*
X1719470Y1686895D1*
X1728810Y1690466D1*
X1738332Y1693516D1*
X1748007Y1696039D1*
X1757807Y1698025D1*
X1767701Y1699470D1*
X1777659Y1700369D1*
X1787651Y1700718D1*
X1797648Y1700517D1*
X1807618Y1699766D1*
X1817533Y1698469D1*
X1827361Y1696627D1*
X1837072Y1694249D1*
X1846638Y1691340D1*
X1856030Y1687908D1*
X1865219Y1683966D1*
X1874177Y1679525D1*
X1882877Y1674597D1*
X1891293Y1669198D1*
X1899399Y1663344D1*
X1907171Y1657054D1*
X1914585Y1650345D1*
X1921619Y1643239D1*
X1928252Y1635757D1*
X1934462Y1627921D1*
X1940234Y1619756D1*
X1945546Y1611285D1*
X1950385Y1602535D1*
X1954735Y1593533D1*
X1958584Y1584304D1*
X1961919Y1574878D1*
X1963017Y1571312D1*
X1963028Y1935449D1*
X1959217Y1924127D1*
X1955459Y1914862D1*
X1951198Y1905816D1*
X1946446Y1897020D1*
X1941218Y1888496D1*
X1935528Y1880274D1*
X1929395Y1872378D1*
X1922837Y1864829D1*
X1915873Y1857655D1*
X1908526Y1850873D1*
X1900816Y1844505D1*
X1892769Y1838572D1*
X1884407Y1833091D1*
X1875756Y1828077D1*
X1866843Y1823546D1*
X1857693Y1819513D1*
X1848336Y1815990D1*
X1838799Y1812986D1*
X1829112Y1810510D1*
X1819302Y1808573D1*
X1809402Y1807177D1*
X1799438Y1806328D1*
X1789445Y1806029D1*
X1779449Y1806278D1*
X1769482Y1807079D1*
X1759575Y1808425D1*
X1749756Y1810315D1*
X1740056Y1812741D1*
X1730504Y1815698D1*
X1721130Y1819176D1*
X1711961Y1823164D1*
X1703025Y1827650D1*
X1694349Y1832621D1*
X1685961Y1838060D1*
X1677883Y1843954D1*
X1670142Y1850283D1*
X1662761Y1857029D1*
X1655762Y1864169D1*
X1649167Y1871684D1*
X1642995Y1879550D1*
X1637265Y1887744D1*
X1631995Y1896241D1*
X1627198Y1905014D1*
X1622892Y1914039D1*
X1619091Y1923286D1*
X1615802Y1932728D1*
X1613038Y1942339D1*
X1610806Y1952084D1*
X1609114Y1961940D1*
X1607967Y1971871D1*
X1607367Y1981853D1*
X1607318Y1991852D1*
X1607819Y2001837D1*
X1608867Y2011781D1*
X1610462Y2021652D1*
X1612597Y2031420D1*
X1615266Y2041056D1*
X1618461Y2050530D1*
X1622172Y2059815D1*
X1626388Y2068882D1*
X1631096Y2077702D1*
X1636282Y2086251D1*
X1641932Y2094501D1*
X1648025Y2102428D1*
X1654546Y2110008D1*
X1661474Y2117218D1*
X1668787Y2124035D1*
X1676466Y2130441D1*
X1684484Y2136413D1*
X1692819Y2141937D1*
X1701445Y2146993D1*
X1710336Y2151567D1*
X1719465Y2155646D1*
X1728804Y2159217D1*
X1738327Y2162266D1*
X1748001Y2164790D1*
X1757802Y2166776D1*
X1767696Y2168220D1*
X1777654Y2169119D1*
X1787646Y2169469D1*
X1797643Y2169268D1*
X1807613Y2168517D1*
X1817528Y2167219D1*
X1827356Y2165378D1*
X1837067Y2163000D1*
X1846633Y2160091D1*
X1856025Y2156659D1*
X1865214Y2152717D1*
X1874172Y2148276D1*
X1882871Y2143348D1*
X1891287Y2137949D1*
X1899394Y2132094D1*
X1907165Y2125804D1*
X1914580Y2119096D1*
X1921614Y2111990D1*
X1928247Y2104508D1*
X1934457Y2096672D1*
X1940228Y2088507D1*
X1945541Y2080035D1*
X1950379Y2071286D1*
X1954730Y2062283D1*
X1958579Y2053055D1*
X1961913Y2043629D1*
X1963034Y2039990D1*
X1963091Y5428965D1*
X1791976Y5428948D1*
X1797822Y5426110D1*
X1806440Y5421047D1*
X1814528Y5415172D1*
X1822007Y5408539D1*
X1828807Y5401214D1*
X1834866Y5393264D1*
X1840126Y5384762D1*
X1844537Y5375793D1*
X1848056Y5366436D1*
X1850652Y5356783D1*
X1852301Y5346924D1*
X1852986Y5336951D1*
X1852885Y5329894D1*
X1851916Y5319945D1*
X1849987Y5310138D1*
X1847115Y5300562D1*
X1843329Y5291311D1*
X1838665Y5282470D1*
X1833165Y5274123D1*
X1826882Y5266349D1*
X1819874Y5259220D1*
X1812209Y5252804D1*
X1803957Y5247163D1*
X1795198Y5242346D1*
X1786012Y5238403D1*
X1776488Y5235369D1*
X1766714Y5233272D1*
X1756783Y5232131D1*
X1750024Y5231909D1*
X1624741Y5231961D1*
X1614778Y5232759D1*
X1604938Y5234520D1*
X1595315Y5237226D1*
X1586000Y5240853D1*
X1577080Y5245366D1*
X1568640Y5250722D1*
X1560760Y5256871D1*
X1553512Y5263755D1*
X1546966Y5271310D1*
X1541184Y5279463D1*
X1536218Y5288139D1*
X1532118Y5297256D1*
X1528920Y5306726D1*
X1526656Y5316462D1*
X1525346Y5326373D1*
X1525004Y5336362D1*
X1525631Y5346339D1*
X1527223Y5356207D1*
X1529765Y5365875D1*
X1533231Y5375251D1*
X1537591Y5384247D1*
X1542802Y5392777D1*
X1548815Y5400762D1*
X1555573Y5408127D1*
X1563014Y5414802D1*
X1571068Y5420723D1*
X1579657Y5425836D1*
X1586112Y5428949D1*
X791976Y5428948D1*
X797822Y5426110D1*
X806440Y5421047D1*
X814528Y5415172D1*
X822007Y5408539D1*
X828807Y5401214D1*
X834866Y5393264D1*
X840126Y5384762D1*
X844537Y5375793D1*
X848056Y5366436D1*
X850652Y5356783D1*
X852301Y5346924D1*
X852986Y5336951D1*
X852885Y5329894D1*
X851916Y5319945D1*
X849987Y5310138D1*
X847115Y5300562D1*
X843329Y5291311D1*
X838665Y5282470D1*
X833165Y5274123D1*
X826882Y5266349D1*
X819874Y5259220D1*
X812209Y5252804D1*
X803957Y5247163D1*
X795198Y5242346D1*
X786012Y5238403D1*
X776488Y5235369D1*
X766714Y5233272D1*
X756783Y5232131D1*
X750024Y5231909D1*
X624741Y5231961D1*
X614778Y5232759D1*
X604938Y5234520D1*
X595315Y5237226D1*
X586000Y5240853D1*
X577080Y5245366D1*
X568640Y5250722D1*
X560760Y5256871D1*
X553512Y5263755D1*
X546966Y5271310D1*
X541184Y5279463D1*
X536218Y5288139D1*
X532118Y5297256D1*
X528920Y5306726D1*
X526656Y5316462D1*
X525346Y5326373D1*
X525004Y5336362D1*
X525631Y5346339D1*
X527223Y5356207D1*
X529765Y5365875D1*
X533231Y5375251D1*
X537591Y5384247D1*
X542802Y5392777D1*
X548815Y5400762D1*
X555573Y5408127D1*
X563014Y5414802D1*
X571068Y5420723D1*
X579657Y5425836D1*
X586112Y5428949D1*
X414984Y5428948D1*
X415000Y2040139D1*
X418471Y2050530D1*
X422182Y2059815D1*
X426399Y2068882D1*
X431106Y2077702D1*
X436293Y2086251D1*
X441942Y2094501D1*
X448035Y2102428D1*
X454556Y2110008D1*
X461484Y2117218D1*
X468798Y2124035D1*
X476476Y2130441D1*
X484495Y2136413D1*
X492829Y2141937D1*
X501455Y2146993D1*
X510346Y2151567D1*
X519475Y2155646D1*
X528815Y2159217D1*
X538337Y2162266D1*
X548012Y2164790D1*
X557812Y2166776D1*
X567706Y2168220D1*
X577664Y2169119D1*
X587656Y2169469D1*
X597654Y2169268D1*
X607623Y2168517D1*
X617538Y2167219D1*
X627366Y2165378D1*
X637077Y2163000D1*
X646643Y2160091D1*
X656035Y2156659D1*
X665224Y2152717D1*
X674182Y2148276D1*
X682882Y2143348D1*
X691298Y2137949D1*
X699404Y2132094D1*
X707176Y2125804D1*
X714591Y2119096D1*
X721625Y2111990D1*
X728257Y2104508D1*
X734467Y2096672D1*
X740239Y2088507D1*
X745551Y2080035D1*
X750390Y2071286D1*
X754740Y2062283D1*
X758589Y2053055D1*
X761924Y2043629D1*
X764735Y2034033D1*
X767014Y2024298D1*
X768756Y2014451D1*
X769953Y2004525D1*
X770601Y1994547D1*
X770659Y1982751D1*
X770109Y1972768D1*
X769010Y1962829D1*
X767367Y1952967D1*
X765185Y1943209D1*
X762469Y1933587D1*
X759227Y1924127D1*
X755470Y1914862D1*
X751209Y1905816D1*
X746457Y1897020D1*
X741228Y1888496D1*
X735538Y1880274D1*
X729406Y1872378D1*
X722848Y1864829D1*
X715883Y1857655D1*
X708537Y1850873D1*
X700827Y1844505D1*
X692780Y1838572D1*
X684417Y1833091D1*
X675766Y1828077D1*
X666853Y1823546D1*
X657703Y1819513D1*
X648346Y1815990D1*
X638810Y1812986D1*
X629122Y1810510D1*
X619312Y1808573D1*
X609412Y1807177D1*
X599449Y1806328D1*
X589455Y1806029D1*
X579459Y1806278D1*
X569492Y1807079D1*
X559585Y1808425D1*
X549766Y1810315D1*
X540067Y1812741D1*
X530514Y1815698D1*
X521140Y1819176D1*
X511971Y1823164D1*
X503035Y1827650D1*
X494360Y1832621D1*
X485971Y1838060D1*
X477894Y1843954D1*
X470152Y1850283D1*
X462772Y1857029D1*
X455773Y1864169D1*
X449177Y1871684D1*
X443005Y1879550D1*
X437276Y1887744D1*
X432005Y1896241D1*
X427209Y1905014D1*
X422903Y1914039D1*
X419101Y1923286D1*
X415812Y1932728D1*
X415004Y1935402D1*
X415000Y1571428D1*
X418466Y1581780D1*
X422177Y1591064D1*
X426394Y1600131D1*
X431101Y1608951D1*
X436287Y1617500D1*
X441937Y1625751D1*
X448030Y1633677D1*
X454551Y1641257D1*
X461479Y1648467D1*
X468793Y1655285D1*
X476471Y1661690D1*
X484490Y1667663D1*
X492824Y1673186D1*
X501450Y1678243D1*
X510341Y1682816D1*
X519470Y1686895D1*
X528810Y1690466D1*
X538332Y1693516D1*
X548007Y1696039D1*
X557807Y1698025D1*
X567701Y1699470D1*
X577659Y1700369D1*
X587651Y1700718D1*
X597648Y1700517D1*
X607618Y1699766D1*
X617533Y1698469D1*
X627361Y1696627D1*
X637072Y1694249D1*
X646638Y1691340D1*
X656030Y1687908D1*
X665219Y1683966D1*
X674177Y1679525D1*
X682877Y1674597D1*
X691293Y1669198D1*
X699399Y1663344D1*
X707171Y1657054D1*
X714585Y1650345D1*
X721619Y1643239D1*
X728252Y1635757D1*
X734462Y1627921D1*
X740234Y1619756D1*
X745546Y1611285D1*
X750385Y1602535D1*
X754735Y1593533D1*
X758584Y1584304D1*
X761919Y1574878D1*
X764730Y1565282D1*
X767009Y1555547D1*
X768751Y1545701D1*
X769948Y1535774D1*
X770596Y1525797D1*
X770654Y1514000D1*
X770104Y1504017D1*
X769005Y1494079D1*
X767362Y1484217D1*
X765180Y1474458D1*
X762463Y1464836D1*
X759222Y1455377D1*
X755465Y1446112D1*
X751203Y1437066D1*
X746451Y1428269D1*
X741223Y1419745D1*
X735533Y1411524D1*
X729400Y1403627D1*
X722843Y1396079D1*
X715878Y1388904D1*
X708531Y1382122D1*
X700822Y1375755D1*
X692774Y1369822D1*
X684412Y1364340D1*
X675761Y1359327D1*
X666848Y1354795D1*
X657698Y1350762D1*
X648341Y1347239D1*
X638804Y1344235D1*
X629117Y1341760D1*
X619307Y1339823D1*
X609407Y1338427D1*
X599444Y1337577D1*
X589450Y1337278D1*
X579454Y1337528D1*
X569487Y1338328D1*
X559580Y1339675D1*
X549761Y1341564D1*
X540062Y1343991D1*
X530509Y1346948D1*
X521135Y1350425D1*
X511966Y1354413D1*
X503030Y1358899D1*
X494354Y1363870D1*
X485966Y1369310D1*
X477888Y1375203D1*
X470147Y1381533D1*
X462766Y1388278D1*
X455768Y1395419D1*
X449172Y1402933D1*
X443000Y1410799D1*
X437270Y1418993D1*
X432000Y1427491D1*
X427203Y1436264D1*
X422898Y1445289D1*
X419096Y1454535D1*
X415807Y1463978D1*
X414999Y1466651D1*
X415000Y1316663D1*
X417234Y1320526D1*
X420000Y1324690D1*
X423039Y1328660D1*
X426337Y1332416D1*
X429881Y1335942D1*
X433652Y1339223D1*
X437636Y1342244D1*
X441814Y1344990D1*
X446165Y1347449D1*
X450673Y1349610D1*
X455316Y1351465D1*
X460072Y1353003D1*
X464921Y1354219D1*
X469841Y1355106D1*
X474810Y1355661D1*
X479803Y1355883D1*
X484801Y1355768D1*
X489780Y1355318D1*
X494717Y1354534D1*
X499591Y1353421D1*
X504378Y1351984D1*
X509059Y1350228D1*
X513612Y1348163D1*
X518014Y1345795D1*
X522249Y1343138D1*
X526295Y1340203D1*
X530136Y1337003D1*
X533753Y1333552D1*
X537131Y1329866D1*
X540253Y1325963D1*
X543106Y1321858D1*
X545677Y1317571D1*
X547955Y1313121D1*
X549929Y1308528D1*
X551591Y1303812D1*
X552932Y1298997D1*
X553946Y1294102D1*
X554630Y1289150D1*
X555030Y1281448D1*
X554862Y1276451D1*
X554360Y1271478D1*
X553524Y1266549D1*
X552360Y1261688D1*
X550871Y1256915D1*
X549066Y1252253D1*
X546953Y1247723D1*
X544539Y1243345D1*
X541837Y1239139D1*
X538860Y1235123D1*
X535619Y1231316D1*
X532130Y1227736D1*
X528409Y1224399D1*
X524472Y1221318D1*
X520337Y1218508D1*
X516024Y1215982D1*
X511550Y1213752D1*
X506936Y1211827D1*
X502203Y1210215D1*
X497374Y1208925D1*
X492469Y1207962D1*
X487509Y1207331D1*
X482520Y1207033D1*
X477521Y1207071D1*
X472535Y1207445D1*
X467587Y1208152D1*
X462697Y1209190D1*
X457887Y1210555D1*
X453180Y1212239D1*
X448597Y1214234D1*
X444157Y1216533D1*
X439883Y1219125D1*
X435791Y1221997D1*
X431903Y1225139D1*
X428234Y1228533D1*
X424799Y1232167D1*
X421618Y1236022D1*
X418702Y1240083D1*
X414993Y1246348D1*
X415000Y1096428D1*
X418466Y1106780D1*
X422177Y1116064D1*
X426394Y1125131D1*
X431101Y1133951D1*
X436287Y1142500D1*
X441937Y1150751D1*
X448030Y1158677D1*
X454551Y1166257D1*
X461479Y1173467D1*
X468793Y1180285D1*
X476471Y1186690D1*
X484490Y1192663D1*
X492824Y1198186D1*
X501450Y1203243D1*
X510341Y1207816D1*
X519470Y1211895D1*
X528810Y1215466D1*
X538332Y1218516D1*
X548007Y1221039D1*
X557807Y1223025D1*
X567701Y1224470D1*
X577659Y1225369D1*
X587651Y1225718D1*
X597648Y1225517D1*
X607618Y1224766D1*
X617533Y1223469D1*
X627361Y1221627D1*
X637072Y1219249D1*
X646638Y1216340D1*
X656030Y1212908D1*
X665219Y1208966D1*
X674177Y1204525D1*
X682877Y1199597D1*
X691293Y1194198D1*
X699399Y1188344D1*
X707171Y1182054D1*
X714585Y1175345D1*
X721619Y1168239D1*
X728252Y1160757D1*
X734462Y1152921D1*
X740234Y1144756D1*
X745546Y1136285D1*
X750385Y1127535D1*
X754735Y1118533D1*
X758584Y1109304D1*
X761919Y1099878D1*
X764730Y1090282D1*
X767009Y1080547D1*
X768751Y1070701D1*
X769948Y1060774D1*
X770596Y1050797D1*
X770654Y1039000D1*
X1170654D2*
X1170104Y1029017D1*
X1169005Y1019079D1*
X1167362Y1009217D1*
X1165178Y999458D1*
X1162462Y989836D1*
X1159220Y980377D1*
X1155463Y971112D1*
X1151203Y962066D1*
X1146451Y953269D1*
X1141222Y944745D1*
X1135533Y936524D1*
X1129399Y928627D1*
X1122841Y921079D1*
X1115878Y913904D1*
X1108530Y907122D1*
X1100822Y900755D1*
X1092773Y894822D1*
X1084411Y889340D1*
X1075760Y884327D1*
X1066846Y879795D1*
X1057697Y875762D1*
X1048340Y872239D1*
X1038803Y869235D1*
X1029115Y866760D1*
X1019307Y864823D1*
X1009406Y863427D1*
X999444Y862577D1*
X989449Y862278D1*
X979453Y862528D1*
X969487Y863328D1*
X959579Y864675D1*
X949760Y866564D1*
X940060Y868991D1*
X930509Y871948D1*
X921134Y875425D1*
X911966Y879413D1*
X903029Y883899D1*
X894354Y888870D1*
X885965Y894310D1*
X877887Y900203D1*
X870147Y906533D1*
X862766Y913278D1*
X855768Y920419D1*
X849172Y927933D1*
X843000Y935799D1*
X837269Y943993D1*
X831999Y952491D1*
X827203Y961264D1*
X822898Y970289D1*
X819094Y979535D1*
X815806Y988978D1*
X813042Y998588D1*
X810811Y1008333D1*
X809119Y1018189D1*
X807971Y1028121D1*
X807373Y1038102D1*
X807323Y1048101D1*
X807823Y1058087D1*
X808873Y1068030D1*
X810467Y1077902D1*
X812601Y1087669D1*
X815270Y1097306D1*
X818466Y1106780D1*
X822176Y1116064D1*
X826392Y1125131D1*
X831101Y1133951D1*
X836287Y1142500D1*
X841936Y1150751D1*
X848030Y1158677D1*
X854551Y1166257D1*
X861479Y1173467D1*
X868793Y1180285D1*
X876470Y1186690D1*
X884488Y1192663D1*
X892823Y1198186D1*
X901449Y1203243D1*
X910340Y1207816D1*
X919470Y1211895D1*
X928810Y1215466D1*
X938331Y1218516D1*
X948007Y1221039D1*
X957806Y1223025D1*
X967699Y1224470D1*
X977657Y1225369D1*
X987651Y1225718D1*
X997647Y1225517D1*
X1007618Y1224766D1*
X1017531Y1223469D1*
X1027360Y1221627D1*
X1037072Y1219249D1*
X1046638Y1216340D1*
X1056029Y1212908D1*
X1065218Y1208966D1*
X1074176Y1204525D1*
X1082877Y1199597D1*
X1091291Y1194198D1*
X1099398Y1188344D1*
X1107171Y1182054D1*
X1114584Y1175345D1*
X1121618Y1168239D1*
X1128251Y1160757D1*
X1134462Y1152921D1*
X1140232Y1144756D1*
X1145546Y1136285D1*
X1150385Y1127535D1*
X1154735Y1118533D1*
X1158583Y1109304D1*
X1161917Y1099878D1*
X1164730Y1090282D1*
X1167009Y1080547D1*
X1168749Y1070701D1*
X1169946Y1060774D1*
X1170594Y1050797D1*
X1170654Y1039000D1*
X1570655Y1514000D2*
X1570105Y1504017D1*
X1569007Y1494079D1*
X1567364Y1484217D1*
X1565180Y1474458D1*
X1562463Y1464836D1*
X1559222Y1455377D1*
X1555465Y1446112D1*
X1551205Y1437066D1*
X1546453Y1428269D1*
X1541223Y1419745D1*
X1535534Y1411524D1*
X1529400Y1403627D1*
X1522843Y1396079D1*
X1515879Y1388904D1*
X1508531Y1382122D1*
X1500823Y1375755D1*
X1492774Y1369822D1*
X1484412Y1364340D1*
X1475761Y1359327D1*
X1466848Y1354795D1*
X1457698Y1350762D1*
X1448341Y1347239D1*
X1438804Y1344235D1*
X1429117Y1341760D1*
X1419308Y1339823D1*
X1409407Y1338427D1*
X1399445Y1337577D1*
X1389450Y1337278D1*
X1379454Y1337528D1*
X1369488Y1338328D1*
X1359580Y1339675D1*
X1349761Y1341564D1*
X1340062Y1343991D1*
X1330510Y1346948D1*
X1321135Y1350425D1*
X1311967Y1354413D1*
X1303030Y1358899D1*
X1294356Y1363870D1*
X1285966Y1369310D1*
X1277888Y1375203D1*
X1270148Y1381533D1*
X1262768Y1388278D1*
X1255769Y1395419D1*
X1249173Y1402933D1*
X1243001Y1410799D1*
X1237270Y1418993D1*
X1232000Y1427491D1*
X1227205Y1436264D1*
X1222899Y1445289D1*
X1219096Y1454535D1*
X1215807Y1463978D1*
X1213043Y1473588D1*
X1210812Y1483333D1*
X1209121Y1493189D1*
X1207972Y1503121D1*
X1207374Y1513102D1*
X1207324Y1523101D1*
X1207824Y1533087D1*
X1208874Y1543030D1*
X1210469Y1552902D1*
X1212602Y1562669D1*
X1215272Y1572306D1*
X1218467Y1581780D1*
X1222177Y1591064D1*
X1226394Y1600131D1*
X1231102Y1608951D1*
X1236289Y1617500D1*
X1241937Y1625751D1*
X1248031Y1633677D1*
X1254552Y1641257D1*
X1261480Y1648467D1*
X1268794Y1655285D1*
X1276471Y1661690D1*
X1284490Y1667663D1*
X1292824Y1673186D1*
X1301450Y1678243D1*
X1310341Y1682816D1*
X1319471Y1686895D1*
X1328811Y1690466D1*
X1338332Y1693516D1*
X1348008Y1696039D1*
X1357807Y1698025D1*
X1367701Y1699470D1*
X1377659Y1700369D1*
X1387652Y1700718D1*
X1397648Y1700517D1*
X1407619Y1699766D1*
X1417533Y1698469D1*
X1427361Y1696627D1*
X1437073Y1694249D1*
X1446639Y1691340D1*
X1456030Y1687908D1*
X1465219Y1683966D1*
X1474177Y1679525D1*
X1482878Y1674597D1*
X1491293Y1669198D1*
X1499399Y1663344D1*
X1507172Y1657054D1*
X1514585Y1650345D1*
X1521619Y1643239D1*
X1528252Y1635757D1*
X1534463Y1627921D1*
X1540234Y1619756D1*
X1545547Y1611285D1*
X1550386Y1602535D1*
X1554736Y1593533D1*
X1558584Y1584304D1*
X1561919Y1574878D1*
X1564731Y1565282D1*
X1567010Y1555547D1*
X1568751Y1545701D1*
X1569948Y1535774D1*
X1570596Y1525797D1*
X1570655Y1514000D1*
X1170654D2*
X1170104Y1504017D1*
X1169005Y1494079D1*
X1167362Y1484217D1*
X1165178Y1474458D1*
X1162462Y1464836D1*
X1159220Y1455377D1*
X1155463Y1446112D1*
X1151203Y1437066D1*
X1146451Y1428269D1*
X1141222Y1419745D1*
X1135533Y1411524D1*
X1129399Y1403627D1*
X1122841Y1396079D1*
X1115878Y1388904D1*
X1108530Y1382122D1*
X1100822Y1375755D1*
X1092773Y1369822D1*
X1084411Y1364340D1*
X1075760Y1359327D1*
X1066846Y1354795D1*
X1057697Y1350762D1*
X1048340Y1347239D1*
X1038803Y1344235D1*
X1029115Y1341760D1*
X1019307Y1339823D1*
X1009406Y1338427D1*
X999444Y1337577D1*
X989449Y1337278D1*
X979453Y1337528D1*
X969487Y1338328D1*
X959579Y1339675D1*
X949760Y1341564D1*
X940060Y1343991D1*
X930509Y1346948D1*
X921134Y1350425D1*
X911966Y1354413D1*
X903029Y1358899D1*
X894354Y1363870D1*
X885965Y1369310D1*
X877887Y1375203D1*
X870147Y1381533D1*
X862766Y1388278D1*
X855768Y1395419D1*
X849172Y1402933D1*
X843000Y1410799D1*
X837269Y1418993D1*
X831999Y1427491D1*
X827203Y1436264D1*
X822898Y1445289D1*
X819094Y1454535D1*
X815806Y1463978D1*
X813042Y1473588D1*
X810811Y1483333D1*
X809119Y1493189D1*
X807971Y1503121D1*
X807373Y1513102D1*
X807323Y1523101D1*
X807823Y1533087D1*
X808873Y1543030D1*
X810467Y1552902D1*
X812601Y1562669D1*
X815270Y1572306D1*
X818466Y1581780D1*
X822176Y1591064D1*
X826392Y1600131D1*
X831101Y1608951D1*
X836287Y1617500D1*
X841936Y1625751D1*
X848030Y1633677D1*
X854551Y1641257D1*
X861479Y1648467D1*
X868793Y1655285D1*
X876470Y1661690D1*
X884488Y1667663D1*
X892823Y1673186D1*
X901449Y1678243D1*
X910340Y1682816D1*
X919470Y1686895D1*
X928810Y1690466D1*
X938331Y1693516D1*
X948007Y1696039D1*
X957806Y1698025D1*
X967699Y1699470D1*
X977657Y1700369D1*
X987651Y1700718D1*
X997647Y1700517D1*
X1007618Y1699766D1*
X1017531Y1698469D1*
X1027360Y1696627D1*
X1037072Y1694249D1*
X1046638Y1691340D1*
X1056029Y1687908D1*
X1065218Y1683966D1*
X1074176Y1679525D1*
X1082877Y1674597D1*
X1091291Y1669198D1*
X1099398Y1663344D1*
X1107171Y1657054D1*
X1114584Y1650345D1*
X1121618Y1643239D1*
X1128251Y1635757D1*
X1134462Y1627921D1*
X1140232Y1619756D1*
X1145546Y1611285D1*
X1150385Y1602535D1*
X1154735Y1593533D1*
X1158583Y1584304D1*
X1161917Y1574878D1*
X1164730Y1565282D1*
X1167009Y1555547D1*
X1168749Y1545701D1*
X1169946Y1535774D1*
X1170594Y1525797D1*
X1170654Y1514000D1*
X1170744Y1982698D2*
X1170194Y1972714D1*
X1169096Y1962777D1*
X1167453Y1952913D1*
X1165270Y1943156D1*
X1162554Y1933533D1*
X1159312Y1924075D1*
X1155555Y1914808D1*
X1151294Y1905764D1*
X1146542Y1896966D1*
X1141314Y1888444D1*
X1135623Y1880220D1*
X1129491Y1872324D1*
X1122933Y1864777D1*
X1115969Y1857601D1*
X1108622Y1850820D1*
X1100912Y1844453D1*
X1092865Y1838520D1*
X1084503Y1833037D1*
X1075852Y1828024D1*
X1066938Y1823493D1*
X1057789Y1819461D1*
X1048432Y1815937D1*
X1038895Y1812933D1*
X1029207Y1810458D1*
X1019398Y1808520D1*
X1009497Y1807125D1*
X999534Y1806276D1*
X989541Y1805975D1*
X979545Y1806226D1*
X969577Y1807025D1*
X959671Y1808371D1*
X949852Y1810261D1*
X940152Y1812689D1*
X930600Y1815644D1*
X921226Y1819122D1*
X912056Y1823110D1*
X903121Y1827596D1*
X894445Y1832567D1*
X886056Y1838008D1*
X877979Y1843902D1*
X870238Y1850230D1*
X862857Y1856975D1*
X855858Y1864115D1*
X849262Y1871631D1*
X843091Y1879497D1*
X837361Y1887692D1*
X832091Y1896188D1*
X827294Y1904962D1*
X822988Y1913986D1*
X819186Y1923234D1*
X815898Y1932676D1*
X813134Y1942285D1*
X810902Y1952031D1*
X809210Y1961886D1*
X808063Y1971819D1*
X807463Y1981799D1*
X807413Y1991798D1*
X807915Y2001785D1*
X808963Y2011728D1*
X810558Y2021598D1*
X812693Y2031366D1*
X815362Y2041003D1*
X818556Y2050478D1*
X822268Y2059762D1*
X826484Y2068828D1*
X831192Y2077650D1*
X836378Y2086197D1*
X842028Y2094448D1*
X848121Y2102375D1*
X854642Y2109954D1*
X861570Y2117164D1*
X868883Y2123982D1*
X876562Y2130387D1*
X884580Y2136361D1*
X892915Y2141883D1*
X901541Y2146940D1*
X910432Y2151514D1*
X919560Y2155593D1*
X928900Y2159163D1*
X938423Y2162214D1*
X948097Y2164736D1*
X957898Y2166723D1*
X967791Y2168168D1*
X977749Y2169066D1*
X987741Y2169415D1*
X997739Y2169214D1*
X1007709Y2168465D1*
X1017623Y2167167D1*
X1027451Y2165325D1*
X1037163Y2162946D1*
X1046728Y2160037D1*
X1056121Y2156606D1*
X1065310Y2152664D1*
X1074268Y2148222D1*
X1082967Y2143294D1*
X1091383Y2137895D1*
X1099490Y2132042D1*
X1107261Y2125751D1*
X1114676Y2119043D1*
X1121710Y2111937D1*
X1128343Y2104454D1*
X1134552Y2096618D1*
X1140324Y2088453D1*
X1145636Y2079983D1*
X1150475Y2071232D1*
X1154825Y2062230D1*
X1158675Y2053001D1*
X1162009Y2043576D1*
X1164820Y2033980D1*
X1167100Y2024245D1*
X1168841Y2014399D1*
X1170038Y2004472D1*
X1170686Y1994495D1*
X1170744Y1982698D1*
X1570744D2*
X1570194Y1972714D1*
X1569096Y1962777D1*
X1567453Y1952913D1*
X1565270Y1943156D1*
X1562554Y1933533D1*
X1559312Y1924075D1*
X1555555Y1914808D1*
X1551294Y1905764D1*
X1546542Y1896966D1*
X1541314Y1888444D1*
X1535623Y1880220D1*
X1529491Y1872324D1*
X1522933Y1864777D1*
X1515969Y1857601D1*
X1508622Y1850820D1*
X1500912Y1844453D1*
X1492865Y1838520D1*
X1484503Y1833037D1*
X1475852Y1828024D1*
X1466938Y1823493D1*
X1457789Y1819461D1*
X1448432Y1815937D1*
X1438895Y1812933D1*
X1429207Y1810458D1*
X1419398Y1808520D1*
X1409497Y1807125D1*
X1399534Y1806276D1*
X1389541Y1805975D1*
X1379545Y1806226D1*
X1369577Y1807025D1*
X1359671Y1808371D1*
X1349852Y1810261D1*
X1340152Y1812689D1*
X1330600Y1815644D1*
X1321226Y1819122D1*
X1312056Y1823110D1*
X1303121Y1827596D1*
X1294445Y1832567D1*
X1286056Y1838008D1*
X1277979Y1843902D1*
X1270238Y1850230D1*
X1262857Y1856975D1*
X1255858Y1864115D1*
X1249262Y1871631D1*
X1243091Y1879497D1*
X1237361Y1887692D1*
X1232091Y1896188D1*
X1227294Y1904962D1*
X1222988Y1913986D1*
X1219186Y1923234D1*
X1215898Y1932676D1*
X1213134Y1942285D1*
X1210902Y1952031D1*
X1209210Y1961886D1*
X1208063Y1971819D1*
X1207463Y1981799D1*
X1207413Y1991798D1*
X1207915Y2001785D1*
X1208963Y2011728D1*
X1210558Y2021598D1*
X1212693Y2031366D1*
X1215362Y2041003D1*
X1218556Y2050478D1*
X1222268Y2059762D1*
X1226484Y2068828D1*
X1231192Y2077650D1*
X1236378Y2086197D1*
X1242028Y2094448D1*
X1248121Y2102375D1*
X1254642Y2109954D1*
X1261570Y2117164D1*
X1268883Y2123982D1*
X1276562Y2130387D1*
X1284580Y2136361D1*
X1292915Y2141883D1*
X1301541Y2146940D1*
X1310432Y2151514D1*
X1319560Y2155593D1*
X1328900Y2159163D1*
X1338423Y2162214D1*
X1348097Y2164736D1*
X1357898Y2166723D1*
X1367791Y2168168D1*
X1377749Y2169066D1*
X1387741Y2169415D1*
X1397739Y2169214D1*
X1407709Y2168465D1*
X1417623Y2167167D1*
X1427451Y2165325D1*
X1437163Y2162946D1*
X1446728Y2160037D1*
X1456121Y2156606D1*
X1465310Y2152664D1*
X1474268Y2148222D1*
X1482967Y2143294D1*
X1491383Y2137895D1*
X1499490Y2132042D1*
X1507261Y2125751D1*
X1514676Y2119043D1*
X1521710Y2111937D1*
X1528343Y2104454D1*
X1534552Y2096618D1*
X1540324Y2088453D1*
X1545636Y2079983D1*
X1550475Y2071232D1*
X1554825Y2062230D1*
X1558675Y2053001D1*
X1562009Y2043576D1*
X1564820Y2033980D1*
X1567100Y2024245D1*
X1568841Y2014399D1*
X1570038Y2004472D1*
X1570686Y1994495D1*
X1570744Y1982698D1*
X1188362Y1276451D2*
X1187860Y1271478D1*
X1187024Y1266549D1*
X1185860Y1261688D1*
X1184371Y1256915D1*
X1182566Y1252253D1*
X1180453Y1247723D1*
X1178039Y1243345D1*
X1175337Y1239139D1*
X1172360Y1235123D1*
X1169119Y1231316D1*
X1165630Y1227736D1*
X1161909Y1224399D1*
X1157972Y1221318D1*
X1153837Y1218508D1*
X1149524Y1215982D1*
X1145050Y1213752D1*
X1140436Y1211827D1*
X1135703Y1210215D1*
X1130874Y1208925D1*
X1125969Y1207962D1*
X1121009Y1207331D1*
X1116020Y1207033D1*
X1111021Y1207071D1*
X1106035Y1207445D1*
X1101087Y1208152D1*
X1096197Y1209190D1*
X1091387Y1210555D1*
X1086680Y1212239D1*
X1082097Y1214234D1*
X1077657Y1216533D1*
X1073383Y1219125D1*
X1069291Y1221997D1*
X1065403Y1225139D1*
X1061734Y1228533D1*
X1058299Y1232167D1*
X1055118Y1236022D1*
X1052202Y1240083D1*
X1049566Y1244331D1*
X1047219Y1248744D1*
X1045176Y1253307D1*
X1043442Y1257996D1*
X1042028Y1262790D1*
X1040937Y1267669D1*
X1040177Y1272610D1*
X1039751Y1277591D1*
X1039660Y1282589D1*
X1039904Y1287583D1*
X1040483Y1292547D1*
X1041395Y1297463D1*
X1042634Y1302306D1*
X1044194Y1307055D1*
X1046071Y1311689D1*
X1048255Y1316186D1*
X1050734Y1320526D1*
X1053500Y1324690D1*
X1056539Y1328660D1*
X1059837Y1332416D1*
X1063381Y1335942D1*
X1067152Y1339223D1*
X1071136Y1342244D1*
X1075314Y1344990D1*
X1079665Y1347449D1*
X1084173Y1349610D1*
X1088816Y1351465D1*
X1093572Y1353003D1*
X1098421Y1354219D1*
X1103341Y1355106D1*
X1108310Y1355661D1*
X1113303Y1355883D1*
X1118301Y1355768D1*
X1123280Y1355318D1*
X1128217Y1354534D1*
X1133091Y1353421D1*
X1137878Y1351984D1*
X1142559Y1350228D1*
X1147112Y1348163D1*
X1151514Y1345795D1*
X1155749Y1343138D1*
X1159795Y1340203D1*
X1163636Y1337003D1*
X1167253Y1333552D1*
X1170631Y1329866D1*
X1173753Y1325963D1*
X1176606Y1321858D1*
X1179177Y1317571D1*
X1181455Y1313121D1*
X1183429Y1308528D1*
X1185091Y1303812D1*
X1186432Y1298997D1*
X1187446Y1294102D1*
X1188130Y1289150D1*
X1188530Y1281448D1*
X1188362Y1276451D1*
X1342362D2*
X1341860Y1271478D1*
X1341024Y1266549D1*
X1339860Y1261688D1*
X1338371Y1256915D1*
X1336566Y1252253D1*
X1334453Y1247723D1*
X1332039Y1243345D1*
X1329337Y1239139D1*
X1326360Y1235123D1*
X1323119Y1231316D1*
X1319630Y1227736D1*
X1315909Y1224399D1*
X1311972Y1221318D1*
X1307837Y1218508D1*
X1303524Y1215982D1*
X1299050Y1213752D1*
X1294436Y1211827D1*
X1289703Y1210215D1*
X1284874Y1208925D1*
X1279969Y1207962D1*
X1275009Y1207331D1*
X1270020Y1207033D1*
X1265021Y1207071D1*
X1260035Y1207445D1*
X1255087Y1208152D1*
X1250197Y1209190D1*
X1245387Y1210555D1*
X1240680Y1212239D1*
X1236097Y1214234D1*
X1231657Y1216533D1*
X1227383Y1219125D1*
X1223291Y1221997D1*
X1219403Y1225139D1*
X1215734Y1228533D1*
X1212299Y1232167D1*
X1209118Y1236022D1*
X1206202Y1240083D1*
X1203566Y1244331D1*
X1201219Y1248744D1*
X1199176Y1253307D1*
X1197442Y1257996D1*
X1196028Y1262790D1*
X1194937Y1267669D1*
X1194177Y1272610D1*
X1193751Y1277591D1*
X1193660Y1282589D1*
X1193904Y1287583D1*
X1194483Y1292547D1*
X1195395Y1297463D1*
X1196634Y1302306D1*
X1198194Y1307055D1*
X1200071Y1311689D1*
X1202255Y1316186D1*
X1204734Y1320526D1*
X1207500Y1324690D1*
X1210539Y1328660D1*
X1213837Y1332416D1*
X1217381Y1335942D1*
X1221152Y1339223D1*
X1225136Y1342244D1*
X1229314Y1344990D1*
X1233665Y1347449D1*
X1238173Y1349610D1*
X1242816Y1351465D1*
X1247572Y1353003D1*
X1252421Y1354219D1*
X1257341Y1355106D1*
X1262310Y1355661D1*
X1267303Y1355883D1*
X1272301Y1355768D1*
X1277280Y1355318D1*
X1282217Y1354534D1*
X1287091Y1353421D1*
X1291878Y1351984D1*
X1296559Y1350228D1*
X1301112Y1348163D1*
X1305514Y1345795D1*
X1309749Y1343138D1*
X1313795Y1340203D1*
X1317636Y1337003D1*
X1321253Y1333552D1*
X1324631Y1329866D1*
X1327753Y1325963D1*
X1330606Y1321858D1*
X1333177Y1317571D1*
X1335455Y1313121D1*
X1337429Y1308528D1*
X1339091Y1303812D1*
X1340432Y1298997D1*
X1341446Y1294102D1*
X1342130Y1289150D1*
X1342530Y1281448D1*
X1342362Y1276451D1*
D18*
X1389001Y1044000D3*
X589000D3*
X989000D3*
X589000Y1519000D3*
X1789000D3*
X1389001D3*
X989000D3*
X589005Y1987751D3*
X1788995D3*
D19*
X1689000Y512058D3*
X689000D3*
D18*
X1789000Y1044000D3*
D19*
X689000Y5334892D3*
X1689000D3*
D18*
X989091Y1987697D3*
X1389091D3*
M02*
