M48
INCH
T01C0.1201
T02C0.122
T03C0.126
T04C0.212
T05C0.2362
T06C0.2756
%
T01
X+011891Y+032442
X+011891Y+027687
X+011891Y+037200
X+011141Y+012814
X+012681Y+012814
X+018976Y+012814
X+004806Y+012814
T02
X+011891Y+049439
T03
X+017382Y+005121G85X+016398Y+005121
X+007382Y+005121G85X+006398Y+005121
X+007382Y+053349G85X+006398Y+053349
X+017382Y+053349G85X+016398Y+053349
T04
X+011891Y+025688
X+011828Y+030437
X+011891Y+035187
T05
X+013890Y+010440
X+017890Y+010440
X+017890Y+015190
X+013890Y+015190
X+009890Y+015190
X+005890Y+015190
X+005890Y+019878
X+009891Y+019877
X+013891Y+019877
X+017890Y+019878
X+009890Y+010440
X+005890Y+010440
T06
X+015891Y+030814
X+015891Y+024814
X+007891Y+024814
X+007891Y+030814
X+007891Y+036814
X+007891Y+042814
X+007891Y+048814
X+015890Y+048810
X+015891Y+042814
X+015891Y+036814
T00
M30
