G04 DipTrace 3.3.0.0*
G04 uTides_PCBpanel.GBO*
%MOIN*%
G04 #@! TF.FileFunction,Legend,Bot*
G04 #@! TF.Part,Single*
%ADD17C,0.006*%
%ADD32C,0.00772*%
%FSLAX26Y26*%
G04*
G70*
G90*
G75*
G01*
G04 BotSilk*
%LPD*%
X751118Y769723D2*
D17*
X1662524D1*
Y651055D1*
X751118D1*
Y769723D1*
X1449146Y741199D2*
D32*
Y702952D1*
X1451522Y695767D1*
X1453954Y693391D1*
X1458707Y690959D1*
X1463516D1*
X1468269Y693391D1*
X1470645Y695767D1*
X1473077Y702952D1*
Y707705D1*
X1433706Y741199D2*
Y690959D1*
X1405021D1*
X1353712Y729261D2*
X1356089Y734014D1*
X1360897Y738822D1*
X1365650Y741199D1*
X1375212D1*
X1380021Y738822D1*
X1384774Y734014D1*
X1387206Y729261D1*
X1389582Y722076D1*
Y710082D1*
X1387206Y702952D1*
X1384774Y698144D1*
X1380021Y693391D1*
X1375212Y690959D1*
X1365650D1*
X1360897Y693391D1*
X1356089Y698144D1*
X1353712Y702952D1*
X1314341Y741199D2*
Y702952D1*
X1316718Y695767D1*
X1319150Y693391D1*
X1323903Y690959D1*
X1328711D1*
X1333465Y693391D1*
X1335841Y695767D1*
X1338273Y702952D1*
Y707705D1*
X1298902Y741199D2*
Y690959D1*
X1270217D1*
X1218908Y729261D2*
X1221285Y734014D1*
X1226093Y738822D1*
X1230846Y741199D1*
X1240408D1*
X1245216Y738822D1*
X1249969Y734014D1*
X1252401Y729261D1*
X1254778Y722076D1*
Y710082D1*
X1252401Y702952D1*
X1249969Y698144D1*
X1245216Y693391D1*
X1240408Y690959D1*
X1230846D1*
X1226093Y693391D1*
X1221285Y698144D1*
X1218908Y702952D1*
X1179537Y741199D2*
Y702952D1*
X1181914Y695767D1*
X1184345Y693391D1*
X1189099Y690959D1*
X1193907D1*
X1198660Y693391D1*
X1201037Y695767D1*
X1203469Y702952D1*
Y707705D1*
X1164098Y741199D2*
Y690959D1*
X1135413D1*
X1084104Y729261D2*
X1086480Y734014D1*
X1091289Y738822D1*
X1096042Y741199D1*
X1105604D1*
X1110412Y738822D1*
X1115165Y734014D1*
X1117597Y729261D1*
X1119974Y722076D1*
Y710082D1*
X1117597Y702952D1*
X1115165Y698144D1*
X1110412Y693391D1*
X1105604Y690959D1*
X1096042D1*
X1091289Y693391D1*
X1086480Y698144D1*
X1084104Y702952D1*
X1044733Y741199D2*
Y702952D1*
X1047109Y695767D1*
X1049541Y693391D1*
X1054294Y690959D1*
X1059103D1*
X1063856Y693391D1*
X1066233Y695767D1*
X1068664Y702952D1*
Y707705D1*
X1029294Y741199D2*
Y690959D1*
X1000609D1*
X949299Y729261D2*
X951676Y734014D1*
X956484Y738822D1*
X961238Y741199D1*
X970799D1*
X975608Y738822D1*
X980361Y734014D1*
X982793Y729261D1*
X985169Y722076D1*
Y710082D1*
X982793Y702952D1*
X980361Y698144D1*
X975608Y693391D1*
X970799Y690959D1*
X961238D1*
X956484Y693391D1*
X951676Y698144D1*
X949299Y702952D1*
M02*
