G04 DipTrace 3.3.0.0*
G04 uTidesII.GTP*
%MOIN*%
G04 #@! TF.FileFunction,Paste,Top*
G04 #@! TF.Part,Single*
%AMOUTLINE2*
4,1,4,
-0.011776,0.010385,
-0.010385,0.011776,
0.011776,-0.010385,
0.010385,-0.011776,
-0.011776,0.010385,
0*%
%AMOUTLINE5*
4,1,4,
-0.011776,-0.010385,
0.010385,0.011776,
0.011776,0.010385,
-0.010385,-0.011776,
-0.011776,-0.010385,
0*%
%ADD79R,0.015591X0.035276*%
%ADD91R,0.047087X0.066772*%
%ADD97R,0.019528X0.025433*%
%ADD99R,0.025433X0.019528*%
%ADD101R,0.027402X0.041181*%
%ADD115R,0.019528X0.031339*%
%ADD123R,0.005969X0.047969*%
%ADD125R,0.005748X0.031339*%
%ADD129R,0.031339X0.078583*%
%ADD131R,0.031339X0.047087*%
%ADD133R,0.070709X0.051024*%
%ADD135R,0.047087X0.078583*%
%ADD137R,0.062835X0.054961*%
%ADD139R,0.054961X0.062835*%
%ADD141R,0.051024X0.070709*%
%ADD143R,0.031339X0.035276*%
%ADD145R,0.035276X0.031339*%
%ADD151OUTLINE2*%
%ADD154OUTLINE5*%
%FSLAX26Y26*%
G04*
G70*
G90*
G75*
G01*
G04 TopPaste*
%LPD*%
D145*
X1150587Y3901576D3*
X1083658D3*
D143*
X1735018Y3987049D3*
Y4053979D3*
D145*
X999203Y3455543D3*
X932274D3*
X760833Y4096839D3*
X693904D3*
D143*
X640110Y3445608D3*
Y3512538D3*
D145*
X1724438Y3470274D3*
X1791367D3*
D143*
X934223Y4076745D3*
Y4009816D3*
D145*
X904603Y3663839D3*
X837674D3*
D141*
X565372Y3712582D3*
Y3610220D3*
X496169Y3372997D3*
Y3475359D3*
D145*
X694561Y3755276D3*
X761490D3*
X690059Y3665044D3*
X756988D3*
X1357467Y3439594D3*
X1424396D3*
X1245417Y3388355D3*
X1312346D3*
X1221087Y3900908D3*
X1288017D3*
X932580Y3386904D3*
X999509D3*
X1435853Y3142800D3*
X1368923D3*
X1744024Y3162775D3*
X1810954D3*
D139*
X981524Y4619024D3*
X871288D3*
D137*
X1900400Y4578038D3*
Y4467801D3*
D143*
X1894549Y1890979D3*
Y1824049D3*
D145*
X792254Y2468363D3*
X859183D3*
X742712Y3517640D3*
X809641D3*
D135*
X1821090Y2284173D3*
Y2410157D3*
D139*
X1619717Y2793736D3*
X1509481D3*
D135*
X1805211Y2981517D3*
Y2855532D3*
D145*
X1813257Y1549564D3*
X1746328D3*
X548060Y1144024D3*
X614989D3*
D133*
X1135868Y3150417D3*
X1238230D3*
D143*
X779447Y1583980D3*
Y1650909D3*
D145*
X1811633Y1136532D3*
X1744704D3*
X548060Y1569024D3*
X614989D3*
X712034Y483032D3*
X778963D3*
X1655580Y474528D3*
X1588650D3*
X789595Y2894024D3*
X856524D3*
X1353472Y1138842D3*
X1420401D3*
X1806665Y627349D3*
X1739736D3*
X1414989Y619024D3*
X1348060D3*
X948060D3*
X1014989D3*
X614989D3*
X548060D3*
X1014989Y1569024D3*
X948060D3*
X738507Y2246473D3*
X805437D3*
D143*
X1575484Y1595885D3*
Y1662814D3*
D145*
X806524Y1894024D3*
X739595D3*
X782354Y4279292D3*
X715425D3*
X1353116Y1557321D3*
X1420045D3*
X1014989Y1144024D3*
X948060D3*
X811045Y885774D3*
X744116D3*
X1581797Y873309D3*
X1648727D3*
D133*
X1128371Y1913723D3*
X1230733D3*
D143*
X478696Y1906303D3*
Y1839374D3*
X586719Y2291623D3*
Y2224694D3*
D145*
X921265Y3138001D3*
X988194D3*
X1831461Y3577850D3*
X1764532D3*
D143*
X986843Y3048459D3*
Y2981530D3*
D145*
X724572Y3064282D3*
X657643D3*
D131*
X1181524Y1772729D3*
X1218926Y1686115D3*
X1144123D3*
D145*
X448060Y1394024D3*
X514989D3*
X448060Y1319024D3*
X514989D3*
X1139989Y1344024D3*
X1073060D3*
X1139989Y1269024D3*
X1073060D3*
X1914989Y1394024D3*
X1848060D3*
X1223060Y1344024D3*
X1289989D3*
X1914989Y1319024D3*
X1848060D3*
X1223060Y1269024D3*
X1289989D3*
D129*
X1657845Y4545990D3*
X1557845D3*
Y4321187D3*
X1657845D3*
D151*
X1144337Y3833771D3*
X1130418Y3819853D3*
X1116498Y3805933D3*
X1102578Y3792014D3*
X1088660Y3778094D3*
X1074740Y3764174D3*
X1060821Y3750255D3*
X1046901Y3736335D3*
X1032981Y3722417D3*
X1019063Y3708497D3*
X1005143Y3694577D3*
X991224Y3680658D3*
D154*
Y3597141D3*
X1005143Y3583223D3*
X1019063Y3569303D3*
X1032981Y3555383D3*
X1046901Y3541464D3*
X1060821Y3527544D3*
X1074740Y3513626D3*
X1088660Y3499706D3*
X1102578Y3485786D3*
X1116498Y3471867D3*
X1130418Y3457947D3*
X1144337Y3444028D3*
D151*
X1227854D3*
X1241772Y3457947D3*
X1255692Y3471867D3*
X1269612Y3485786D3*
X1283531Y3499706D3*
X1297451Y3513626D3*
X1311370Y3527544D3*
X1325290Y3541464D3*
X1339209Y3555383D3*
X1353128Y3569303D3*
X1367048Y3583223D3*
X1380967Y3597141D3*
D154*
Y3680658D3*
X1367048Y3694577D3*
X1353128Y3708497D3*
X1339209Y3722417D3*
X1325290Y3736335D3*
X1311370Y3750255D3*
X1297451Y3764174D3*
X1283531Y3778094D3*
X1269612Y3792014D3*
X1255692Y3805933D3*
X1241772Y3819853D3*
X1227854Y3833771D3*
D125*
X681524Y3144024D3*
X707115D3*
X732706D3*
X758296D3*
X783887D3*
X809477D3*
X835068D3*
Y3366465D3*
X809477D3*
X783887D3*
X758296D3*
X732706D3*
X707115D3*
X681524D3*
X860658D3*
Y3144024D3*
D123*
X1494334Y3195559D3*
X1520333D3*
X1546333D3*
X1571333D3*
X1597334D3*
X1622333D3*
X1648333D3*
X1674333D3*
Y3419559D3*
X1648333D3*
X1622333D3*
X1597334D3*
X1571333D3*
X1546333D3*
X1520333D3*
X1494334D3*
G36*
X1552416Y2479426D2*
X1583917D1*
Y2534542D1*
X1552416D1*
Y2479426D1*
G37*
G36*
X1611476D2*
X1642977D1*
Y2534542D1*
X1611476D1*
Y2479426D1*
G37*
G36*
X1493355D2*
X1524856D1*
Y2534542D1*
X1493355D1*
Y2479426D1*
G37*
G36*
X1532741Y2584939D2*
X1603592D1*
Y2671551D1*
X1532741D1*
Y2584939D1*
G37*
D125*
X858296Y1456024D3*
X832706D3*
X807115D3*
X781524D3*
X755934D3*
X730343D3*
X704753D3*
X858296Y1232824D3*
X832706Y1232024D3*
X807115D3*
X781524D3*
X755934D3*
X730343D3*
X704753D3*
X1658296Y1456024D3*
X1632706D3*
X1607115D3*
X1581524D3*
X1555934D3*
X1530343D3*
X1504753D3*
X1658296Y1232824D3*
X1632706Y1232024D3*
X1607115D3*
X1581524D3*
X1555934D3*
X1530343D3*
X1504753D3*
X858296Y806024D3*
X832706D3*
X807115D3*
X781524D3*
X755934D3*
X730343D3*
X704753D3*
X858296Y582824D3*
X832706Y582024D3*
X807115D3*
X781524D3*
X755934D3*
X730343D3*
X704753D3*
X1658296Y781024D3*
X1632706D3*
X1607115D3*
X1581524D3*
X1555934D3*
X1530343D3*
X1504753D3*
X1658296Y557824D3*
X1632706Y557024D3*
X1607115D3*
X1581524D3*
X1555934D3*
X1530343D3*
X1504753D3*
D115*
X767242Y2017024D3*
X729841Y2103639D3*
X804644D3*
D125*
X1653040Y2171200D3*
X1627450D3*
X1601859D3*
X1576269D3*
X1550678D3*
X1525087D3*
X1499497D3*
X1653040Y1948000D3*
X1627450Y1947200D3*
X1601859D3*
X1576269D3*
X1550678D3*
X1525087D3*
X1499497D3*
D101*
X1486586Y4633830D3*
X1411783D3*
D99*
X1834517Y2520064D3*
X1897509D3*
X1700762Y2517898D3*
X1763754D3*
D97*
X1918679Y3280746D3*
Y3343738D3*
D91*
X789877Y3839003D3*
Y4012232D3*
X695389D3*
Y3839003D3*
D145*
X1411519Y2497968D3*
X1344590D3*
X1569115Y3755215D3*
X1502186D3*
X1568593Y3959375D3*
X1635522D3*
X1804913Y3756405D3*
X1737984D3*
X1804918Y3674145D3*
X1737989D3*
X1287464Y2424532D3*
X1354393D3*
X1572783Y3675427D3*
X1505854D3*
D143*
X872477Y3845833D3*
Y3912762D3*
D145*
X928276Y3750498D3*
X861347D3*
X1401746Y2827434D3*
X1334817D3*
X1399944Y2918267D3*
X1333015D3*
X1663271Y3071549D3*
X1730200D3*
D143*
X1892116Y2032877D3*
Y1965948D3*
D145*
X1745220Y1469024D3*
X1812149D3*
X614989Y1219024D3*
X548060D3*
X1742521Y1635644D3*
X1809450D3*
X614989Y1069024D3*
X548060D3*
D143*
X1660956Y1599480D3*
Y1666409D3*
X706524Y1127489D3*
Y1060560D3*
Y1585560D3*
Y1652489D3*
X1656524Y1127489D3*
Y1060560D3*
D145*
X614989Y1644024D3*
X548060D3*
X1750557Y1056538D3*
X1817486D3*
X1748060Y1219024D3*
X1814989D3*
X614989Y1469024D3*
X548060D3*
D143*
X1906393Y626429D3*
Y693358D3*
D145*
X1284043Y618479D3*
X1217114D3*
X1082027D3*
X1148956D3*
X614989Y694024D3*
X548060D3*
X1421225Y1219024D3*
X1354296D3*
X948060Y1469024D3*
X1014989D3*
X1423241Y1054377D3*
X1356312D3*
X1348060Y544024D3*
X1414989D3*
X1014989D3*
X948060D3*
X548060D3*
X614989D3*
X948060Y1644024D3*
X1014989D3*
X1739736Y552349D3*
X1806665D3*
D143*
X856524Y1585560D3*
Y1652489D3*
X1506524Y1127489D3*
Y1060560D3*
D145*
X1281524Y460560D3*
Y527489D3*
X806577Y2158081D3*
X739648D3*
X1906524Y460560D3*
Y527489D3*
X1106524D3*
Y460560D3*
X481524D3*
Y527489D3*
D143*
X856524Y1127489D3*
Y1060560D3*
X1498769Y1596156D3*
Y1663085D3*
D145*
X1412772Y1636753D3*
X1345843D3*
X948060Y1069024D3*
X1014989D3*
X948060Y1219024D3*
X1014989D3*
X1421153Y1477888D3*
X1354224D3*
X1148060Y1597729D3*
X1214989D3*
X1148060Y1447729D3*
X1214989D3*
X1148060Y1522729D3*
X1214989D3*
X1858776Y977479D3*
X1925706D3*
X1288464Y982141D3*
X1221535D3*
X1068056Y981182D3*
X1134985D3*
X442448Y981165D3*
X509377D3*
X1622501Y2235061D3*
X1689430D3*
X1520755Y2233421D3*
X1453826D3*
X1535912Y1876649D3*
X1468982D3*
X1625574Y1871713D3*
X1692503D3*
D143*
X1915612Y2829471D3*
Y2896400D3*
D79*
X1930745Y2731190D3*
X1893343D3*
X1855942D3*
Y2624891D3*
X1930745D3*
M02*
