G04 DipTrace 3.3.0.0*
G04 uTidesII.GBO*
%MOIN*%
G04 #@! TF.FileFunction,Legend,Bot*
G04 #@! TF.Part,Single*
%ADD10C,0.009843*%
%ADD21C,0.006*%
%ADD32O,0.021404X0.017461*%
%ADD37C,0.005*%
%ADD46C,0.005984*%
%ADD146C,0.004632*%
%FSLAX26Y26*%
G04*
G70*
G90*
G75*
G01*
G04 BotSilk*
%LPD*%
D32*
X1569292Y3949059D3*
X1606257Y3813990D3*
X1569292Y2149059D3*
X1606257Y2013990D3*
X1569292Y3349059D3*
X1606257Y3213990D3*
X1569292Y2749059D3*
X1606257Y2613990D3*
X1569292Y4549059D3*
X1606257Y4413990D3*
X1816559Y1588320D2*
D21*
X1746524D1*
X1781524Y1553390D2*
Y1623350D1*
X1731509Y1763218D2*
X1606524D1*
X1831539D2*
X1956524D1*
X1831539Y1363239D2*
X1956524D1*
X1731509D2*
X1606524D1*
Y1763218D1*
X1956524D2*
Y1363239D1*
X1831539Y1763218D2*
D46*
Y1775690D1*
X1731509D1*
Y1763218D1*
X1416559Y1588320D2*
D21*
X1346524D1*
X1381524Y1553390D2*
Y1623350D1*
X1331509Y1763218D2*
X1206524D1*
X1431539D2*
X1556524D1*
X1431539Y1363239D2*
X1556524D1*
X1331509D2*
X1206524D1*
Y1763218D1*
X1556524D2*
Y1363239D1*
X1431539Y1763218D2*
D46*
Y1775690D1*
X1331509D1*
Y1763218D1*
X946489Y1118928D2*
D21*
X1016524D1*
X981524Y1153858D2*
Y1083899D1*
X1031539Y944030D2*
X1156524D1*
X931509D2*
X806524D1*
X931509Y1344010D2*
X806524D1*
X1031539D2*
X1156524D1*
Y944030D1*
X806524D2*
Y1344010D1*
X931509Y944030D2*
D46*
Y931559D1*
X1031539D1*
Y944030D1*
X1016559Y1588320D2*
D21*
X946524D1*
X981524Y1553390D2*
Y1623350D1*
X931509Y1763218D2*
X806524D1*
X1031539D2*
X1156524D1*
X1031539Y1363239D2*
X1156524D1*
X931509D2*
X806524D1*
Y1763218D1*
X1156524D2*
Y1363239D1*
X1031539Y1763218D2*
D46*
Y1775690D1*
X931509D1*
Y1763218D1*
X616559Y1588320D2*
D21*
X546524D1*
X581524Y1553390D2*
Y1623350D1*
X531509Y1763218D2*
X406524D1*
X631539D2*
X756524D1*
X631539Y1363239D2*
X756524D1*
X531509D2*
X406524D1*
Y1763218D1*
X756524D2*
Y1363239D1*
X631539Y1763218D2*
D46*
Y1775690D1*
X531509D1*
Y1763218D1*
X546489Y1118928D2*
D21*
X616524D1*
X581524Y1153858D2*
Y1083899D1*
X631539Y944030D2*
X756524D1*
X531509D2*
X406524D1*
X531509Y1344010D2*
X406524D1*
X631539D2*
X756524D1*
Y944030D1*
X406524D2*
Y1344010D1*
X531509Y944030D2*
D46*
Y931559D1*
X631539D1*
Y944030D1*
X1746489Y1118928D2*
D21*
X1816524D1*
X1781524Y1153858D2*
Y1083899D1*
X1831539Y944030D2*
X1956524D1*
X1731509D2*
X1606524D1*
X1731509Y1344010D2*
X1606524D1*
X1831539D2*
X1956524D1*
Y944030D1*
X1606524D2*
Y1344010D1*
X1731509Y944030D2*
D46*
Y931559D1*
X1831539D1*
Y944030D1*
X1346489Y1118928D2*
D21*
X1416524D1*
X1381524Y1153858D2*
Y1083899D1*
X1431539Y944030D2*
X1556524D1*
X1331509D2*
X1206524D1*
X1331509Y1344010D2*
X1206524D1*
X1431539D2*
X1556524D1*
Y944030D1*
X1206524D2*
Y1344010D1*
X1331509Y944030D2*
D46*
Y931559D1*
X1431539D1*
Y944030D1*
X1816559Y644121D2*
D21*
X1746524D1*
X1781524Y609191D2*
Y679150D1*
X1731509Y819019D2*
X1606524D1*
X1831539D2*
X1956524D1*
X1831539Y419039D2*
X1956524D1*
X1731509D2*
X1606524D1*
Y819019D1*
X1956524D2*
Y419039D1*
X1831539Y819019D2*
D46*
Y831490D1*
X1731509D1*
Y819019D1*
X1416559Y644121D2*
D21*
X1346524D1*
X1381524Y609191D2*
Y679150D1*
X1331509Y819019D2*
X1206524D1*
X1431539D2*
X1556524D1*
X1431539Y419039D2*
X1556524D1*
X1331509D2*
X1206524D1*
Y819019D1*
X1556524D2*
Y419039D1*
X1431539Y819019D2*
D46*
Y831490D1*
X1331509D1*
Y819019D1*
X1016559Y644121D2*
D21*
X946524D1*
X981524Y609191D2*
Y679150D1*
X931509Y819019D2*
X806524D1*
X1031539D2*
X1156524D1*
X1031539Y419039D2*
X1156524D1*
X931509D2*
X806524D1*
Y819019D1*
X1156524D2*
Y419039D1*
X1031539Y819019D2*
D46*
Y831490D1*
X931509D1*
Y819019D1*
X616559Y644121D2*
D21*
X546524D1*
X581524Y609191D2*
Y679150D1*
X531509Y819019D2*
X406524D1*
X631539D2*
X756524D1*
X631539Y419039D2*
X756524D1*
X531509D2*
X406524D1*
Y819019D1*
X756524D2*
Y419039D1*
X631539Y819019D2*
D46*
Y831490D1*
X531509D1*
Y819019D1*
X1231531Y2319026D2*
D37*
G03X1131518Y2319026I-50007J49997D01*
G01*
X1231531D2*
X1131518D1*
X1130354Y2369026D2*
G02X1130354Y2369026I51170J0D01*
G01*
X1231531Y3269026D2*
G03X1131518Y3269026I-50007J49997D01*
G01*
X1231531D2*
X1131518D1*
X1130354Y3319026D2*
G02X1130354Y3319026I51170J0D01*
G01*
X1231531Y2794026D2*
G03X1131518Y2794026I-50007J49997D01*
G01*
X1231531D2*
X1131518D1*
X1130354Y2844026D2*
G02X1130354Y2844026I51170J0D01*
G01*
X978377Y2881526D2*
D10*
X581544D1*
Y2445341D1*
X978377D1*
Y2881526D1*
X643733Y2681521D2*
G02X643733Y2681521I137768J0D01*
G01*
X978377Y4081526D2*
X581544D1*
Y3645341D1*
X978377D1*
Y4081526D1*
X643733Y3881521D2*
G02X643733Y3881521I137768J0D01*
G01*
X978377Y3481526D2*
X581544D1*
Y3045341D1*
X978377D1*
Y3481526D1*
X643733Y3281521D2*
G02X643733Y3281521I137768J0D01*
G01*
X978377Y2281526D2*
X581544D1*
Y1845341D1*
X978377D1*
Y2281526D1*
X643733Y2081521D2*
G02X643733Y2081521I137768J0D01*
G01*
X978377Y4681526D2*
X581544D1*
Y4245341D1*
X978377D1*
Y4681526D1*
X643733Y4481521D2*
G02X643733Y4481521I137768J0D01*
G01*
X1778377Y2281526D2*
X1381544D1*
Y1845341D1*
X1778377D1*
Y2281526D1*
X1443733Y2081521D2*
G02X1443733Y2081521I137768J0D01*
G01*
X1778377Y2881526D2*
X1381544D1*
Y2445341D1*
X1778377D1*
Y2881526D1*
X1443733Y2681521D2*
G02X1443733Y2681521I137768J0D01*
G01*
X1778377Y3481526D2*
X1381544D1*
Y3045341D1*
X1778377D1*
Y3481526D1*
X1443733Y3281521D2*
G02X1443733Y3281521I137768J0D01*
G01*
X1778377Y4081526D2*
X1381544D1*
Y3645341D1*
X1778377D1*
Y4081526D1*
X1443733Y3881521D2*
G02X1443733Y3881521I137768J0D01*
G01*
X1778377Y4681526D2*
X1381544D1*
Y4245341D1*
X1778377D1*
Y4681526D1*
X1443733Y4481521D2*
G02X1443733Y4481521I137768J0D01*
G01*
X1299443Y3237308D2*
X1063236Y3236950D1*
X1063606Y3000723D1*
X1299837Y3001146D1*
X1299443Y3237308D1*
Y2287308D2*
X1063236Y2286950D1*
X1063606Y2050723D1*
X1299837Y2051146D1*
X1299443Y2287308D1*
Y2762308D2*
X1063236Y2761950D1*
X1063606Y2525723D1*
X1299837Y2526146D1*
X1299443Y2762308D1*
X1486229Y2165131D2*
D21*
X1682992D1*
Y1999850D1*
X1486229D1*
Y2165131D1*
X1486723Y2764182D2*
X1679780D1*
Y2593549D1*
X1486723D1*
Y2764182D1*
X1487997Y3367856D2*
X1693206D1*
Y3193049D1*
X1487997D1*
Y3367856D1*
X1479095Y3965818D2*
X1686779D1*
Y3790311D1*
X1479095D1*
Y3965818D1*
X1485828Y4585101D2*
X1682745D1*
Y4377820D1*
X1485828D1*
Y4585101D1*
G36*
X409652Y927301D2*
X471295D1*
Y836488D1*
X409652D1*
Y927301D1*
G37*
G36*
X1038521Y925368D2*
X1099656D1*
Y833128D1*
X1038521D1*
Y925368D1*
G37*
G36*
X1265902Y929658D2*
X1320602D1*
Y834202D1*
X1265902D1*
Y929658D1*
G37*
G36*
X1831574Y927885D2*
X1890077D1*
Y834282D1*
X1831574D1*
Y927885D1*
G37*
X1509476Y3913532D2*
D146*
X1539620D1*
Y3903484D1*
X1538161Y3899173D1*
X1535309Y3896288D1*
X1532424Y3894862D1*
X1528147Y3893436D1*
X1520950D1*
X1516639Y3894862D1*
X1513788Y3896288D1*
X1510902Y3899173D1*
X1509476Y3903484D1*
Y3913532D1*
X1515247Y3884172D2*
X1513788Y3881287D1*
X1509510Y3876976D1*
X1539620D1*
X1509510Y3864828D2*
Y3849076D1*
X1520984Y3857665D1*
Y3853354D1*
X1522410Y3850502D1*
X1523835Y3849076D1*
X1528146Y3847617D1*
X1530998D1*
X1535309Y3849076D1*
X1538195Y3851928D1*
X1539621Y3856239D1*
Y3860550D1*
X1538195Y3864828D1*
X1536735Y3866254D1*
X1533884Y3867713D1*
X1630299Y3917031D2*
X1660443D1*
Y3906983D1*
X1658984Y3902672D1*
X1656132Y3899787D1*
X1653247Y3898361D1*
X1648969Y3896935D1*
X1641773D1*
X1637462Y3898361D1*
X1634610Y3899787D1*
X1631725Y3902672D1*
X1630299Y3906983D1*
Y3917031D1*
X1636069Y3887671D2*
X1634610Y3884786D1*
X1630332Y3880475D1*
X1660443D1*
Y3856853D2*
X1630332D1*
X1650395Y3871212D1*
Y3849690D1*
X1512223Y2113553D2*
X1542367D1*
Y2103505D1*
X1540908Y2099194D1*
X1538056Y2096309D1*
X1535171Y2094883D1*
X1530893Y2093457D1*
X1523697D1*
X1519386Y2094883D1*
X1516534Y2096309D1*
X1513649Y2099194D1*
X1512223Y2103505D1*
Y2113553D1*
X1517993Y2084193D2*
X1516534Y2081308D1*
X1512256Y2076997D1*
X1542367D1*
X1512256Y2050523D2*
Y2064849D1*
X1525156Y2066275D1*
X1523730Y2064849D1*
X1522271Y2060538D1*
Y2056260D1*
X1523730Y2051949D1*
X1526582Y2049064D1*
X1530893Y2047638D1*
X1533745D1*
X1538056Y2049064D1*
X1540941Y2051949D1*
X1542367Y2056260D1*
Y2060538D1*
X1540941Y2064849D1*
X1539482Y2066275D1*
X1536630Y2067734D1*
X1631455Y2112865D2*
X1661599D1*
Y2102817D1*
X1660140Y2098506D1*
X1657288Y2095621D1*
X1654403Y2094195D1*
X1650126Y2092769D1*
X1642929D1*
X1638618Y2094195D1*
X1635767Y2095621D1*
X1632881Y2098506D1*
X1631456Y2102817D1*
X1631455Y2112865D1*
X1637226Y2083506D2*
X1635767Y2080621D1*
X1631489Y2076310D1*
X1661599D1*
X1635766Y2049835D2*
X1632915Y2051261D1*
X1631489Y2055572D1*
Y2058424D1*
X1632915Y2062735D1*
X1637226Y2065620D1*
X1644389Y2067046D1*
X1651552D1*
X1657288Y2065620D1*
X1660174Y2062735D1*
X1661600Y2058424D1*
Y2056998D1*
X1660174Y2052720D1*
X1657288Y2049835D1*
X1652977Y2048409D1*
X1651551D1*
X1647240Y2049835D1*
X1644389Y2052720D1*
X1642963Y2056998D1*
Y2058424D1*
X1644389Y2062735D1*
X1647240Y2065620D1*
X1651552Y2067046D1*
X1512620Y3313775D2*
X1542764D1*
Y3303727D1*
X1541304Y3299416D1*
X1538452Y3296531D1*
X1535567Y3295105D1*
X1531290Y3293679D1*
X1524093D1*
X1519782Y3295105D1*
X1516931Y3296531D1*
X1514045Y3299416D1*
X1512620Y3303727D1*
Y3313775D1*
X1518390Y3284415D2*
X1516931Y3281530D1*
X1512653Y3277219D1*
X1542764D1*
Y3262219D2*
X1512653Y3247860D1*
Y3267956D1*
X1630702Y3312756D2*
X1660846Y3312755D1*
Y3302707D1*
X1659387Y3298396D1*
X1656535Y3295511D1*
X1653650Y3294085D1*
X1649372Y3292660D1*
X1642176D1*
X1637865Y3294085D1*
X1635013Y3295511D1*
X1632128Y3298397D1*
X1630702Y3302708D1*
Y3312756D1*
X1636472Y3283396D2*
X1635013Y3280511D1*
X1630735Y3276200D1*
X1660846D1*
X1630735Y3259773D2*
X1632161Y3264051D1*
X1635013Y3265510D1*
X1637898D1*
X1640750Y3264051D1*
X1642209Y3261199D1*
X1643635Y3255462D1*
X1645061Y3251151D1*
X1647946Y3248300D1*
X1650798Y3246874D1*
X1655109D1*
X1657961Y3248300D1*
X1659420Y3249725D1*
X1660846Y3254036D1*
Y3259773D1*
X1659420Y3264051D1*
X1657961Y3265510D1*
X1655109Y3266936D1*
X1650798D1*
X1647946Y3265510D1*
X1645061Y3262625D1*
X1643635Y3258348D1*
X1642209Y3252611D1*
X1640750Y3249726D1*
X1637898Y3248300D1*
X1635013D1*
X1632161Y3249726D1*
X1630735Y3254037D1*
Y3259773D1*
X1512587Y2713688D2*
X1542731D1*
Y2703640D1*
X1541272Y2699329D1*
X1538420Y2696444D1*
X1535535Y2695018D1*
X1531257Y2693592D1*
X1524061D1*
X1519750Y2695018D1*
X1516898Y2696444D1*
X1514013Y2699329D1*
X1512587Y2703640D1*
Y2713688D1*
X1518357Y2684328D2*
X1516898Y2681443D1*
X1512620Y2677132D1*
X1542731D1*
X1522635Y2649199D2*
X1526946Y2650658D1*
X1529831Y2653510D1*
X1531257Y2657821D1*
Y2659247D1*
X1529831Y2663558D1*
X1526946Y2666409D1*
X1522635Y2667869D1*
X1521209D1*
X1516898Y2666410D1*
X1514046Y2663558D1*
X1512620Y2659247D1*
Y2657821D1*
X1514046Y2653510D1*
X1516898Y2650658D1*
X1522635Y2649199D1*
X1529831D1*
X1536994Y2650658D1*
X1541305Y2653510D1*
X1542731Y2657821D1*
Y2660672D1*
X1541305Y2664983D1*
X1538420Y2666409D1*
X1637994Y2719016D2*
X1668138D1*
Y2708968D1*
X1666678Y2704657D1*
X1663827Y2701772D1*
X1660941Y2700346D1*
X1656664Y2698920D1*
X1649468D1*
X1645156Y2700346D1*
X1642305Y2701772D1*
X1639420Y2704657D1*
X1637994Y2708968D1*
Y2719016D1*
X1645190Y2688197D2*
X1643764D1*
X1640879Y2686771D1*
X1639453Y2685345D1*
X1638027Y2682460D1*
Y2676723D1*
X1639453Y2673872D1*
X1640879Y2672446D1*
X1643764Y2670986D1*
X1646616D1*
X1649501Y2672446D1*
X1653779Y2675297D1*
X1668138Y2689656D1*
Y2669560D1*
X1638027Y2651675D2*
X1639453Y2655986D1*
X1643764Y2658871D1*
X1650927Y2660297D1*
X1655238D1*
X1662401Y2658871D1*
X1666712Y2655986D1*
X1668138Y2651675D1*
Y2648823D1*
X1666712Y2644512D1*
X1662401Y2641660D1*
X1655238Y2640201D1*
X1650927D1*
X1643764Y2641660D1*
X1639453Y2644512D1*
X1638027Y2648823D1*
Y2651675D1*
X1643764Y2641660D2*
X1662401Y2658871D1*
X1506818Y4518851D2*
X1536962D1*
Y4508803D1*
X1535503Y4504492D1*
X1532651Y4501607D1*
X1529766Y4500181D1*
X1525488Y4498755D1*
X1518292D1*
X1513981Y4500181D1*
X1511129Y4501607D1*
X1508244Y4504492D1*
X1506818Y4508803D1*
Y4518851D1*
X1514014Y4488032D2*
X1512588D1*
X1509703Y4486606D1*
X1508277Y4485180D1*
X1506851Y4482295D1*
Y4476558D1*
X1508277Y4473706D1*
X1509703Y4472280D1*
X1512588Y4470821D1*
X1515440D1*
X1518325Y4472280D1*
X1522603Y4475132D1*
X1536962Y4489491D1*
Y4469395D1*
X1512588Y4460132D2*
X1511129Y4457247D1*
X1506851Y4452936D1*
X1536962D1*
X1638476Y4522040D2*
X1668620D1*
Y4511992D1*
X1667161Y4507681D1*
X1664309Y4504796D1*
X1661424Y4503370D1*
X1657147Y4501944D1*
X1649950D1*
X1645639Y4503370D1*
X1642788Y4504796D1*
X1639902Y4507681D1*
X1638476Y4511992D1*
Y4522040D1*
X1645673Y4491221D2*
X1644247D1*
X1641362Y4489795D1*
X1639936Y4488369D1*
X1638510Y4485484D1*
Y4479747D1*
X1639936Y4476895D1*
X1641362Y4475469D1*
X1644247Y4474010D1*
X1647099D1*
X1649984Y4475469D1*
X1654261Y4478321D1*
X1668620Y4492680D1*
Y4472584D1*
X1645673Y4461862D2*
X1644247D1*
X1641362Y4460436D1*
X1639936Y4459010D1*
X1638510Y4456125D1*
Y4450388D1*
X1639936Y4447536D1*
X1641362Y4446110D1*
X1644247Y4444651D1*
X1647098D1*
X1649984Y4446110D1*
X1654261Y4448962D1*
X1668620Y4463321D1*
Y4443225D1*
X1914426Y1821881D2*
Y1798933D1*
X1915852Y1794622D1*
X1917312Y1793196D1*
X1920163Y1791737D1*
X1923049D1*
X1925900Y1793196D1*
X1927326Y1794622D1*
X1928785Y1798933D1*
Y1801785D1*
X1905163Y1816111D2*
X1902278Y1817570D1*
X1897967Y1821848D1*
Y1791737D1*
X1249417Y1815233D2*
Y1792285D1*
X1250843Y1787974D1*
X1252302Y1786548D1*
X1255154Y1785089D1*
X1258039D1*
X1260891Y1786548D1*
X1262317Y1787974D1*
X1263776Y1792285D1*
Y1795137D1*
X1238694Y1808036D2*
Y1809462D1*
X1237268Y1812348D1*
X1235843Y1813773D1*
X1232957Y1815199D1*
X1227220D1*
X1224369Y1813773D1*
X1222943Y1812348D1*
X1221484Y1809462D1*
Y1806611D1*
X1222943Y1803725D1*
X1225795Y1799448D1*
X1240154Y1785089D1*
X1220058D1*
X900539Y930475D2*
Y907527D1*
X901965Y903216D1*
X903424Y901790D1*
X906276Y900331D1*
X909161D1*
X912013Y901790D1*
X913439Y903216D1*
X914898Y907527D1*
Y910379D1*
X888391Y930442D2*
X872639D1*
X881228Y918968D1*
X876917D1*
X874065Y917542D1*
X872639Y916116D1*
X871180Y911805D1*
Y908953D1*
X872639Y904642D1*
X875491Y901757D1*
X879802Y900331D1*
X884113D1*
X888391Y901757D1*
X889816Y903216D1*
X891276Y906068D1*
X1115761Y1806467D2*
Y1783520D1*
X1117187Y1779209D1*
X1118646Y1777783D1*
X1121498Y1776323D1*
X1124383D1*
X1127235Y1777783D1*
X1128661Y1779209D1*
X1130120Y1783520D1*
Y1786371D1*
X1092139Y1776323D2*
Y1806434D1*
X1106498Y1786371D1*
X1084976D1*
X453615Y1809150D2*
Y1786202D1*
X455041Y1781891D1*
X456500Y1780465D1*
X459352Y1779006D1*
X462237D1*
X465089Y1780465D1*
X466515Y1781891D1*
X467974Y1786202D1*
Y1789054D1*
X427141Y1809117D2*
X441467D1*
X442893Y1796217D1*
X441467Y1797643D1*
X437156Y1799102D1*
X432878D1*
X428567Y1797643D1*
X425682Y1794791D1*
X424256Y1790480D1*
Y1787628D1*
X425682Y1783317D1*
X428567Y1780432D1*
X432878Y1779006D1*
X437156D1*
X441467Y1780432D1*
X442893Y1781891D1*
X444352Y1784743D1*
X710298Y931815D2*
Y908867D1*
X711724Y904556D1*
X713183Y903130D1*
X716035Y901671D1*
X718920D1*
X721772Y903130D1*
X723198Y904556D1*
X724657Y908867D1*
Y911719D1*
X683823Y927504D2*
X685249Y930356D1*
X689560Y931782D1*
X692412D1*
X696723Y930356D1*
X699608Y926045D1*
X701034Y918882D1*
Y911719D1*
X699608Y905982D1*
X696723Y903097D1*
X692412Y901671D1*
X690986D1*
X686708Y903097D1*
X683823Y905982D1*
X682397Y910293D1*
Y911719D1*
X683823Y916030D1*
X686708Y918882D1*
X690986Y920308D1*
X692412D1*
X696723Y918882D1*
X699608Y916030D1*
X701034Y911719D1*
X1642135Y930322D2*
Y907374D1*
X1643561Y903063D1*
X1645020Y901637D1*
X1647872Y900178D1*
X1650757D1*
X1653609Y901637D1*
X1655035Y903063D1*
X1656494Y907374D1*
Y910226D1*
X1627134Y900178D2*
X1612775Y930289D1*
X1632871D1*
X1527508Y930508D2*
Y907560D1*
X1528934Y903249D1*
X1530393Y901823D1*
X1533245Y900364D1*
X1536130D1*
X1538982Y901823D1*
X1540408Y903249D1*
X1541867Y907560D1*
Y910412D1*
X1511082Y930475D2*
X1515360Y929049D1*
X1516819Y926197D1*
Y923312D1*
X1515360Y920460D1*
X1512508Y919001D1*
X1506771Y917575D1*
X1502460Y916149D1*
X1499608Y913264D1*
X1498182Y910412D1*
Y906101D1*
X1499608Y903249D1*
X1501034Y901790D1*
X1505345Y900364D1*
X1511082D1*
X1515360Y901790D1*
X1516819Y903249D1*
X1518245Y906101D1*
Y910412D1*
X1516819Y913264D1*
X1513934Y916149D1*
X1509656Y917575D1*
X1503919Y919001D1*
X1501034Y920460D1*
X1499608Y923312D1*
Y926197D1*
X1501034Y929049D1*
X1505345Y930475D1*
X1511082D1*
X1649464Y863641D2*
Y840693D1*
X1650890Y836382D1*
X1652349Y834956D1*
X1655201Y833497D1*
X1658086D1*
X1660938Y834956D1*
X1662364Y836382D1*
X1663823Y840693D1*
Y843545D1*
X1621530Y853593D2*
X1622989Y849282D1*
X1625841Y846397D1*
X1630152Y844971D1*
X1631578D1*
X1635889Y846397D1*
X1638741Y849282D1*
X1640200Y853593D1*
Y855019D1*
X1638741Y859330D1*
X1635889Y862182D1*
X1631578Y863608D1*
X1630152D1*
X1625841Y862182D1*
X1622989Y859330D1*
X1621530Y853593D1*
Y846397D1*
X1622989Y839234D1*
X1625841Y834923D1*
X1630152Y833497D1*
X1633004D1*
X1637315Y834923D1*
X1638741Y837808D1*
X1525782Y857737D2*
Y834789D1*
X1527208Y830478D1*
X1528667Y829052D1*
X1531519Y827593D1*
X1534404D1*
X1537256Y829052D1*
X1538682Y830478D1*
X1540141Y834789D1*
Y837641D1*
X1516519Y851966D2*
X1513633Y853425D1*
X1509322Y857703D1*
Y827593D1*
X1491437Y857703D2*
X1495748Y856277D1*
X1498633Y851966D1*
X1500059Y844803D1*
Y840492D1*
X1498633Y833329D1*
X1495748Y829018D1*
X1491437Y827593D1*
X1488585D1*
X1484274Y829018D1*
X1481422Y833329D1*
X1479963Y840492D1*
Y844803D1*
X1481422Y851966D1*
X1484274Y856277D1*
X1488585Y857703D1*
X1491437D1*
X1481422Y851966D2*
X1498633Y833329D1*
X876847Y872994D2*
Y850046D1*
X878273Y845735D1*
X879732Y844309D1*
X882584Y842850D1*
X885469D1*
X888321Y844309D1*
X889746Y845735D1*
X891206Y850046D1*
Y852898D1*
X867583Y867224D2*
X864698Y868683D1*
X860387Y872961D1*
Y842850D1*
X851123Y867224D2*
X848238Y868683D1*
X843927Y872961D1*
Y842850D1*
X688421Y868971D2*
Y846024D1*
X689847Y841712D1*
X691306Y840287D1*
X694158Y838827D1*
X697043D1*
X699895Y840287D1*
X701321Y841712D1*
X702780Y846024D1*
Y848875D1*
X679158Y863201D2*
X676273Y864660D1*
X671962Y868938D1*
Y838827D1*
X661239Y861775D2*
Y863201D1*
X659813Y866086D1*
X658387Y867512D1*
X655502Y868938D1*
X649765D1*
X646913Y867512D1*
X645487Y866086D1*
X644028Y863201D1*
Y860349D1*
X645487Y857464D1*
X648339Y853186D1*
X662698Y838827D1*
X642602D1*
X1226990Y2483670D2*
Y2453526D1*
X1209779D1*
X1181878Y2483670D2*
X1200515D1*
Y2453526D1*
X1181878D1*
X1200515Y2469311D2*
X1189041D1*
X1172615Y2483670D2*
Y2453526D1*
X1162567D1*
X1158256Y2454985D1*
X1155371Y2457837D1*
X1153945Y2460722D1*
X1152519Y2465000D1*
Y2472196D1*
X1153945Y2476507D1*
X1155371Y2479359D1*
X1158256Y2482244D1*
X1162567Y2483670D1*
X1172615D1*
X1143255Y2477899D2*
X1140370Y2479359D1*
X1136059Y2483636D1*
Y2453526D1*
X1233440Y3433670D2*
Y3403526D1*
X1216229D1*
X1188328Y3433670D2*
X1206965D1*
Y3403526D1*
X1188328D1*
X1206965Y3419311D2*
X1195491D1*
X1179065Y3433670D2*
Y3403526D1*
X1169017D1*
X1164706Y3404985D1*
X1161821Y3407837D1*
X1160395Y3410722D1*
X1158969Y3415000D1*
Y3422196D1*
X1160395Y3426507D1*
X1161821Y3429359D1*
X1164706Y3432244D1*
X1169017Y3433670D1*
X1179065D1*
X1148246Y3426473D2*
Y3427899D1*
X1146820Y3430785D1*
X1145394Y3432210D1*
X1142509Y3433636D1*
X1136772D1*
X1133920Y3432210D1*
X1132494Y3430785D1*
X1131035Y3427899D1*
Y3425048D1*
X1132494Y3422162D1*
X1135346Y3417885D1*
X1149705Y3403526D1*
X1129609D1*
X1233440Y2958670D2*
Y2928526D1*
X1216229D1*
X1188328Y2958670D2*
X1206965D1*
Y2928526D1*
X1188328D1*
X1206965Y2944311D2*
X1195491D1*
X1179065Y2958670D2*
Y2928526D1*
X1169017D1*
X1164706Y2929985D1*
X1161821Y2932837D1*
X1160395Y2935722D1*
X1158969Y2940000D1*
Y2947196D1*
X1160395Y2951507D1*
X1161821Y2954359D1*
X1164706Y2957244D1*
X1169017Y2958670D1*
X1179065D1*
X1146820Y2958636D2*
X1131068D1*
X1139657Y2947162D1*
X1135346D1*
X1132494Y2945737D1*
X1131068Y2944311D1*
X1129609Y2940000D1*
Y2937148D1*
X1131068Y2932837D1*
X1133920Y2929952D1*
X1138231Y2928526D1*
X1142542D1*
X1146820Y2929952D1*
X1148246Y2931411D1*
X1149705Y2934263D1*
X1947832Y987593D2*
Y957449D1*
X1930622D1*
X1902721Y987593D2*
X1921358D1*
Y957449D1*
X1902721D1*
X1921358Y973234D2*
X1909884D1*
X1893458Y987593D2*
Y957449D1*
X1883410D1*
X1879099Y958909D1*
X1876213Y961760D1*
X1874787Y964646D1*
X1873362Y968923D1*
Y976120D1*
X1874787Y980431D1*
X1876213Y983282D1*
X1879099Y986168D1*
X1883410Y987593D1*
X1893458D1*
X1849739Y957449D2*
Y987560D1*
X1864098Y967497D1*
X1842576D1*
X1321417Y992313D2*
Y962169D1*
X1304206D1*
X1276306Y992313D2*
X1294943D1*
Y962169D1*
X1276306D1*
X1294943Y977954D2*
X1283469D1*
X1267042Y992313D2*
Y962169D1*
X1256994D1*
X1252683Y963628D1*
X1249798Y966480D1*
X1248372Y969365D1*
X1246946Y973643D1*
Y980839D1*
X1248372Y985150D1*
X1249798Y988002D1*
X1252683Y990887D1*
X1256994Y992313D1*
X1267042D1*
X1220472Y992279D2*
X1234798D1*
X1236224Y979380D1*
X1234798Y980806D1*
X1230487Y982265D1*
X1226209D1*
X1221898Y980806D1*
X1219013Y977954D1*
X1217587Y973643D1*
Y970791D1*
X1219013Y966480D1*
X1221898Y963595D1*
X1226209Y962169D1*
X1230487D1*
X1234798Y963595D1*
X1236224Y965054D1*
X1237683Y967906D1*
X1143201Y991133D2*
Y960989D1*
X1125990D1*
X1098090Y991133D2*
X1116726D1*
Y960989D1*
X1098090D1*
X1116726Y976774D2*
X1105253D1*
X1088826Y991133D2*
Y960989D1*
X1078778D1*
X1074467Y962448D1*
X1071582Y965300D1*
X1070156Y968185D1*
X1068730Y972463D1*
Y979659D1*
X1070156Y983970D1*
X1071582Y986822D1*
X1074467Y989707D1*
X1078778Y991133D1*
X1088826D1*
X1042256Y986822D2*
X1043681Y989674D1*
X1047993Y991100D1*
X1050844D1*
X1055155Y989674D1*
X1058041Y985363D1*
X1059466Y978200D1*
Y971037D1*
X1058041Y965300D1*
X1055155Y962415D1*
X1050844Y960989D1*
X1049418D1*
X1045141Y962415D1*
X1042256Y965300D1*
X1040830Y969611D1*
Y971037D1*
X1042256Y975348D1*
X1045141Y978200D1*
X1049418Y979626D1*
X1050844D1*
X1055155Y978200D1*
X1058041Y975348D1*
X1059466Y971037D1*
X523760Y987593D2*
Y957449D1*
X506549D1*
X478649Y987593D2*
X497285D1*
Y957449D1*
X478649D1*
X497285Y973234D2*
X485811D1*
X469385Y987593D2*
Y957449D1*
X459337D1*
X455026Y958909D1*
X452141Y961760D1*
X450715Y964646D1*
X449289Y968923D1*
Y976120D1*
X450715Y980431D1*
X452141Y983282D1*
X455026Y986168D1*
X459337Y987593D1*
X469385D1*
X434288Y957449D2*
X419929Y987560D1*
X440025D1*
X808032Y2911101D2*
X795132D1*
X790821Y2912560D1*
X789362Y2913986D1*
X787936Y2916838D1*
Y2919723D1*
X789362Y2922575D1*
X790821Y2924034D1*
X795132Y2925460D1*
X808032D1*
Y2895316D1*
X797984Y2911101D2*
X787936Y2895316D1*
X778673Y2919689D2*
X775787Y2921149D1*
X771476Y2925426D1*
Y2895316D1*
X762213Y2919689D2*
X759328Y2921149D1*
X755017Y2925426D1*
Y2895316D1*
X803737Y4116372D2*
X790837D1*
X786526Y4117831D1*
X785067Y4119257D1*
X783641Y4122109D1*
Y4124994D1*
X785067Y4127846D1*
X786526Y4129305D1*
X790837Y4130731D1*
X803737D1*
Y4100587D1*
X793689Y4116372D2*
X783641Y4100587D1*
X774377Y4124961D2*
X771492Y4126420D1*
X767181Y4130698D1*
Y4100587D1*
X756458Y4123535D2*
Y4124961D1*
X755032Y4127846D1*
X753606Y4129272D1*
X750721Y4130698D1*
X744984D1*
X742132Y4129272D1*
X740707Y4127846D1*
X739247Y4124961D1*
Y4122109D1*
X740707Y4119224D1*
X743558Y4114946D1*
X757917Y4100587D1*
X737821D1*
X820932Y3511101D2*
X808032D1*
X803721Y3512560D1*
X802262Y3513986D1*
X800836Y3516838D1*
Y3519723D1*
X802262Y3522575D1*
X803721Y3524034D1*
X808032Y3525460D1*
X820932D1*
Y3495316D1*
X810884Y3511101D2*
X800836Y3495316D1*
X790113Y3518264D2*
Y3519689D1*
X788687Y3522575D1*
X787261Y3524000D1*
X784376Y3525426D1*
X778639D1*
X775787Y3524000D1*
X774362Y3522575D1*
X772902Y3519689D1*
Y3516838D1*
X774362Y3513952D1*
X777213Y3509675D1*
X791572Y3495316D1*
X771476D1*
X760754Y3518264D2*
Y3519689D1*
X759328Y3522575D1*
X757902Y3524000D1*
X755017Y3525426D1*
X749280D1*
X746428Y3524000D1*
X745002Y3522575D1*
X743543Y3519689D1*
Y3516838D1*
X745002Y3513952D1*
X747854Y3509675D1*
X762213Y3495316D1*
X742117D1*
X820932Y2311101D2*
X808032D1*
X803721Y2312560D1*
X802262Y2313986D1*
X800836Y2316838D1*
Y2319723D1*
X802262Y2322575D1*
X803721Y2324034D1*
X808032Y2325460D1*
X820932D1*
Y2295316D1*
X810884Y2311101D2*
X800836Y2295316D1*
X790113Y2318264D2*
Y2319689D1*
X788687Y2322575D1*
X787261Y2324000D1*
X784376Y2325426D1*
X778639D1*
X775787Y2324000D1*
X774362Y2322575D1*
X772902Y2319689D1*
Y2316838D1*
X774362Y2313952D1*
X777213Y2309675D1*
X791572Y2295316D1*
X771476D1*
X759328Y2325426D2*
X743576D1*
X752165Y2313952D1*
X747854D1*
X745002Y2312527D1*
X743576Y2311101D1*
X742117Y2306790D1*
Y2303938D1*
X743576Y2299627D1*
X746428Y2296742D1*
X750739Y2295316D1*
X755050D1*
X759328Y2296742D1*
X760754Y2298201D1*
X762213Y2301053D1*
X1070476Y4657473D2*
X1057576D1*
X1053265Y4658932D1*
X1051806Y4660358D1*
X1050380Y4663210D1*
Y4666095D1*
X1051806Y4668947D1*
X1053265Y4670406D1*
X1057576Y4671832D1*
X1070476D1*
Y4641688D1*
X1060428Y4657473D2*
X1050380Y4641688D1*
X1039657Y4664636D2*
Y4666062D1*
X1038231Y4668947D1*
X1036805Y4670373D1*
X1033920Y4671799D1*
X1028183D1*
X1025331Y4670373D1*
X1023905Y4668947D1*
X1022446Y4666062D1*
Y4663210D1*
X1023905Y4660325D1*
X1026757Y4656047D1*
X1041116Y4641688D1*
X1021020D1*
X997398D2*
Y4671799D1*
X1011757Y4651736D1*
X990235D1*
X1620202Y2311101D2*
X1607303D1*
X1602992Y2312560D1*
X1601532Y2313986D1*
X1600106Y2316838D1*
Y2319723D1*
X1601532Y2322575D1*
X1602992Y2324034D1*
X1607303Y2325460D1*
X1620202D1*
Y2295316D1*
X1610154Y2311101D2*
X1600106Y2295316D1*
X1573632Y2325426D2*
X1587958D1*
X1589384Y2312527D1*
X1587958Y2313952D1*
X1583647Y2315412D1*
X1579369D1*
X1575058Y2313952D1*
X1572173Y2311101D1*
X1570747Y2306790D1*
Y2303938D1*
X1572173Y2299627D1*
X1575058Y2296742D1*
X1579369Y2295316D1*
X1583647D1*
X1587958Y2296742D1*
X1589384Y2298201D1*
X1590843Y2301053D1*
X1544272Y2321149D2*
X1545698Y2324000D1*
X1550009Y2325426D1*
X1552861D1*
X1557172Y2324000D1*
X1560057Y2319689D1*
X1561483Y2312527D1*
Y2305364D1*
X1560057Y2299627D1*
X1557172Y2296742D1*
X1552861Y2295316D1*
X1551435D1*
X1547157Y2296742D1*
X1544272Y2299627D1*
X1542846Y2303938D1*
Y2305364D1*
X1544272Y2309675D1*
X1547157Y2312527D1*
X1551435Y2313952D1*
X1552861D1*
X1557172Y2312527D1*
X1560057Y2309675D1*
X1561483Y2305364D1*
X1620932Y2911101D2*
X1608032D1*
X1603721Y2912560D1*
X1602262Y2913986D1*
X1600836Y2916838D1*
Y2919723D1*
X1602262Y2922575D1*
X1603721Y2924034D1*
X1608032Y2925460D1*
X1620932D1*
Y2895316D1*
X1610884Y2911101D2*
X1600836Y2895316D1*
X1574362Y2925426D2*
X1588687D1*
X1590113Y2912527D1*
X1588687Y2913952D1*
X1584376Y2915412D1*
X1580098D1*
X1575787Y2913952D1*
X1572902Y2911101D1*
X1571476Y2906790D1*
Y2903938D1*
X1572902Y2899627D1*
X1575787Y2896742D1*
X1580098Y2895316D1*
X1584376D1*
X1588687Y2896742D1*
X1590113Y2898201D1*
X1591572Y2901053D1*
X1556476Y2895316D2*
X1542117Y2925426D1*
X1562213D1*
X1620915Y3511101D2*
X1608016D1*
X1603704Y3512560D1*
X1602245Y3513986D1*
X1600819Y3516838D1*
Y3519723D1*
X1602245Y3522575D1*
X1603704Y3524034D1*
X1608016Y3525460D1*
X1620915D1*
Y3495316D1*
X1610867Y3511101D2*
X1600819Y3495316D1*
X1574345Y3525426D2*
X1588671D1*
X1590097Y3512527D1*
X1588671Y3513952D1*
X1584360Y3515412D1*
X1580082D1*
X1575771Y3513952D1*
X1572886Y3511101D1*
X1571460Y3506790D1*
Y3503938D1*
X1572886Y3499627D1*
X1575771Y3496742D1*
X1580082Y3495316D1*
X1584360D1*
X1588671Y3496742D1*
X1590097Y3498201D1*
X1591556Y3501053D1*
X1555033Y3525426D2*
X1559311Y3524000D1*
X1560770Y3521149D1*
Y3518264D1*
X1559311Y3515412D1*
X1556459Y3513952D1*
X1550722Y3512527D1*
X1546411Y3511101D1*
X1543559Y3508216D1*
X1542133Y3505364D1*
Y3501053D1*
X1543559Y3498201D1*
X1544985Y3496742D1*
X1549296Y3495316D1*
X1555033D1*
X1559311Y3496742D1*
X1560770Y3498201D1*
X1562196Y3501053D1*
Y3505364D1*
X1560770Y3508216D1*
X1557885Y3511101D1*
X1553607Y3512527D1*
X1547870Y3513952D1*
X1544985Y3515412D1*
X1543559Y3518264D1*
Y3521149D1*
X1544985Y3524000D1*
X1549296Y3525426D1*
X1555033D1*
X1614470Y4114825D2*
X1601570D1*
X1597259Y4116284D1*
X1595800Y4117710D1*
X1594374Y4120562D1*
Y4123447D1*
X1595800Y4126299D1*
X1597259Y4127758D1*
X1601570Y4129184D1*
X1614470D1*
Y4099040D1*
X1604422Y4114825D2*
X1594374Y4099040D1*
X1567899Y4129151D2*
X1582225D1*
X1583651Y4116251D1*
X1582225Y4117677D1*
X1577914Y4119136D1*
X1573636D1*
X1569325Y4117677D1*
X1566440Y4114825D1*
X1565014Y4110514D1*
Y4107662D1*
X1566440Y4103351D1*
X1569325Y4100466D1*
X1573636Y4099040D1*
X1577914D1*
X1582225Y4100466D1*
X1583651Y4101925D1*
X1585110Y4104777D1*
X1537081Y4119136D2*
X1538540Y4114825D1*
X1541392Y4111940D1*
X1545703Y4110514D1*
X1547129D1*
X1551440Y4111940D1*
X1554291Y4114825D1*
X1555751Y4119136D1*
Y4120562D1*
X1554291Y4124873D1*
X1551440Y4127725D1*
X1547129Y4129151D1*
X1545703D1*
X1541392Y4127725D1*
X1538540Y4124873D1*
X1537081Y4119136D1*
Y4111940D1*
X1538540Y4104777D1*
X1541392Y4100466D1*
X1545703Y4099040D1*
X1548554D1*
X1552866Y4100466D1*
X1554291Y4103351D1*
X1363864Y4651038D2*
X1350964D1*
X1346653Y4652497D1*
X1345194Y4653923D1*
X1343768Y4656775D1*
Y4659660D1*
X1345194Y4662512D1*
X1346653Y4663971D1*
X1350964Y4665397D1*
X1363864D1*
Y4635253D1*
X1353816Y4651038D2*
X1343768Y4635253D1*
X1317293Y4661086D2*
X1318719Y4663938D1*
X1323030Y4665363D1*
X1325882D1*
X1330193Y4663938D1*
X1333078Y4659626D1*
X1334504Y4652464D1*
Y4645301D1*
X1333078Y4639564D1*
X1330193Y4636679D1*
X1325882Y4635253D1*
X1324456D1*
X1320178Y4636679D1*
X1317293Y4639564D1*
X1315867Y4643875D1*
Y4645301D1*
X1317293Y4649612D1*
X1320178Y4652464D1*
X1324456Y4653890D1*
X1325882D1*
X1330193Y4652464D1*
X1333078Y4649612D1*
X1334504Y4645301D1*
X1297982Y4665363D2*
X1302293Y4663938D1*
X1305178Y4659626D1*
X1306604Y4652464D1*
Y4648153D1*
X1305178Y4640990D1*
X1302293Y4636679D1*
X1297982Y4635253D1*
X1295130D1*
X1290819Y4636679D1*
X1287967Y4640990D1*
X1286508Y4648153D1*
Y4652464D1*
X1287967Y4659626D1*
X1290819Y4663938D1*
X1295130Y4665363D1*
X1297982D1*
X1287967Y4659626D2*
X1305178Y4640990D1*
X1190061Y3139923D2*
X1192912Y3142808D1*
X1197224Y3144234D1*
X1202960D1*
X1207272Y3142808D1*
X1210157Y3139923D1*
Y3137071D1*
X1208697Y3134186D1*
X1207272Y3132760D1*
X1204420Y3131334D1*
X1195798Y3128449D1*
X1192912Y3127023D1*
X1191487Y3125564D1*
X1190061Y3122712D1*
Y3118401D1*
X1192912Y3115549D1*
X1197224Y3114090D1*
X1202960D1*
X1207272Y3115549D1*
X1210157Y3118401D1*
X1180797Y3144234D2*
X1173601Y3114090D1*
X1166438Y3144234D1*
X1159275Y3114090D1*
X1152079Y3144234D1*
X1142815Y3138464D2*
X1139930Y3139923D1*
X1135619Y3144201D1*
Y3114090D1*
X1205147Y2180002D2*
X1207999Y2182887D1*
X1212310Y2184313D1*
X1218047D1*
X1222358Y2182887D1*
X1225243Y2180002D1*
Y2177150D1*
X1223784Y2174265D1*
X1222358Y2172839D1*
X1219506Y2171413D1*
X1210884Y2168528D1*
X1207999Y2167102D1*
X1206573Y2165643D1*
X1205147Y2162791D1*
Y2158480D1*
X1207999Y2155628D1*
X1212310Y2154169D1*
X1218047D1*
X1222358Y2155628D1*
X1225243Y2158480D1*
X1195883Y2184313D2*
X1188687Y2154169D1*
X1181524Y2184313D1*
X1174362Y2154169D1*
X1167165Y2184313D1*
X1156443Y2177117D2*
Y2178542D1*
X1155017Y2181428D1*
X1153591Y2182854D1*
X1150706Y2184279D1*
X1144969D1*
X1142117Y2182854D1*
X1140691Y2181428D1*
X1139232Y2178542D1*
Y2175691D1*
X1140691Y2172806D1*
X1143543Y2168528D1*
X1157902Y2154169D1*
X1137806D1*
X1208601Y2659740D2*
X1211453Y2662626D1*
X1215764Y2664051D1*
X1221501D1*
X1225812Y2662626D1*
X1228697Y2659740D1*
Y2656889D1*
X1227238Y2654003D1*
X1225812Y2652578D1*
X1222960Y2651152D1*
X1214338Y2648266D1*
X1211453Y2646841D1*
X1210027Y2645381D1*
X1208601Y2642530D1*
Y2638218D1*
X1211453Y2635367D1*
X1215764Y2633907D1*
X1221501D1*
X1225812Y2635367D1*
X1228697Y2638218D1*
X1199338Y2664051D2*
X1192141Y2633907D1*
X1184979Y2664051D1*
X1177816Y2633907D1*
X1170619Y2664051D1*
X1158471Y2664018D2*
X1142719D1*
X1151308Y2652544D1*
X1146997D1*
X1144145Y2651118D1*
X1142719Y2649692D1*
X1141260Y2645381D1*
Y2642530D1*
X1142719Y2638218D1*
X1145571Y2635333D1*
X1149882Y2633907D1*
X1154193D1*
X1158471Y2635333D1*
X1159897Y2636793D1*
X1161356Y2639644D1*
M02*
