M48
INCH
T01C0.0138
T02C0.025
T03C0.0276
T04C0.0354
T05C0.0394
T06C0.04
T07C0.084
T08C0.1181
%
T01
X+010043Y+034137
X+010223Y+034813
X+009913Y+035058
X+008867Y+034464
X+009054Y+033912
X+007837Y+033269
X+007514Y+033078
X+007364Y+032209
X+008305Y+032234
X+007315Y+031102
X+007321Y+030170
X+005878Y+030690
X+004843Y+031858
X+004375Y+031407
X+004315Y+033190
X+004315Y+033690
X+004315Y+034190
X+005815Y+034690
X+005815Y+035190
X+006627Y+034103
X+007075Y+034013
X+007327Y+034410
X+007748Y+034633
X+010316Y+036253
X+010621Y+036401
X+010620Y+036058
X+010877Y+035823
X+011154Y+035564
X+011431Y+035965
X+011667Y+036347
X+012140Y+036774
X+012540Y+037084
X+012262Y+037430
X+011944Y+037585
X+011832Y+038338
X+012055Y+039374
X+012779Y+040166
X+013243Y+040166
X+011077Y+039902
X+010237Y+037705
X+010975Y+037221
X+011695Y+035597
X+012068Y+034929
X+011820Y+034440
X+011971Y+033781
X+010757Y+034164
X+011680Y+032020
X+010656Y+031787
X+010387Y+031482
X+011690Y+030440
X+010831Y+029302
X+009965Y+029142
X+010051Y+028792
X+009225Y+028026
X+007828Y+028026
X+008355Y+025838
X+007825Y+024959
X+006811Y+025769
X+006003Y+023815
X+004843Y+023087
X+007361Y+022736
X+007361Y+021297
X+008731Y+021419
X+009358Y+021643
X+010208Y+021682
X+010651Y+021974
X+010348Y+022263
X+009935Y+022728
X+009396Y+022968
X+009690Y+023878
X+010792Y+024556
X+012234Y+024217
X+013418Y+023560
X+013992Y+024533
X+013935Y+025453
X+014835Y+025360
X+015315Y+024253
X+016365Y+024533
X+016681Y+025638
X+016128Y+025670
X+016386Y+026188
X+016392Y+027150
X+016681Y+027776
X+017315Y+027940
X+017315Y+028253
X+017263Y+028617
X+017346Y+029023
X+017229Y+029350
X+016771Y+029106
X+015545Y+029106
X+014512Y+028619
X+014546Y+027881
X+014251Y+027702
X+013980Y+028030
X+014006Y+029465
X+014628Y+030440
X+015290Y+030573
X+015815Y+030951
X+016003Y+031440
X+016392Y+031444
X+016823Y+031485
X+017128Y+031628
X+017253Y+030940
X+018316Y+030702
X+018628Y+030253
X+018809Y+029815
X+019167Y+030818
X+018878Y+031315
X+018504Y+031956
X+019212Y+032493
X+019211Y+033783
X+018399Y+033742
X+017745Y+034178
X+017403Y+034980
X+016470Y+034985
X+016472Y+035387
X+015849Y+035146
X+014679Y+035310
X+013856Y+035430
X+014008Y+036274
X+014509Y+036333
X+014256Y+037559
X+013530Y+037641
X+013175Y+036523
X+012921Y+036202
X+012939Y+035779
X+012427Y+035936
X+013955Y+033868
X+014256Y+033636
X+015318Y+033055
X+015714Y+033714
X+016154Y+033726
X+016483Y+033855
X+016751Y+033597
X+016667Y+033088
X+014997Y+031413
X+013122Y+031429
X+013253Y+030440
X+011832Y+025964
X+011628Y+021897
X+012332Y+021660
X+012809Y+021464
X+013323Y+021406
X+013998Y+021760
X+014382Y+021821
X+013992Y+022151
X+015389Y+023024
X+015718Y+023156
X+016514Y+022888
X+017215Y+023130
X+017565Y+023753
X+017590Y+024343
X+018597Y+024473
X+019077Y+025493
X+017590Y+025770
X+018809Y+027720
X+018503Y+028315
X+018503Y+028690
X+018426Y+034826
X+018425Y+035404
X+016985Y+036689
X+016705Y+037910
X+016815Y+038844
X+016311Y+040325
X+018353Y+045821
X+018989Y+046534
X+010190Y+045690
X+006438Y+043451
X+005065Y+037940
X+005065Y+037440
X+005065Y+036940
X+005090Y+028512
X+005502Y+028182
X+004580Y+027770
X+005273Y+019642
X+004348Y+019393
X+004690Y+017878
X+006503Y+018940
X+007282Y+017053
X+006494Y+016440
X+006494Y+015540
X+007065Y+015541
X+006889Y+014913
X+007303Y+014232
X+007834Y+013984
X+008327Y+014225
X+008699Y+014876
X+009186Y+015362
X+008565Y+015567
X+007752Y+015532
X+009186Y+016354
X+008916Y+017210
X+009330Y+018798
X+010559Y+018798
X+010565Y+017503
X+011253Y+017503
X+011814Y+018080
X+012804Y+017790
X+012841Y+017188
X+012918Y+016527
X+012535Y+016026
X+012535Y+015242
X+012918Y+014832
X+012577Y+014169
X+011690Y+014128
X+011242Y+015123
X+010529Y+015030
X+010616Y+016748
X+012841Y+019137
X+013690Y+019374
X+014323Y+019426
X+014713Y+019472
X+014231Y+018843
X+014396Y+017388
X+014479Y+016335
X+014508Y+015529
X+015032Y+015664
X+015799Y+015603
X+016556Y+015669
X+017139Y+015534
X+016694Y+014929
X+016884Y+014578
X+016351Y+014081
X+015838Y+014082
X+015565Y+013690
X+015877Y+013328
X+016327Y+012689
X+016759Y+012278
X+017065Y+012690
X+017078Y+013328
X+017703Y+011959
X+017035Y+011352
X+016511Y+011559
X+017035Y+010694
X+016065Y+010190
X+016065Y+009440
X+016565Y+009440
X+015538Y+008870
X+014894Y+008765
X+015065Y+009440
X+014815Y+010190
X+014284Y+010279
X+013278Y+010544
X+012825Y+010120
X+012705Y+011049
X+012315Y+011422
X+012288Y+011853
X+012311Y+012253
X+013047Y+012281
X+013088Y+011831
X+013192Y+011358
X+014536Y+011425
X+015270Y+011585
X+014885Y+012360
X+015301Y+012738
X+015322Y+014134
X+014890Y+014815
X+017237Y+016616
X+016815Y+017190
X+015780Y+018448
X+016009Y+019134
X+015310Y+020643
X+015477Y+021145
X+015790Y+022119
X+016257Y+022041
X+016921Y+021827
X+017605Y+022470
X+018253Y+022190
X+018534Y+021738
X+019089Y+021060
X+018711Y+019111
X+018110Y+019076
X+017821Y+019480
X+018457Y+011365
X+019065Y+010440
X+018815Y+010190
X+018673Y+007944
X+019315Y+007940
X+019064Y+007315
X+018442Y+007153
X+017408Y+007277
X+016563Y+006856
X+016565Y+006190
X+017111Y+006158
X+016058Y+005968
X+015834Y+005201
X+015315Y+004690
X+015035Y+005250
X+014458Y+006190
X+013270Y+005896
X+012635Y+005909
X+012462Y+005290
X+011815Y+005440
X+011495Y+005805
X+010841Y+005734
X+010608Y+005331
X+010768Y+004556
X+011815Y+004690
X+012468Y+004568
X+012565Y+007690
X+013065Y+007940
X+014565Y+007940
X+015833Y+007207
X+015720Y+006856
X+017065Y+004690
X+016072Y+004282
X+018400Y+004988
X+011565Y+007690
X+010565Y+007690
X+009172Y+006251
X+009135Y+005326
X+008592Y+005522
X+007807Y+005358
X+007005Y+005434
X+006457Y+005274
X+006565Y+004940
X+006565Y+004440
X+007506Y+004276
X+008565Y+004690
X+007582Y+006312
X+007793Y+006856
X+007803Y+007335
X+007315Y+006940
X+007062Y+007326
X+006565Y+007690
X+006519Y+006272
X+004815Y+006690
X+004264Y+007348
X+004815Y+007690
X+005132Y+010654
X+004565Y+011190
X+005184Y+011450
X+004476Y+011937
X+004815Y+012690
X+006414Y+012510
X+006882Y+012099
X+007078Y+011562
X+006465Y+011528
X+006465Y+010539
X+007065Y+009940
X+007815Y+009940
X+008315Y+009940
X+009165Y+010507
X+009165Y+011508
X+008565Y+011571
X+008705Y+012076
X+008327Y+012663
X+008591Y+013146
X+009084Y+013395
X+008065Y+013440
X+007565Y+013440
X+007303Y+012634
X+005119Y+015043
X+008731Y+019904
X+010494Y+011440
X+010455Y+010680
X+011242Y+010384
X+011776Y+009437
X+008494Y+007523
X+007803Y+008423
T02
X+017950Y+017252G85X+017680Y+017252
X+017950Y+014002G85X+017680Y+014002
X+017950Y+013070G85X+017680Y+013070
X+017950Y+009820G85X+017680Y+009820
X+018605Y+008815
X+019275Y+008815
X+017950Y+007810G85X+017680Y+007810
X+017950Y+004560G85X+017680Y+004560
X+013950Y+004560G85X+013680Y+004560
X+013950Y+007810G85X+013680Y+007810
X+012900Y+008815
X+012230Y+008815
X+011338Y+008815
X+010668Y+008815
X+009950Y+009820G85X+009680Y+009820
X+009950Y+007810G85X+009680Y+007810
X+009950Y+004560G85X+009680Y+004560
X+005950Y+004560G85X+005680Y+004560
X+005950Y+007810G85X+005680Y+007810
X+005065Y+008815
X+004395Y+008815
X+005950Y+009820G85X+005680Y+009820
X+005950Y+013070G85X+005680Y+013070
X+005950Y+014002G85X+005680Y+014002
X+005950Y+017252G85X+005680Y+017252
X+009950Y+017252G85X+009680Y+017252
X+009950Y+014002G85X+009680Y+014002
X+009950Y+013070G85X+009680Y+013070
X+013950Y+013070G85X+013680Y+013070
X+013950Y+014002G85X+013680Y+014002
X+013950Y+017252G85X+013680Y+017252
X+013950Y+009820G85X+013680Y+009820
T03
X+011815Y+023690
X+010815Y+023690
X+012815Y+023690
X+012815Y+028440
X+011815Y+028440
X+010815Y+028440
X+010815Y+033190
X+011815Y+033190
X+012815Y+033190
T04
X+010858Y+042851
X+010858Y+041851
X+010858Y+040851
T05
X+008795Y+023865
X+007815Y+023862
X+006835Y+023865
X+010927Y+022968
X+012703Y+022972
X+012703Y+025162
X+010931Y+025159
X+010927Y+027718
X+012703Y+027722
X+012703Y+029912
X+010931Y+029909
X+008795Y+029865
X+007815Y+029862
X+006835Y+029865
X+010927Y+032468
X+012703Y+032472
X+014835Y+029865
X+015815Y+029862
X+016795Y+029865
X+016795Y+023865
X+015815Y+023862
X+014835Y+023865
X+012703Y+020412
X+010931Y+020409
X+008795Y+017865
X+007815Y+017862
X+006835Y+017865
X+014835Y+017865
X+015815Y+017862
X+016795Y+017865
X+016795Y+035865
X+015815Y+035862
X+014835Y+035865
X+014835Y+041865
X+015815Y+041862
X+016795Y+041865
X+008795Y+041865
X+007815Y+041862
X+006835Y+041865
X+006835Y+035865
X+007815Y+035862
X+008795Y+035865
T06
X+017815Y+018252
X+013815Y+018252
X+009815Y+018252
X+005815Y+018252
X+005815Y+008820
X+005815Y+008810
X+009815Y+008810
X+009815Y+008820
X+013815Y+008820
X+013815Y+008810
X+017815Y+008810
X+017815Y+008820
X+019144Y+036629
X+019144Y+037629
X+019106Y+040425
X+019106Y+041425
X+019106Y+042425
X+019106Y+043425
X+005611Y+043829
X+004611Y+043829
X+004611Y+042829
X+004611Y+041829
X+005611Y+041829
X+005611Y+042829
X+005611Y+040829
X+004611Y+040829
X+004611Y+039829
X+005611Y+039829
T07
X+005945Y+026815
X+009685Y+026815
X+013945Y+026815
X+017685Y+026815
X+017685Y+020815
X+013945Y+020815
X+009685Y+020815
X+005945Y+020815
X+005945Y+032815
X+009685Y+032815
X+013945Y+032815
X+017685Y+032815
X+017685Y+038815
X+013945Y+038815
X+009685Y+038815
X+005945Y+038815
X+005945Y+044815
X+009685Y+044815
X+013945Y+044815
X+017685Y+044815
T08
X+011815Y+045440
T00
M30
