G04 DipTrace 3.3.0.0*
G04 uTidesII.GTS*
%MOIN*%
G04 #@! TF.FileFunction,Soldermask,Top*
G04 #@! TF.Part,Single*
%AMOUTLINE1*
4,1,4,
-0.023135,0.010385,
-0.010385,0.023135,
0.023135,-0.010385,
0.010385,-0.023134,
-0.023135,0.010385,
0*%
%AMOUTLINE4*
4,1,4,
-0.023135,-0.010385,
0.010385,0.023135,
0.023135,0.010385,
-0.010385,-0.023134,
-0.023135,-0.010385,
0*%
%AMOUTLINE7*
4,1,8,
0.042016,0.017404,
0.017404,0.042016,
-0.017404,0.042016,
-0.042016,0.017404,
-0.042016,-0.017404,
-0.017404,-0.042016,
0.017404,-0.042016,
0.042016,-0.017404,
0.042016,0.017404,
0*%
%ADD12C,0.001*%
%ADD49C,0.068367*%
%ADD50C,0.059055*%
%ADD69C,0.11811*%
%ADD78R,0.031654X0.051339*%
%ADD80C,0.077031*%
%ADD82O,0.108031X0.145827*%
%ADD84C,0.108031*%
%ADD86O,0.108031X0.143031*%
%ADD88O,0.068031X0.083031*%
%ADD90R,0.06315X0.082835*%
%ADD92R,0.048031X0.078031*%
%ADD94C,0.055591*%
%ADD96R,0.035591X0.041496*%
%ADD98R,0.041496X0.035591*%
%ADD100R,0.043465X0.057244*%
%ADD102C,0.082031*%
%ADD104R,0.082031X0.082031*%
%ADD110C,0.073031*%
%ADD112O,0.078898X0.086772*%
%ADD114R,0.035591X0.047402*%
%ADD116R,0.086772X0.086772*%
%ADD122R,0.022031X0.064031*%
%ADD124R,0.021811X0.047402*%
%ADD128R,0.047402X0.094646*%
%ADD130R,0.047402X0.06315*%
%ADD132R,0.086772X0.067087*%
%ADD134R,0.06315X0.094646*%
%ADD136R,0.078898X0.071024*%
%ADD138R,0.071024X0.078898*%
%ADD140R,0.067087X0.086772*%
%ADD142R,0.047402X0.051339*%
%ADD144R,0.051339X0.047402*%
%ADD150OUTLINE1*%
%ADD153OUTLINE4*%
%ADD156OUTLINE7*%
%FSLAX26Y26*%
G04*
G70*
G90*
G75*
G01*
G04 TopMask*
%LPD*%
D144*
X1150587Y3901576D3*
X1083658D3*
D142*
X1735018Y3987049D3*
Y4053979D3*
D144*
X999203Y3455543D3*
X932274D3*
X760833Y4096839D3*
X693904D3*
D142*
X640110Y3445608D3*
Y3512538D3*
D144*
X1724438Y3470274D3*
X1791367D3*
D142*
X934223Y4076745D3*
Y4009816D3*
D144*
X904603Y3663839D3*
X837674D3*
D140*
X565372Y3712582D3*
Y3610220D3*
X496169Y3372997D3*
Y3475359D3*
D144*
X694561Y3755276D3*
X761490D3*
X690059Y3665044D3*
X756988D3*
X1357467Y3439594D3*
X1424396D3*
X1245417Y3388355D3*
X1312346D3*
X1221087Y3900908D3*
X1288017D3*
X932580Y3386904D3*
X999509D3*
X1435853Y3142800D3*
X1368923D3*
X1744024Y3162775D3*
X1810954D3*
D138*
X981524Y4619024D3*
X871288D3*
D136*
X1900400Y4578038D3*
Y4467801D3*
D142*
X1894549Y1890979D3*
Y1824049D3*
D144*
X792254Y2468363D3*
X859183D3*
X742712Y3517640D3*
X809641D3*
D134*
X1821090Y2284173D3*
Y2410157D3*
D138*
X1619717Y2793736D3*
X1509481D3*
D134*
X1805211Y2981517D3*
Y2855532D3*
D144*
X1813257Y1549564D3*
X1746328D3*
X548060Y1144024D3*
X614989D3*
D132*
X1135868Y3150417D3*
X1238230D3*
D142*
X779447Y1583980D3*
Y1650909D3*
D144*
X1811633Y1136532D3*
X1744704D3*
X548060Y1569024D3*
X614989D3*
X712034Y483032D3*
X778963D3*
X1655580Y474528D3*
X1588650D3*
X789595Y2894024D3*
X856524D3*
X1353472Y1138842D3*
X1420401D3*
X1806665Y627349D3*
X1739736D3*
X1414989Y619024D3*
X1348060D3*
X948060D3*
X1014989D3*
X614989D3*
X548060D3*
X1014989Y1569024D3*
X948060D3*
X738507Y2246473D3*
X805437D3*
D142*
X1575484Y1595885D3*
Y1662814D3*
D144*
X806524Y1894024D3*
X739595D3*
X782354Y4279292D3*
X715425D3*
X1353116Y1557321D3*
X1420045D3*
X1014989Y1144024D3*
X948060D3*
X811045Y885774D3*
X744116D3*
X1581797Y873309D3*
X1648727D3*
D132*
X1128371Y1913723D3*
X1230733D3*
D142*
X478696Y1906303D3*
Y1839374D3*
X586719Y2291623D3*
Y2224694D3*
D144*
X921265Y3138001D3*
X988194D3*
X1831461Y3577850D3*
X1764532D3*
D142*
X986843Y3048459D3*
Y2981530D3*
D144*
X724572Y3064282D3*
X657643D3*
D130*
X1181524Y1772729D3*
X1218926Y1686115D3*
X1144123D3*
D144*
X448060Y1394024D3*
X514989D3*
X448060Y1319024D3*
X514989D3*
X1139989Y1344024D3*
X1073060D3*
X1139989Y1269024D3*
X1073060D3*
X1914989Y1394024D3*
X1848060D3*
X1223060Y1344024D3*
X1289989D3*
X1914989Y1319024D3*
X1848060D3*
X1223060Y1269024D3*
X1289989D3*
D128*
X1657845Y4545990D3*
X1557845D3*
Y4321187D3*
X1657845D3*
D150*
X1144337Y3833771D3*
X1130418Y3819853D3*
X1116498Y3805933D3*
X1102578Y3792014D3*
X1088660Y3778094D3*
X1074740Y3764174D3*
X1060821Y3750255D3*
X1046901Y3736335D3*
X1032981Y3722417D3*
X1019063Y3708497D3*
X1005143Y3694577D3*
X991224Y3680658D3*
D153*
Y3597141D3*
X1005143Y3583223D3*
X1019063Y3569303D3*
X1032981Y3555383D3*
X1046901Y3541464D3*
X1060821Y3527544D3*
X1074740Y3513626D3*
X1088660Y3499706D3*
X1102578Y3485786D3*
X1116498Y3471867D3*
X1130418Y3457947D3*
X1144337Y3444028D3*
D150*
X1227854D3*
X1241772Y3457947D3*
X1255692Y3471867D3*
X1269612Y3485786D3*
X1283531Y3499706D3*
X1297451Y3513626D3*
X1311370Y3527544D3*
X1325290Y3541464D3*
X1339209Y3555383D3*
X1353128Y3569303D3*
X1367048Y3583223D3*
X1380967Y3597141D3*
D153*
Y3680658D3*
X1367048Y3694577D3*
X1353128Y3708497D3*
X1339209Y3722417D3*
X1325290Y3736335D3*
X1311370Y3750255D3*
X1297451Y3764174D3*
X1283531Y3778094D3*
X1269612Y3792014D3*
X1255692Y3805933D3*
X1241772Y3819853D3*
X1227854Y3833771D3*
D124*
X681524Y3144024D3*
X707115D3*
X732706D3*
X758296D3*
X783887D3*
X809477D3*
X835068D3*
Y3366465D3*
X809477D3*
X783887D3*
X758296D3*
X732706D3*
X707115D3*
X681524D3*
X860658D3*
Y3144024D3*
D156*
X1085787Y4285077D3*
Y4185077D3*
Y4085077D3*
D122*
X1494334Y3195559D3*
X1520333D3*
X1546333D3*
X1571333D3*
X1597334D3*
X1622333D3*
X1648333D3*
X1674333D3*
Y3419559D3*
X1648333D3*
X1622333D3*
X1597334D3*
X1571333D3*
X1546333D3*
X1520333D3*
X1494334D3*
G36*
X1488445Y2475685D2*
X1529784D1*
Y2537696D1*
X1488445D1*
Y2475685D1*
G37*
G36*
X1606548D2*
X1647887D1*
Y2537696D1*
X1606548D1*
Y2475685D1*
G37*
G36*
X1547506D2*
X1588827D1*
Y2537696D1*
X1547506D1*
Y2475685D1*
G37*
D116*
X1568166Y2631944D3*
D124*
X858296Y1456024D3*
X832706D3*
X807115D3*
X781524D3*
X755934D3*
X730343D3*
X704753D3*
X858296Y1232824D3*
X832706Y1232024D3*
X807115D3*
X781524D3*
X755934D3*
X730343D3*
X704753D3*
X1658296Y1456024D3*
X1632706D3*
X1607115D3*
X1581524D3*
X1555934D3*
X1530343D3*
X1504753D3*
X1658296Y1232824D3*
X1632706Y1232024D3*
X1607115D3*
X1581524D3*
X1555934D3*
X1530343D3*
X1504753D3*
X858296Y806024D3*
X832706D3*
X807115D3*
X781524D3*
X755934D3*
X730343D3*
X704753D3*
X858296Y582824D3*
X832706Y582024D3*
X807115D3*
X781524D3*
X755934D3*
X730343D3*
X704753D3*
X1658296Y781024D3*
X1632706D3*
X1607115D3*
X1581524D3*
X1555934D3*
X1530343D3*
X1504753D3*
X1658296Y557824D3*
X1632706Y557024D3*
X1607115D3*
X1581524D3*
X1555934D3*
X1530343D3*
X1504753D3*
D114*
X767242Y2017024D3*
X729841Y2103639D3*
X804644D3*
D124*
X1653040Y2171200D3*
X1627450D3*
X1601859D3*
X1576269D3*
X1550678D3*
X1525087D3*
X1499497D3*
X1653040Y1948000D3*
X1627450Y1947200D3*
X1601859D3*
X1576269D3*
X1550678D3*
X1525087D3*
X1499497D3*
D112*
X1781524Y1725232D3*
Y1400224D3*
D110*
Y1825223D3*
D112*
X1381524Y1725232D3*
Y1400224D3*
D110*
Y1825223D3*
D112*
X981524Y982017D3*
Y1307024D3*
D110*
Y882026D3*
D112*
Y1725232D3*
Y1400224D3*
D110*
Y1825223D3*
D112*
X581524Y1725232D3*
Y1400224D3*
D110*
Y1825223D3*
D112*
Y982017D3*
Y1307024D3*
D110*
Y882026D3*
D112*
X1781524Y982017D3*
Y1307024D3*
D110*
Y882026D3*
D112*
X1381524Y982017D3*
Y1307024D3*
D110*
Y882026D3*
D112*
X1781524Y781032D3*
Y456024D3*
D110*
Y881023D3*
D112*
X1381524Y781032D3*
Y456024D3*
D110*
Y881023D3*
D112*
X981524Y781032D3*
Y456024D3*
D110*
Y881023D3*
D112*
X581524Y781032D3*
Y456024D3*
D110*
Y881023D3*
D49*
X461156Y4382946D3*
D50*
X561156D3*
D49*
X461156Y4282946D3*
X561156D3*
X461156Y4182946D3*
X561156D3*
X461156Y4082946D3*
X561156D3*
X461156Y3982946D3*
D50*
X561156D3*
D104*
X1910627Y4342557D3*
D102*
Y4242557D3*
Y4142557D3*
Y4042557D3*
X1914419Y3762874D3*
Y3662874D3*
D100*
X1486586Y4633830D3*
X1411783D3*
D98*
X1834517Y2520064D3*
X1897509D3*
X1700762Y2517898D3*
X1763754D3*
D96*
X1918679Y3280746D3*
Y3343738D3*
D94*
X1181524Y2369024D3*
X1081524D3*
X1281524D3*
X1181524Y3319024D3*
X1081524D3*
X1281524D3*
X1181524Y2844024D3*
X1081524D3*
X1281524D3*
D92*
X1927524Y881524D3*
X1860524D3*
X1223024D3*
X1290024D3*
X1133774D3*
X1066774D3*
X506524D3*
X439524D3*
D90*
X789877Y3839003D3*
Y4012232D3*
X695389D3*
Y3839003D3*
D144*
X1411519Y2497968D3*
X1344590D3*
X1569115Y3755215D3*
X1502186D3*
X1568593Y3959375D3*
X1635522D3*
X1804913Y3756405D3*
X1737984D3*
X1804918Y3674145D3*
X1737989D3*
X1287464Y2424532D3*
X1354393D3*
X1572783Y3675427D3*
X1505854D3*
D142*
X872477Y3845833D3*
Y3912762D3*
D144*
X928276Y3750498D3*
X861347D3*
X1401746Y2827434D3*
X1334817D3*
D88*
X879524Y2386524D3*
X781524Y2386249D3*
X683524Y2386524D3*
D86*
X594524Y2681524D3*
X968524D3*
D88*
X879524Y3586524D3*
X781524Y3586249D3*
X683524Y3586524D3*
D84*
X594524Y3881524D3*
D82*
X968524D3*
D144*
X1399944Y2918267D3*
X1333015D3*
X1663271Y3071549D3*
X1730200D3*
D142*
X1892116Y2032877D3*
Y1965948D3*
D144*
X1745220Y1469024D3*
X1812149D3*
X614989Y1219024D3*
X548060D3*
X1742521Y1635644D3*
X1809450D3*
X614989Y1069024D3*
X548060D3*
D142*
X1660956Y1599480D3*
Y1666409D3*
X706524Y1127489D3*
Y1060560D3*
D88*
X879524Y2986524D3*
X781524Y2986249D3*
X683524Y2986524D3*
D86*
X594524Y3281524D3*
X968524D3*
D88*
X879524Y1786524D3*
X781524Y1786249D3*
X683524Y1786524D3*
D86*
X594524Y2081524D3*
X968524D3*
D88*
X879524Y4186524D3*
X781524Y4186249D3*
X683524Y4186524D3*
D84*
X594524Y4481524D3*
D82*
X968524D3*
D142*
X706524Y1585560D3*
Y1652489D3*
X1656524Y1127489D3*
Y1060560D3*
D144*
X614989Y1644024D3*
X548060D3*
X1750557Y1056538D3*
X1817486D3*
X1748060Y1219024D3*
X1814989D3*
X614989Y1469024D3*
X548060D3*
D142*
X1906393Y626429D3*
Y693358D3*
D144*
X1284043Y618479D3*
X1217114D3*
X1082027D3*
X1148956D3*
X614989Y694024D3*
X548060D3*
X1421225Y1219024D3*
X1354296D3*
X948060Y1469024D3*
X1014989D3*
X1423241Y1054377D3*
X1356312D3*
X1348060Y544024D3*
X1414989D3*
X1014989D3*
X948060D3*
X548060D3*
X614989D3*
X948060Y1644024D3*
X1014989D3*
X1739736Y552349D3*
X1806665D3*
D142*
X856524Y1585560D3*
Y1652489D3*
X1506524Y1127489D3*
Y1060560D3*
D144*
X1281524Y460560D3*
Y527489D3*
X806577Y2158081D3*
X739648D3*
X1906524Y460560D3*
Y527489D3*
X1106524D3*
Y460560D3*
X481524D3*
Y527489D3*
D142*
X856524Y1127489D3*
Y1060560D3*
X1498769Y1596156D3*
Y1663085D3*
D144*
X1412772Y1636753D3*
X1345843D3*
X948060Y1069024D3*
X1014989D3*
X948060Y1219024D3*
X1014989D3*
X1421153Y1477888D3*
X1354224D3*
D88*
X1679524Y1786524D3*
X1581524Y1786249D3*
X1483524Y1786524D3*
D86*
X1394524Y2081524D3*
X1768524D3*
D88*
X1679524Y2386524D3*
X1581524Y2386249D3*
X1483524Y2386524D3*
D86*
X1394524Y2681524D3*
X1768524D3*
D88*
X1679524Y2986524D3*
X1581524Y2986249D3*
X1483524Y2986524D3*
D86*
X1394524Y3281524D3*
X1768524D3*
D88*
X1679524Y3586524D3*
X1581524Y3586249D3*
X1483524Y3586524D3*
D86*
X1394524Y3881524D3*
X1768524D3*
D88*
X1679524Y4186524D3*
X1581524Y4186249D3*
X1483524Y4186524D3*
D86*
X1394524Y4481524D3*
X1768524D3*
D144*
X1148060Y1597729D3*
X1214989D3*
X1148060Y1447729D3*
X1214989D3*
X1148060Y1522729D3*
X1214989D3*
X1858776Y977479D3*
X1925706D3*
X1288464Y982141D3*
X1221535D3*
X1068056Y981182D3*
X1134985D3*
X442448Y981165D3*
X509377D3*
X1622501Y2235061D3*
X1689430D3*
X1520755Y2233421D3*
X1453826D3*
X1535912Y1876649D3*
X1468982D3*
X1625574Y1871713D3*
X1692503D3*
D142*
X1915612Y2829471D3*
Y2896400D3*
D80*
X1270318Y2991217D3*
X1093152Y2990925D3*
X1092730Y3246830D3*
X1270313Y3247171D3*
X1270318Y2041217D3*
X1093152Y2040925D3*
X1092730Y2296830D3*
X1270313Y2297171D3*
X1270318Y2516217D3*
X1093152Y2515925D3*
X1092730Y2771830D3*
X1270313Y2772171D3*
D78*
X1930745Y2731190D3*
X1893343D3*
X1855942D3*
Y2624891D3*
X1930745D3*
D69*
X1181524Y4544024D3*
X744391Y2717074D2*
D12*
X751391D1*
X769391D2*
X778391D1*
X818391D2*
X828391D1*
X744391Y2716074D2*
X751391D1*
X769353D2*
X778890D1*
X818236D2*
X828391D1*
X744391Y2715074D2*
X751391D1*
X769224D2*
X779306D1*
X817984D2*
X828391D1*
X744391Y2714074D2*
X751391D1*
X768985D2*
X779695D1*
X817690D2*
X828391D1*
X744391Y2713074D2*
X751391D1*
X768728D2*
X780051D1*
X817388D2*
X828391D1*
X744391Y2712074D2*
X751391D1*
X768554D2*
X780379D1*
X817051D2*
X828391D1*
X744391Y2711074D2*
X751391D1*
X768461D2*
X780725D1*
X816717D2*
X828395D1*
X744391Y2710074D2*
X751391D1*
X768419D2*
X781062D1*
X816398D2*
X828430D1*
X744391Y2709074D2*
X751391D1*
X768401D2*
X781383D1*
X816059D2*
X828557D1*
X744391Y2708074D2*
X751391D1*
X768394D2*
X781726D1*
X815754D2*
X828797D1*
X744391Y2707074D2*
X751391D1*
X768392D2*
X782063D1*
X815526D2*
X829053D1*
X744391Y2706074D2*
X751391D1*
X768391D2*
X782383D1*
X815298D2*
X829227D1*
X744391Y2705074D2*
X751391D1*
X768391D2*
X782722D1*
X815010D2*
X829320D1*
X744391Y2704074D2*
X751391D1*
X768391D2*
X783028D1*
X814700D2*
X829363D1*
X744391Y2703074D2*
X751391D1*
X768391D2*
X783256D1*
X814391D2*
X829380D1*
X744391Y2702074D2*
X751391D1*
X768387D2*
X783483D1*
X814052D2*
X829387D1*
X744391Y2701074D2*
X751391D1*
X768352D2*
X774391D1*
X776198D2*
X783771D1*
X813718D2*
X829389D1*
X744391Y2700074D2*
X751391D1*
X768224D2*
X774391D1*
X776818D2*
X784081D1*
X813398D2*
X820353D1*
X822194D2*
X829390D1*
X744391Y2699074D2*
X751391D1*
X767985D2*
X774391D1*
X777280D2*
X784390D1*
X813055D2*
X820224D1*
X822779D2*
X829390D1*
X744391Y2698074D2*
X751391D1*
X767728D2*
X774391D1*
X777686D2*
X784729D1*
X812718D2*
X819981D1*
X823114D2*
X829394D1*
X744391Y2697074D2*
X751391D1*
X767554D2*
X774391D1*
X778048D2*
X785064D1*
X812398D2*
X819689D1*
X823276D2*
X829430D1*
X744391Y2696074D2*
X751391D1*
X767461D2*
X774391D1*
X778378D2*
X785383D1*
X812059D2*
X819387D1*
X823346D2*
X829557D1*
X744391Y2695074D2*
X751391D1*
X767419D2*
X774391D1*
X778724D2*
X785726D1*
X811754D2*
X819051D1*
X823374D2*
X829797D1*
X744391Y2694074D2*
X751391D1*
X767401D2*
X774391D1*
X779062D2*
X786063D1*
X811526D2*
X818717D1*
X823385D2*
X830053D1*
X744391Y2693074D2*
X751391D1*
X767394D2*
X774391D1*
X779383D2*
X786383D1*
X811298D2*
X818398D1*
X823389D2*
X830227D1*
X744391Y2692074D2*
X751391D1*
X767392D2*
X774391D1*
X779726D2*
X786726D1*
X811010D2*
X818055D1*
X823390D2*
X830320D1*
X744391Y2691074D2*
X751391D1*
X767391D2*
X774391D1*
X780063D2*
X787063D1*
X810700D2*
X817718D1*
X823390D2*
X830363D1*
X744391Y2690074D2*
X751391D1*
X767391D2*
X774387D1*
X780383D2*
X787383D1*
X810391D2*
X817398D1*
X823394D2*
X830380D1*
X744391Y2689074D2*
X751391D1*
X767391D2*
X774352D1*
X780722D2*
X787726D1*
X810052D2*
X817059D1*
X823430D2*
X830387D1*
X744391Y2688074D2*
X751391D1*
X767391D2*
X774224D1*
X781028D2*
X788063D1*
X809718D2*
X816754D1*
X823557D2*
X830389D1*
X744391Y2687074D2*
X751391D1*
X767391D2*
X773985D1*
X781256D2*
X788383D1*
X809398D2*
X816526D1*
X823797D2*
X830390D1*
X744391Y2686074D2*
X751391D1*
X767387D2*
X773728D1*
X781483D2*
X788726D1*
X809055D2*
X816298D1*
X824053D2*
X830390D1*
X744391Y2685074D2*
X751391D1*
X767352D2*
X773554D1*
X781771D2*
X789063D1*
X808718D2*
X816010D1*
X824227D2*
X830394D1*
X744391Y2684074D2*
X751391D1*
X767224D2*
X773461D1*
X782081D2*
X789383D1*
X808398D2*
X815700D1*
X824320D2*
X830430D1*
X744391Y2683074D2*
X751391D1*
X766985D2*
X773419D1*
X782390D2*
X789726D1*
X808055D2*
X815391D1*
X824363D2*
X830557D1*
X744391Y2682074D2*
X751391D1*
X766728D2*
X773401D1*
X782729D2*
X790063D1*
X807719D2*
X815052D1*
X824380D2*
X830797D1*
X744391Y2681074D2*
X751391D1*
X766554D2*
X773394D1*
X783064D2*
X790383D1*
X807398D2*
X814718D1*
X824387D2*
X831053D1*
X744391Y2680074D2*
X751391D1*
X766461D2*
X773392D1*
X783383D2*
X790726D1*
X807059D2*
X814398D1*
X824389D2*
X831227D1*
X744391Y2679074D2*
X751391D1*
X766419D2*
X773391D1*
X783726D2*
X791063D1*
X806754D2*
X814055D1*
X824390D2*
X831320D1*
X744391Y2678074D2*
X751391D1*
X766401D2*
X773391D1*
X784063D2*
X791383D1*
X806526D2*
X813718D1*
X824390D2*
X831363D1*
X744391Y2677074D2*
X751391D1*
X766394D2*
X773391D1*
X784383D2*
X791722D1*
X806298D2*
X813398D1*
X824391D2*
X831380D1*
X744391Y2676074D2*
X751391D1*
X766392D2*
X773391D1*
X784726D2*
X792028D1*
X806010D2*
X813055D1*
X824394D2*
X831387D1*
X744391Y2675074D2*
X751391D1*
X766391D2*
X773387D1*
X785063D2*
X792256D1*
X805700D2*
X812719D1*
X824430D2*
X831389D1*
X744391Y2674074D2*
X751391D1*
X766391D2*
X773352D1*
X785383D2*
X792483D1*
X805391D2*
X812398D1*
X824557D2*
X831390D1*
X744391Y2673074D2*
X751391D1*
X766391D2*
X773224D1*
X785726D2*
X792771D1*
X805052D2*
X812059D1*
X824797D2*
X831390D1*
X744391Y2672074D2*
X751391D1*
X766391D2*
X772985D1*
X786063D2*
X793081D1*
X804718D2*
X811754D1*
X825053D2*
X831394D1*
X744391Y2671074D2*
X751391D1*
X766387D2*
X772728D1*
X786383D2*
X793390D1*
X804398D2*
X811526D1*
X825227D2*
X831430D1*
X744391Y2670074D2*
X751391D1*
X766352D2*
X772554D1*
X786726D2*
X793729D1*
X804055D2*
X811298D1*
X825320D2*
X831557D1*
X744391Y2669074D2*
X751391D1*
X766224D2*
X772461D1*
X787063D2*
X794064D1*
X803718D2*
X811010D1*
X825363D2*
X831797D1*
X744391Y2668074D2*
X751391D1*
X765985D2*
X772419D1*
X787383D2*
X794383D1*
X803398D2*
X810700D1*
X825380D2*
X832053D1*
X744391Y2667074D2*
X751391D1*
X765728D2*
X772401D1*
X787726D2*
X794726D1*
X803059D2*
X810391D1*
X825387D2*
X832227D1*
X744391Y2666074D2*
X751391D1*
X765554D2*
X772394D1*
X788063D2*
X795063D1*
X802754D2*
X810052D1*
X825389D2*
X832320D1*
X744391Y2665074D2*
X751391D1*
X765461D2*
X772392D1*
X788383D2*
X795383D1*
X802526D2*
X809718D1*
X825390D2*
X832363D1*
X744391Y2664074D2*
X751391D1*
X765419D2*
X772391D1*
X788726D2*
X795726D1*
X802298D2*
X809398D1*
X825390D2*
X832380D1*
X744391Y2663074D2*
X751391D1*
X765401D2*
X772391D1*
X789063D2*
X796063D1*
X802010D2*
X809055D1*
X825394D2*
X832387D1*
X744391Y2662074D2*
X751391D1*
X765394D2*
X772391D1*
X789383D2*
X796383D1*
X801700D2*
X808718D1*
X825430D2*
X832389D1*
X744391Y2661074D2*
X751391D1*
X765392D2*
X772391D1*
X789726D2*
X796726D1*
X801391D2*
X808398D1*
X825557D2*
X832390D1*
X744391Y2660074D2*
X751391D1*
X765391D2*
X772387D1*
X790063D2*
X797070D1*
X801052D2*
X808055D1*
X825797D2*
X832390D1*
X744391Y2659074D2*
X751391D1*
X765391D2*
X772352D1*
X790383D2*
X797468D1*
X800715D2*
X807719D1*
X826053D2*
X832394D1*
X744387Y2658074D2*
X751391D1*
X765391D2*
X772224D1*
X790726D2*
X797992D1*
X800367D2*
X807398D1*
X826227D2*
X832430D1*
X744352Y2657074D2*
X751387D1*
X765391D2*
X771985D1*
X791063D2*
X799120D1*
X799920D2*
X807055D1*
X826320D2*
X832557D1*
X744220Y2656074D2*
X751352D1*
X765387D2*
X771728D1*
X791383D2*
X806719D1*
X826363D2*
X832797D1*
X743946Y2655074D2*
X751224D1*
X765352D2*
X771554D1*
X791726D2*
X806398D1*
X826380D2*
X833053D1*
X743558Y2654074D2*
X750985D1*
X765224D2*
X771461D1*
X792063D2*
X806059D1*
X826387D2*
X833227D1*
X743097Y2653074D2*
X750724D1*
X764985D2*
X771419D1*
X792383D2*
X805754D1*
X826389D2*
X833320D1*
X742476Y2652074D2*
X750515D1*
X764728D2*
X771401D1*
X792722D2*
X805526D1*
X826390D2*
X833363D1*
X741637Y2651074D2*
X750291D1*
X764554D2*
X771394D1*
X793028D2*
X805298D1*
X826390D2*
X833380D1*
X738691Y2650074D2*
X749974D1*
X764461D2*
X771392D1*
X793256D2*
X805010D1*
X826394D2*
X833387D1*
X725391Y2649074D2*
X730391D1*
X734067D2*
X749568D1*
X764419D2*
X771391D1*
X793483D2*
X804700D1*
X826430D2*
X833389D1*
X725395Y2648074D2*
X749105D1*
X764401D2*
X771391D1*
X793771D2*
X804391D1*
X826557D2*
X833390D1*
X725437Y2647074D2*
X748548D1*
X764394D2*
X771391D1*
X794081D2*
X804052D1*
X826797D2*
X833390D1*
X725543Y2646074D2*
X747746D1*
X764392D2*
X771391D1*
X794391D2*
X803715D1*
X827053D2*
X833391D1*
X726096Y2645074D2*
X746452D1*
X764391D2*
X771391D1*
X794734D2*
X803367D1*
X827228D2*
X833391D1*
X727807Y2644074D2*
X744442D1*
X764391D2*
X771391D1*
X795077D2*
X802920D1*
X827326D2*
X833391D1*
X730347Y2643074D2*
X741639D1*
X764391D2*
X771391D1*
X795391D2*
X802391D1*
X827391D2*
X833391D1*
X733391Y2642074D2*
X738391D1*
X744391Y2717074D2*
Y2716074D1*
Y2715074D1*
Y2714074D1*
Y2713074D1*
Y2712074D1*
Y2711074D1*
Y2710074D1*
Y2709074D1*
Y2708074D1*
Y2707074D1*
Y2706074D1*
Y2705074D1*
Y2704074D1*
Y2703074D1*
Y2702074D1*
Y2701074D1*
Y2700074D1*
Y2699074D1*
Y2698074D1*
Y2697074D1*
Y2696074D1*
Y2695074D1*
Y2694074D1*
Y2693074D1*
Y2692074D1*
Y2691074D1*
Y2690074D1*
Y2689074D1*
Y2688074D1*
Y2687074D1*
Y2686074D1*
Y2685074D1*
Y2684074D1*
Y2683074D1*
Y2682074D1*
Y2681074D1*
Y2680074D1*
Y2679074D1*
Y2678074D1*
Y2677074D1*
Y2676074D1*
Y2675074D1*
Y2674074D1*
Y2673074D1*
Y2672074D1*
Y2671074D1*
Y2670074D1*
Y2669074D1*
Y2668074D1*
Y2667074D1*
Y2666074D1*
Y2665074D1*
Y2664074D1*
Y2663074D1*
Y2662074D1*
Y2661074D1*
Y2660074D1*
Y2659074D1*
X744387Y2658074D1*
X744352Y2657074D1*
X744220Y2656074D1*
X743946Y2655074D1*
X743558Y2654074D1*
X743097Y2653074D1*
X742476Y2652074D1*
X741637Y2651074D1*
X738691Y2650074D1*
X734067Y2649074D1*
X728391Y2648074D1*
X751391Y2717074D2*
Y2716074D1*
Y2715074D1*
Y2714074D1*
Y2713074D1*
Y2712074D1*
Y2711074D1*
Y2710074D1*
Y2709074D1*
Y2708074D1*
Y2707074D1*
Y2706074D1*
Y2705074D1*
Y2704074D1*
Y2703074D1*
Y2702074D1*
Y2701074D1*
Y2700074D1*
Y2699074D1*
Y2698074D1*
Y2697074D1*
Y2696074D1*
Y2695074D1*
Y2694074D1*
Y2693074D1*
Y2692074D1*
Y2691074D1*
Y2690074D1*
Y2689074D1*
Y2688074D1*
Y2687074D1*
Y2686074D1*
Y2685074D1*
Y2684074D1*
Y2683074D1*
Y2682074D1*
Y2681074D1*
Y2680074D1*
Y2679074D1*
Y2678074D1*
Y2677074D1*
Y2676074D1*
Y2675074D1*
Y2674074D1*
Y2673074D1*
Y2672074D1*
Y2671074D1*
Y2670074D1*
Y2669074D1*
Y2668074D1*
Y2667074D1*
Y2666074D1*
Y2665074D1*
Y2664074D1*
Y2663074D1*
Y2662074D1*
Y2661074D1*
Y2660074D1*
Y2659074D1*
Y2658074D1*
X751387Y2657074D1*
X751352Y2656074D1*
X751224Y2655074D1*
X750985Y2654074D1*
X750724Y2653074D1*
X750515Y2652074D1*
X750291Y2651074D1*
X749974Y2650074D1*
X749568Y2649074D1*
X749105Y2648074D1*
X748548Y2647074D1*
X747746Y2646074D1*
X746452Y2645074D1*
X744442Y2644074D1*
X741639Y2643074D1*
X738391Y2642074D1*
X769391Y2717074D2*
X769353Y2716074D1*
X769224Y2715074D1*
X768985Y2714074D1*
X768728Y2713074D1*
X768554Y2712074D1*
X768461Y2711074D1*
X768419Y2710074D1*
X768401Y2709074D1*
X768394Y2708074D1*
X768392Y2707074D1*
X768391Y2706074D1*
Y2705074D1*
Y2704074D1*
Y2703074D1*
X768387Y2702074D1*
X768352Y2701074D1*
X768224Y2700074D1*
X767985Y2699074D1*
X767728Y2698074D1*
X767554Y2697074D1*
X767461Y2696074D1*
X767419Y2695074D1*
X767401Y2694074D1*
X767394Y2693074D1*
X767392Y2692074D1*
X767391Y2691074D1*
Y2690074D1*
Y2689074D1*
Y2688074D1*
Y2687074D1*
X767387Y2686074D1*
X767352Y2685074D1*
X767224Y2684074D1*
X766985Y2683074D1*
X766728Y2682074D1*
X766554Y2681074D1*
X766461Y2680074D1*
X766419Y2679074D1*
X766401Y2678074D1*
X766394Y2677074D1*
X766392Y2676074D1*
X766391Y2675074D1*
Y2674074D1*
Y2673074D1*
Y2672074D1*
X766387Y2671074D1*
X766352Y2670074D1*
X766224Y2669074D1*
X765985Y2668074D1*
X765728Y2667074D1*
X765554Y2666074D1*
X765461Y2665074D1*
X765419Y2664074D1*
X765401Y2663074D1*
X765394Y2662074D1*
X765392Y2661074D1*
X765391Y2660074D1*
Y2659074D1*
Y2658074D1*
Y2657074D1*
X765387Y2656074D1*
X765352Y2655074D1*
X765224Y2654074D1*
X764985Y2653074D1*
X764728Y2652074D1*
X764554Y2651074D1*
X764461Y2650074D1*
X764419Y2649074D1*
X764401Y2648074D1*
X764394Y2647074D1*
X764392Y2646074D1*
X764391Y2645074D1*
Y2644074D1*
Y2643074D1*
X778391Y2717074D2*
X778890Y2716074D1*
X779306Y2715074D1*
X779695Y2714074D1*
X780051Y2713074D1*
X780379Y2712074D1*
X780725Y2711074D1*
X781062Y2710074D1*
X781383Y2709074D1*
X781726Y2708074D1*
X782063Y2707074D1*
X782383Y2706074D1*
X782722Y2705074D1*
X783028Y2704074D1*
X783256Y2703074D1*
X783483Y2702074D1*
X783771Y2701074D1*
X784081Y2700074D1*
X784390Y2699074D1*
X784729Y2698074D1*
X785064Y2697074D1*
X785383Y2696074D1*
X785726Y2695074D1*
X786063Y2694074D1*
X786383Y2693074D1*
X786726Y2692074D1*
X787063Y2691074D1*
X787383Y2690074D1*
X787726Y2689074D1*
X788063Y2688074D1*
X788383Y2687074D1*
X788726Y2686074D1*
X789063Y2685074D1*
X789383Y2684074D1*
X789726Y2683074D1*
X790063Y2682074D1*
X790383Y2681074D1*
X790726Y2680074D1*
X791063Y2679074D1*
X791383Y2678074D1*
X791722Y2677074D1*
X792028Y2676074D1*
X792256Y2675074D1*
X792483Y2674074D1*
X792771Y2673074D1*
X793081Y2672074D1*
X793390Y2671074D1*
X793729Y2670074D1*
X794064Y2669074D1*
X794383Y2668074D1*
X794726Y2667074D1*
X795063Y2666074D1*
X795383Y2665074D1*
X795726Y2664074D1*
X796063Y2663074D1*
X796383Y2662074D1*
X796726Y2661074D1*
X797070Y2660074D1*
X797468Y2659074D1*
X797992Y2658074D1*
X799120Y2657074D1*
X800391Y2656074D1*
X818391Y2717074D2*
X818236Y2716074D1*
X817984Y2715074D1*
X817690Y2714074D1*
X817388Y2713074D1*
X817051Y2712074D1*
X816717Y2711074D1*
X816398Y2710074D1*
X816059Y2709074D1*
X815754Y2708074D1*
X815526Y2707074D1*
X815298Y2706074D1*
X815010Y2705074D1*
X814700Y2704074D1*
X814391Y2703074D1*
X814052Y2702074D1*
X813718Y2701074D1*
X813398Y2700074D1*
X813055Y2699074D1*
X812718Y2698074D1*
X812398Y2697074D1*
X812059Y2696074D1*
X811754Y2695074D1*
X811526Y2694074D1*
X811298Y2693074D1*
X811010Y2692074D1*
X810700Y2691074D1*
X810391Y2690074D1*
X810052Y2689074D1*
X809718Y2688074D1*
X809398Y2687074D1*
X809055Y2686074D1*
X808718Y2685074D1*
X808398Y2684074D1*
X808055Y2683074D1*
X807719Y2682074D1*
X807398Y2681074D1*
X807059Y2680074D1*
X806754Y2679074D1*
X806526Y2678074D1*
X806298Y2677074D1*
X806010Y2676074D1*
X805700Y2675074D1*
X805391Y2674074D1*
X805052Y2673074D1*
X804718Y2672074D1*
X804398Y2671074D1*
X804055Y2670074D1*
X803718Y2669074D1*
X803398Y2668074D1*
X803059Y2667074D1*
X802754Y2666074D1*
X802526Y2665074D1*
X802298Y2664074D1*
X802010Y2663074D1*
X801700Y2662074D1*
X801391Y2661074D1*
X801052Y2660074D1*
X800715Y2659074D1*
X800367Y2658074D1*
X799920Y2657074D1*
X799391Y2656074D1*
X828391Y2717074D2*
Y2716074D1*
Y2715074D1*
Y2714074D1*
Y2713074D1*
Y2712074D1*
X828395Y2711074D1*
X828430Y2710074D1*
X828557Y2709074D1*
X828797Y2708074D1*
X829053Y2707074D1*
X829227Y2706074D1*
X829320Y2705074D1*
X829363Y2704074D1*
X829380Y2703074D1*
X829387Y2702074D1*
X829389Y2701074D1*
X829390Y2700074D1*
Y2699074D1*
X829394Y2698074D1*
X829430Y2697074D1*
X829557Y2696074D1*
X829797Y2695074D1*
X830053Y2694074D1*
X830227Y2693074D1*
X830320Y2692074D1*
X830363Y2691074D1*
X830380Y2690074D1*
X830387Y2689074D1*
X830389Y2688074D1*
X830390Y2687074D1*
Y2686074D1*
X830394Y2685074D1*
X830430Y2684074D1*
X830557Y2683074D1*
X830797Y2682074D1*
X831053Y2681074D1*
X831227Y2680074D1*
X831320Y2679074D1*
X831363Y2678074D1*
X831380Y2677074D1*
X831387Y2676074D1*
X831389Y2675074D1*
X831390Y2674074D1*
Y2673074D1*
X831394Y2672074D1*
X831430Y2671074D1*
X831557Y2670074D1*
X831797Y2669074D1*
X832053Y2668074D1*
X832227Y2667074D1*
X832320Y2666074D1*
X832363Y2665074D1*
X832380Y2664074D1*
X832387Y2663074D1*
X832389Y2662074D1*
X832390Y2661074D1*
Y2660074D1*
X832394Y2659074D1*
X832430Y2658074D1*
X832557Y2657074D1*
X832797Y2656074D1*
X833053Y2655074D1*
X833227Y2654074D1*
X833320Y2653074D1*
X833363Y2652074D1*
X833380Y2651074D1*
X833387Y2650074D1*
X833389Y2649074D1*
X833390Y2648074D1*
Y2647074D1*
X833391Y2646074D1*
Y2645074D1*
Y2644074D1*
Y2643074D1*
X774391Y2702074D2*
Y2701074D1*
Y2700074D1*
Y2699074D1*
Y2698074D1*
Y2697074D1*
Y2696074D1*
Y2695074D1*
Y2694074D1*
Y2693074D1*
Y2692074D1*
Y2691074D1*
X774387Y2690074D1*
X774352Y2689074D1*
X774224Y2688074D1*
X773985Y2687074D1*
X773728Y2686074D1*
X773554Y2685074D1*
X773461Y2684074D1*
X773419Y2683074D1*
X773401Y2682074D1*
X773394Y2681074D1*
X773392Y2680074D1*
X773391Y2679074D1*
Y2678074D1*
Y2677074D1*
Y2676074D1*
X773387Y2675074D1*
X773352Y2674074D1*
X773224Y2673074D1*
X772985Y2672074D1*
X772728Y2671074D1*
X772554Y2670074D1*
X772461Y2669074D1*
X772419Y2668074D1*
X772401Y2667074D1*
X772394Y2666074D1*
X772392Y2665074D1*
X772391Y2664074D1*
Y2663074D1*
Y2662074D1*
Y2661074D1*
X772387Y2660074D1*
X772352Y2659074D1*
X772224Y2658074D1*
X771985Y2657074D1*
X771728Y2656074D1*
X771554Y2655074D1*
X771461Y2654074D1*
X771419Y2653074D1*
X771401Y2652074D1*
X771394Y2651074D1*
X771392Y2650074D1*
X771391Y2649074D1*
Y2648074D1*
Y2647074D1*
Y2646074D1*
Y2645074D1*
Y2644074D1*
Y2643074D1*
X775391Y2702074D2*
X776198Y2701074D1*
X776818Y2700074D1*
X777280Y2699074D1*
X777686Y2698074D1*
X778048Y2697074D1*
X778378Y2696074D1*
X778724Y2695074D1*
X779062Y2694074D1*
X779383Y2693074D1*
X779726Y2692074D1*
X780063Y2691074D1*
X780383Y2690074D1*
X780722Y2689074D1*
X781028Y2688074D1*
X781256Y2687074D1*
X781483Y2686074D1*
X781771Y2685074D1*
X782081Y2684074D1*
X782390Y2683074D1*
X782729Y2682074D1*
X783064Y2681074D1*
X783383Y2680074D1*
X783726Y2679074D1*
X784063Y2678074D1*
X784383Y2677074D1*
X784726Y2676074D1*
X785063Y2675074D1*
X785383Y2674074D1*
X785726Y2673074D1*
X786063Y2672074D1*
X786383Y2671074D1*
X786726Y2670074D1*
X787063Y2669074D1*
X787383Y2668074D1*
X787726Y2667074D1*
X788063Y2666074D1*
X788383Y2665074D1*
X788726Y2664074D1*
X789063Y2663074D1*
X789383Y2662074D1*
X789726Y2661074D1*
X790063Y2660074D1*
X790383Y2659074D1*
X790726Y2658074D1*
X791063Y2657074D1*
X791383Y2656074D1*
X791726Y2655074D1*
X792063Y2654074D1*
X792383Y2653074D1*
X792722Y2652074D1*
X793028Y2651074D1*
X793256Y2650074D1*
X793483Y2649074D1*
X793771Y2648074D1*
X794081Y2647074D1*
X794391Y2646074D1*
X794734Y2645074D1*
X795077Y2644074D1*
X795391Y2643074D1*
X820391Y2701074D2*
X820353Y2700074D1*
X820224Y2699074D1*
X819981Y2698074D1*
X819689Y2697074D1*
X819387Y2696074D1*
X819051Y2695074D1*
X818717Y2694074D1*
X818398Y2693074D1*
X818055Y2692074D1*
X817718Y2691074D1*
X817398Y2690074D1*
X817059Y2689074D1*
X816754Y2688074D1*
X816526Y2687074D1*
X816298Y2686074D1*
X816010Y2685074D1*
X815700Y2684074D1*
X815391Y2683074D1*
X815052Y2682074D1*
X814718Y2681074D1*
X814398Y2680074D1*
X814055Y2679074D1*
X813718Y2678074D1*
X813398Y2677074D1*
X813055Y2676074D1*
X812719Y2675074D1*
X812398Y2674074D1*
X812059Y2673074D1*
X811754Y2672074D1*
X811526Y2671074D1*
X811298Y2670074D1*
X811010Y2669074D1*
X810700Y2668074D1*
X810391Y2667074D1*
X810052Y2666074D1*
X809718Y2665074D1*
X809398Y2664074D1*
X809055Y2663074D1*
X808718Y2662074D1*
X808398Y2661074D1*
X808055Y2660074D1*
X807719Y2659074D1*
X807398Y2658074D1*
X807055Y2657074D1*
X806719Y2656074D1*
X806398Y2655074D1*
X806059Y2654074D1*
X805754Y2653074D1*
X805526Y2652074D1*
X805298Y2651074D1*
X805010Y2650074D1*
X804700Y2649074D1*
X804391Y2648074D1*
X804052Y2647074D1*
X803715Y2646074D1*
X803367Y2645074D1*
X802920Y2644074D1*
X802391Y2643074D1*
X821391Y2701074D2*
X822194Y2700074D1*
X822779Y2699074D1*
X823114Y2698074D1*
X823276Y2697074D1*
X823346Y2696074D1*
X823374Y2695074D1*
X823385Y2694074D1*
X823389Y2693074D1*
X823390Y2692074D1*
Y2691074D1*
X823394Y2690074D1*
X823430Y2689074D1*
X823557Y2688074D1*
X823797Y2687074D1*
X824053Y2686074D1*
X824227Y2685074D1*
X824320Y2684074D1*
X824363Y2683074D1*
X824380Y2682074D1*
X824387Y2681074D1*
X824389Y2680074D1*
X824390Y2679074D1*
Y2678074D1*
X824391Y2677074D1*
X824394Y2676074D1*
X824430Y2675074D1*
X824557Y2674074D1*
X824797Y2673074D1*
X825053Y2672074D1*
X825227Y2671074D1*
X825320Y2670074D1*
X825363Y2669074D1*
X825380Y2668074D1*
X825387Y2667074D1*
X825389Y2666074D1*
X825390Y2665074D1*
Y2664074D1*
X825394Y2663074D1*
X825430Y2662074D1*
X825557Y2661074D1*
X825797Y2660074D1*
X826053Y2659074D1*
X826227Y2658074D1*
X826320Y2657074D1*
X826363Y2656074D1*
X826380Y2655074D1*
X826387Y2654074D1*
X826389Y2653074D1*
X826390Y2652074D1*
Y2651074D1*
X826394Y2650074D1*
X826430Y2649074D1*
X826557Y2648074D1*
X826797Y2647074D1*
X827053Y2646074D1*
X827228Y2645074D1*
X827326Y2644074D1*
X827391Y2643074D1*
X725391Y2649074D2*
X725395Y2648074D1*
X725437Y2647074D1*
X725543Y2646074D1*
X726096Y2645074D1*
X727807Y2644074D1*
X730347Y2643074D1*
X733391Y2642074D1*
X730391Y2649074D2*
X731391Y2648074D1*
M02*
