G04 DipTrace 3.3.0.0*
G04 uTidesII.GTO*
%MOIN*%
G04 #@! TF.FileFunction,Legend,Top*
G04 #@! TF.Part,Single*
%ADD10C,0.009843*%
%ADD12C,0.001*%
%ADD16C,0.01*%
%ADD21C,0.006*%
%ADD24C,0.004*%
%ADD34C,0.008*%
%ADD35C,0.029508*%
%ADD37C,0.005*%
%ADD44C,0.002*%
%ADD54C,0.002756*%
%ADD59C,0.014332*%
%ADD66C,0.015401*%
%ADD146C,0.004632*%
%ADD147C,0.00772*%
%ADD148C,0.006176*%
%FSLAX26Y26*%
G04*
G70*
G90*
G75*
G01*
G04 TopSilk*
%LPD*%
G36*
X1127926Y3881961D2*
X1106684D1*
Y3921186D1*
X1127926D1*
Y3881961D1*
G37*
G36*
X1715404Y4009711D2*
X1754628D1*
Y4030953D1*
X1715404D1*
Y4009711D1*
G37*
G36*
X976542Y3435929D2*
X955299D1*
Y3475153D1*
X976542D1*
Y3435929D1*
G37*
G36*
X738171Y4077225D2*
X716929D1*
Y4116450D1*
X738171D1*
Y4077225D1*
G37*
G36*
X620496Y3468270D2*
X659720D1*
Y3489512D1*
X620496D1*
Y3468270D1*
G37*
G36*
X1747099Y3489888D2*
X1768342D1*
Y3450664D1*
X1747099D1*
Y3489888D1*
G37*
G36*
X953837Y4054084D2*
X914612D1*
Y4032841D1*
X953837D1*
Y4054084D1*
G37*
G36*
X881942Y3644225D2*
X860699D1*
Y3683450D1*
X881942D1*
Y3644225D1*
G37*
X602777Y3704703D2*
D24*
G02X602777Y3618100I-37399J-43302D01*
G01*
X527967Y3704703D2*
G03X529945Y3616126I37411J-43475D01*
G01*
X602777Y3724388D2*
X628364D1*
Y3629907D1*
X600799Y3602344D1*
X529945D2*
X502380Y3629907D1*
Y3724388D1*
X527967D1*
X458764Y3380876D2*
G02X458764Y3467480I37399J43302D01*
G01*
X533574Y3380876D2*
G03X531596Y3469454I-37411J43475D01*
G01*
X458764Y3361191D2*
X433177D1*
Y3455672D1*
X460742Y3483235D1*
X531596D2*
X559161Y3455672D1*
Y3361191D1*
X533574D1*
G36*
X717223Y3774891D2*
X738465D1*
Y3735666D1*
X717223D1*
Y3774891D1*
G37*
G36*
X712720Y3684658D2*
X733963D1*
Y3645434D1*
X712720D1*
Y3684658D1*
G37*
G36*
X1380128Y3459208D2*
X1401371D1*
Y3419984D1*
X1380128D1*
Y3459208D1*
G37*
G36*
X1268078Y3407969D2*
X1289321D1*
Y3368745D1*
X1268078D1*
Y3407969D1*
G37*
G36*
X1243749Y3920522D2*
X1264991D1*
Y3881297D1*
X1243749D1*
Y3920522D1*
G37*
G36*
X955241Y3406518D2*
X976484D1*
Y3367293D1*
X955241D1*
Y3406518D1*
G37*
G36*
X1413191Y3123186D2*
X1391949D1*
Y3162410D1*
X1413191D1*
Y3123186D1*
G37*
G36*
X1766686Y3182389D2*
X1787928D1*
Y3143165D1*
X1766686D1*
Y3182389D1*
G37*
G36*
X1914164Y1868317D2*
X1874939D1*
Y1847075D1*
X1914164D1*
Y1868317D1*
G37*
G36*
X814916Y2487977D2*
X836158D1*
Y2448753D1*
X814916D1*
Y2487977D1*
G37*
G36*
X765374Y3537254D2*
X786616D1*
Y3498030D1*
X765374D1*
Y3537254D1*
G37*
X1787622Y2278262D2*
D24*
G02X1787622Y2416068I33484J68903D01*
G01*
X1854558Y2278262D2*
G03X1854558Y2416068I-33484J68903D01*
G01*
X1787622Y2264485D2*
X1738413D1*
Y2386538D1*
X1781719Y2429844D1*
X1860461D2*
X1903767Y2386538D1*
Y2264485D1*
X1854558D1*
X1838679Y2987428D2*
G02X1838679Y2849621I-33484J-68903D01*
G01*
X1771743Y2987428D2*
G03X1771743Y2849621I33484J-68903D01*
G01*
X1838679Y3001204D2*
X1887888D1*
Y2879151D1*
X1844582Y2835845D1*
X1765840D2*
X1722534Y2879151D1*
Y3001204D1*
X1771743D1*
G36*
X1790595Y1529950D2*
X1769353D1*
Y1569174D1*
X1790595D1*
Y1529950D1*
G37*
G36*
X570721Y1163639D2*
X591964D1*
Y1124414D1*
X570721D1*
Y1163639D1*
G37*
X1143748Y3187822D2*
D24*
G02X1230351Y3187822I43302J-37399D01*
G01*
X1143748Y3113012D2*
G03X1232325Y3114990I43475J37411D01*
G01*
X1124062Y3187822D2*
Y3213409D1*
X1218543D1*
X1246107Y3185844D1*
Y3114990D2*
X1218543Y3087425D1*
X1124062D1*
Y3113012D1*
G36*
X759833Y1606641D2*
X799057D1*
Y1627884D1*
X759833D1*
Y1606641D1*
G37*
G36*
X1788972Y1116918D2*
X1767729D1*
Y1156143D1*
X1788972D1*
Y1116918D1*
G37*
G36*
X570721Y1588639D2*
X591964D1*
Y1549414D1*
X570721D1*
Y1588639D1*
G37*
G36*
X734695Y502646D2*
X755938D1*
Y463422D1*
X734695D1*
Y502646D1*
G37*
G36*
X1632918Y454914D2*
X1611676D1*
Y494139D1*
X1632918D1*
Y454914D1*
G37*
G36*
X812257Y2913639D2*
X833499D1*
Y2874414D1*
X812257D1*
Y2913639D1*
G37*
G36*
X1376133Y1158456D2*
X1397376D1*
Y1119232D1*
X1376133D1*
Y1158456D1*
G37*
G36*
X1784003Y607734D2*
X1762761D1*
Y646959D1*
X1784003D1*
Y607734D1*
G37*
G36*
X1392328Y599410D2*
X1371085D1*
Y638635D1*
X1392328D1*
Y599410D1*
G37*
G36*
X970721Y638639D2*
X991964D1*
Y599414D1*
X970721D1*
Y638639D1*
G37*
G36*
X592328Y599410D2*
X571085D1*
Y638635D1*
X592328D1*
Y599410D1*
G37*
G36*
X992328Y1549410D2*
X971085D1*
Y1588635D1*
X992328D1*
Y1549410D1*
G37*
G36*
X761169Y2266087D2*
X782411D1*
Y2226863D1*
X761169D1*
Y2266087D1*
G37*
G36*
X1555870Y1618547D2*
X1595094D1*
Y1639789D1*
X1555870D1*
Y1618547D1*
G37*
G36*
X783863Y1874410D2*
X762621D1*
Y1913635D1*
X783863D1*
Y1874410D1*
G37*
G36*
X759692Y4259678D2*
X738450D1*
Y4298902D1*
X759692D1*
Y4259678D1*
G37*
G36*
X1375778Y1576935D2*
X1397020D1*
Y1537711D1*
X1375778D1*
Y1576935D1*
G37*
G36*
X992328Y1124410D2*
X971085D1*
Y1163635D1*
X992328D1*
Y1124410D1*
G37*
G36*
X788384Y866160D2*
X767142D1*
Y905384D1*
X788384D1*
Y866160D1*
G37*
G36*
X1604459Y892923D2*
X1625701D1*
Y853699D1*
X1604459D1*
Y892923D1*
G37*
X1136250Y1951127D2*
D24*
G02X1222854Y1951127I43302J-37399D01*
G01*
X1136250Y1876318D2*
G03X1224828Y1878296I43475J37411D01*
G01*
X1116565Y1951127D2*
Y1976715D1*
X1211046D1*
X1238609Y1949149D1*
Y1878296D2*
X1211046Y1850730D1*
X1116565D1*
Y1876318D1*
G36*
X498311Y1883641D2*
X459086D1*
Y1862399D1*
X498311D1*
Y1883641D1*
G37*
G36*
X606333Y2268961D2*
X567108D1*
Y2247719D1*
X606333D1*
Y2268961D1*
G37*
G36*
X943926Y3157615D2*
X965169D1*
Y3118391D1*
X943926D1*
Y3157615D1*
G37*
G36*
X1808800Y3558236D2*
X1787558D1*
Y3597460D1*
X1808800D1*
Y3558236D1*
G37*
G36*
X1006458Y3025797D2*
X967233D1*
Y3004555D1*
X1006458D1*
Y3025797D1*
G37*
G36*
X701910Y3044667D2*
X680668D1*
Y3083892D1*
X701910D1*
Y3044667D1*
G37*
X1125522Y1723427D2*
D21*
Y1755416D1*
X1147524D1*
X1237526D2*
Y1723427D1*
X1215525Y1755416D2*
X1237526D1*
X1700368Y4488710D2*
D10*
X1515321D1*
Y4380430D1*
Y4378468D2*
X1700368D1*
Y4417831D1*
Y4488710D2*
Y4449346D1*
G03X1700368Y4417831I-1844J-15758D01*
G01*
X1366360Y3646544D2*
D16*
Y3631256D1*
X1193739Y3458635D1*
X1178452D1*
X1005830Y3631256D1*
Y3646544D1*
X1178452Y3819165D1*
X1193739D1*
X1366360Y3646544D1*
X1162485Y3750265D2*
G02X1162485Y3750265I23611J0D01*
G01*
X882509Y3170601D2*
D34*
X661643D1*
Y3339888D1*
X882509D2*
Y3170601D1*
X661643Y3339888D2*
X882509D1*
D35*
X686446Y3195212D3*
X1007047Y4413423D2*
D37*
Y3956730D1*
Y4413423D2*
X1345629D1*
Y3956730D1*
X1007047D1*
X1682334Y3236545D2*
D21*
Y3378548D1*
X1486325D2*
Y3332053D1*
Y3283071D1*
Y3236545D1*
Y3332053D2*
G02X1486325Y3283071I27J-24491D01*
G01*
X1656158Y2632926D2*
D37*
Y2535913D1*
X1480174D2*
Y2632926D1*
X880524Y1426012D2*
D21*
X682524D1*
Y1262037D2*
Y1426012D1*
Y1262037D2*
X880524D1*
Y1426012D2*
Y1262037D1*
X871515Y1417031D2*
D44*
X691533D1*
Y1271018D2*
Y1417031D1*
Y1271018D2*
X871515D1*
Y1417031D2*
Y1271018D1*
X827520Y1392024D2*
D21*
G02X827520Y1392024I17998J0D01*
G01*
X1680524Y1426012D2*
X1482524D1*
Y1262037D2*
Y1426012D1*
Y1262037D2*
X1680524D1*
Y1426012D2*
Y1262037D1*
X1671515Y1417031D2*
D44*
X1491533D1*
Y1271018D2*
Y1417031D1*
Y1271018D2*
X1671515D1*
Y1417031D2*
Y1271018D1*
X1627520Y1392024D2*
D21*
G02X1627520Y1392024I17998J0D01*
G01*
X880524Y776012D2*
X682524D1*
Y612037D2*
Y776012D1*
Y612037D2*
X880524D1*
Y776012D2*
Y612037D1*
X871515Y767031D2*
D44*
X691533D1*
Y621018D2*
Y767031D1*
Y621018D2*
X871515D1*
Y767031D2*
Y621018D1*
X827520Y742024D2*
D21*
G02X827520Y742024I17998J0D01*
G01*
X1680524Y751012D2*
X1482524D1*
Y587037D2*
Y751012D1*
Y587037D2*
X1680524D1*
Y751012D2*
Y587037D1*
X1671515Y742031D2*
D44*
X1491533D1*
Y596018D2*
Y742031D1*
Y596018D2*
X1671515D1*
Y742031D2*
Y596018D1*
X1627520Y717024D2*
D21*
G02X1627520Y717024I17998J0D01*
G01*
X1675269Y2141187D2*
X1477269D1*
Y1977213D2*
Y2141187D1*
Y1977213D2*
X1675269D1*
Y2141187D2*
Y1977213D1*
X1666260Y2132206D2*
D44*
X1486278D1*
Y1986194D2*
Y2132206D1*
Y1986194D2*
X1666260D1*
Y2132206D2*
Y1986194D1*
X1622264Y2107200D2*
D21*
G02X1622264Y2107200I17998J0D01*
G01*
G36*
X471161Y4192946D2*
X451181D1*
Y4172946D1*
X471161D1*
Y4192946D1*
G37*
X436151Y4432946D2*
D21*
X411153Y4407946D1*
Y4357946D2*
X436151Y4332946D1*
X411153Y4307946D1*
Y4257946D2*
X436151Y4232946D1*
X411153Y4207946D1*
Y4157946D2*
X436151Y4132946D1*
X411153Y4107946D1*
Y4057946D2*
X436151Y4032946D1*
Y4432946D2*
X586158D1*
X611156Y4407946D1*
Y4357946D1*
X586158Y4332946D1*
X611156Y4307946D1*
Y4257946D1*
X586158Y4232946D1*
X611156Y4207946D1*
Y4157946D1*
X586158Y4132946D1*
X611156Y4107946D1*
Y4057946D1*
X586158Y4032946D1*
Y4332946D2*
X436151D1*
X586158Y4232946D2*
X436151D1*
X586158Y4132946D2*
X436151D1*
X586158Y4032946D2*
X436151D1*
X411153Y4107946D2*
Y4057946D1*
Y4207946D2*
Y4157946D1*
Y4307946D2*
Y4257946D1*
Y4407946D2*
Y4357946D1*
X436151Y4032946D2*
X411153Y4007946D1*
Y3957946D2*
X436151Y3932946D1*
X586158Y4032946D2*
X611156Y4007946D1*
Y3957946D1*
X586158Y3932946D1*
X436151D1*
X411153Y4007946D2*
Y3957946D1*
X386156Y4407946D2*
D34*
Y4357946D1*
X1960627Y4067557D2*
Y4017557D1*
X1935627Y3992557D1*
X1885627D2*
X1860627Y4017557D1*
X1935627Y4192557D2*
X1960627Y4167557D1*
Y4117557D1*
X1935627Y4092557D1*
X1885627D2*
X1860627Y4117557D1*
Y4167557D1*
X1885627Y4192557D1*
X1960627Y4067557D2*
X1935627Y4092557D1*
X1885627D2*
X1860627Y4067557D1*
Y4017557D2*
Y4067557D1*
X1960627Y4367557D2*
Y4317557D1*
X1935627Y4292557D1*
X1885627D2*
X1860627Y4317557D1*
X1935627Y4292557D2*
X1960627Y4267557D1*
Y4217557D1*
X1935627Y4192557D1*
X1885627D2*
X1860627Y4217557D1*
Y4267557D1*
X1885627Y4292557D1*
X1935627Y4392557D2*
X1885627D1*
X1960627Y4367557D2*
X1935627Y4392557D1*
X1885627D2*
X1860627Y4367557D1*
Y4317557D2*
Y4367557D1*
X1935627Y3992557D2*
X1885627D1*
X1964419Y3787874D2*
Y3737874D1*
X1939419Y3712874D1*
X1889419D2*
X1864419Y3737874D1*
X1939419Y3712874D2*
X1964419Y3687874D1*
Y3637874D1*
X1939419Y3612874D1*
X1889419D2*
X1864419Y3637874D1*
Y3687874D1*
X1889419Y3712874D1*
X1939419Y3812874D2*
X1889419D1*
X1964419Y3787874D2*
X1939419Y3812874D1*
X1889419D2*
X1864419Y3787874D1*
Y3737874D2*
Y3787874D1*
X1939419Y3612874D2*
X1889419D1*
X1838455Y2535812D2*
D54*
X1901441D1*
Y2504316D2*
X1838455D1*
G36*
X1858142Y2516127D2*
X1873884D1*
Y2524001D1*
X1858142D1*
Y2516127D1*
G37*
X1704700Y2533646D2*
D54*
X1767687D1*
Y2502150D2*
X1704700D1*
G36*
X1724387Y2513961D2*
X1740129D1*
Y2521835D1*
X1724387D1*
Y2513961D1*
G37*
X1902931Y3284685D2*
D54*
Y3347671D1*
X1934427D2*
Y3284685D1*
G36*
X1922616Y3304371D2*
X1914742D1*
Y3320113D1*
X1922616D1*
Y3304371D1*
G37*
X677674Y3884271D2*
D34*
Y3966964D1*
X730829Y4039787D2*
X754437D1*
X807592Y3966964D2*
Y3884271D1*
X754437Y3811449D2*
X730829D1*
D59*
X750503Y3844908D3*
G36*
X1389200Y2491933D2*
X1367031D1*
Y2504850D1*
X1389200D1*
Y2491933D1*
G37*
G36*
X1546795Y3749179D2*
X1524627D1*
Y3762097D1*
X1546795D1*
Y3749179D1*
G37*
G36*
X1590912Y3965410D2*
X1613081D1*
Y3952493D1*
X1590912D1*
Y3965410D1*
G37*
G36*
X1782593Y3750370D2*
X1760425D1*
Y3763287D1*
X1782593D1*
Y3750370D1*
G37*
G36*
X1782598Y3668110D2*
X1760430D1*
Y3681027D1*
X1782598D1*
Y3668110D1*
G37*
G36*
X1309784Y2430568D2*
X1331952D1*
Y2417650D1*
X1309784D1*
Y2430568D1*
G37*
G36*
X1550463Y3669392D2*
X1528295D1*
Y3682309D1*
X1550463D1*
Y3669392D1*
G37*
G36*
X866442Y3868153D2*
X879359D1*
Y3890321D1*
X866442D1*
Y3868153D1*
G37*
G36*
X905957Y3744463D2*
X883788D1*
Y3757380D1*
X905957D1*
Y3744463D1*
G37*
G36*
X1379427Y2821398D2*
X1357258D1*
Y2834316D1*
X1379427D1*
Y2821398D1*
G37*
G36*
X1377625Y2912232D2*
X1355456D1*
Y2925149D1*
X1377625D1*
Y2912232D1*
G37*
G36*
X1685591Y3077585D2*
X1707759D1*
Y3064667D1*
X1685591D1*
Y3077585D1*
G37*
G36*
X1898152Y2010558D2*
X1885234D1*
Y1988389D1*
X1898152D1*
Y2010558D1*
G37*
G36*
X1767540Y1475060D2*
X1789708D1*
Y1462143D1*
X1767540D1*
Y1475060D1*
G37*
G36*
X592669Y1212989D2*
X570501D1*
Y1225906D1*
X592669D1*
Y1212989D1*
G37*
G36*
X1764840Y1641679D2*
X1787009D1*
Y1628762D1*
X1764840D1*
Y1641679D1*
G37*
G36*
X592669Y1062989D2*
X570501D1*
Y1075906D1*
X592669D1*
Y1062989D1*
G37*
G36*
X1654921Y1621800D2*
X1667838D1*
Y1643968D1*
X1654921D1*
Y1621800D1*
G37*
G36*
X712560Y1105169D2*
X699643D1*
Y1083001D1*
X712560D1*
Y1105169D1*
G37*
G36*
X700489Y1607880D2*
X713406D1*
Y1630048D1*
X700489D1*
Y1607880D1*
G37*
G36*
X1662560Y1105169D2*
X1649643D1*
Y1083001D1*
X1662560D1*
Y1105169D1*
G37*
G36*
X592669Y1637989D2*
X570501D1*
Y1650906D1*
X592669D1*
Y1637989D1*
G37*
G36*
X1772877Y1062573D2*
X1795045D1*
Y1049656D1*
X1772877D1*
Y1062573D1*
G37*
G36*
X1770380Y1225060D2*
X1792548D1*
Y1212143D1*
X1770380D1*
Y1225060D1*
G37*
G36*
X592669Y1462989D2*
X570501D1*
Y1475906D1*
X592669D1*
Y1462989D1*
G37*
G36*
X1900358Y648748D2*
X1913275D1*
Y670917D1*
X1900358D1*
Y648748D1*
G37*
G36*
X1261723Y612443D2*
X1239555D1*
Y625360D1*
X1261723D1*
Y612443D1*
G37*
G36*
X1104347Y624514D2*
X1126515D1*
Y611597D1*
X1104347D1*
Y624514D1*
G37*
G36*
X592669Y687989D2*
X570501D1*
Y700906D1*
X592669D1*
Y687989D1*
G37*
G36*
X1398906Y1212989D2*
X1376737D1*
Y1225906D1*
X1398906D1*
Y1212989D1*
G37*
G36*
X970380Y1475060D2*
X992548D1*
Y1462143D1*
X970380D1*
Y1475060D1*
G37*
G36*
X1400921Y1048342D2*
X1378753D1*
Y1061259D1*
X1400921D1*
Y1048342D1*
G37*
G36*
X1370380Y550060D2*
X1392548D1*
Y537143D1*
X1370380D1*
Y550060D1*
G37*
G36*
X992669Y537989D2*
X970501D1*
Y550906D1*
X992669D1*
Y537989D1*
G37*
G36*
X570380Y550060D2*
X592548D1*
Y537143D1*
X570380D1*
Y550060D1*
G37*
G36*
X970380Y1650060D2*
X992548D1*
Y1637143D1*
X970380D1*
Y1650060D1*
G37*
G36*
X1762055Y558384D2*
X1784224D1*
Y545467D1*
X1762055D1*
Y558384D1*
G37*
G36*
X850489Y1607880D2*
X863406D1*
Y1630048D1*
X850489D1*
Y1607880D1*
G37*
G36*
X1512560Y1105169D2*
X1499643D1*
Y1083001D1*
X1512560D1*
Y1105169D1*
G37*
G36*
X784257Y2152045D2*
X762089D1*
Y2164963D1*
X784257D1*
Y2152045D1*
G37*
G36*
X862560Y1105169D2*
X849643D1*
Y1083001D1*
X862560D1*
Y1105169D1*
G37*
G36*
X1492733Y1618475D2*
X1505650D1*
Y1640644D1*
X1492733D1*
Y1618475D1*
G37*
G36*
X1390453Y1630717D2*
X1368284D1*
Y1643635D1*
X1390453D1*
Y1630717D1*
G37*
G36*
X970380Y1075060D2*
X992548D1*
Y1062143D1*
X970380D1*
Y1075060D1*
G37*
G36*
Y1225060D2*
X992548D1*
Y1212143D1*
X970380D1*
Y1225060D1*
G37*
G36*
X1398833Y1471853D2*
X1376665D1*
Y1484770D1*
X1398833D1*
Y1471853D1*
G37*
G36*
X1170380Y1603765D2*
X1192548D1*
Y1590847D1*
X1170380D1*
Y1603765D1*
G37*
G36*
Y1453765D2*
X1192548D1*
Y1440847D1*
X1170380D1*
Y1453765D1*
G37*
G36*
Y1528765D2*
X1192548D1*
Y1515847D1*
X1170380D1*
Y1528765D1*
G37*
G36*
X1881096Y983514D2*
X1903265D1*
Y970597D1*
X1881096D1*
Y983514D1*
G37*
G36*
X1266144Y976106D2*
X1243976D1*
Y989023D1*
X1266144D1*
Y976106D1*
G37*
G36*
X1090376Y987217D2*
X1112544D1*
Y974300D1*
X1090376D1*
Y987217D1*
G37*
G36*
X464768Y987200D2*
X486937D1*
Y974283D1*
X464768D1*
Y987200D1*
G37*
G36*
X1644821Y2241097D2*
X1666989D1*
Y2228179D1*
X1644821D1*
Y2241097D1*
G37*
G36*
X1498436Y2227385D2*
X1476267D1*
Y2240303D1*
X1498436D1*
Y2227385D1*
G37*
G36*
X1513592Y1870614D2*
X1491423D1*
Y1883531D1*
X1513592D1*
Y1870614D1*
G37*
G36*
X1647894Y1877749D2*
X1670063D1*
Y1864832D1*
X1647894D1*
Y1877749D1*
G37*
G36*
X1909577Y2851790D2*
X1922494D1*
Y2873959D1*
X1909577D1*
Y2851790D1*
G37*
D66*
X1957659Y2747820D3*
X1952396Y2693757D2*
D10*
X1834288D1*
X1952396Y2662279D2*
X1834288D1*
Y2693757D2*
Y2662279D1*
X1952396Y2693757D2*
Y2662279D1*
G36*
X575683Y3940241D2*
X615053D1*
Y3822131D1*
X575683D1*
Y3940241D1*
G37*
G36*
X530192Y4481320D2*
X480192Y4531320D1*
X494971Y4547354D1*
X518280Y4549353D1*
X462338Y4613286D1*
X485648Y4558675D1*
X437031Y4542692D1*
X530192Y4481320D1*
G37*
X1406524Y2319024D2*
D21*
X1756524D1*
Y1831524D1*
X1406524D1*
Y2319024D1*
G36*
X1800274Y4375275D2*
Y4319024D1*
X1856524Y4344024D1*
D1*
X1800274Y4375275D1*
G37*
X712818Y2082952D2*
D21*
X824826D1*
Y2035409D1*
X712818D1*
Y2082952D1*
X708089Y2756770D2*
X855042D1*
Y2601011D1*
X708089D1*
Y2756770D1*
G36*
X541156Y3924637D2*
X497322Y3904788D1*
X493601Y3922569D1*
X467136Y3904788D1*
X486570Y3907683D1*
X488639Y3880391D1*
X541156Y3924637D1*
G37*
X444889Y2637560D2*
D12*
X495889D1*
X441046Y2636560D2*
X495889D1*
X437771Y2635560D2*
X495889D1*
X435165Y2634560D2*
X495889D1*
X433122Y2633560D2*
X495889D1*
X431487Y2632560D2*
X495889D1*
X430156Y2631560D2*
X495889D1*
X429035Y2630560D2*
X495889D1*
X428096Y2629560D2*
X495889D1*
X427314Y2628560D2*
X495889D1*
X426600Y2627560D2*
X495889D1*
X425933Y2626560D2*
X495889D1*
X425396Y2625560D2*
X450721D1*
X424973Y2624560D2*
X445588D1*
X424588Y2623560D2*
X441825D1*
X424263Y2622560D2*
X439279D1*
X424028Y2621560D2*
X437629D1*
X423798Y2620560D2*
X436562D1*
X423513Y2619560D2*
X435844D1*
X423238Y2618560D2*
X435371D1*
X423056Y2617560D2*
X435103D1*
X422961Y2616560D2*
X434940D1*
X422918Y2615560D2*
X434758D1*
X422904Y2614560D2*
X434496D1*
X422932Y2613560D2*
X434235D1*
X423057Y2612560D2*
X434093D1*
X423296Y2611560D2*
X434127D1*
X423556Y2610560D2*
X434323D1*
X423765Y2609560D2*
X434566D1*
X423985Y2608560D2*
X434769D1*
X424271Y2607560D2*
X434987D1*
X424584Y2606560D2*
X435272D1*
X424928Y2605560D2*
X435580D1*
X425394Y2604560D2*
X435893D1*
X425968Y2603560D2*
X436263D1*
X426548Y2602560D2*
X436694D1*
X427101Y2601560D2*
X437164D1*
X427661Y2600560D2*
X437683D1*
X428299Y2599560D2*
X438273D1*
X429043Y2598560D2*
X438919D1*
X429804Y2597560D2*
X439562D1*
X430515Y2596560D2*
X440216D1*
X431236Y2595560D2*
X440855D1*
X432039Y2594560D2*
X441352D1*
X432889Y2593560D2*
X441666D1*
X424889Y2592560D2*
X495889D1*
X424889Y2591560D2*
X495889D1*
X424889Y2590560D2*
X495889D1*
X424889Y2589560D2*
X495889D1*
X424889Y2588560D2*
X495889D1*
X424889Y2587560D2*
X495889D1*
X424889Y2586560D2*
X495889D1*
X424889Y2585560D2*
X495889D1*
X424889Y2584560D2*
X495889D1*
X424889Y2583560D2*
X495889D1*
X424889Y2582560D2*
X495889D1*
X424889Y2581560D2*
X495889D1*
X509889Y2571560D2*
X519889D1*
X509889Y2570560D2*
X519889D1*
X509889Y2569560D2*
X519889D1*
X509889Y2568560D2*
X519889D1*
X509889Y2567560D2*
X519889D1*
X509889Y2566560D2*
X519889D1*
X509889Y2565560D2*
X519889D1*
X509889Y2564560D2*
X519889D1*
X509889Y2563560D2*
X519889D1*
X509889Y2562560D2*
X519889D1*
X509889Y2561560D2*
X519889D1*
X509889Y2560560D2*
X519889D1*
X509889Y2559560D2*
X519889D1*
X509889Y2558560D2*
X519889D1*
X509889Y2557560D2*
X519889D1*
X509889Y2556560D2*
X519889D1*
X509889Y2555560D2*
X519889D1*
X509889Y2554560D2*
X519889D1*
X509889Y2553560D2*
X519889D1*
X509889Y2552560D2*
X519889D1*
X509889Y2551560D2*
X519889D1*
X509889Y2550560D2*
X519889D1*
X509889Y2549560D2*
X519889D1*
X509889Y2548560D2*
X519889D1*
X509889Y2547560D2*
X519889D1*
X509889Y2546560D2*
X519889D1*
X509889Y2545560D2*
X519889D1*
X509889Y2544560D2*
X519889D1*
X509889Y2543560D2*
X519889D1*
X509889Y2542560D2*
X519889D1*
X509889Y2541560D2*
X519889D1*
X509889Y2540560D2*
X519889D1*
X424889Y2539560D2*
X519889D1*
X424889Y2538560D2*
X519889D1*
X424889Y2537560D2*
X519889D1*
X424889Y2536560D2*
X519889D1*
X424889Y2535560D2*
X519889D1*
X424889Y2534560D2*
X519889D1*
X424889Y2533560D2*
X519889D1*
X424889Y2532560D2*
X519889D1*
X424889Y2531560D2*
X519889D1*
X424889Y2530560D2*
X519889D1*
X424889Y2529560D2*
X519889D1*
X424889Y2528560D2*
X519889D1*
X424889Y2527560D2*
X519889D1*
X509889Y2526560D2*
X519889D1*
X509889Y2525560D2*
X519889D1*
X509889Y2524560D2*
X519889D1*
X509889Y2523560D2*
X519889D1*
X509889Y2522560D2*
X519889D1*
X509889Y2521560D2*
X519889D1*
X509889Y2520560D2*
X519889D1*
X509889Y2519560D2*
X519889D1*
X509889Y2518560D2*
X519889D1*
X509889Y2517560D2*
X519889D1*
X509889Y2516560D2*
X519889D1*
X509889Y2515560D2*
X519889D1*
X509889Y2514560D2*
X519889D1*
X509889Y2513560D2*
X519889D1*
X509889Y2512560D2*
X519889D1*
X509889Y2511560D2*
X519889D1*
X509889Y2510560D2*
X519889D1*
X509889Y2509560D2*
X519889D1*
X509889Y2508560D2*
X519889D1*
X509889Y2507560D2*
X519889D1*
X509889Y2506560D2*
X519889D1*
X509889Y2505560D2*
X519889D1*
X509889Y2504560D2*
X519889D1*
X509889Y2503560D2*
X519889D1*
X509889Y2502560D2*
X519889D1*
X509889Y2501560D2*
X519889D1*
X509889Y2500560D2*
X519889D1*
X509889Y2499560D2*
X519889D1*
X509889Y2498560D2*
X519889D1*
X509889Y2497560D2*
X519889D1*
X509889Y2496560D2*
X519889D1*
X509889Y2495560D2*
X519889D1*
X507889Y2486560D2*
X519889D1*
X424889Y2485560D2*
X495889D1*
X507889D2*
X519889D1*
X424889Y2484560D2*
X495889D1*
X507889D2*
X519889D1*
X424889Y2483560D2*
X495889D1*
X507889D2*
X519889D1*
X424889Y2482560D2*
X495889D1*
X507889D2*
X519889D1*
X424889Y2481560D2*
X495889D1*
X507889D2*
X519889D1*
X424889Y2480560D2*
X495889D1*
X507889D2*
X519889D1*
X424889Y2479560D2*
X495889D1*
X507889D2*
X519889D1*
X424889Y2478560D2*
X495889D1*
X507889D2*
X519889D1*
X424889Y2477560D2*
X495889D1*
X507889D2*
X519889D1*
X424889Y2476560D2*
X495889D1*
X507889D2*
X519889D1*
X424889Y2475560D2*
X495889D1*
X507889D2*
X519889D1*
X424889Y2474560D2*
X495889D1*
X507889D2*
X519889D1*
X507889Y2473560D2*
X519889D1*
X449889Y2460560D2*
X469889D1*
X446008Y2459560D2*
X473305D1*
X442605Y2458560D2*
X476390D1*
X439755Y2457560D2*
X479002D1*
X437420Y2456560D2*
X481160D1*
X435484Y2455560D2*
X483054D1*
X433816Y2454560D2*
X484793D1*
X432361Y2453560D2*
X486326D1*
X431108Y2452560D2*
X487633D1*
X430017Y2451560D2*
X488783D1*
X429090Y2450560D2*
X489844D1*
X428312Y2449560D2*
X490835D1*
X427595Y2448560D2*
X454521D1*
X466258D2*
X491717D1*
X426898Y2447560D2*
X449934D1*
X470841D2*
X492478D1*
X426268Y2446560D2*
X446339D1*
X474404D2*
X493187D1*
X425729Y2445560D2*
X443553D1*
X477098D2*
X493882D1*
X425292Y2444560D2*
X441350D1*
X479189D2*
X494515D1*
X424926Y2443560D2*
X439637D1*
X480886D2*
X495084D1*
X424569Y2442560D2*
X438371D1*
X482237D2*
X495614D1*
X424256Y2441560D2*
X437460D1*
X483260D2*
X496096D1*
X424026Y2440560D2*
X436770D1*
X484097D2*
X496505D1*
X423798Y2439560D2*
X436192D1*
X484847D2*
X496859D1*
X423513Y2438560D2*
X435697D1*
X485502D2*
X497213D1*
X423238Y2437560D2*
X435312D1*
X486080D2*
X497519D1*
X423056Y2436560D2*
X435048D1*
X486612D2*
X497714D1*
X422961Y2435560D2*
X434806D1*
X487091D2*
X497815D1*
X422918Y2434560D2*
X434516D1*
X487466D2*
X497860D1*
X422904Y2433560D2*
X434243D1*
X487693D2*
X497878D1*
X422932Y2432560D2*
X434096D1*
X487807D2*
X497885D1*
X423057Y2431560D2*
X434128D1*
X487857D2*
X497888D1*
X423296Y2430560D2*
X434324D1*
X487877D2*
X497889D1*
X423556Y2429560D2*
X434562D1*
X487885D2*
X497889D1*
X423765Y2428560D2*
X434734D1*
X487888D2*
X497889D1*
X423985Y2427560D2*
X434859D1*
X487889D2*
X497889D1*
X424271Y2426560D2*
X435028D1*
X487889D2*
X497889D1*
X424580Y2425560D2*
X435289D1*
X487889D2*
X497885D1*
X424893Y2424560D2*
X435587D1*
X487885D2*
X497850D1*
X425263Y2423560D2*
X435895D1*
X487850D2*
X497723D1*
X425694Y2422560D2*
X436263D1*
X487723D2*
X497479D1*
X426164Y2421560D2*
X436694D1*
X487479D2*
X497188D1*
X426687Y2420560D2*
X437161D1*
X487188D2*
X496882D1*
X427308Y2419560D2*
X437648D1*
X486886D2*
X496515D1*
X428047Y2418560D2*
X438146D1*
X486550D2*
X496085D1*
X428806Y2417560D2*
X438676D1*
X486216D2*
X495618D1*
X429515Y2416560D2*
X439267D1*
X485896D2*
X495135D1*
X430236Y2415560D2*
X439876D1*
X485557D2*
X494676D1*
X431039Y2414560D2*
X440360D1*
X485253D2*
X494305D1*
X431889Y2413560D2*
X440668D1*
X485045D2*
X494064D1*
X424889Y2412560D2*
X524889D1*
X424889Y2411560D2*
X524889D1*
X424889Y2410560D2*
X524889D1*
X424889Y2409560D2*
X524889D1*
X424889Y2408560D2*
X524889D1*
X424889Y2407560D2*
X524889D1*
X424889Y2406560D2*
X524889D1*
X424889Y2405560D2*
X524889D1*
X424889Y2404560D2*
X524889D1*
X424889Y2403560D2*
X524889D1*
X424889Y2402560D2*
X524889D1*
X424889Y2401560D2*
X524889D1*
X450889Y2387560D2*
X469889D1*
X447354Y2386560D2*
X473305D1*
X444279Y2385560D2*
X476390D1*
X441716Y2384560D2*
X478998D1*
X439626Y2383560D2*
X481121D1*
X437878Y2382560D2*
X482891D1*
X436386Y2381560D2*
X484426D1*
X435113Y2380560D2*
X485830D1*
X433982Y2379560D2*
X487198D1*
X432925Y2378560D2*
X488477D1*
X431906Y2377560D2*
X489546D1*
X430933Y2376560D2*
X490408D1*
X430061Y2375560D2*
X453128D1*
X459889D2*
X467889D1*
X472809D2*
X491193D1*
X429335Y2374560D2*
X449714D1*
X459889D2*
X467889D1*
X475510D2*
X492002D1*
X428722Y2373560D2*
X446824D1*
X459889D2*
X467889D1*
X477825D2*
X492785D1*
X428171Y2372560D2*
X444491D1*
X459889D2*
X467889D1*
X479740D2*
X493471D1*
X427652Y2371560D2*
X442664D1*
X459889D2*
X467889D1*
X481322D2*
X494067D1*
X427143Y2370560D2*
X441228D1*
X459889D2*
X467889D1*
X482634D2*
X494611D1*
X426641Y2369560D2*
X440030D1*
X459889D2*
X467889D1*
X483747D2*
X495128D1*
X426143Y2368560D2*
X438980D1*
X459889D2*
X467889D1*
X484683D2*
X495632D1*
X425679Y2367560D2*
X438078D1*
X459889D2*
X467889D1*
X485465D2*
X496099D1*
X425305Y2366560D2*
X437341D1*
X459889D2*
X467889D1*
X486179D2*
X496473D1*
X425046Y2365560D2*
X436724D1*
X459889D2*
X467889D1*
X486845D2*
X496733D1*
X424805Y2364560D2*
X436176D1*
X459889D2*
X467889D1*
X487383D2*
X496973D1*
X424516Y2363560D2*
X435687D1*
X459889D2*
X467889D1*
X487806D2*
X497263D1*
X424239Y2362560D2*
X435275D1*
X459889D2*
X467889D1*
X488191D2*
X497540D1*
X424057Y2361560D2*
X434920D1*
X459889D2*
X467889D1*
X488511D2*
X497722D1*
X423957Y2360560D2*
X434566D1*
X459889D2*
X467889D1*
X488711D2*
X497817D1*
X423879Y2359560D2*
X434259D1*
X459889D2*
X467889D1*
X488814D2*
X497861D1*
X423733Y2358560D2*
X434061D1*
X459889D2*
X467889D1*
X488859D2*
X497879D1*
X423487Y2357560D2*
X433925D1*
X459889D2*
X467889D1*
X488878D2*
X497885D1*
X423228Y2356560D2*
X433752D1*
X459889D2*
X467889D1*
X488885D2*
X497888D1*
X423053Y2355560D2*
X433494D1*
X459889D2*
X467889D1*
X488888D2*
X497889D1*
X422960Y2354560D2*
X433231D1*
X459889D2*
X467889D1*
X488889D2*
X497889D1*
X422917Y2353560D2*
X433058D1*
X459889D2*
X467889D1*
X488889D2*
X497889D1*
X422900Y2352560D2*
X432999D1*
X459889D2*
X467889D1*
X488885D2*
X497889D1*
X422893Y2351560D2*
X433084D1*
X459889D2*
X467889D1*
X488850D2*
X497889D1*
X422894Y2350560D2*
X433306D1*
X459889D2*
X467889D1*
X488719D2*
X497889D1*
X422929Y2349560D2*
X433555D1*
X459889D2*
X467889D1*
X488444D2*
X497885D1*
X423056Y2348560D2*
X433727D1*
X459889D2*
X467889D1*
X488056D2*
X497850D1*
X423295Y2347560D2*
X433819D1*
X459889D2*
X467889D1*
X487604D2*
X497723D1*
X423552Y2346560D2*
X433865D1*
X459889D2*
X467889D1*
X487088D2*
X497479D1*
X423726Y2345560D2*
X433918D1*
X459889D2*
X467889D1*
X486465D2*
X497188D1*
X423823Y2344560D2*
X434052D1*
X459889D2*
X467889D1*
X485688D2*
X496882D1*
X423900Y2343560D2*
X434298D1*
X459889D2*
X467889D1*
X484763D2*
X496515D1*
X424045Y2342560D2*
X434590D1*
X459889D2*
X467889D1*
X483643D2*
X496085D1*
X424292Y2341560D2*
X434892D1*
X459889D2*
X467889D1*
X482191D2*
X495618D1*
X424554Y2340560D2*
X435229D1*
X459889D2*
X467889D1*
X480104D2*
X495131D1*
X424765Y2339560D2*
X435563D1*
X459889D2*
X467889D1*
X476786D2*
X494633D1*
X424989Y2338560D2*
X435886D1*
X459889D2*
X467889D1*
X471827D2*
X494099D1*
X425306Y2337560D2*
X436260D1*
X459889D2*
X493469D1*
X425708Y2336560D2*
X436693D1*
X459889D2*
X492694D1*
X426132Y2335560D2*
X437160D1*
X459889D2*
X491803D1*
X426519Y2334560D2*
X437648D1*
X459889D2*
X490818D1*
X426864Y2333560D2*
X438142D1*
X459889D2*
X489707D1*
X427218Y2332560D2*
X438641D1*
X459889D2*
X488436D1*
X427559Y2331560D2*
X439139D1*
X459889D2*
X487012D1*
X427882Y2330560D2*
X439637D1*
X459889D2*
X485386D1*
X428230Y2329560D2*
X440110D1*
X459889D2*
X483389D1*
X428575Y2328560D2*
X440526D1*
X459889D2*
X480798D1*
X428889Y2327560D2*
X440889D1*
X459889D2*
X477530D1*
X459889Y2326560D2*
X473889D1*
X428889Y2317560D2*
X441889D1*
X428509Y2316560D2*
X441389D1*
X470889D2*
X482889D1*
X428084Y2315560D2*
X440804D1*
X468624D2*
X484847D1*
X427650Y2314560D2*
X440193D1*
X466752D2*
X486680D1*
X427261Y2313560D2*
X439549D1*
X465272D2*
X488274D1*
X426915Y2312560D2*
X438881D1*
X464049D2*
X489608D1*
X426561Y2311560D2*
X438258D1*
X462988D2*
X490736D1*
X426220Y2310560D2*
X437692D1*
X462077D2*
X491679D1*
X425898Y2309560D2*
X437160D1*
X461307D2*
X492463D1*
X425554Y2308560D2*
X436648D1*
X460597D2*
X493182D1*
X425217Y2307560D2*
X436142D1*
X459932D2*
X493880D1*
X424897Y2306560D2*
X435641D1*
X459396D2*
X494514D1*
X424558Y2305560D2*
X435143D1*
X458973D2*
X495084D1*
X424256Y2304560D2*
X434675D1*
X458584D2*
X475286D1*
X481693D2*
X495614D1*
X424063Y2303560D2*
X434270D1*
X458228D2*
X473152D1*
X483274D2*
X496092D1*
X423960Y2302560D2*
X433918D1*
X457901D2*
X471613D1*
X484573D2*
X496470D1*
X423880Y2301560D2*
X433566D1*
X457559D2*
X470563D1*
X485604D2*
X496732D1*
X423734Y2300560D2*
X433259D1*
X457253D2*
X469810D1*
X486400D2*
X496973D1*
X423487Y2299560D2*
X433064D1*
X457025D2*
X469207D1*
X487040D2*
X497263D1*
X423228Y2298560D2*
X432960D1*
X456797D2*
X468698D1*
X487598D2*
X497540D1*
X423053Y2297560D2*
X432880D1*
X456513D2*
X468278D1*
X488086D2*
X497722D1*
X422960Y2296560D2*
X432734D1*
X456234D2*
X467921D1*
X488464D2*
X497817D1*
X422917Y2295560D2*
X432487D1*
X456017D2*
X467567D1*
X488692D2*
X497861D1*
X422900Y2294560D2*
X432232D1*
X455795D2*
X467256D1*
X488806D2*
X497879D1*
X422893Y2293560D2*
X432092D1*
X455512D2*
X467025D1*
X488857D2*
X497885D1*
X422891Y2292560D2*
X432126D1*
X455234D2*
X466797D1*
X488877D2*
X497888D1*
X422894Y2291560D2*
X432323D1*
X455017D2*
X466513D1*
X488885D2*
X497889D1*
X422928Y2290560D2*
X432562D1*
X454795D2*
X466238D1*
X488888D2*
X497889D1*
X423056Y2289560D2*
X432734D1*
X454512D2*
X466052D1*
X488889D2*
X497889D1*
X423295Y2288560D2*
X432859D1*
X454234D2*
X465922D1*
X488889D2*
X497889D1*
X423552Y2287560D2*
X433028D1*
X454017D2*
X465751D1*
X488885D2*
X497889D1*
X423730Y2286560D2*
X433289D1*
X453791D2*
X465494D1*
X488850D2*
X497889D1*
X423858Y2285560D2*
X433587D1*
X453473D2*
X465227D1*
X488723D2*
X497889D1*
X424028Y2284560D2*
X433895D1*
X453067D2*
X465015D1*
X488483D2*
X497885D1*
X424289Y2283560D2*
X434267D1*
X452607D2*
X464794D1*
X488223D2*
X497850D1*
X424587Y2282560D2*
X434741D1*
X452081D2*
X464511D1*
X488013D2*
X497723D1*
X424895Y2281560D2*
X435304D1*
X451356D2*
X464234D1*
X487789D2*
X497483D1*
X425263Y2280560D2*
X436414D1*
X450369D2*
X464017D1*
X487472D2*
X497223D1*
X425694Y2279560D2*
X439290D1*
X447491D2*
X463791D1*
X487071D2*
X497013D1*
X426165Y2278560D2*
X443631D1*
X443148D2*
X463473D1*
X486646D2*
X496793D1*
X426683Y2277560D2*
X463067D1*
X486256D2*
X496511D1*
X427273Y2276560D2*
X462607D1*
X485875D2*
X496233D1*
X427919Y2275560D2*
X462093D1*
X485394D2*
X496017D1*
X428566Y2274560D2*
X461505D1*
X484814D2*
X495791D1*
X429259Y2273560D2*
X460859D1*
X484231D2*
X495473D1*
X430068Y2272560D2*
X460209D1*
X483678D2*
X495067D1*
X431007Y2271560D2*
X459480D1*
X483118D2*
X494608D1*
X432128Y2270560D2*
X458540D1*
X482479D2*
X494099D1*
X433516Y2269560D2*
X457324D1*
X481716D2*
X493523D1*
X435170Y2268560D2*
X455802D1*
X480889D2*
X492889D1*
X436996Y2267560D2*
X453947D1*
X438889Y2266560D2*
X451889D1*
X424889Y2256560D2*
X433889D1*
X510889D2*
X519889D1*
X424889Y2255560D2*
X433889D1*
X510889D2*
X519889D1*
X424889Y2254560D2*
X433889D1*
X510889D2*
X519889D1*
X424889Y2253560D2*
X433889D1*
X510889D2*
X519889D1*
X424889Y2252560D2*
X433889D1*
X510889D2*
X519889D1*
X424889Y2251560D2*
X433889D1*
X510889D2*
X519889D1*
X424889Y2250560D2*
X433889D1*
X510889D2*
X519889D1*
X424889Y2249560D2*
X433889D1*
X510889D2*
X519889D1*
X424889Y2248560D2*
X433889D1*
X510889D2*
X519889D1*
X424889Y2247560D2*
X433889D1*
X510889D2*
X519889D1*
X424889Y2246560D2*
X433889D1*
X510889D2*
X519889D1*
X424889Y2245560D2*
X433889D1*
X510889D2*
X519889D1*
X424889Y2244560D2*
X519889D1*
X424889Y2243560D2*
X519889D1*
X424889Y2242560D2*
X519889D1*
X424889Y2241560D2*
X519889D1*
X424889Y2240560D2*
X519889D1*
X424889Y2239560D2*
X519889D1*
X424889Y2238560D2*
X519889D1*
X424889Y2237560D2*
X519889D1*
X424889Y2236560D2*
X519889D1*
X424889Y2235560D2*
X519889D1*
X424889Y2234560D2*
X519889D1*
X424889Y2233560D2*
X519889D1*
X424889Y2232560D2*
X519889D1*
X424889Y2231560D2*
X433889D1*
X510889D2*
X519889D1*
X424889Y2230560D2*
X433889D1*
X510889D2*
X519889D1*
X424889Y2229560D2*
X433889D1*
X510889D2*
X519889D1*
X424889Y2228560D2*
X433889D1*
X510889D2*
X519889D1*
X424889Y2227560D2*
X433889D1*
X510889D2*
X519889D1*
X424889Y2226560D2*
X433889D1*
X510889D2*
X519889D1*
X424889Y2225560D2*
X433889D1*
X510889D2*
X519889D1*
X424889Y2224560D2*
X433889D1*
X510889D2*
X519889D1*
X424889Y2223560D2*
X433889D1*
X510889D2*
X519889D1*
X424889Y2222560D2*
X433889D1*
X510889D2*
X519889D1*
X424889Y2221560D2*
X433889D1*
X510889D2*
X519889D1*
X424889Y2220560D2*
X433889D1*
X510889D2*
X519889D1*
X424889Y2207560D2*
X433889D1*
X510889D2*
X519889D1*
X424889Y2206560D2*
X433889D1*
X510889D2*
X519889D1*
X424889Y2205560D2*
X433889D1*
X510889D2*
X519889D1*
X424889Y2204560D2*
X433889D1*
X510889D2*
X519889D1*
X424889Y2203560D2*
X433889D1*
X510889D2*
X519889D1*
X424889Y2202560D2*
X433889D1*
X510889D2*
X519889D1*
X424889Y2201560D2*
X433889D1*
X510889D2*
X519889D1*
X424889Y2200560D2*
X433889D1*
X510889D2*
X519889D1*
X424889Y2199560D2*
X433889D1*
X510889D2*
X519889D1*
X424889Y2198560D2*
X433889D1*
X510889D2*
X519889D1*
X424889Y2197560D2*
X433889D1*
X510889D2*
X519889D1*
X424889Y2196560D2*
X433889D1*
X510889D2*
X519889D1*
X424889Y2195560D2*
X519889D1*
X424889Y2194560D2*
X519889D1*
X424889Y2193560D2*
X519889D1*
X424889Y2192560D2*
X519889D1*
X424889Y2191560D2*
X519889D1*
X424889Y2190560D2*
X519889D1*
X424889Y2189560D2*
X519889D1*
X424889Y2188560D2*
X519889D1*
X424889Y2187560D2*
X519889D1*
X424889Y2186560D2*
X519889D1*
X424889Y2185560D2*
X519889D1*
X424889Y2184560D2*
X519889D1*
X424889Y2183560D2*
X519889D1*
X424889Y2182560D2*
X433889D1*
X510889D2*
X519889D1*
X424889Y2181560D2*
X433889D1*
X510889D2*
X519889D1*
X424889Y2180560D2*
X433889D1*
X510889D2*
X519889D1*
X424889Y2179560D2*
X433889D1*
X510889D2*
X519889D1*
X424889Y2178560D2*
X433889D1*
X510889D2*
X519889D1*
X424889Y2177560D2*
X433889D1*
X510889D2*
X519889D1*
X424889Y2176560D2*
X433889D1*
X510889D2*
X519889D1*
X424889Y2175560D2*
X433889D1*
X510889D2*
X519889D1*
X424889Y2174560D2*
X433889D1*
X510889D2*
X519889D1*
X424889Y2173560D2*
X433889D1*
X510889D2*
X519889D1*
X424889Y2172560D2*
X433889D1*
X510889D2*
X519889D1*
X424889Y2171560D2*
X433889D1*
X510889D2*
X519889D1*
X433688Y3108240D2*
X485688D1*
X433688Y3107240D2*
X485688D1*
X433688Y3106240D2*
X485688D1*
X433688Y3105240D2*
X485688D1*
X433688Y3104240D2*
X485688D1*
X433688Y3103240D2*
X485688D1*
X433688Y3102240D2*
X485688D1*
X433688Y3101240D2*
X439885D1*
X459688D2*
X465885D1*
X480688D2*
X485688D1*
X433688Y3100240D2*
X439300D1*
X459688D2*
X465300D1*
X480688D2*
X485688D1*
X433688Y3099240D2*
X438965D1*
X459688D2*
X464965D1*
X480688D2*
X485688D1*
X433688Y3098240D2*
X438803D1*
X459688D2*
X464803D1*
X480688D2*
X485688D1*
X433688Y3097240D2*
X438733D1*
X459688D2*
X464733D1*
X480688D2*
X485688D1*
X433688Y3096240D2*
X438705D1*
X459688D2*
X464705D1*
X480688D2*
X485688D1*
X433688Y3095240D2*
X438694D1*
X459688D2*
X464694D1*
X480688D2*
X485688D1*
X433688Y3094240D2*
X438690D1*
X459688D2*
X464690D1*
X480688D2*
X485688D1*
X433688Y3093240D2*
X438689D1*
X459688D2*
X464689D1*
X480688D2*
X485688D1*
X493688D2*
X495688D1*
X433688Y3092240D2*
X438689D1*
X459688D2*
X464689D1*
X480688D2*
X485688D1*
X493692D2*
X497688D1*
X433688Y3091240D2*
X438689D1*
X459688D2*
X464689D1*
X480688D2*
X485688D1*
X493731D2*
X499681D1*
X433688Y3090240D2*
X438689D1*
X459688D2*
X464689D1*
X480688D2*
X485688D1*
X493902D2*
X501603D1*
X433688Y3089240D2*
X438689D1*
X459688D2*
X464689D1*
X480688D2*
X485688D1*
X494226D2*
X503270D1*
X433688Y3088240D2*
X438688D1*
X459688D2*
X464688D1*
X480688D2*
X485688D1*
X495104D2*
X504646D1*
X433688Y3087240D2*
X438688D1*
X459688D2*
X464688D1*
X480688D2*
X485688D1*
X496206D2*
X505180D1*
X433688Y3086240D2*
X438688D1*
X459688D2*
X464688D1*
X480688D2*
X485688D1*
X497432D2*
X505471D1*
X433688Y3085240D2*
X438688D1*
X459688D2*
X464688D1*
X480688D2*
X485688D1*
X498708D2*
X505603D1*
X433688Y3084240D2*
X438688D1*
X459688D2*
X464688D1*
X480688D2*
X485688D1*
X500030D2*
X505657D1*
X433688Y3083240D2*
X438688D1*
X459688D2*
X464688D1*
X480688D2*
X485688D1*
X501328D2*
X505677D1*
X433688Y3082240D2*
X438688D1*
X459688D2*
X464688D1*
X480688D2*
X485688D1*
X502534D2*
X505685D1*
X433688Y3081240D2*
X438688D1*
X459688D2*
X464688D1*
X480688D2*
X485688D1*
X503688D2*
X505688D1*
X433688Y3080240D2*
X438688D1*
X459688D2*
X464688D1*
X480688D2*
X485688D1*
X433688Y3079240D2*
X438688D1*
X459688D2*
X464688D1*
X480688D2*
X485688D1*
X433688Y3078240D2*
X438688D1*
X459688D2*
X464688D1*
X480688D2*
X485688D1*
X433688Y3077240D2*
X438688D1*
X459688D2*
X464688D1*
X480688D2*
X485688D1*
X433688Y3076240D2*
X438688D1*
X480688D2*
X485688D1*
X433688Y3075240D2*
X438688D1*
X480688D2*
X485688D1*
X433688Y3067240D2*
X472688D1*
X433688Y3066240D2*
X472688D1*
X433688Y3065240D2*
X472688D1*
X433688Y3064240D2*
X472677D1*
X433688Y3063240D2*
X472563D1*
X433688Y3062240D2*
X472290D1*
X433688Y3061240D2*
X471121D1*
X464650Y3060240D2*
X469688D1*
X465522Y3059240D2*
X470530D1*
X466279Y3058240D2*
X471247D1*
X466983Y3057240D2*
X471857D1*
X467642Y3056240D2*
X472403D1*
X468143Y3055240D2*
X472887D1*
X468439Y3054240D2*
X473264D1*
X468584Y3053240D2*
X473492D1*
X468644Y3052240D2*
X473606D1*
X468635Y3051240D2*
X473656D1*
X468509Y3050240D2*
X473676D1*
X468195Y3049240D2*
X473680D1*
X467727Y3048240D2*
X473648D1*
X466657Y3047240D2*
X473518D1*
X465258Y3046240D2*
X473239D1*
X433688Y3045240D2*
X472817D1*
X433688Y3044240D2*
X472232D1*
X433688Y3043240D2*
X471446D1*
X433688Y3042240D2*
X470482D1*
X433688Y3041240D2*
X469501D1*
X433688Y3040240D2*
X468652D1*
X433688Y3039240D2*
X468324D1*
X463688Y3038240D2*
X469014D1*
X464685Y3037240D2*
X469829D1*
X465649Y3036240D2*
X470708D1*
X466518Y3035240D2*
X471540D1*
X467240Y3034240D2*
X472247D1*
X467817Y3033240D2*
X472819D1*
X468236Y3032240D2*
X473237D1*
X468481Y3031240D2*
X473481D1*
X468602Y3030240D2*
X473602D1*
X468651Y3029240D2*
X473655D1*
X468633Y3028240D2*
X473676D1*
X468471Y3027240D2*
X473684D1*
X468151Y3026240D2*
X473683D1*
X467231Y3025240D2*
X473649D1*
X465970Y3024240D2*
X473518D1*
X464398Y3023240D2*
X473239D1*
X433688Y3022240D2*
X472817D1*
X433688Y3021240D2*
X472232D1*
X433688Y3020240D2*
X471430D1*
X433688Y3019240D2*
X470309D1*
X433688Y3018240D2*
X468650D1*
X433688Y3017240D2*
X466349D1*
X433688Y3016240D2*
X463688D1*
X433688Y3006240D2*
X472688D1*
X479688D2*
X485688D1*
X433688Y3005240D2*
X472688D1*
X479688D2*
X485688D1*
X433688Y3004240D2*
X472688D1*
X479688D2*
X485688D1*
X433688Y3003240D2*
X472688D1*
X479688D2*
X485688D1*
X433688Y3002240D2*
X472688D1*
X479688D2*
X485688D1*
X433688Y3001240D2*
X472688D1*
X479688D2*
X485688D1*
X433688Y3000240D2*
X472688D1*
X479688D2*
X485688D1*
X433688Y2989240D2*
X487688D1*
X433688Y2988240D2*
X487688D1*
X433688Y2987240D2*
X487688D1*
X433688Y2986240D2*
X487688D1*
X433688Y2985240D2*
X487688D1*
X433688Y2984240D2*
X487688D1*
X433688Y2983240D2*
X487688D1*
X433688Y2972240D2*
X472688D1*
X479688D2*
X485688D1*
X433688Y2971240D2*
X472688D1*
X479688D2*
X485688D1*
X433688Y2970240D2*
X472688D1*
X479688D2*
X485688D1*
X433688Y2969240D2*
X472688D1*
X479688D2*
X485688D1*
X433688Y2968240D2*
X472688D1*
X479688D2*
X485688D1*
X433688Y2967240D2*
X472688D1*
X479688D2*
X485688D1*
X433688Y2966240D2*
X472688D1*
X479688D2*
X485688D1*
X447688Y2958240D2*
X458688D1*
X445265Y2957240D2*
X461334D1*
X443114Y2956240D2*
X463631D1*
X441282Y2955240D2*
X465541D1*
X439768Y2954240D2*
X467122D1*
X438566Y2953240D2*
X468433D1*
X437603Y2952240D2*
X469547D1*
X436784Y2951240D2*
X447082D1*
X452688D2*
X456688D1*
X461295D2*
X470479D1*
X436097Y2950240D2*
X444912D1*
X452688D2*
X456688D1*
X463465D2*
X471229D1*
X435506Y2949240D2*
X443246D1*
X452688D2*
X456688D1*
X465131D2*
X471851D1*
X434968Y2948240D2*
X441956D1*
X452688D2*
X456688D1*
X466421D2*
X472401D1*
X434488Y2947240D2*
X440947D1*
X452688D2*
X456688D1*
X467430D2*
X472887D1*
X434108Y2946240D2*
X440170D1*
X452688D2*
X456688D1*
X468207D2*
X473264D1*
X433846Y2945240D2*
X439572D1*
X452688D2*
X456688D1*
X468805D2*
X473492D1*
X433605Y2944240D2*
X439141D1*
X452688D2*
X456688D1*
X469232D2*
X473606D1*
X433315Y2943240D2*
X438858D1*
X452688D2*
X456688D1*
X469480D2*
X473656D1*
X433038Y2942240D2*
X438609D1*
X452688D2*
X456688D1*
X469601D2*
X473676D1*
X432856Y2941240D2*
X438316D1*
X452688D2*
X456688D1*
X469655D2*
X473684D1*
X432760Y2940240D2*
X438042D1*
X452688D2*
X456688D1*
X469672D2*
X473687D1*
X432717Y2939240D2*
X437895D1*
X452688D2*
X456688D1*
X469645D2*
X473688D1*
X432703Y2938240D2*
X437927D1*
X452688D2*
X456688D1*
X469517D2*
X473688D1*
X432731Y2937240D2*
X438123D1*
X452688D2*
X456688D1*
X469239D2*
X473685D1*
X432856Y2936240D2*
X438365D1*
X452688D2*
X456688D1*
X468813D2*
X473649D1*
X433095Y2935240D2*
X438568D1*
X452688D2*
X456688D1*
X468189D2*
X473518D1*
X433355Y2934240D2*
X438786D1*
X452688D2*
X456704D1*
X467213D2*
X473240D1*
X433564Y2933240D2*
X439071D1*
X452688D2*
X456751D1*
X465609D2*
X472817D1*
X433785Y2932240D2*
X439384D1*
X452688D2*
X457220D1*
X462980D2*
X472236D1*
X434070Y2931240D2*
X439727D1*
X452688D2*
X458778D1*
X459166D2*
X471481D1*
X434379Y2930240D2*
X440193D1*
X452688D2*
X470598D1*
X434692Y2929240D2*
X440767D1*
X452688D2*
X469612D1*
X435065Y2928240D2*
X441344D1*
X452688D2*
X468467D1*
X435522Y2927240D2*
X441867D1*
X452688D2*
X467072D1*
X436072Y2926240D2*
X442309D1*
X452688D2*
X465436D1*
X436688Y2925240D2*
X442688D1*
X452688D2*
X463688D1*
X456688Y2897240D2*
X462688D1*
X452500Y2896240D2*
X466993D1*
X449058Y2895240D2*
X470556D1*
X446326Y2894240D2*
X473307D1*
X444137Y2893240D2*
X475415D1*
X442394Y2892240D2*
X477076D1*
X440999Y2891240D2*
X478421D1*
X439818Y2890240D2*
X479580D1*
X438776Y2889240D2*
X453120D1*
X467488D2*
X480643D1*
X437876Y2888240D2*
X450082D1*
X470038D2*
X481634D1*
X437140Y2887240D2*
X447691D1*
X472241D2*
X482513D1*
X436523Y2886240D2*
X445789D1*
X474121D2*
X483242D1*
X435975Y2885240D2*
X444233D1*
X475733D2*
X483855D1*
X435486Y2884240D2*
X442967D1*
X477054D2*
X484403D1*
X435074Y2883240D2*
X441957D1*
X478065D2*
X484891D1*
X434719Y2882240D2*
X441171D1*
X478895D2*
X485303D1*
X434365Y2881240D2*
X440535D1*
X479612D2*
X485658D1*
X434055Y2880240D2*
X439979D1*
X480170D2*
X486012D1*
X433825Y2879240D2*
X439492D1*
X480601D2*
X486318D1*
X433597Y2878240D2*
X439109D1*
X480989D2*
X486513D1*
X433312Y2877240D2*
X438847D1*
X481310D2*
X486614D1*
X433037Y2876240D2*
X438605D1*
X481510D2*
X486659D1*
X432856Y2875240D2*
X438315D1*
X481613D2*
X486678D1*
X432760Y2874240D2*
X438038D1*
X481659D2*
X486685D1*
X432717Y2873240D2*
X437860D1*
X454688D2*
X459688D1*
X481677D2*
X486687D1*
X432699Y2872240D2*
X437799D1*
X454688D2*
X459688D1*
X481685D2*
X486688D1*
X432696Y2871240D2*
X437884D1*
X454688D2*
X459688D1*
X481687D2*
X486688D1*
X432729Y2870240D2*
X438105D1*
X454688D2*
X459688D1*
X481684D2*
X486688D1*
X432855Y2869240D2*
X438355D1*
X454688D2*
X459688D1*
X481649D2*
X486688D1*
X433095Y2868240D2*
X438527D1*
X454688D2*
X459688D1*
X481522D2*
X486688D1*
X433355Y2867240D2*
X438622D1*
X454688D2*
X459688D1*
X481279D2*
X486685D1*
X433564Y2866240D2*
X438700D1*
X454688D2*
X459688D1*
X480987D2*
X486649D1*
X433785Y2865240D2*
X438845D1*
X454688D2*
X459688D1*
X480681D2*
X486522D1*
X434066Y2864240D2*
X439091D1*
X454688D2*
X459688D1*
X480314D2*
X486279D1*
X434344Y2863240D2*
X439352D1*
X454688D2*
X459688D1*
X479884D2*
X485987D1*
X434561Y2862240D2*
X439543D1*
X454688D2*
X459688D1*
X479417D2*
X485685D1*
X434787Y2861240D2*
X459688D1*
X478930D2*
X485349D1*
X435105Y2860240D2*
X459688D1*
X478432D2*
X485015D1*
X435511Y2859240D2*
X459688D1*
X477898D2*
X484692D1*
X435970Y2858240D2*
X459688D1*
X477268D2*
X484315D1*
X436479Y2857240D2*
X459688D1*
X476494D2*
X483856D1*
X437055Y2856240D2*
X459688D1*
X475613D2*
X483306D1*
X437688Y2855240D2*
X459688D1*
X474688D2*
X482688D1*
X433688Y2845240D2*
X472688D1*
X479688D2*
X485688D1*
X433688Y2844240D2*
X472688D1*
X479688D2*
X485688D1*
X433688Y2843240D2*
X472688D1*
X479688D2*
X485688D1*
X433688Y2842240D2*
X472688D1*
X479688D2*
X485688D1*
X433688Y2841240D2*
X472688D1*
X479688D2*
X485688D1*
X433688Y2840240D2*
X472688D1*
X479688D2*
X485688D1*
X433688Y2839240D2*
X472688D1*
X479688D2*
X485688D1*
X433688Y2828240D2*
X487688D1*
X433688Y2827240D2*
X487688D1*
X433688Y2826240D2*
X487688D1*
X433688Y2825240D2*
X487688D1*
X433688Y2824240D2*
X487688D1*
X433688Y2823240D2*
X487688D1*
X433688Y2822240D2*
X487688D1*
X433688Y2811240D2*
X487688D1*
X433688Y2810240D2*
X487688D1*
X433688Y2809240D2*
X487688D1*
X433688Y2808240D2*
X487688D1*
X433688Y2807240D2*
X487688D1*
X433688Y2806240D2*
X487688D1*
X433688Y2805240D2*
X487688D1*
X447688Y2797240D2*
X458688D1*
X445265Y2796240D2*
X461334D1*
X443114Y2795240D2*
X463631D1*
X441282Y2794240D2*
X465541D1*
X439768Y2793240D2*
X467122D1*
X438566Y2792240D2*
X468433D1*
X437603Y2791240D2*
X469547D1*
X436784Y2790240D2*
X447082D1*
X452688D2*
X456688D1*
X461295D2*
X470479D1*
X436097Y2789240D2*
X444912D1*
X452688D2*
X456688D1*
X463465D2*
X471229D1*
X435506Y2788240D2*
X443246D1*
X452688D2*
X456688D1*
X465131D2*
X471851D1*
X434968Y2787240D2*
X441956D1*
X452688D2*
X456688D1*
X466421D2*
X472401D1*
X434488Y2786240D2*
X440947D1*
X452688D2*
X456688D1*
X467430D2*
X472887D1*
X434108Y2785240D2*
X440170D1*
X452688D2*
X456688D1*
X468207D2*
X473264D1*
X433846Y2784240D2*
X439572D1*
X452688D2*
X456688D1*
X468805D2*
X473492D1*
X433605Y2783240D2*
X439141D1*
X452688D2*
X456688D1*
X469232D2*
X473606D1*
X433315Y2782240D2*
X438858D1*
X452688D2*
X456688D1*
X469480D2*
X473656D1*
X433038Y2781240D2*
X438609D1*
X452688D2*
X456688D1*
X469601D2*
X473676D1*
X432856Y2780240D2*
X438316D1*
X452688D2*
X456688D1*
X469655D2*
X473684D1*
X432760Y2779240D2*
X438042D1*
X452688D2*
X456688D1*
X469672D2*
X473687D1*
X432717Y2778240D2*
X437895D1*
X452688D2*
X456688D1*
X469645D2*
X473688D1*
X432703Y2777240D2*
X437927D1*
X452688D2*
X456688D1*
X469517D2*
X473688D1*
X432731Y2776240D2*
X438123D1*
X452688D2*
X456688D1*
X469239D2*
X473685D1*
X432856Y2775240D2*
X438365D1*
X452688D2*
X456688D1*
X468813D2*
X473649D1*
X433095Y2774240D2*
X438568D1*
X452688D2*
X456688D1*
X468189D2*
X473518D1*
X433355Y2773240D2*
X438786D1*
X452688D2*
X456704D1*
X467213D2*
X473240D1*
X433564Y2772240D2*
X439071D1*
X452688D2*
X456751D1*
X465609D2*
X472817D1*
X433785Y2771240D2*
X439384D1*
X452688D2*
X457220D1*
X462980D2*
X472236D1*
X434070Y2770240D2*
X439727D1*
X452688D2*
X458778D1*
X459166D2*
X471481D1*
X434379Y2769240D2*
X440193D1*
X452688D2*
X470598D1*
X434692Y2768240D2*
X440767D1*
X452688D2*
X469612D1*
X435065Y2767240D2*
X441344D1*
X452688D2*
X468467D1*
X435522Y2766240D2*
X441867D1*
X452688D2*
X467072D1*
X436072Y2765240D2*
X442309D1*
X452688D2*
X465436D1*
X436688Y2764240D2*
X442688D1*
X452688D2*
X463688D1*
X467688Y2760240D2*
X472688D1*
X467688Y2759240D2*
X472688D1*
X467688Y2758240D2*
X472688D1*
X467688Y2757240D2*
X472688D1*
X442688Y2756240D2*
X483688D1*
X439966Y2755240D2*
X483688D1*
X437842Y2754240D2*
X483688D1*
X436347Y2753240D2*
X483688D1*
X435335Y2752240D2*
X483688D1*
X434631Y2751240D2*
X483688D1*
X434129Y2750240D2*
X483688D1*
X433739Y2749240D2*
X441927D1*
X467688D2*
X472688D1*
X433372Y2748240D2*
X440506D1*
X467688D2*
X472688D1*
X433061Y2747240D2*
X439404D1*
X467688D2*
X472688D1*
X432864Y2746240D2*
X438880D1*
X467688D2*
X472688D1*
X432767Y2745240D2*
X438437D1*
X467688D2*
X472688D1*
X432757Y2744240D2*
X438123D1*
X467688D2*
X472688D1*
X432866Y2743240D2*
X437954D1*
X467688D2*
X472688D1*
X433098Y2742240D2*
X438151D1*
X467688D2*
X472688D1*
X433352Y2741240D2*
X438376D1*
X467688D2*
X472688D1*
X433527Y2740240D2*
X438536D1*
X467688D2*
X472688D1*
X433624Y2739240D2*
X438628D1*
X467688D2*
X472688D1*
X433688Y2738240D2*
X438688D1*
X467688D2*
X472688D1*
X444889Y2637560D2*
X441046Y2636560D1*
X437771Y2635560D1*
X435165Y2634560D1*
X433122Y2633560D1*
X431487Y2632560D1*
X430156Y2631560D1*
X429035Y2630560D1*
X428096Y2629560D1*
X427314Y2628560D1*
X426600Y2627560D1*
X425933Y2626560D1*
X425396Y2625560D1*
X424973Y2624560D1*
X424588Y2623560D1*
X424263Y2622560D1*
X424028Y2621560D1*
X423798Y2620560D1*
X423513Y2619560D1*
X423238Y2618560D1*
X423056Y2617560D1*
X422961Y2616560D1*
X422918Y2615560D1*
X422904Y2614560D1*
X422932Y2613560D1*
X423057Y2612560D1*
X423296Y2611560D1*
X423556Y2610560D1*
X423765Y2609560D1*
X423985Y2608560D1*
X424271Y2607560D1*
X424584Y2606560D1*
X424928Y2605560D1*
X425394Y2604560D1*
X425968Y2603560D1*
X426548Y2602560D1*
X427101Y2601560D1*
X427661Y2600560D1*
X428299Y2599560D1*
X429043Y2598560D1*
X429804Y2597560D1*
X430515Y2596560D1*
X431236Y2595560D1*
X432039Y2594560D1*
X432889Y2593560D1*
X424889Y2592560D1*
Y2591560D1*
Y2590560D1*
Y2589560D1*
Y2588560D1*
Y2587560D1*
Y2586560D1*
Y2585560D1*
Y2584560D1*
Y2583560D1*
Y2582560D1*
Y2581560D1*
X495889Y2637560D2*
Y2636560D1*
Y2635560D1*
Y2634560D1*
Y2633560D1*
Y2632560D1*
Y2631560D1*
Y2630560D1*
Y2629560D1*
Y2628560D1*
Y2627560D1*
Y2626560D1*
X456889D2*
X450721Y2625560D1*
X445588Y2624560D1*
X441825Y2623560D1*
X439279Y2622560D1*
X437629Y2621560D1*
X436562Y2620560D1*
X435844Y2619560D1*
X435371Y2618560D1*
X435103Y2617560D1*
X434940Y2616560D1*
X434758Y2615560D1*
X434496Y2614560D1*
X434235Y2613560D1*
X434093Y2612560D1*
X434127Y2611560D1*
X434323Y2610560D1*
X434566Y2609560D1*
X434769Y2608560D1*
X434987Y2607560D1*
X435272Y2606560D1*
X435580Y2605560D1*
X435893Y2604560D1*
X436263Y2603560D1*
X436694Y2602560D1*
X437164Y2601560D1*
X437683Y2600560D1*
X438273Y2599560D1*
X438919Y2598560D1*
X439562Y2597560D1*
X440216Y2596560D1*
X440855Y2595560D1*
X441352Y2594560D1*
X441666Y2593560D1*
X441889Y2592560D1*
X495889D2*
Y2591560D1*
Y2590560D1*
Y2589560D1*
Y2588560D1*
Y2587560D1*
Y2586560D1*
Y2585560D1*
Y2584560D1*
Y2583560D1*
Y2582560D1*
Y2581560D1*
X509889Y2571560D2*
Y2570560D1*
Y2569560D1*
Y2568560D1*
Y2567560D1*
Y2566560D1*
Y2565560D1*
Y2564560D1*
Y2563560D1*
Y2562560D1*
Y2561560D1*
Y2560560D1*
Y2559560D1*
Y2558560D1*
Y2557560D1*
Y2556560D1*
Y2555560D1*
Y2554560D1*
Y2553560D1*
Y2552560D1*
Y2551560D1*
Y2550560D1*
Y2549560D1*
Y2548560D1*
Y2547560D1*
Y2546560D1*
Y2545560D1*
Y2544560D1*
Y2543560D1*
Y2542560D1*
Y2541560D1*
Y2540560D1*
Y2539560D1*
X519889Y2571560D2*
Y2570560D1*
Y2569560D1*
Y2568560D1*
Y2567560D1*
Y2566560D1*
Y2565560D1*
Y2564560D1*
Y2563560D1*
Y2562560D1*
Y2561560D1*
Y2560560D1*
Y2559560D1*
Y2558560D1*
Y2557560D1*
Y2556560D1*
Y2555560D1*
Y2554560D1*
Y2553560D1*
Y2552560D1*
Y2551560D1*
Y2550560D1*
Y2549560D1*
Y2548560D1*
Y2547560D1*
Y2546560D1*
Y2545560D1*
Y2544560D1*
Y2543560D1*
Y2542560D1*
Y2541560D1*
Y2540560D1*
Y2539560D1*
Y2538560D1*
Y2537560D1*
Y2536560D1*
Y2535560D1*
Y2534560D1*
Y2533560D1*
Y2532560D1*
Y2531560D1*
Y2530560D1*
Y2529560D1*
Y2528560D1*
Y2527560D1*
Y2526560D1*
Y2525560D1*
Y2524560D1*
Y2523560D1*
Y2522560D1*
Y2521560D1*
Y2520560D1*
Y2519560D1*
Y2518560D1*
Y2517560D1*
Y2516560D1*
Y2515560D1*
Y2514560D1*
Y2513560D1*
Y2512560D1*
Y2511560D1*
Y2510560D1*
Y2509560D1*
Y2508560D1*
Y2507560D1*
Y2506560D1*
Y2505560D1*
Y2504560D1*
Y2503560D1*
Y2502560D1*
Y2501560D1*
Y2500560D1*
Y2499560D1*
Y2498560D1*
Y2497560D1*
Y2496560D1*
Y2495560D1*
X424889Y2539560D2*
Y2538560D1*
Y2537560D1*
Y2536560D1*
Y2535560D1*
Y2534560D1*
Y2533560D1*
Y2532560D1*
Y2531560D1*
Y2530560D1*
Y2529560D1*
Y2528560D1*
Y2527560D1*
X509889D2*
Y2526560D1*
Y2525560D1*
Y2524560D1*
Y2523560D1*
Y2522560D1*
Y2521560D1*
Y2520560D1*
Y2519560D1*
Y2518560D1*
Y2517560D1*
Y2516560D1*
Y2515560D1*
Y2514560D1*
Y2513560D1*
Y2512560D1*
Y2511560D1*
Y2510560D1*
Y2509560D1*
Y2508560D1*
Y2507560D1*
Y2506560D1*
Y2505560D1*
Y2504560D1*
Y2503560D1*
Y2502560D1*
Y2501560D1*
Y2500560D1*
Y2499560D1*
Y2498560D1*
Y2497560D1*
Y2496560D1*
Y2495560D1*
X507889Y2486560D2*
Y2485560D1*
Y2484560D1*
Y2483560D1*
Y2482560D1*
Y2481560D1*
Y2480560D1*
Y2479560D1*
Y2478560D1*
Y2477560D1*
Y2476560D1*
Y2475560D1*
Y2474560D1*
Y2473560D1*
X519889Y2486560D2*
Y2485560D1*
Y2484560D1*
Y2483560D1*
Y2482560D1*
Y2481560D1*
Y2480560D1*
Y2479560D1*
Y2478560D1*
Y2477560D1*
Y2476560D1*
Y2475560D1*
Y2474560D1*
Y2473560D1*
X424889Y2485560D2*
Y2484560D1*
Y2483560D1*
Y2482560D1*
Y2481560D1*
Y2480560D1*
Y2479560D1*
Y2478560D1*
Y2477560D1*
Y2476560D1*
Y2475560D1*
Y2474560D1*
X495889Y2485560D2*
Y2484560D1*
Y2483560D1*
Y2482560D1*
Y2481560D1*
Y2480560D1*
Y2479560D1*
Y2478560D1*
Y2477560D1*
Y2476560D1*
Y2475560D1*
Y2474560D1*
X449889Y2460560D2*
X446008Y2459560D1*
X442605Y2458560D1*
X439755Y2457560D1*
X437420Y2456560D1*
X435484Y2455560D1*
X433816Y2454560D1*
X432361Y2453560D1*
X431108Y2452560D1*
X430017Y2451560D1*
X429090Y2450560D1*
X428312Y2449560D1*
X427595Y2448560D1*
X426898Y2447560D1*
X426268Y2446560D1*
X425729Y2445560D1*
X425292Y2444560D1*
X424926Y2443560D1*
X424569Y2442560D1*
X424256Y2441560D1*
X424026Y2440560D1*
X423798Y2439560D1*
X423513Y2438560D1*
X423238Y2437560D1*
X423056Y2436560D1*
X422961Y2435560D1*
X422918Y2434560D1*
X422904Y2433560D1*
X422932Y2432560D1*
X423057Y2431560D1*
X423296Y2430560D1*
X423556Y2429560D1*
X423765Y2428560D1*
X423985Y2427560D1*
X424271Y2426560D1*
X424580Y2425560D1*
X424893Y2424560D1*
X425263Y2423560D1*
X425694Y2422560D1*
X426164Y2421560D1*
X426687Y2420560D1*
X427308Y2419560D1*
X428047Y2418560D1*
X428806Y2417560D1*
X429515Y2416560D1*
X430236Y2415560D1*
X431039Y2414560D1*
X431889Y2413560D1*
X424889Y2412560D1*
Y2411560D1*
Y2410560D1*
Y2409560D1*
Y2408560D1*
Y2407560D1*
Y2406560D1*
Y2405560D1*
Y2404560D1*
Y2403560D1*
Y2402560D1*
Y2401560D1*
X469889Y2460560D2*
X473305Y2459560D1*
X476390Y2458560D1*
X479002Y2457560D1*
X481160Y2456560D1*
X483054Y2455560D1*
X484793Y2454560D1*
X486326Y2453560D1*
X487633Y2452560D1*
X488783Y2451560D1*
X489844Y2450560D1*
X490835Y2449560D1*
X491717Y2448560D1*
X492478Y2447560D1*
X493187Y2446560D1*
X493882Y2445560D1*
X494515Y2444560D1*
X495084Y2443560D1*
X495614Y2442560D1*
X496096Y2441560D1*
X496505Y2440560D1*
X496859Y2439560D1*
X497213Y2438560D1*
X497519Y2437560D1*
X497714Y2436560D1*
X497815Y2435560D1*
X497860Y2434560D1*
X497878Y2433560D1*
X497885Y2432560D1*
X497888Y2431560D1*
X497889Y2430560D1*
Y2429560D1*
Y2428560D1*
Y2427560D1*
Y2426560D1*
X497885Y2425560D1*
X497850Y2424560D1*
X497723Y2423560D1*
X497479Y2422560D1*
X497188Y2421560D1*
X496882Y2420560D1*
X496515Y2419560D1*
X496085Y2418560D1*
X495618Y2417560D1*
X495135Y2416560D1*
X494676Y2415560D1*
X494305Y2414560D1*
X494064Y2413560D1*
X493889Y2412560D1*
X459889Y2449560D2*
X454521Y2448560D1*
X449934Y2447560D1*
X446339Y2446560D1*
X443553Y2445560D1*
X441350Y2444560D1*
X439637Y2443560D1*
X438371Y2442560D1*
X437460Y2441560D1*
X436770Y2440560D1*
X436192Y2439560D1*
X435697Y2438560D1*
X435312Y2437560D1*
X435048Y2436560D1*
X434806Y2435560D1*
X434516Y2434560D1*
X434243Y2433560D1*
X434096Y2432560D1*
X434128Y2431560D1*
X434324Y2430560D1*
X434562Y2429560D1*
X434734Y2428560D1*
X434859Y2427560D1*
X435028Y2426560D1*
X435289Y2425560D1*
X435587Y2424560D1*
X435895Y2423560D1*
X436263Y2422560D1*
X436694Y2421560D1*
X437161Y2420560D1*
X437648Y2419560D1*
X438146Y2418560D1*
X438676Y2417560D1*
X439267Y2416560D1*
X439876Y2415560D1*
X440360Y2414560D1*
X440668Y2413560D1*
X440889Y2412560D1*
X460889Y2449560D2*
X466258Y2448560D1*
X470841Y2447560D1*
X474404Y2446560D1*
X477098Y2445560D1*
X479189Y2444560D1*
X480886Y2443560D1*
X482237Y2442560D1*
X483260Y2441560D1*
X484097Y2440560D1*
X484847Y2439560D1*
X485502Y2438560D1*
X486080Y2437560D1*
X486612Y2436560D1*
X487091Y2435560D1*
X487466Y2434560D1*
X487693Y2433560D1*
X487807Y2432560D1*
X487857Y2431560D1*
X487877Y2430560D1*
X487885Y2429560D1*
X487888Y2428560D1*
X487889Y2427560D1*
Y2426560D1*
Y2425560D1*
X487885Y2424560D1*
X487850Y2423560D1*
X487723Y2422560D1*
X487479Y2421560D1*
X487188Y2420560D1*
X486886Y2419560D1*
X486550Y2418560D1*
X486216Y2417560D1*
X485896Y2416560D1*
X485557Y2415560D1*
X485253Y2414560D1*
X485045Y2413560D1*
X484889Y2412560D1*
X524889D2*
Y2411560D1*
Y2410560D1*
Y2409560D1*
Y2408560D1*
Y2407560D1*
Y2406560D1*
Y2405560D1*
Y2404560D1*
Y2403560D1*
Y2402560D1*
Y2401560D1*
X450889Y2387560D2*
X447354Y2386560D1*
X444279Y2385560D1*
X441716Y2384560D1*
X439626Y2383560D1*
X437878Y2382560D1*
X436386Y2381560D1*
X435113Y2380560D1*
X433982Y2379560D1*
X432925Y2378560D1*
X431906Y2377560D1*
X430933Y2376560D1*
X430061Y2375560D1*
X429335Y2374560D1*
X428722Y2373560D1*
X428171Y2372560D1*
X427652Y2371560D1*
X427143Y2370560D1*
X426641Y2369560D1*
X426143Y2368560D1*
X425679Y2367560D1*
X425305Y2366560D1*
X425046Y2365560D1*
X424805Y2364560D1*
X424516Y2363560D1*
X424239Y2362560D1*
X424057Y2361560D1*
X423957Y2360560D1*
X423879Y2359560D1*
X423733Y2358560D1*
X423487Y2357560D1*
X423228Y2356560D1*
X423053Y2355560D1*
X422960Y2354560D1*
X422917Y2353560D1*
X422900Y2352560D1*
X422893Y2351560D1*
X422894Y2350560D1*
X422929Y2349560D1*
X423056Y2348560D1*
X423295Y2347560D1*
X423552Y2346560D1*
X423726Y2345560D1*
X423823Y2344560D1*
X423900Y2343560D1*
X424045Y2342560D1*
X424292Y2341560D1*
X424554Y2340560D1*
X424765Y2339560D1*
X424989Y2338560D1*
X425306Y2337560D1*
X425708Y2336560D1*
X426132Y2335560D1*
X426519Y2334560D1*
X426864Y2333560D1*
X427218Y2332560D1*
X427559Y2331560D1*
X427882Y2330560D1*
X428230Y2329560D1*
X428575Y2328560D1*
X428889Y2327560D1*
X469889Y2387560D2*
X473305Y2386560D1*
X476390Y2385560D1*
X478998Y2384560D1*
X481121Y2383560D1*
X482891Y2382560D1*
X484426Y2381560D1*
X485830Y2380560D1*
X487198Y2379560D1*
X488477Y2378560D1*
X489546Y2377560D1*
X490408Y2376560D1*
X491193Y2375560D1*
X492002Y2374560D1*
X492785Y2373560D1*
X493471Y2372560D1*
X494067Y2371560D1*
X494611Y2370560D1*
X495128Y2369560D1*
X495632Y2368560D1*
X496099Y2367560D1*
X496473Y2366560D1*
X496733Y2365560D1*
X496973Y2364560D1*
X497263Y2363560D1*
X497540Y2362560D1*
X497722Y2361560D1*
X497817Y2360560D1*
X497861Y2359560D1*
X497879Y2358560D1*
X497885Y2357560D1*
X497888Y2356560D1*
X497889Y2355560D1*
Y2354560D1*
Y2353560D1*
Y2352560D1*
Y2351560D1*
Y2350560D1*
X497885Y2349560D1*
X497850Y2348560D1*
X497723Y2347560D1*
X497479Y2346560D1*
X497188Y2345560D1*
X496882Y2344560D1*
X496515Y2343560D1*
X496085Y2342560D1*
X495618Y2341560D1*
X495131Y2340560D1*
X494633Y2339560D1*
X494099Y2338560D1*
X493469Y2337560D1*
X492694Y2336560D1*
X491803Y2335560D1*
X490818Y2334560D1*
X489707Y2333560D1*
X488436Y2332560D1*
X487012Y2331560D1*
X485386Y2330560D1*
X483389Y2329560D1*
X480798Y2328560D1*
X477530Y2327560D1*
X473889Y2326560D1*
X456889Y2376560D2*
X453128Y2375560D1*
X449714Y2374560D1*
X446824Y2373560D1*
X444491Y2372560D1*
X442664Y2371560D1*
X441228Y2370560D1*
X440030Y2369560D1*
X438980Y2368560D1*
X438078Y2367560D1*
X437341Y2366560D1*
X436724Y2365560D1*
X436176Y2364560D1*
X435687Y2363560D1*
X435275Y2362560D1*
X434920Y2361560D1*
X434566Y2360560D1*
X434259Y2359560D1*
X434061Y2358560D1*
X433925Y2357560D1*
X433752Y2356560D1*
X433494Y2355560D1*
X433231Y2354560D1*
X433058Y2353560D1*
X432999Y2352560D1*
X433084Y2351560D1*
X433306Y2350560D1*
X433555Y2349560D1*
X433727Y2348560D1*
X433819Y2347560D1*
X433865Y2346560D1*
X433918Y2345560D1*
X434052Y2344560D1*
X434298Y2343560D1*
X434590Y2342560D1*
X434892Y2341560D1*
X435229Y2340560D1*
X435563Y2339560D1*
X435886Y2338560D1*
X436260Y2337560D1*
X436693Y2336560D1*
X437160Y2335560D1*
X437648Y2334560D1*
X438142Y2333560D1*
X438641Y2332560D1*
X439139Y2331560D1*
X439637Y2330560D1*
X440110Y2329560D1*
X440526Y2328560D1*
X440889Y2327560D1*
X459889Y2376560D2*
Y2375560D1*
Y2374560D1*
Y2373560D1*
Y2372560D1*
Y2371560D1*
Y2370560D1*
Y2369560D1*
Y2368560D1*
Y2367560D1*
Y2366560D1*
Y2365560D1*
Y2364560D1*
Y2363560D1*
Y2362560D1*
Y2361560D1*
Y2360560D1*
Y2359560D1*
Y2358560D1*
Y2357560D1*
Y2356560D1*
Y2355560D1*
Y2354560D1*
Y2353560D1*
Y2352560D1*
Y2351560D1*
Y2350560D1*
Y2349560D1*
Y2348560D1*
Y2347560D1*
Y2346560D1*
Y2345560D1*
Y2344560D1*
Y2343560D1*
Y2342560D1*
Y2341560D1*
Y2340560D1*
Y2339560D1*
Y2338560D1*
Y2337560D1*
Y2336560D1*
Y2335560D1*
Y2334560D1*
Y2333560D1*
Y2332560D1*
Y2331560D1*
Y2330560D1*
Y2329560D1*
Y2328560D1*
Y2327560D1*
Y2326560D1*
X467889Y2376560D2*
Y2375560D1*
Y2374560D1*
Y2373560D1*
Y2372560D1*
Y2371560D1*
Y2370560D1*
Y2369560D1*
Y2368560D1*
Y2367560D1*
Y2366560D1*
Y2365560D1*
Y2364560D1*
Y2363560D1*
Y2362560D1*
Y2361560D1*
Y2360560D1*
Y2359560D1*
Y2358560D1*
Y2357560D1*
Y2356560D1*
Y2355560D1*
Y2354560D1*
Y2353560D1*
Y2352560D1*
Y2351560D1*
Y2350560D1*
Y2349560D1*
Y2348560D1*
Y2347560D1*
Y2346560D1*
Y2345560D1*
Y2344560D1*
Y2343560D1*
Y2342560D1*
Y2341560D1*
Y2340560D1*
Y2339560D1*
Y2338560D1*
X474889Y2337560D1*
X469889Y2376560D2*
X472809Y2375560D1*
X475510Y2374560D1*
X477825Y2373560D1*
X479740Y2372560D1*
X481322Y2371560D1*
X482634Y2370560D1*
X483747Y2369560D1*
X484683Y2368560D1*
X485465Y2367560D1*
X486179Y2366560D1*
X486845Y2365560D1*
X487383Y2364560D1*
X487806Y2363560D1*
X488191Y2362560D1*
X488511Y2361560D1*
X488711Y2360560D1*
X488814Y2359560D1*
X488859Y2358560D1*
X488878Y2357560D1*
X488885Y2356560D1*
X488888Y2355560D1*
X488889Y2354560D1*
Y2353560D1*
X488885Y2352560D1*
X488850Y2351560D1*
X488719Y2350560D1*
X488444Y2349560D1*
X488056Y2348560D1*
X487604Y2347560D1*
X487088Y2346560D1*
X486465Y2345560D1*
X485688Y2344560D1*
X484763Y2343560D1*
X483643Y2342560D1*
X482191Y2341560D1*
X480104Y2340560D1*
X476786Y2339560D1*
X471827Y2338560D1*
X465889Y2337560D1*
X428889Y2317560D2*
X428509Y2316560D1*
X428084Y2315560D1*
X427650Y2314560D1*
X427261Y2313560D1*
X426915Y2312560D1*
X426561Y2311560D1*
X426220Y2310560D1*
X425898Y2309560D1*
X425554Y2308560D1*
X425217Y2307560D1*
X424897Y2306560D1*
X424558Y2305560D1*
X424256Y2304560D1*
X424063Y2303560D1*
X423960Y2302560D1*
X423880Y2301560D1*
X423734Y2300560D1*
X423487Y2299560D1*
X423228Y2298560D1*
X423053Y2297560D1*
X422960Y2296560D1*
X422917Y2295560D1*
X422900Y2294560D1*
X422893Y2293560D1*
X422891Y2292560D1*
X422894Y2291560D1*
X422928Y2290560D1*
X423056Y2289560D1*
X423295Y2288560D1*
X423552Y2287560D1*
X423730Y2286560D1*
X423858Y2285560D1*
X424028Y2284560D1*
X424289Y2283560D1*
X424587Y2282560D1*
X424895Y2281560D1*
X425263Y2280560D1*
X425694Y2279560D1*
X426165Y2278560D1*
X426683Y2277560D1*
X427273Y2276560D1*
X427919Y2275560D1*
X428566Y2274560D1*
X429259Y2273560D1*
X430068Y2272560D1*
X431007Y2271560D1*
X432128Y2270560D1*
X433516Y2269560D1*
X435170Y2268560D1*
X436996Y2267560D1*
X438889Y2266560D1*
X441889Y2317560D2*
X441389Y2316560D1*
X440804Y2315560D1*
X440193Y2314560D1*
X439549Y2313560D1*
X438881Y2312560D1*
X438258Y2311560D1*
X437692Y2310560D1*
X437160Y2309560D1*
X436648Y2308560D1*
X436142Y2307560D1*
X435641Y2306560D1*
X435143Y2305560D1*
X434675Y2304560D1*
X434270Y2303560D1*
X433918Y2302560D1*
X433566Y2301560D1*
X433259Y2300560D1*
X433064Y2299560D1*
X432960Y2298560D1*
X432880Y2297560D1*
X432734Y2296560D1*
X432487Y2295560D1*
X432232Y2294560D1*
X432092Y2293560D1*
X432126Y2292560D1*
X432323Y2291560D1*
X432562Y2290560D1*
X432734Y2289560D1*
X432859Y2288560D1*
X433028Y2287560D1*
X433289Y2286560D1*
X433587Y2285560D1*
X433895Y2284560D1*
X434267Y2283560D1*
X434741Y2282560D1*
X435304Y2281560D1*
X436414Y2280560D1*
X439290Y2279560D1*
X443631Y2278560D1*
X448889Y2277560D1*
X470889Y2316560D2*
X468624Y2315560D1*
X466752Y2314560D1*
X465272Y2313560D1*
X464049Y2312560D1*
X462988Y2311560D1*
X462077Y2310560D1*
X461307Y2309560D1*
X460597Y2308560D1*
X459932Y2307560D1*
X459396Y2306560D1*
X458973Y2305560D1*
X458584Y2304560D1*
X458228Y2303560D1*
X457901Y2302560D1*
X457559Y2301560D1*
X457253Y2300560D1*
X457025Y2299560D1*
X456797Y2298560D1*
X456513Y2297560D1*
X456234Y2296560D1*
X456017Y2295560D1*
X455795Y2294560D1*
X455512Y2293560D1*
X455234Y2292560D1*
X455017Y2291560D1*
X454795Y2290560D1*
X454512Y2289560D1*
X454234Y2288560D1*
X454017Y2287560D1*
X453791Y2286560D1*
X453473Y2285560D1*
X453067Y2284560D1*
X452607Y2283560D1*
X452081Y2282560D1*
X451356Y2281560D1*
X450369Y2280560D1*
X447491Y2279560D1*
X443148Y2278560D1*
X437889Y2277560D1*
X482889Y2316560D2*
X484847Y2315560D1*
X486680Y2314560D1*
X488274Y2313560D1*
X489608Y2312560D1*
X490736Y2311560D1*
X491679Y2310560D1*
X492463Y2309560D1*
X493182Y2308560D1*
X493880Y2307560D1*
X494514Y2306560D1*
X495084Y2305560D1*
X495614Y2304560D1*
X496092Y2303560D1*
X496470Y2302560D1*
X496732Y2301560D1*
X496973Y2300560D1*
X497263Y2299560D1*
X497540Y2298560D1*
X497722Y2297560D1*
X497817Y2296560D1*
X497861Y2295560D1*
X497879Y2294560D1*
X497885Y2293560D1*
X497888Y2292560D1*
X497889Y2291560D1*
Y2290560D1*
Y2289560D1*
Y2288560D1*
Y2287560D1*
Y2286560D1*
Y2285560D1*
X497885Y2284560D1*
X497850Y2283560D1*
X497723Y2282560D1*
X497483Y2281560D1*
X497223Y2280560D1*
X497013Y2279560D1*
X496793Y2278560D1*
X496511Y2277560D1*
X496233Y2276560D1*
X496017Y2275560D1*
X495791Y2274560D1*
X495473Y2273560D1*
X495067Y2272560D1*
X494608Y2271560D1*
X494099Y2270560D1*
X493523Y2269560D1*
X492889Y2268560D1*
X477889Y2305560D2*
X475286Y2304560D1*
X473152Y2303560D1*
X471613Y2302560D1*
X470563Y2301560D1*
X469810Y2300560D1*
X469207Y2299560D1*
X468698Y2298560D1*
X468278Y2297560D1*
X467921Y2296560D1*
X467567Y2295560D1*
X467256Y2294560D1*
X467025Y2293560D1*
X466797Y2292560D1*
X466513Y2291560D1*
X466238Y2290560D1*
X466052Y2289560D1*
X465922Y2288560D1*
X465751Y2287560D1*
X465494Y2286560D1*
X465227Y2285560D1*
X465015Y2284560D1*
X464794Y2283560D1*
X464511Y2282560D1*
X464234Y2281560D1*
X464017Y2280560D1*
X463791Y2279560D1*
X463473Y2278560D1*
X463067Y2277560D1*
X462607Y2276560D1*
X462093Y2275560D1*
X461505Y2274560D1*
X460859Y2273560D1*
X460209Y2272560D1*
X459480Y2271560D1*
X458540Y2270560D1*
X457324Y2269560D1*
X455802Y2268560D1*
X453947Y2267560D1*
X451889Y2266560D1*
X479889Y2305560D2*
X481693Y2304560D1*
X483274Y2303560D1*
X484573Y2302560D1*
X485604Y2301560D1*
X486400Y2300560D1*
X487040Y2299560D1*
X487598Y2298560D1*
X488086Y2297560D1*
X488464Y2296560D1*
X488692Y2295560D1*
X488806Y2294560D1*
X488857Y2293560D1*
X488877Y2292560D1*
X488885Y2291560D1*
X488888Y2290560D1*
X488889Y2289560D1*
Y2288560D1*
X488885Y2287560D1*
X488850Y2286560D1*
X488723Y2285560D1*
X488483Y2284560D1*
X488223Y2283560D1*
X488013Y2282560D1*
X487789Y2281560D1*
X487472Y2280560D1*
X487071Y2279560D1*
X486646Y2278560D1*
X486256Y2277560D1*
X485875Y2276560D1*
X485394Y2275560D1*
X484814Y2274560D1*
X484231Y2273560D1*
X483678Y2272560D1*
X483118Y2271560D1*
X482479Y2270560D1*
X481716Y2269560D1*
X480889Y2268560D1*
X424889Y2256560D2*
Y2255560D1*
Y2254560D1*
Y2253560D1*
Y2252560D1*
Y2251560D1*
Y2250560D1*
Y2249560D1*
Y2248560D1*
Y2247560D1*
Y2246560D1*
Y2245560D1*
Y2244560D1*
Y2243560D1*
Y2242560D1*
Y2241560D1*
Y2240560D1*
Y2239560D1*
Y2238560D1*
Y2237560D1*
Y2236560D1*
Y2235560D1*
Y2234560D1*
Y2233560D1*
Y2232560D1*
Y2231560D1*
Y2230560D1*
Y2229560D1*
Y2228560D1*
Y2227560D1*
Y2226560D1*
Y2225560D1*
Y2224560D1*
Y2223560D1*
Y2222560D1*
Y2221560D1*
Y2220560D1*
X433889Y2256560D2*
Y2255560D1*
Y2254560D1*
Y2253560D1*
Y2252560D1*
Y2251560D1*
Y2250560D1*
Y2249560D1*
Y2248560D1*
Y2247560D1*
Y2246560D1*
Y2245560D1*
Y2244560D1*
X510889Y2256560D2*
Y2255560D1*
Y2254560D1*
Y2253560D1*
Y2252560D1*
Y2251560D1*
Y2250560D1*
Y2249560D1*
Y2248560D1*
Y2247560D1*
Y2246560D1*
Y2245560D1*
Y2244560D1*
X519889Y2256560D2*
Y2255560D1*
Y2254560D1*
Y2253560D1*
Y2252560D1*
Y2251560D1*
Y2250560D1*
Y2249560D1*
Y2248560D1*
Y2247560D1*
Y2246560D1*
Y2245560D1*
Y2244560D1*
Y2243560D1*
Y2242560D1*
Y2241560D1*
Y2240560D1*
Y2239560D1*
Y2238560D1*
Y2237560D1*
Y2236560D1*
Y2235560D1*
Y2234560D1*
Y2233560D1*
Y2232560D1*
Y2231560D1*
Y2230560D1*
Y2229560D1*
Y2228560D1*
Y2227560D1*
Y2226560D1*
Y2225560D1*
Y2224560D1*
Y2223560D1*
Y2222560D1*
Y2221560D1*
Y2220560D1*
X433889Y2232560D2*
Y2231560D1*
Y2230560D1*
Y2229560D1*
Y2228560D1*
Y2227560D1*
Y2226560D1*
Y2225560D1*
Y2224560D1*
Y2223560D1*
Y2222560D1*
Y2221560D1*
Y2220560D1*
X510889Y2232560D2*
Y2231560D1*
Y2230560D1*
Y2229560D1*
Y2228560D1*
Y2227560D1*
Y2226560D1*
Y2225560D1*
Y2224560D1*
Y2223560D1*
Y2222560D1*
Y2221560D1*
Y2220560D1*
X424889Y2207560D2*
Y2206560D1*
Y2205560D1*
Y2204560D1*
Y2203560D1*
Y2202560D1*
Y2201560D1*
Y2200560D1*
Y2199560D1*
Y2198560D1*
Y2197560D1*
Y2196560D1*
Y2195560D1*
Y2194560D1*
Y2193560D1*
Y2192560D1*
Y2191560D1*
Y2190560D1*
Y2189560D1*
Y2188560D1*
Y2187560D1*
Y2186560D1*
Y2185560D1*
Y2184560D1*
Y2183560D1*
Y2182560D1*
Y2181560D1*
Y2180560D1*
Y2179560D1*
Y2178560D1*
Y2177560D1*
Y2176560D1*
Y2175560D1*
Y2174560D1*
Y2173560D1*
Y2172560D1*
Y2171560D1*
X433889Y2207560D2*
Y2206560D1*
Y2205560D1*
Y2204560D1*
Y2203560D1*
Y2202560D1*
Y2201560D1*
Y2200560D1*
Y2199560D1*
Y2198560D1*
Y2197560D1*
Y2196560D1*
Y2195560D1*
X510889Y2207560D2*
Y2206560D1*
Y2205560D1*
Y2204560D1*
Y2203560D1*
Y2202560D1*
Y2201560D1*
Y2200560D1*
Y2199560D1*
Y2198560D1*
Y2197560D1*
Y2196560D1*
Y2195560D1*
X519889Y2207560D2*
Y2206560D1*
Y2205560D1*
Y2204560D1*
Y2203560D1*
Y2202560D1*
Y2201560D1*
Y2200560D1*
Y2199560D1*
Y2198560D1*
Y2197560D1*
Y2196560D1*
Y2195560D1*
Y2194560D1*
Y2193560D1*
Y2192560D1*
Y2191560D1*
Y2190560D1*
Y2189560D1*
Y2188560D1*
Y2187560D1*
Y2186560D1*
Y2185560D1*
Y2184560D1*
Y2183560D1*
Y2182560D1*
Y2181560D1*
Y2180560D1*
Y2179560D1*
Y2178560D1*
Y2177560D1*
Y2176560D1*
Y2175560D1*
Y2174560D1*
Y2173560D1*
Y2172560D1*
Y2171560D1*
X433889Y2183560D2*
Y2182560D1*
Y2181560D1*
Y2180560D1*
Y2179560D1*
Y2178560D1*
Y2177560D1*
Y2176560D1*
Y2175560D1*
Y2174560D1*
Y2173560D1*
Y2172560D1*
Y2171560D1*
X510889Y2183560D2*
Y2182560D1*
Y2181560D1*
Y2180560D1*
Y2179560D1*
Y2178560D1*
Y2177560D1*
Y2176560D1*
Y2175560D1*
Y2174560D1*
Y2173560D1*
Y2172560D1*
Y2171560D1*
X433688Y3108240D2*
Y3107240D1*
Y3106240D1*
Y3105240D1*
Y3104240D1*
Y3103240D1*
Y3102240D1*
Y3101240D1*
Y3100240D1*
Y3099240D1*
Y3098240D1*
Y3097240D1*
Y3096240D1*
Y3095240D1*
Y3094240D1*
Y3093240D1*
Y3092240D1*
Y3091240D1*
Y3090240D1*
Y3089240D1*
Y3088240D1*
Y3087240D1*
Y3086240D1*
Y3085240D1*
Y3084240D1*
Y3083240D1*
Y3082240D1*
Y3081240D1*
Y3080240D1*
Y3079240D1*
Y3078240D1*
Y3077240D1*
Y3076240D1*
Y3075240D1*
X485688Y3108240D2*
Y3107240D1*
Y3106240D1*
Y3105240D1*
Y3104240D1*
Y3103240D1*
Y3102240D1*
Y3101240D1*
Y3100240D1*
Y3099240D1*
Y3098240D1*
Y3097240D1*
Y3096240D1*
Y3095240D1*
Y3094240D1*
Y3093240D1*
Y3092240D1*
Y3091240D1*
Y3090240D1*
Y3089240D1*
Y3088240D1*
Y3087240D1*
Y3086240D1*
Y3085240D1*
Y3084240D1*
Y3083240D1*
Y3082240D1*
Y3081240D1*
Y3080240D1*
Y3079240D1*
Y3078240D1*
Y3077240D1*
Y3076240D1*
Y3075240D1*
X440688Y3102240D2*
X439885Y3101240D1*
X439300Y3100240D1*
X438965Y3099240D1*
X438803Y3098240D1*
X438733Y3097240D1*
X438705Y3096240D1*
X438694Y3095240D1*
X438690Y3094240D1*
X438689Y3093240D1*
Y3092240D1*
Y3091240D1*
Y3090240D1*
Y3089240D1*
X438688Y3088240D1*
Y3087240D1*
Y3086240D1*
Y3085240D1*
Y3084240D1*
Y3083240D1*
Y3082240D1*
Y3081240D1*
Y3080240D1*
Y3079240D1*
Y3078240D1*
Y3077240D1*
Y3076240D1*
Y3075240D1*
X459688Y3102240D2*
Y3101240D1*
Y3100240D1*
Y3099240D1*
Y3098240D1*
Y3097240D1*
Y3096240D1*
Y3095240D1*
Y3094240D1*
Y3093240D1*
Y3092240D1*
Y3091240D1*
Y3090240D1*
Y3089240D1*
Y3088240D1*
Y3087240D1*
Y3086240D1*
Y3085240D1*
Y3084240D1*
Y3083240D1*
Y3082240D1*
Y3081240D1*
Y3080240D1*
Y3079240D1*
Y3078240D1*
Y3077240D1*
X466688Y3102240D2*
X465885Y3101240D1*
X465300Y3100240D1*
X464965Y3099240D1*
X464803Y3098240D1*
X464733Y3097240D1*
X464705Y3096240D1*
X464694Y3095240D1*
X464690Y3094240D1*
X464689Y3093240D1*
Y3092240D1*
Y3091240D1*
Y3090240D1*
Y3089240D1*
X464688Y3088240D1*
Y3087240D1*
Y3086240D1*
Y3085240D1*
Y3084240D1*
Y3083240D1*
Y3082240D1*
Y3081240D1*
Y3080240D1*
Y3079240D1*
Y3078240D1*
Y3077240D1*
X480688Y3102240D2*
Y3101240D1*
Y3100240D1*
Y3099240D1*
Y3098240D1*
Y3097240D1*
Y3096240D1*
Y3095240D1*
Y3094240D1*
Y3093240D1*
Y3092240D1*
Y3091240D1*
Y3090240D1*
Y3089240D1*
Y3088240D1*
Y3087240D1*
Y3086240D1*
Y3085240D1*
Y3084240D1*
Y3083240D1*
Y3082240D1*
Y3081240D1*
Y3080240D1*
Y3079240D1*
Y3078240D1*
Y3077240D1*
Y3076240D1*
Y3075240D1*
X493688Y3093240D2*
X493692Y3092240D1*
X493731Y3091240D1*
X493902Y3090240D1*
X494226Y3089240D1*
X495104Y3088240D1*
X496206Y3087240D1*
X497432Y3086240D1*
X498708Y3085240D1*
X500030Y3084240D1*
X501328Y3083240D1*
X502534Y3082240D1*
X503688Y3081240D1*
X495688Y3093240D2*
X497688Y3092240D1*
X499681Y3091240D1*
X501603Y3090240D1*
X503270Y3089240D1*
X504646Y3088240D1*
X505180Y3087240D1*
X505471Y3086240D1*
X505603Y3085240D1*
X505657Y3084240D1*
X505677Y3083240D1*
X505685Y3082240D1*
X505688Y3081240D1*
X433688Y3067240D2*
Y3066240D1*
Y3065240D1*
Y3064240D1*
Y3063240D1*
Y3062240D1*
Y3061240D1*
X472688Y3067240D2*
Y3066240D1*
Y3065240D1*
X472677Y3064240D1*
X472563Y3063240D1*
X472290Y3062240D1*
X471121Y3061240D1*
X469688Y3060240D1*
X470530Y3059240D1*
X471247Y3058240D1*
X471857Y3057240D1*
X472403Y3056240D1*
X472887Y3055240D1*
X473264Y3054240D1*
X473492Y3053240D1*
X473606Y3052240D1*
X473656Y3051240D1*
X473676Y3050240D1*
X473680Y3049240D1*
X473648Y3048240D1*
X473518Y3047240D1*
X473239Y3046240D1*
X472817Y3045240D1*
X472232Y3044240D1*
X471446Y3043240D1*
X470482Y3042240D1*
X469501Y3041240D1*
X468652Y3040240D1*
X468324Y3039240D1*
X469014Y3038240D1*
X469829Y3037240D1*
X470708Y3036240D1*
X471540Y3035240D1*
X472247Y3034240D1*
X472819Y3033240D1*
X473237Y3032240D1*
X473481Y3031240D1*
X473602Y3030240D1*
X473655Y3029240D1*
X473676Y3028240D1*
X473684Y3027240D1*
X473683Y3026240D1*
X473649Y3025240D1*
X473518Y3024240D1*
X473239Y3023240D1*
X472817Y3022240D1*
X472232Y3021240D1*
X471430Y3020240D1*
X470309Y3019240D1*
X468650Y3018240D1*
X466349Y3017240D1*
X463688Y3016240D1*
Y3061240D2*
X464650Y3060240D1*
X465522Y3059240D1*
X466279Y3058240D1*
X466983Y3057240D1*
X467642Y3056240D1*
X468143Y3055240D1*
X468439Y3054240D1*
X468584Y3053240D1*
X468644Y3052240D1*
X468635Y3051240D1*
X468509Y3050240D1*
X468195Y3049240D1*
X467727Y3048240D1*
X466657Y3047240D1*
X465258Y3046240D1*
X463688Y3045240D1*
X433688D2*
Y3044240D1*
Y3043240D1*
Y3042240D1*
Y3041240D1*
Y3040240D1*
Y3039240D1*
X462688D2*
X463688Y3038240D1*
X464685Y3037240D1*
X465649Y3036240D1*
X466518Y3035240D1*
X467240Y3034240D1*
X467817Y3033240D1*
X468236Y3032240D1*
X468481Y3031240D1*
X468602Y3030240D1*
X468651Y3029240D1*
X468633Y3028240D1*
X468471Y3027240D1*
X468151Y3026240D1*
X467231Y3025240D1*
X465970Y3024240D1*
X464398Y3023240D1*
X462688Y3022240D1*
X433688D2*
Y3021240D1*
Y3020240D1*
Y3019240D1*
Y3018240D1*
Y3017240D1*
Y3016240D1*
Y3006240D2*
Y3005240D1*
Y3004240D1*
Y3003240D1*
Y3002240D1*
Y3001240D1*
Y3000240D1*
X472688Y3006240D2*
Y3005240D1*
Y3004240D1*
Y3003240D1*
Y3002240D1*
Y3001240D1*
Y3000240D1*
X479688Y3006240D2*
Y3005240D1*
Y3004240D1*
Y3003240D1*
Y3002240D1*
Y3001240D1*
Y3000240D1*
X485688Y3006240D2*
Y3005240D1*
Y3004240D1*
Y3003240D1*
Y3002240D1*
Y3001240D1*
Y3000240D1*
X433688Y2989240D2*
Y2988240D1*
Y2987240D1*
Y2986240D1*
Y2985240D1*
Y2984240D1*
Y2983240D1*
X487688Y2989240D2*
Y2988240D1*
Y2987240D1*
Y2986240D1*
Y2985240D1*
Y2984240D1*
Y2983240D1*
X433688Y2972240D2*
Y2971240D1*
Y2970240D1*
Y2969240D1*
Y2968240D1*
Y2967240D1*
Y2966240D1*
X472688Y2972240D2*
Y2971240D1*
Y2970240D1*
Y2969240D1*
Y2968240D1*
Y2967240D1*
Y2966240D1*
X479688Y2972240D2*
Y2971240D1*
Y2970240D1*
Y2969240D1*
Y2968240D1*
Y2967240D1*
Y2966240D1*
X485688Y2972240D2*
Y2971240D1*
Y2970240D1*
Y2969240D1*
Y2968240D1*
Y2967240D1*
Y2966240D1*
X447688Y2958240D2*
X445265Y2957240D1*
X443114Y2956240D1*
X441282Y2955240D1*
X439768Y2954240D1*
X438566Y2953240D1*
X437603Y2952240D1*
X436784Y2951240D1*
X436097Y2950240D1*
X435506Y2949240D1*
X434968Y2948240D1*
X434488Y2947240D1*
X434108Y2946240D1*
X433846Y2945240D1*
X433605Y2944240D1*
X433315Y2943240D1*
X433038Y2942240D1*
X432856Y2941240D1*
X432760Y2940240D1*
X432717Y2939240D1*
X432703Y2938240D1*
X432731Y2937240D1*
X432856Y2936240D1*
X433095Y2935240D1*
X433355Y2934240D1*
X433564Y2933240D1*
X433785Y2932240D1*
X434070Y2931240D1*
X434379Y2930240D1*
X434692Y2929240D1*
X435065Y2928240D1*
X435522Y2927240D1*
X436072Y2926240D1*
X436688Y2925240D1*
X458688Y2958240D2*
X461334Y2957240D1*
X463631Y2956240D1*
X465541Y2955240D1*
X467122Y2954240D1*
X468433Y2953240D1*
X469547Y2952240D1*
X470479Y2951240D1*
X471229Y2950240D1*
X471851Y2949240D1*
X472401Y2948240D1*
X472887Y2947240D1*
X473264Y2946240D1*
X473492Y2945240D1*
X473606Y2944240D1*
X473656Y2943240D1*
X473676Y2942240D1*
X473684Y2941240D1*
X473687Y2940240D1*
X473688Y2939240D1*
Y2938240D1*
X473685Y2937240D1*
X473649Y2936240D1*
X473518Y2935240D1*
X473240Y2934240D1*
X472817Y2933240D1*
X472236Y2932240D1*
X471481Y2931240D1*
X470598Y2930240D1*
X469612Y2929240D1*
X468467Y2928240D1*
X467072Y2927240D1*
X465436Y2926240D1*
X463688Y2925240D1*
X449688Y2952240D2*
X447082Y2951240D1*
X444912Y2950240D1*
X443246Y2949240D1*
X441956Y2948240D1*
X440947Y2947240D1*
X440170Y2946240D1*
X439572Y2945240D1*
X439141Y2944240D1*
X438858Y2943240D1*
X438609Y2942240D1*
X438316Y2941240D1*
X438042Y2940240D1*
X437895Y2939240D1*
X437927Y2938240D1*
X438123Y2937240D1*
X438365Y2936240D1*
X438568Y2935240D1*
X438786Y2934240D1*
X439071Y2933240D1*
X439384Y2932240D1*
X439727Y2931240D1*
X440193Y2930240D1*
X440767Y2929240D1*
X441344Y2928240D1*
X441867Y2927240D1*
X442309Y2926240D1*
X442688Y2925240D1*
X452688Y2952240D2*
Y2951240D1*
Y2950240D1*
Y2949240D1*
Y2948240D1*
Y2947240D1*
Y2946240D1*
Y2945240D1*
Y2944240D1*
Y2943240D1*
Y2942240D1*
Y2941240D1*
Y2940240D1*
Y2939240D1*
Y2938240D1*
Y2937240D1*
Y2936240D1*
Y2935240D1*
Y2934240D1*
Y2933240D1*
Y2932240D1*
Y2931240D1*
Y2930240D1*
Y2929240D1*
Y2928240D1*
Y2927240D1*
Y2926240D1*
Y2925240D1*
X456688Y2952240D2*
Y2951240D1*
Y2950240D1*
Y2949240D1*
Y2948240D1*
Y2947240D1*
Y2946240D1*
Y2945240D1*
Y2944240D1*
Y2943240D1*
Y2942240D1*
Y2941240D1*
Y2940240D1*
Y2939240D1*
Y2938240D1*
Y2937240D1*
Y2936240D1*
Y2935240D1*
X456704Y2934240D1*
X456751Y2933240D1*
X457220Y2932240D1*
X458778Y2931240D1*
X460688Y2930240D1*
X458688Y2952240D2*
X461295Y2951240D1*
X463465Y2950240D1*
X465131Y2949240D1*
X466421Y2948240D1*
X467430Y2947240D1*
X468207Y2946240D1*
X468805Y2945240D1*
X469232Y2944240D1*
X469480Y2943240D1*
X469601Y2942240D1*
X469655Y2941240D1*
X469672Y2940240D1*
X469645Y2939240D1*
X469517Y2938240D1*
X469239Y2937240D1*
X468813Y2936240D1*
X468189Y2935240D1*
X467213Y2934240D1*
X465609Y2933240D1*
X462980Y2932240D1*
X459166Y2931240D1*
X454688Y2930240D1*
X456688Y2897240D2*
X452500Y2896240D1*
X449058Y2895240D1*
X446326Y2894240D1*
X444137Y2893240D1*
X442394Y2892240D1*
X440999Y2891240D1*
X439818Y2890240D1*
X438776Y2889240D1*
X437876Y2888240D1*
X437140Y2887240D1*
X436523Y2886240D1*
X435975Y2885240D1*
X435486Y2884240D1*
X435074Y2883240D1*
X434719Y2882240D1*
X434365Y2881240D1*
X434055Y2880240D1*
X433825Y2879240D1*
X433597Y2878240D1*
X433312Y2877240D1*
X433037Y2876240D1*
X432856Y2875240D1*
X432760Y2874240D1*
X432717Y2873240D1*
X432699Y2872240D1*
X432696Y2871240D1*
X432729Y2870240D1*
X432855Y2869240D1*
X433095Y2868240D1*
X433355Y2867240D1*
X433564Y2866240D1*
X433785Y2865240D1*
X434066Y2864240D1*
X434344Y2863240D1*
X434561Y2862240D1*
X434787Y2861240D1*
X435105Y2860240D1*
X435511Y2859240D1*
X435970Y2858240D1*
X436479Y2857240D1*
X437055Y2856240D1*
X437688Y2855240D1*
X462688Y2897240D2*
X466993Y2896240D1*
X470556Y2895240D1*
X473307Y2894240D1*
X475415Y2893240D1*
X477076Y2892240D1*
X478421Y2891240D1*
X479580Y2890240D1*
X480643Y2889240D1*
X481634Y2888240D1*
X482513Y2887240D1*
X483242Y2886240D1*
X483855Y2885240D1*
X484403Y2884240D1*
X484891Y2883240D1*
X485303Y2882240D1*
X485658Y2881240D1*
X486012Y2880240D1*
X486318Y2879240D1*
X486513Y2878240D1*
X486614Y2877240D1*
X486659Y2876240D1*
X486678Y2875240D1*
X486685Y2874240D1*
X486687Y2873240D1*
X486688Y2872240D1*
Y2871240D1*
Y2870240D1*
Y2869240D1*
Y2868240D1*
X486685Y2867240D1*
X486649Y2866240D1*
X486522Y2865240D1*
X486279Y2864240D1*
X485987Y2863240D1*
X485685Y2862240D1*
X485349Y2861240D1*
X485015Y2860240D1*
X484692Y2859240D1*
X484315Y2858240D1*
X483856Y2857240D1*
X483306Y2856240D1*
X482688Y2855240D1*
X456688Y2890240D2*
X453120Y2889240D1*
X450082Y2888240D1*
X447691Y2887240D1*
X445789Y2886240D1*
X444233Y2885240D1*
X442967Y2884240D1*
X441957Y2883240D1*
X441171Y2882240D1*
X440535Y2881240D1*
X439979Y2880240D1*
X439492Y2879240D1*
X439109Y2878240D1*
X438847Y2877240D1*
X438605Y2876240D1*
X438315Y2875240D1*
X438038Y2874240D1*
X437860Y2873240D1*
X437799Y2872240D1*
X437884Y2871240D1*
X438105Y2870240D1*
X438355Y2869240D1*
X438527Y2868240D1*
X438622Y2867240D1*
X438700Y2866240D1*
X438845Y2865240D1*
X439091Y2864240D1*
X439352Y2863240D1*
X439543Y2862240D1*
X439688Y2861240D1*
X464688Y2890240D2*
X467488Y2889240D1*
X470038Y2888240D1*
X472241Y2887240D1*
X474121Y2886240D1*
X475733Y2885240D1*
X477054Y2884240D1*
X478065Y2883240D1*
X478895Y2882240D1*
X479612Y2881240D1*
X480170Y2880240D1*
X480601Y2879240D1*
X480989Y2878240D1*
X481310Y2877240D1*
X481510Y2876240D1*
X481613Y2875240D1*
X481659Y2874240D1*
X481677Y2873240D1*
X481685Y2872240D1*
X481687Y2871240D1*
X481684Y2870240D1*
X481649Y2869240D1*
X481522Y2868240D1*
X481279Y2867240D1*
X480987Y2866240D1*
X480681Y2865240D1*
X480314Y2864240D1*
X479884Y2863240D1*
X479417Y2862240D1*
X478930Y2861240D1*
X478432Y2860240D1*
X477898Y2859240D1*
X477268Y2858240D1*
X476494Y2857240D1*
X475613Y2856240D1*
X474688Y2855240D1*
X454688Y2873240D2*
Y2872240D1*
Y2871240D1*
Y2870240D1*
Y2869240D1*
Y2868240D1*
Y2867240D1*
Y2866240D1*
Y2865240D1*
Y2864240D1*
Y2863240D1*
Y2862240D1*
Y2861240D1*
X459688Y2873240D2*
Y2872240D1*
Y2871240D1*
Y2870240D1*
Y2869240D1*
Y2868240D1*
Y2867240D1*
Y2866240D1*
Y2865240D1*
Y2864240D1*
Y2863240D1*
Y2862240D1*
Y2861240D1*
Y2860240D1*
Y2859240D1*
Y2858240D1*
Y2857240D1*
Y2856240D1*
Y2855240D1*
X433688Y2845240D2*
Y2844240D1*
Y2843240D1*
Y2842240D1*
Y2841240D1*
Y2840240D1*
Y2839240D1*
X472688Y2845240D2*
Y2844240D1*
Y2843240D1*
Y2842240D1*
Y2841240D1*
Y2840240D1*
Y2839240D1*
X479688Y2845240D2*
Y2844240D1*
Y2843240D1*
Y2842240D1*
Y2841240D1*
Y2840240D1*
Y2839240D1*
X485688Y2845240D2*
Y2844240D1*
Y2843240D1*
Y2842240D1*
Y2841240D1*
Y2840240D1*
Y2839240D1*
X433688Y2828240D2*
Y2827240D1*
Y2826240D1*
Y2825240D1*
Y2824240D1*
Y2823240D1*
Y2822240D1*
X487688Y2828240D2*
Y2827240D1*
Y2826240D1*
Y2825240D1*
Y2824240D1*
Y2823240D1*
Y2822240D1*
X433688Y2811240D2*
Y2810240D1*
Y2809240D1*
Y2808240D1*
Y2807240D1*
Y2806240D1*
Y2805240D1*
X487688Y2811240D2*
Y2810240D1*
Y2809240D1*
Y2808240D1*
Y2807240D1*
Y2806240D1*
Y2805240D1*
X447688Y2797240D2*
X445265Y2796240D1*
X443114Y2795240D1*
X441282Y2794240D1*
X439768Y2793240D1*
X438566Y2792240D1*
X437603Y2791240D1*
X436784Y2790240D1*
X436097Y2789240D1*
X435506Y2788240D1*
X434968Y2787240D1*
X434488Y2786240D1*
X434108Y2785240D1*
X433846Y2784240D1*
X433605Y2783240D1*
X433315Y2782240D1*
X433038Y2781240D1*
X432856Y2780240D1*
X432760Y2779240D1*
X432717Y2778240D1*
X432703Y2777240D1*
X432731Y2776240D1*
X432856Y2775240D1*
X433095Y2774240D1*
X433355Y2773240D1*
X433564Y2772240D1*
X433785Y2771240D1*
X434070Y2770240D1*
X434379Y2769240D1*
X434692Y2768240D1*
X435065Y2767240D1*
X435522Y2766240D1*
X436072Y2765240D1*
X436688Y2764240D1*
X458688Y2797240D2*
X461334Y2796240D1*
X463631Y2795240D1*
X465541Y2794240D1*
X467122Y2793240D1*
X468433Y2792240D1*
X469547Y2791240D1*
X470479Y2790240D1*
X471229Y2789240D1*
X471851Y2788240D1*
X472401Y2787240D1*
X472887Y2786240D1*
X473264Y2785240D1*
X473492Y2784240D1*
X473606Y2783240D1*
X473656Y2782240D1*
X473676Y2781240D1*
X473684Y2780240D1*
X473687Y2779240D1*
X473688Y2778240D1*
Y2777240D1*
X473685Y2776240D1*
X473649Y2775240D1*
X473518Y2774240D1*
X473240Y2773240D1*
X472817Y2772240D1*
X472236Y2771240D1*
X471481Y2770240D1*
X470598Y2769240D1*
X469612Y2768240D1*
X468467Y2767240D1*
X467072Y2766240D1*
X465436Y2765240D1*
X463688Y2764240D1*
X449688Y2791240D2*
X447082Y2790240D1*
X444912Y2789240D1*
X443246Y2788240D1*
X441956Y2787240D1*
X440947Y2786240D1*
X440170Y2785240D1*
X439572Y2784240D1*
X439141Y2783240D1*
X438858Y2782240D1*
X438609Y2781240D1*
X438316Y2780240D1*
X438042Y2779240D1*
X437895Y2778240D1*
X437927Y2777240D1*
X438123Y2776240D1*
X438365Y2775240D1*
X438568Y2774240D1*
X438786Y2773240D1*
X439071Y2772240D1*
X439384Y2771240D1*
X439727Y2770240D1*
X440193Y2769240D1*
X440767Y2768240D1*
X441344Y2767240D1*
X441867Y2766240D1*
X442309Y2765240D1*
X442688Y2764240D1*
X452688Y2791240D2*
Y2790240D1*
Y2789240D1*
Y2788240D1*
Y2787240D1*
Y2786240D1*
Y2785240D1*
Y2784240D1*
Y2783240D1*
Y2782240D1*
Y2781240D1*
Y2780240D1*
Y2779240D1*
Y2778240D1*
Y2777240D1*
Y2776240D1*
Y2775240D1*
Y2774240D1*
Y2773240D1*
Y2772240D1*
Y2771240D1*
Y2770240D1*
Y2769240D1*
Y2768240D1*
Y2767240D1*
Y2766240D1*
Y2765240D1*
Y2764240D1*
X456688Y2791240D2*
Y2790240D1*
Y2789240D1*
Y2788240D1*
Y2787240D1*
Y2786240D1*
Y2785240D1*
Y2784240D1*
Y2783240D1*
Y2782240D1*
Y2781240D1*
Y2780240D1*
Y2779240D1*
Y2778240D1*
Y2777240D1*
Y2776240D1*
Y2775240D1*
Y2774240D1*
X456704Y2773240D1*
X456751Y2772240D1*
X457220Y2771240D1*
X458778Y2770240D1*
X460688Y2769240D1*
X458688Y2791240D2*
X461295Y2790240D1*
X463465Y2789240D1*
X465131Y2788240D1*
X466421Y2787240D1*
X467430Y2786240D1*
X468207Y2785240D1*
X468805Y2784240D1*
X469232Y2783240D1*
X469480Y2782240D1*
X469601Y2781240D1*
X469655Y2780240D1*
X469672Y2779240D1*
X469645Y2778240D1*
X469517Y2777240D1*
X469239Y2776240D1*
X468813Y2775240D1*
X468189Y2774240D1*
X467213Y2773240D1*
X465609Y2772240D1*
X462980Y2771240D1*
X459166Y2770240D1*
X454688Y2769240D1*
X467688Y2760240D2*
Y2759240D1*
Y2758240D1*
Y2757240D1*
Y2756240D1*
X472688Y2760240D2*
Y2759240D1*
Y2758240D1*
Y2757240D1*
Y2756240D1*
X483688D1*
Y2755240D1*
Y2754240D1*
Y2753240D1*
Y2752240D1*
Y2751240D1*
Y2750240D1*
Y2749240D1*
X472688D1*
Y2748240D1*
Y2747240D1*
Y2746240D1*
Y2745240D1*
Y2744240D1*
Y2743240D1*
Y2742240D1*
Y2741240D1*
Y2740240D1*
Y2739240D1*
Y2738240D1*
X442688Y2756240D2*
X439966Y2755240D1*
X437842Y2754240D1*
X436347Y2753240D1*
X435335Y2752240D1*
X434631Y2751240D1*
X434129Y2750240D1*
X433739Y2749240D1*
X433372Y2748240D1*
X433061Y2747240D1*
X432864Y2746240D1*
X432767Y2745240D1*
X432757Y2744240D1*
X432866Y2743240D1*
X433098Y2742240D1*
X433352Y2741240D1*
X433527Y2740240D1*
X433624Y2739240D1*
X433688Y2738240D1*
X443688Y2750240D2*
X441927Y2749240D1*
X440506Y2748240D1*
X439404Y2747240D1*
X438880Y2746240D1*
X438437Y2745240D1*
X438123Y2744240D1*
X437954Y2743240D1*
X438151Y2742240D1*
X438376Y2741240D1*
X438536Y2740240D1*
X438628Y2739240D1*
X438688Y2738240D1*
X467688Y2750240D2*
Y2749240D1*
Y2748240D1*
Y2747240D1*
Y2746240D1*
Y2745240D1*
Y2744240D1*
Y2743240D1*
Y2742240D1*
Y2741240D1*
Y2740240D1*
Y2739240D1*
Y2738240D1*
X1074802Y3864428D2*
D146*
X1073376Y3867280D1*
X1070491Y3870165D1*
X1067639Y3871591D1*
X1061902D1*
X1059017Y3870165D1*
X1056165Y3867280D1*
X1054706Y3864428D1*
X1053280Y3860117D1*
Y3852921D1*
X1054706Y3848643D1*
X1056165Y3845758D1*
X1059017Y3842906D1*
X1061902Y3841447D1*
X1067639D1*
X1070491Y3842906D1*
X1073376Y3845758D1*
X1074802Y3848643D1*
X1084066Y3865821D2*
X1086951Y3867280D1*
X1091262Y3871558D1*
Y3841447D1*
X1678562Y4016595D2*
X1675710Y4015169D1*
X1672825Y4012284D1*
X1671399Y4009432D1*
Y4003695D1*
X1672825Y4000810D1*
X1675710Y3997958D1*
X1678562Y3996499D1*
X1682873Y3995073D1*
X1690069D1*
X1694347Y3996499D1*
X1697232Y3997958D1*
X1700084Y4000810D1*
X1701543Y4003695D1*
Y4009432D1*
X1700084Y4012284D1*
X1697232Y4015169D1*
X1694347Y4016595D1*
X1678595Y4027318D2*
X1677169D1*
X1674284Y4028744D1*
X1672858Y4030170D1*
X1671432Y4033055D1*
Y4038792D1*
X1672858Y4041644D1*
X1674284Y4043070D1*
X1677169Y4044529D1*
X1680021D1*
X1682906Y4043070D1*
X1687184Y4040218D1*
X1701543Y4025859D1*
Y4045955D1*
X961820Y3511999D2*
X960394Y3514851D1*
X957509Y3517736D1*
X954657Y3519162D1*
X948920D1*
X946035Y3517736D1*
X943183Y3514851D1*
X941724Y3511999D1*
X940298Y3507688D1*
Y3500492D1*
X941724Y3496214D1*
X943183Y3493329D1*
X946035Y3490477D1*
X948920Y3489018D1*
X954657D1*
X957509Y3490477D1*
X960394Y3493329D1*
X961820Y3496214D1*
X973968Y3519129D2*
X989720D1*
X981131Y3507655D1*
X985442D1*
X988294Y3506229D1*
X989720Y3504803D1*
X991179Y3500492D1*
Y3497640D1*
X989720Y3493329D1*
X986868Y3490444D1*
X982557Y3489018D1*
X978246D1*
X973968Y3490444D1*
X972542Y3491903D1*
X971083Y3494755D1*
X625187Y4091818D2*
X622335Y4090392D1*
X619450Y4087507D1*
X618024Y4084655D1*
Y4078918D1*
X619450Y4076033D1*
X622335Y4073181D1*
X625187Y4071722D1*
X629498Y4070296D1*
X636694D1*
X640972Y4071722D1*
X643857Y4073181D1*
X646709Y4076033D1*
X648168Y4078918D1*
Y4084655D1*
X646709Y4087507D1*
X643857Y4090392D1*
X640972Y4091818D1*
X648168Y4115440D2*
X618057Y4115441D1*
X638120Y4101081D1*
Y4122603D1*
X583654Y3475154D2*
X580802Y3473728D1*
X577917Y3470843D1*
X576491Y3467991D1*
Y3462254D1*
X577917Y3459369D1*
X580802Y3456517D1*
X583654Y3455058D1*
X587965Y3453632D1*
X595161D1*
X599439Y3455058D1*
X602324Y3456517D1*
X605176Y3459369D1*
X606635Y3462254D1*
Y3467991D1*
X605176Y3470843D1*
X602324Y3473728D1*
X599439Y3475154D1*
X576524Y3501629D2*
Y3487303D1*
X589424Y3485877D1*
X587998Y3487303D1*
X586539Y3491614D1*
Y3495892D1*
X587998Y3500203D1*
X590850Y3503088D1*
X595161Y3504514D1*
X598013D1*
X602324Y3503088D1*
X605209Y3500203D1*
X606635Y3495892D1*
Y3491614D1*
X605209Y3487303D1*
X603750Y3485877D1*
X600898Y3484418D1*
X1754713Y3526730D2*
X1753287Y3529582D1*
X1750402Y3532467D1*
X1747550Y3533893D1*
X1741813D1*
X1738928Y3532467D1*
X1736076Y3529582D1*
X1734617Y3526730D1*
X1733191Y3522419D1*
Y3515223D1*
X1734617Y3510945D1*
X1736076Y3508060D1*
X1738928Y3505208D1*
X1741813Y3503749D1*
X1747550D1*
X1750402Y3505208D1*
X1753287Y3508060D1*
X1754713Y3510945D1*
X1781188Y3529582D2*
X1779762Y3532434D1*
X1775451Y3533860D1*
X1772599D1*
X1768288Y3532434D1*
X1765403Y3528123D1*
X1763977Y3520960D1*
Y3513797D1*
X1765403Y3508060D1*
X1768288Y3505175D1*
X1772599Y3503749D1*
X1774025D1*
X1778303Y3505175D1*
X1781188Y3508060D1*
X1782614Y3512371D1*
Y3513797D1*
X1781188Y3518108D1*
X1778303Y3520960D1*
X1774025Y3522386D1*
X1772599D1*
X1768288Y3520960D1*
X1765403Y3518108D1*
X1763977Y3513797D1*
X877767Y4039362D2*
X874915Y4037936D1*
X872030Y4035051D1*
X870604Y4032199D1*
Y4026462D1*
X872030Y4023577D1*
X874915Y4020725D1*
X877767Y4019266D1*
X882078Y4017840D1*
X889274D1*
X893552Y4019266D1*
X896437Y4020725D1*
X899289Y4023577D1*
X900748Y4026462D1*
Y4032199D1*
X899289Y4035051D1*
X896437Y4037936D1*
X893552Y4039362D1*
X900748Y4054362D2*
X870637Y4068721D1*
Y4048625D1*
X864735Y3712290D2*
X863309Y3715142D1*
X860424Y3718027D1*
X857572Y3719453D1*
X851835D1*
X848950Y3718027D1*
X846098Y3715142D1*
X844639Y3712290D1*
X843213Y3707979D1*
Y3700783D1*
X844639Y3696505D1*
X846098Y3693620D1*
X848950Y3690768D1*
X851835Y3689309D1*
X857572D1*
X860424Y3690768D1*
X863309Y3693620D1*
X864735Y3696505D1*
X881162Y3719420D2*
X876884Y3717994D1*
X875425Y3715142D1*
Y3712257D1*
X876884Y3709405D1*
X879736Y3707946D1*
X885473Y3706520D1*
X889784Y3705094D1*
X892636Y3702209D1*
X894061Y3699357D1*
Y3695046D1*
X892636Y3692194D1*
X891210Y3690735D1*
X886899Y3689309D1*
X881162D1*
X876884Y3690735D1*
X875425Y3692194D1*
X873999Y3695046D1*
Y3699357D1*
X875425Y3702209D1*
X878310Y3705094D1*
X882588Y3706520D1*
X888325Y3707946D1*
X891210Y3709405D1*
X892636Y3712257D1*
Y3715142D1*
X891210Y3717994D1*
X886899Y3719420D1*
X881162D1*
X562166Y3788723D2*
X560740Y3791575D1*
X557855Y3794460D1*
X555003Y3795886D1*
X549266D1*
X546381Y3794460D1*
X543530Y3791575D1*
X542070Y3788723D1*
X540644Y3784412D1*
Y3777216D1*
X542070Y3772938D1*
X543530Y3770053D1*
X546381Y3767201D1*
X549266Y3765742D1*
X555003D1*
X557855Y3767201D1*
X560740Y3770053D1*
X562166Y3772938D1*
X590100Y3785838D2*
X588641Y3781527D1*
X585789Y3778642D1*
X581478Y3777216D1*
X580052D1*
X575741Y3778642D1*
X572889Y3781527D1*
X571430Y3785838D1*
Y3787264D1*
X572889Y3791575D1*
X575741Y3794427D1*
X580052Y3795853D1*
X581478D1*
X585789Y3794427D1*
X588641Y3791575D1*
X590100Y3785838D1*
Y3778642D1*
X588641Y3771479D1*
X585789Y3767168D1*
X581478Y3765742D1*
X578626D1*
X574315Y3767168D1*
X572889Y3770053D1*
X472340Y3314003D2*
X470914Y3316855D1*
X468029Y3319740D1*
X465177Y3321166D1*
X459440D1*
X456555Y3319740D1*
X453704Y3316855D1*
X452244Y3314003D1*
X450818Y3309692D1*
Y3302496D1*
X452244Y3298218D1*
X453704Y3295333D1*
X456555Y3292481D1*
X459440Y3291022D1*
X465177D1*
X468029Y3292481D1*
X470914Y3295333D1*
X472340Y3298218D1*
X481604Y3315396D2*
X484489Y3316855D1*
X488800Y3321132D1*
Y3291022D1*
X506686Y3321132D2*
X502375Y3319707D1*
X499490Y3315396D1*
X498064Y3308233D1*
Y3303922D1*
X499490Y3296759D1*
X502375Y3292448D1*
X506686Y3291022D1*
X509538D1*
X513849Y3292448D1*
X516700Y3296759D1*
X518160Y3303922D1*
Y3308233D1*
X516700Y3315396D1*
X513849Y3319707D1*
X509538Y3321132D1*
X506686D1*
X516700Y3315396D2*
X499490Y3296759D1*
X629798Y3750289D2*
X626946Y3748863D1*
X624061Y3745978D1*
X622635Y3743126D1*
Y3737389D1*
X624061Y3734504D1*
X626946Y3731652D1*
X629798Y3730193D1*
X634109Y3728767D1*
X641305D1*
X645583Y3730193D1*
X648468Y3731652D1*
X651320Y3734504D1*
X652779Y3737389D1*
Y3743126D1*
X651320Y3745978D1*
X648468Y3748863D1*
X645583Y3750289D1*
X628405Y3759553D2*
X626946Y3762438D1*
X622668Y3766749D1*
X652779D1*
X628405Y3776012D2*
X626946Y3778897D1*
X622668Y3783208D1*
X652779D1*
X700867Y3712994D2*
X699441Y3715845D1*
X696556Y3718731D1*
X693704Y3720156D1*
X687967D1*
X685082Y3718731D1*
X682230Y3715845D1*
X680771Y3712994D1*
X679345Y3708683D1*
Y3701486D1*
X680771Y3697209D1*
X682230Y3694323D1*
X685082Y3691472D1*
X687967Y3690012D1*
X693704D1*
X696556Y3691472D1*
X699441Y3694323D1*
X700867Y3697209D1*
X710130Y3714386D2*
X713015Y3715845D1*
X717326Y3720123D1*
Y3690012D1*
X728049Y3712960D2*
Y3714386D1*
X729475Y3717271D1*
X730901Y3718697D1*
X733786Y3720123D1*
X739523D1*
X742375Y3718697D1*
X743801Y3717271D1*
X745260Y3714386D1*
Y3711534D1*
X743801Y3708649D1*
X740949Y3704371D1*
X726590Y3690012D1*
X746686D1*
X1378783Y3496050D2*
X1377357Y3498902D1*
X1374472Y3501787D1*
X1371620Y3503213D1*
X1365883D1*
X1362998Y3501787D1*
X1360146Y3498902D1*
X1358687Y3496050D1*
X1357261Y3491739D1*
Y3484543D1*
X1358687Y3480265D1*
X1360146Y3477380D1*
X1362998Y3474528D1*
X1365883Y3473069D1*
X1371620D1*
X1374472Y3474528D1*
X1377357Y3477380D1*
X1378783Y3480265D1*
X1388046Y3497443D2*
X1390931Y3498902D1*
X1395242Y3503180D1*
Y3473069D1*
X1407391Y3503180D2*
X1423143D1*
X1414554Y3491706D1*
X1418865D1*
X1421717Y3490280D1*
X1423143Y3488854D1*
X1424602Y3484543D1*
Y3481691D1*
X1423143Y3477380D1*
X1420291Y3474495D1*
X1415980Y3473069D1*
X1411669D1*
X1407391Y3474495D1*
X1405965Y3475954D1*
X1404506Y3478806D1*
X1363494Y3386690D2*
X1362068Y3389542D1*
X1359183Y3392427D1*
X1356331Y3393853D1*
X1350594D1*
X1347709Y3392427D1*
X1344857Y3389542D1*
X1343398Y3386690D1*
X1341972Y3382379D1*
Y3375183D1*
X1343398Y3370905D1*
X1344857Y3368020D1*
X1347709Y3365168D1*
X1350594Y3363709D1*
X1356331D1*
X1359183Y3365168D1*
X1362068Y3368020D1*
X1363494Y3370905D1*
X1372757Y3388083D2*
X1375642Y3389542D1*
X1379953Y3393820D1*
Y3363709D1*
X1403576D2*
Y3393820D1*
X1389217Y3373757D1*
X1410739D1*
X1281671Y3860744D2*
X1280245Y3863596D1*
X1277360Y3866481D1*
X1274508Y3867907D1*
X1268771D1*
X1265886Y3866481D1*
X1263034Y3863596D1*
X1261575Y3860744D1*
X1260149Y3856433D1*
Y3849237D1*
X1261575Y3844959D1*
X1263034Y3842074D1*
X1265886Y3839222D1*
X1268771Y3837763D1*
X1274508D1*
X1277360Y3839222D1*
X1280245Y3842074D1*
X1281671Y3844959D1*
X1290935Y3862137D2*
X1293820Y3863596D1*
X1298131Y3867874D1*
Y3837763D1*
X1324605Y3867874D2*
X1310279D1*
X1308853Y3854974D1*
X1310279Y3856400D1*
X1314590Y3857859D1*
X1318868D1*
X1323179Y3856400D1*
X1326064Y3853548D1*
X1327490Y3849237D1*
Y3846385D1*
X1326064Y3842074D1*
X1323179Y3839189D1*
X1318868Y3837763D1*
X1314590D1*
X1310279Y3839189D1*
X1308853Y3840648D1*
X1307394Y3843500D1*
X1057548Y3391293D2*
X1056122Y3394145D1*
X1053237Y3397030D1*
X1050385Y3398456D1*
X1044648D1*
X1041763Y3397030D1*
X1038911Y3394145D1*
X1037452Y3391293D1*
X1036026Y3386982D1*
Y3379786D1*
X1037452Y3375508D1*
X1038911Y3372623D1*
X1041763Y3369771D1*
X1044648Y3368312D1*
X1050385D1*
X1053237Y3369771D1*
X1056122Y3372623D1*
X1057548Y3375508D1*
X1066811Y3392686D2*
X1069696Y3394145D1*
X1074007Y3398423D1*
Y3368312D1*
X1100482Y3394145D2*
X1099056Y3396997D1*
X1094745Y3398423D1*
X1091893D1*
X1087582Y3396997D1*
X1084697Y3392686D1*
X1083271Y3385523D1*
Y3378360D1*
X1084697Y3372623D1*
X1087582Y3369738D1*
X1091893Y3368312D1*
X1093319D1*
X1097597Y3369738D1*
X1100482Y3372623D1*
X1101908Y3376934D1*
Y3378360D1*
X1100482Y3382671D1*
X1097597Y3385523D1*
X1093319Y3386949D1*
X1091893D1*
X1087582Y3385523D1*
X1084697Y3382671D1*
X1083271Y3378360D1*
X1389434Y3104975D2*
X1388008Y3107827D1*
X1385123Y3110712D1*
X1382271Y3112138D1*
X1376534D1*
X1373649Y3110712D1*
X1370797Y3107827D1*
X1369338Y3104975D1*
X1367912Y3100664D1*
Y3093468D1*
X1369338Y3089190D1*
X1370797Y3086305D1*
X1373649Y3083453D1*
X1376534Y3081994D1*
X1382271D1*
X1385123Y3083453D1*
X1388008Y3086305D1*
X1389434Y3089190D1*
X1398697Y3106368D2*
X1401582Y3107827D1*
X1405893Y3112105D1*
Y3081994D1*
X1420894D2*
X1435253Y3112105D1*
X1415157D1*
X1869686Y3169504D2*
X1868260Y3172356D1*
X1865375Y3175241D1*
X1862523Y3176667D1*
X1856786D1*
X1853901Y3175241D1*
X1851049Y3172356D1*
X1849590Y3169504D1*
X1848164Y3165193D1*
Y3157997D1*
X1849590Y3153719D1*
X1851049Y3150834D1*
X1853901Y3147982D1*
X1856786Y3146523D1*
X1862523D1*
X1865375Y3147982D1*
X1868260Y3150834D1*
X1869686Y3153719D1*
X1878950Y3170897D2*
X1881835Y3172356D1*
X1886146Y3176634D1*
Y3146523D1*
X1902573Y3176634D2*
X1898295Y3175208D1*
X1896836Y3172356D1*
Y3169471D1*
X1898295Y3166619D1*
X1901147Y3165160D1*
X1906884Y3163734D1*
X1911195Y3162308D1*
X1914046Y3159423D1*
X1915472Y3156571D1*
Y3152260D1*
X1914046Y3149408D1*
X1912621Y3147949D1*
X1908309Y3146523D1*
X1902573D1*
X1898295Y3147949D1*
X1896836Y3149408D1*
X1895410Y3152260D1*
Y3156571D1*
X1896836Y3159423D1*
X1899721Y3162308D1*
X1903998Y3163734D1*
X1909735Y3165160D1*
X1912621Y3166619D1*
X1914046Y3169471D1*
Y3172356D1*
X1912621Y3175208D1*
X1908309Y3176634D1*
X1902573D1*
X763917Y4632938D2*
X762491Y4635790D1*
X759606Y4638675D1*
X756754Y4640101D1*
X751017D1*
X748132Y4638675D1*
X745280Y4635790D1*
X743821Y4632938D1*
X742395Y4628627D1*
Y4621431D1*
X743821Y4617153D1*
X745280Y4614268D1*
X748132Y4611416D1*
X751017Y4609957D1*
X756754D1*
X759606Y4611416D1*
X762491Y4614268D1*
X763917Y4617153D1*
X773180Y4634331D2*
X776066Y4635790D1*
X780377Y4640068D1*
Y4609957D1*
X808310Y4630053D2*
X806851Y4625742D1*
X803999Y4622857D1*
X799688Y4621431D1*
X798262D1*
X793951Y4622857D1*
X791099Y4625742D1*
X789640Y4630053D1*
Y4631479D1*
X791099Y4635790D1*
X793951Y4638642D1*
X798262Y4640068D1*
X799688D1*
X803999Y4638642D1*
X806851Y4635790D1*
X808310Y4630053D1*
Y4622857D1*
X806851Y4615694D1*
X803999Y4611383D1*
X799688Y4609957D1*
X796836D1*
X792525Y4611383D1*
X791099Y4614268D1*
X1879165Y4646558D2*
X1877739Y4649410D1*
X1874854Y4652295D1*
X1872002Y4653721D1*
X1866265D1*
X1863380Y4652295D1*
X1860528Y4649410D1*
X1859069Y4646558D1*
X1857643Y4642247D1*
Y4635051D1*
X1859069Y4630773D1*
X1860528Y4627888D1*
X1863380Y4625036D1*
X1866265Y4623577D1*
X1872002D1*
X1874854Y4625036D1*
X1877739Y4627888D1*
X1879165Y4630773D1*
X1889887Y4646525D2*
Y4647951D1*
X1891313Y4650836D1*
X1892739Y4652262D1*
X1895624Y4653688D1*
X1901361D1*
X1904213Y4652262D1*
X1905639Y4650836D1*
X1907098Y4647951D1*
Y4645099D1*
X1905639Y4642214D1*
X1902787Y4637936D1*
X1888428Y4623577D1*
X1908524D1*
X1926410Y4653688D2*
X1922099Y4652262D1*
X1919214Y4647951D1*
X1917788Y4640788D1*
Y4636477D1*
X1919214Y4629314D1*
X1922099Y4625003D1*
X1926410Y4623577D1*
X1929262D1*
X1933573Y4625003D1*
X1936425Y4629314D1*
X1937884Y4636477D1*
Y4640788D1*
X1936425Y4647951D1*
X1933573Y4652262D1*
X1929262Y4653688D1*
X1926410D1*
X1936425Y4647951D2*
X1919214Y4629314D1*
X1838093Y1845365D2*
X1835242Y1843939D1*
X1832357Y1841054D1*
X1830931Y1838203D1*
Y1832466D1*
X1832356Y1829580D1*
X1835242Y1826729D1*
X1838093Y1825269D1*
X1842404Y1823844D1*
X1849601D1*
X1853878Y1825269D1*
X1856764Y1826729D1*
X1859615Y1829580D1*
X1861075Y1832466D1*
Y1838202D1*
X1859615Y1841054D1*
X1856764Y1843939D1*
X1853878Y1845365D1*
X1838127Y1856088D2*
X1836701D1*
X1833816Y1857514D1*
X1832390Y1858940D1*
X1830964Y1861825D1*
Y1867562D1*
X1832390Y1870414D1*
X1833816Y1871840D1*
X1836701Y1873299D1*
X1839553D1*
X1842438Y1871840D1*
X1846716Y1868988D1*
X1861075Y1854629D1*
Y1874725D1*
X1836701Y1883988D2*
X1835242Y1886874D1*
X1830964Y1891185D1*
X1861075D1*
X807120Y2524819D2*
X805694Y2527671D1*
X802809Y2530556D1*
X799957Y2531982D1*
X794220D1*
X791335Y2530556D1*
X788483Y2527671D1*
X787024Y2524819D1*
X785598Y2520508D1*
Y2513312D1*
X787024Y2509034D1*
X788483Y2506149D1*
X791335Y2503297D1*
X794220Y2501838D1*
X799957D1*
X802809Y2503297D1*
X805694Y2506149D1*
X807120Y2509034D1*
X817843Y2524786D2*
Y2526212D1*
X819269Y2529097D1*
X820695Y2530523D1*
X823580Y2531949D1*
X829317D1*
X832169Y2530523D1*
X833595Y2529097D1*
X835054Y2526212D1*
Y2523360D1*
X833595Y2520475D1*
X830743Y2516197D1*
X816384Y2501838D1*
X836480D1*
X847202Y2524786D2*
Y2526212D1*
X848628Y2529097D1*
X850054Y2530523D1*
X852939Y2531949D1*
X858676D1*
X861528Y2530523D1*
X862954Y2529097D1*
X864413Y2526212D1*
Y2523360D1*
X862954Y2520475D1*
X860102Y2516197D1*
X845743Y2501838D1*
X865839D1*
X758679Y3483832D2*
X757253Y3486684D1*
X754368Y3489569D1*
X751516Y3490995D1*
X745779D1*
X742894Y3489569D1*
X740042Y3486684D1*
X738583Y3483832D1*
X737157Y3479521D1*
Y3472325D1*
X738583Y3468047D1*
X740042Y3465162D1*
X742894Y3462310D1*
X745779Y3460851D1*
X751516D1*
X754368Y3462310D1*
X757253Y3465162D1*
X758679Y3468047D1*
X769402Y3483799D2*
Y3485225D1*
X770828Y3488110D1*
X772254Y3489536D1*
X775139Y3490962D1*
X780876D1*
X783728Y3489536D1*
X785154Y3488110D1*
X786613Y3485225D1*
Y3482373D1*
X785154Y3479488D1*
X782302Y3475210D1*
X767943Y3460851D1*
X788039D1*
X800187Y3490962D2*
X815939D1*
X807350Y3479488D1*
X811661D1*
X814513Y3478062D1*
X815939Y3476636D1*
X817398Y3472325D1*
Y3469473D1*
X815939Y3465162D1*
X813087Y3462277D1*
X808776Y3460851D1*
X804465D1*
X800187Y3462277D1*
X798761Y3463736D1*
X797302Y3466588D1*
X1801779Y2490235D2*
X1800353Y2493087D1*
X1797467Y2495972D1*
X1794616Y2497398D1*
X1788879D1*
X1785994Y2495972D1*
X1783142Y2493087D1*
X1781683Y2490235D1*
X1780257Y2485924D1*
Y2478728D1*
X1781683Y2474450D1*
X1783142Y2471565D1*
X1785994Y2468713D1*
X1788879Y2467254D1*
X1794616D1*
X1797467Y2468713D1*
X1800353Y2471565D1*
X1801779Y2474450D1*
X1812501Y2490202D2*
Y2491628D1*
X1813927Y2494513D1*
X1815353Y2495939D1*
X1818238Y2497365D1*
X1823975D1*
X1826827Y2495939D1*
X1828253Y2494513D1*
X1829712Y2491628D1*
Y2488776D1*
X1828253Y2485891D1*
X1825401Y2481613D1*
X1811042Y2467254D1*
X1831138D1*
X1854761D2*
Y2497365D1*
X1840402Y2477302D1*
X1861924D1*
X1546001Y2865940D2*
X1544575Y2868792D1*
X1541690Y2871677D1*
X1538838Y2873103D1*
X1533101D1*
X1530216Y2871677D1*
X1527364Y2868792D1*
X1525905Y2865940D1*
X1524479Y2861629D1*
Y2854433D1*
X1525905Y2850155D1*
X1527364Y2847270D1*
X1530216Y2844418D1*
X1533101Y2842959D1*
X1538838D1*
X1541690Y2844418D1*
X1544575Y2847270D1*
X1546001Y2850155D1*
X1556723Y2865907D2*
Y2867333D1*
X1558149Y2870218D1*
X1559575Y2871644D1*
X1562460Y2873069D1*
X1568197D1*
X1571049Y2871644D1*
X1572475Y2870218D1*
X1573934Y2867333D1*
Y2864481D1*
X1572475Y2861596D1*
X1569623Y2857318D1*
X1555264Y2842959D1*
X1575360D1*
X1601835Y2873069D2*
X1587509D1*
X1586083Y2860170D1*
X1587509Y2861596D1*
X1591820Y2863055D1*
X1596098D1*
X1600409Y2861596D1*
X1603294Y2858744D1*
X1604720Y2854433D1*
Y2851581D1*
X1603294Y2847270D1*
X1600409Y2844385D1*
X1596098Y2842959D1*
X1591820D1*
X1587509Y2844385D1*
X1586083Y2845844D1*
X1584624Y2848696D1*
X1787342Y3061595D2*
X1785916Y3064446D1*
X1783031Y3067332D1*
X1780179Y3068758D1*
X1774442D1*
X1771557Y3067332D1*
X1768705Y3064446D1*
X1767246Y3061595D1*
X1765820Y3057284D1*
Y3050087D1*
X1767246Y3045810D1*
X1768705Y3042925D1*
X1771557Y3040073D1*
X1774442Y3038614D1*
X1780179D1*
X1783031Y3040073D1*
X1785916Y3042925D1*
X1787342Y3045810D1*
X1798064Y3061561D2*
Y3062987D1*
X1799490Y3065872D1*
X1800916Y3067298D1*
X1803801Y3068724D1*
X1809538D1*
X1812390Y3067298D1*
X1813816Y3065872D1*
X1815275Y3062987D1*
Y3060135D1*
X1813816Y3057250D1*
X1810964Y3052973D1*
X1796605Y3038614D1*
X1816701D1*
X1843176Y3064446D2*
X1841750Y3067298D1*
X1837439Y3068724D1*
X1834587D1*
X1830276Y3067298D1*
X1827391Y3062987D1*
X1825965Y3055824D1*
Y3048662D1*
X1827391Y3042925D1*
X1830276Y3040039D1*
X1834587Y3038614D1*
X1836013D1*
X1840291Y3040039D1*
X1843176Y3042925D1*
X1844602Y3047236D1*
Y3048662D1*
X1843176Y3052973D1*
X1840291Y3055824D1*
X1836013Y3057250D1*
X1834587D1*
X1830276Y3055824D1*
X1827391Y3052973D1*
X1825965Y3048662D1*
X1868909Y1559299D2*
X1867483Y1562151D1*
X1864598Y1565036D1*
X1861746Y1566462D1*
X1856009D1*
X1853124Y1565036D1*
X1850272Y1562151D1*
X1848813Y1559299D1*
X1847387Y1554988D1*
Y1547792D1*
X1848813Y1543514D1*
X1850272Y1540629D1*
X1853124Y1537777D1*
X1856009Y1536318D1*
X1861746D1*
X1864598Y1537777D1*
X1867483Y1540629D1*
X1868909Y1543514D1*
X1879631Y1559266D2*
Y1560692D1*
X1881057Y1563577D1*
X1882483Y1565003D1*
X1885368Y1566429D1*
X1891105D1*
X1893957Y1565003D1*
X1895383Y1563577D1*
X1896842Y1560692D1*
Y1557840D1*
X1895383Y1554955D1*
X1892531Y1550677D1*
X1878172Y1536318D1*
X1898268D1*
X1913269D2*
X1927628Y1566429D1*
X1907532D1*
X452631Y1139484D2*
X451205Y1142336D1*
X448320Y1145221D1*
X445469Y1146647D1*
X439732D1*
X436846Y1145221D1*
X433995Y1142336D1*
X432535Y1139484D1*
X431109Y1135173D1*
Y1127977D1*
X432535Y1123699D1*
X433995Y1120814D1*
X436846Y1117962D1*
X439732Y1116503D1*
X445469D1*
X448320Y1117962D1*
X451205Y1120814D1*
X452631Y1123699D1*
X463354Y1139451D2*
Y1140877D1*
X464780Y1143762D1*
X466206Y1145188D1*
X469091Y1146614D1*
X474828D1*
X477680Y1145188D1*
X479106Y1143762D1*
X480565Y1140877D1*
Y1138025D1*
X479106Y1135140D1*
X476254Y1130862D1*
X461895Y1116503D1*
X481991D1*
X498417Y1146614D2*
X494140Y1145188D1*
X492680Y1142336D1*
Y1139451D1*
X494140Y1136599D1*
X496992Y1135140D1*
X502728Y1133714D1*
X507040Y1132288D1*
X509891Y1129403D1*
X511317Y1126551D1*
Y1122240D1*
X509891Y1119388D1*
X508465Y1117929D1*
X504154Y1116503D1*
X498417D1*
X494140Y1117929D1*
X492680Y1119388D1*
X491255Y1122240D1*
Y1126551D1*
X492680Y1129403D1*
X495566Y1132288D1*
X499843Y1133714D1*
X505580Y1135140D1*
X508465Y1136599D1*
X509891Y1139451D1*
Y1142336D1*
X508465Y1145188D1*
X504154Y1146614D1*
X498417D1*
X1169164Y3250180D2*
X1167738Y3253032D1*
X1164853Y3255917D1*
X1162001Y3257343D1*
X1156264D1*
X1153379Y3255917D1*
X1150527Y3253032D1*
X1149068Y3250180D1*
X1147642Y3245869D1*
Y3238673D1*
X1149068Y3234395D1*
X1150527Y3231510D1*
X1153379Y3228658D1*
X1156264Y3227199D1*
X1162001D1*
X1164853Y3228658D1*
X1167738Y3231510D1*
X1169164Y3234395D1*
X1179886Y3250147D2*
Y3251573D1*
X1181312Y3254458D1*
X1182738Y3255884D1*
X1185623Y3257310D1*
X1191360D1*
X1194212Y3255884D1*
X1195638Y3254458D1*
X1197097Y3251573D1*
Y3248721D1*
X1195638Y3245836D1*
X1192786Y3241558D1*
X1178427Y3227199D1*
X1198523D1*
X1226457Y3247295D2*
X1224998Y3242984D1*
X1222146Y3240099D1*
X1217835Y3238673D1*
X1216409D1*
X1212098Y3240099D1*
X1209246Y3242984D1*
X1207787Y3247295D1*
Y3248721D1*
X1209246Y3253032D1*
X1212098Y3255884D1*
X1216409Y3257310D1*
X1217835D1*
X1222146Y3255884D1*
X1224998Y3253032D1*
X1226457Y3247295D1*
Y3240099D1*
X1224998Y3232936D1*
X1222146Y3228625D1*
X1217835Y3227199D1*
X1214983D1*
X1210672Y3228625D1*
X1209246Y3231510D1*
X763726Y1727545D2*
X762300Y1730397D1*
X759415Y1733282D1*
X756563Y1734708D1*
X750826D1*
X747941Y1733282D1*
X745090Y1730397D1*
X743630Y1727545D1*
X742204Y1723234D1*
Y1716038D1*
X743630Y1711760D1*
X745090Y1708875D1*
X747941Y1706023D1*
X750826Y1704564D1*
X756563D1*
X759415Y1706023D1*
X762300Y1708875D1*
X763726Y1711760D1*
X775875Y1734674D2*
X791627D1*
X783038Y1723201D1*
X787349D1*
X790201Y1721775D1*
X791627Y1720349D1*
X793086Y1716038D1*
Y1713186D1*
X791627Y1708875D1*
X788775Y1705990D1*
X784464Y1704564D1*
X780153D1*
X775875Y1705990D1*
X774449Y1707449D1*
X772990Y1710301D1*
X810972Y1734674D2*
X806661Y1733249D1*
X803775Y1728938D1*
X802350Y1721775D1*
Y1717464D1*
X803775Y1710301D1*
X806661Y1705990D1*
X810972Y1704564D1*
X813823D1*
X818134Y1705990D1*
X820986Y1710301D1*
X822446Y1717464D1*
Y1721775D1*
X820986Y1728938D1*
X818134Y1733249D1*
X813823Y1734674D1*
X810972D1*
X820986Y1728938D2*
X803775Y1710301D1*
X1878927Y1146268D2*
X1877501Y1149120D1*
X1874616Y1152005D1*
X1871764Y1153431D1*
X1866027D1*
X1863142Y1152005D1*
X1860290Y1149120D1*
X1858831Y1146268D1*
X1857405Y1141957D1*
Y1134761D1*
X1858831Y1130483D1*
X1860290Y1127598D1*
X1863142Y1124746D1*
X1866027Y1123287D1*
X1871764D1*
X1874616Y1124746D1*
X1877501Y1127598D1*
X1878927Y1130483D1*
X1891076Y1153398D2*
X1906827D1*
X1898239Y1141924D1*
X1902550D1*
X1905401Y1140498D1*
X1906827Y1139072D1*
X1908287Y1134761D1*
Y1131909D1*
X1906827Y1127598D1*
X1903976Y1124713D1*
X1899665Y1123287D1*
X1895353D1*
X1891076Y1124713D1*
X1889650Y1126172D1*
X1888191Y1129024D1*
X1917550Y1147661D2*
X1920435Y1149120D1*
X1924746Y1153398D1*
Y1123287D1*
X455671Y1582579D2*
X454245Y1585431D1*
X451360Y1588316D1*
X448508Y1589742D1*
X442771D1*
X439886Y1588316D1*
X437034Y1585431D1*
X435575Y1582579D1*
X434149Y1578268D1*
Y1571072D1*
X435575Y1566794D1*
X437034Y1563909D1*
X439886Y1561057D1*
X442771Y1559598D1*
X448508D1*
X451360Y1561057D1*
X454245Y1563909D1*
X455671Y1566794D1*
X467820Y1589709D2*
X483572D1*
X474983Y1578235D1*
X479294D1*
X482146Y1576809D1*
X483572Y1575383D1*
X485031Y1571072D1*
Y1568220D1*
X483572Y1563909D1*
X480720Y1561024D1*
X476409Y1559598D1*
X472098D1*
X467820Y1561024D1*
X466394Y1562483D1*
X464935Y1565335D1*
X495754Y1582546D2*
Y1583972D1*
X497179Y1586857D1*
X498605Y1588283D1*
X501490Y1589709D1*
X507227D1*
X510079Y1588283D1*
X511505Y1586857D1*
X512964Y1583972D1*
Y1581120D1*
X511505Y1578235D1*
X508653Y1573957D1*
X494294Y1559598D1*
X514390D1*
X722999Y534613D2*
X721573Y537465D1*
X718688Y540350D1*
X715836Y541776D1*
X710099D1*
X707214Y540350D1*
X704362Y537465D1*
X702903Y534613D1*
X701477Y530302D1*
Y523106D1*
X702903Y518828D1*
X704362Y515943D1*
X707214Y513091D1*
X710099Y511632D1*
X715836D1*
X718688Y513091D1*
X721573Y515943D1*
X722999Y518828D1*
X735148Y541743D2*
X750900D1*
X742311Y530269D1*
X746622D1*
X749474Y528843D1*
X750900Y527417D1*
X752359Y523106D1*
Y520254D1*
X750900Y515943D1*
X748048Y513058D1*
X743737Y511632D1*
X739426D1*
X735148Y513058D1*
X733722Y514517D1*
X732263Y517369D1*
X764508Y541743D2*
X780259D1*
X771670Y530269D1*
X775981D1*
X778833Y528843D1*
X780259Y527417D1*
X781718Y523106D1*
Y520254D1*
X780259Y515943D1*
X777407Y513058D1*
X773096Y511632D1*
X768785D1*
X764508Y513058D1*
X763082Y514517D1*
X761622Y517369D1*
X1602803Y530984D2*
X1601378Y533836D1*
X1598492Y536721D1*
X1595641Y538147D1*
X1589904D1*
X1587018Y536721D1*
X1584167Y533836D1*
X1582707Y530984D1*
X1581281Y526673D1*
Y519477D1*
X1582707Y515199D1*
X1584167Y512314D1*
X1587018Y509462D1*
X1589904Y508003D1*
X1595641D1*
X1598492Y509462D1*
X1601378Y512314D1*
X1602803Y515199D1*
X1614952Y538114D2*
X1630704D1*
X1622115Y526640D1*
X1626426D1*
X1629278Y525214D1*
X1630704Y523788D1*
X1632163Y519477D1*
Y516625D1*
X1630704Y512314D1*
X1627852Y509429D1*
X1623541Y508003D1*
X1619230D1*
X1614952Y509429D1*
X1613526Y510888D1*
X1612067Y513740D1*
X1655786Y508003D2*
Y538114D1*
X1641427Y518051D1*
X1662949D1*
X804461Y2950480D2*
X803035Y2953332D1*
X800150Y2956217D1*
X797298Y2957643D1*
X791561D1*
X788676Y2956217D1*
X785824Y2953332D1*
X784365Y2950480D1*
X782939Y2946169D1*
Y2938973D1*
X784365Y2934695D1*
X785824Y2931810D1*
X788676Y2928958D1*
X791561Y2927499D1*
X797298D1*
X800150Y2928958D1*
X803035Y2931810D1*
X804461Y2934695D1*
X816610Y2957610D2*
X832362D1*
X823773Y2946136D1*
X828084D1*
X830936Y2944710D1*
X832362Y2943284D1*
X833821Y2938973D1*
Y2936121D1*
X832362Y2931810D1*
X829510Y2928925D1*
X825199Y2927499D1*
X820888D1*
X816610Y2928925D1*
X815184Y2930384D1*
X813725Y2933236D1*
X860295Y2957610D2*
X845969D1*
X844544Y2944710D1*
X845969Y2946136D1*
X850281Y2947595D1*
X854558D1*
X858869Y2946136D1*
X861754Y2943284D1*
X863180Y2938973D1*
Y2936121D1*
X861754Y2931810D1*
X858869Y2928925D1*
X854558Y2927499D1*
X850281D1*
X845969Y2928925D1*
X844544Y2930384D1*
X843084Y2933236D1*
X1369068Y1195298D2*
X1367642Y1198150D1*
X1364756Y1201035D1*
X1361905Y1202461D1*
X1356168D1*
X1353283Y1201035D1*
X1350431Y1198150D1*
X1348972Y1195298D1*
X1347546Y1190987D1*
Y1183791D1*
X1348972Y1179513D1*
X1350431Y1176628D1*
X1353283Y1173776D1*
X1356168Y1172317D1*
X1361905D1*
X1364756Y1173776D1*
X1367642Y1176628D1*
X1369068Y1179513D1*
X1381216Y1202428D2*
X1396968D1*
X1388379Y1190954D1*
X1392690D1*
X1395542Y1189528D1*
X1396968Y1188102D1*
X1398427Y1183791D1*
Y1180939D1*
X1396968Y1176628D1*
X1394116Y1173743D1*
X1389805Y1172317D1*
X1385494D1*
X1381216Y1173743D1*
X1379790Y1175202D1*
X1378331Y1178054D1*
X1424902Y1198150D2*
X1423476Y1201002D1*
X1419165Y1202428D1*
X1416313D1*
X1412002Y1201002D1*
X1409117Y1196691D1*
X1407691Y1189528D1*
Y1182365D1*
X1409117Y1176628D1*
X1412002Y1173743D1*
X1416313Y1172317D1*
X1417739D1*
X1422016Y1173743D1*
X1424902Y1176628D1*
X1426327Y1180939D1*
Y1182365D1*
X1424902Y1186676D1*
X1422016Y1189528D1*
X1417739Y1190954D1*
X1416313D1*
X1412002Y1189528D1*
X1409117Y1186676D1*
X1407691Y1182365D1*
X1754602Y683805D2*
X1753176Y686656D1*
X1750291Y689542D1*
X1747439Y690967D1*
X1741702D1*
X1738817Y689542D1*
X1735965Y686656D1*
X1734506Y683805D1*
X1733080Y679494D1*
Y672297D1*
X1734506Y668020D1*
X1735965Y665135D1*
X1738817Y662283D1*
X1741702Y660823D1*
X1747439D1*
X1750291Y662283D1*
X1753176Y665135D1*
X1754602Y668020D1*
X1766750Y690934D2*
X1782502D1*
X1773913Y679460D1*
X1778224D1*
X1781076Y678034D1*
X1782502Y676608D1*
X1783961Y672297D1*
Y669446D1*
X1782502Y665135D1*
X1779650Y662249D1*
X1775339Y660823D1*
X1771028D1*
X1766750Y662249D1*
X1765324Y663709D1*
X1763865Y666560D1*
X1798962Y660823D2*
X1813321Y690934D1*
X1793225D1*
X1362942Y675480D2*
X1361517Y678332D1*
X1358631Y681217D1*
X1355780Y682643D1*
X1350043D1*
X1347157Y681217D1*
X1344306Y678332D1*
X1342846Y675480D1*
X1341421Y671169D1*
Y663973D1*
X1342846Y659695D1*
X1344306Y656810D1*
X1347157Y653958D1*
X1350043Y652499D1*
X1355780D1*
X1358631Y653958D1*
X1361517Y656810D1*
X1362942Y659695D1*
X1375091Y682610D2*
X1390843D1*
X1382254Y671136D1*
X1386565D1*
X1389417Y669710D1*
X1390843Y668284D1*
X1392302Y663973D1*
Y661121D1*
X1390843Y656810D1*
X1387991Y653925D1*
X1383680Y652499D1*
X1379369D1*
X1375091Y653925D1*
X1373665Y655384D1*
X1372206Y658236D1*
X1408728Y682610D2*
X1404451Y681184D1*
X1402992Y678332D1*
Y675447D1*
X1404451Y672595D1*
X1407303Y671136D1*
X1413040Y669710D1*
X1417351Y668284D1*
X1420202Y665399D1*
X1421628Y662547D1*
Y658236D1*
X1420202Y655384D1*
X1418776Y653925D1*
X1414465Y652499D1*
X1408728D1*
X1404451Y653925D1*
X1402992Y655384D1*
X1401566Y658236D1*
Y662547D1*
X1402992Y665399D1*
X1405877Y668284D1*
X1410154Y669710D1*
X1415891Y671136D1*
X1418776Y672595D1*
X1420202Y675447D1*
Y678332D1*
X1418776Y681184D1*
X1414465Y682610D1*
X1408728D1*
X963639Y675480D2*
X962213Y678332D1*
X959328Y681217D1*
X956476Y682643D1*
X950739D1*
X947854Y681217D1*
X945002Y678332D1*
X943543Y675480D1*
X942117Y671169D1*
Y663973D1*
X943543Y659695D1*
X945002Y656810D1*
X947854Y653958D1*
X950739Y652499D1*
X956476D1*
X959328Y653958D1*
X962213Y656810D1*
X963639Y659695D1*
X975787Y682610D2*
X991539D1*
X982950Y671136D1*
X987261D1*
X990113Y669710D1*
X991539Y668284D1*
X992998Y663973D1*
Y661121D1*
X991539Y656810D1*
X988687Y653925D1*
X984376Y652499D1*
X980065D1*
X975787Y653925D1*
X974362Y655384D1*
X972902Y658236D1*
X1020932Y672595D2*
X1019473Y668284D1*
X1016621Y665399D1*
X1012310Y663973D1*
X1010884D1*
X1006573Y665399D1*
X1003721Y668284D1*
X1002262Y672595D1*
Y674021D1*
X1003721Y678332D1*
X1006573Y681184D1*
X1010884Y682610D1*
X1012310D1*
X1016621Y681184D1*
X1019473Y678332D1*
X1020932Y672595D1*
Y665399D1*
X1019473Y658236D1*
X1016621Y653925D1*
X1012310Y652499D1*
X1009458D1*
X1005147Y653925D1*
X1003721Y656810D1*
X458859Y625753D2*
X457433Y628605D1*
X454548Y631490D1*
X451696Y632916D1*
X445959D1*
X443074Y631490D1*
X440222Y628605D1*
X438763Y625753D1*
X437337Y621442D1*
Y614246D1*
X438763Y609968D1*
X440222Y607083D1*
X443074Y604231D1*
X445959Y602772D1*
X451696D1*
X454548Y604231D1*
X457433Y607083D1*
X458859Y609968D1*
X482481Y602772D2*
Y632883D1*
X468122Y612820D1*
X489644D1*
X507530Y632883D2*
X503219Y631457D1*
X500334Y627146D1*
X498908Y619983D1*
Y615672D1*
X500334Y608509D1*
X503219Y604198D1*
X507530Y602772D1*
X510382D1*
X514693Y604198D1*
X517545Y608509D1*
X519004Y615672D1*
Y619983D1*
X517545Y627146D1*
X514693Y631457D1*
X510382Y632883D1*
X507530D1*
X517545Y627146D2*
X500334Y608509D1*
X982362Y1614345D2*
X980936Y1617197D1*
X978051Y1620082D1*
X975199Y1621508D1*
X969462D1*
X966577Y1620082D1*
X963725Y1617197D1*
X962266Y1614345D1*
X960840Y1610034D1*
Y1602838D1*
X962266Y1598560D1*
X963725Y1595675D1*
X966577Y1592823D1*
X969462Y1591364D1*
X975199D1*
X978051Y1592823D1*
X980936Y1595675D1*
X982362Y1598560D1*
X1005985Y1591364D2*
Y1621475D1*
X991626Y1601412D1*
X1013148D1*
X1022411Y1615738D2*
X1025296Y1617197D1*
X1029607Y1621475D1*
Y1591364D1*
X752660Y2302929D2*
X751234Y2305781D1*
X748349Y2308666D1*
X745497Y2310092D1*
X739761D1*
X736875Y2308666D1*
X734024Y2305781D1*
X732564Y2302929D1*
X731138Y2298618D1*
Y2291422D1*
X732564Y2287144D1*
X734024Y2284259D1*
X736875Y2281407D1*
X739761Y2279948D1*
X745497D1*
X748349Y2281407D1*
X751234Y2284259D1*
X752660Y2287144D1*
X776283Y2279948D2*
Y2310059D1*
X761924Y2289996D1*
X783446D1*
X794169Y2302896D2*
Y2304322D1*
X795595Y2307207D1*
X797020Y2308633D1*
X799906Y2310059D1*
X805643D1*
X808494Y2308633D1*
X809920Y2307207D1*
X811380Y2304322D1*
Y2301470D1*
X809920Y2298585D1*
X807068Y2294307D1*
X792709Y2279948D1*
X812805D1*
X1550138Y1731449D2*
X1548712Y1734301D1*
X1545827Y1737186D1*
X1542975Y1738612D1*
X1537238D1*
X1534353Y1737186D1*
X1531501Y1734301D1*
X1530042Y1731449D1*
X1528616Y1727138D1*
Y1719942D1*
X1530042Y1715664D1*
X1531501Y1712779D1*
X1534353Y1709927D1*
X1537238Y1708468D1*
X1542975D1*
X1545827Y1709927D1*
X1548712Y1712779D1*
X1550138Y1715664D1*
X1573761Y1708468D2*
Y1738579D1*
X1559402Y1718516D1*
X1580924D1*
X1593072Y1738579D2*
X1608824D1*
X1600235Y1727105D1*
X1604546D1*
X1607398Y1725679D1*
X1608824Y1724253D1*
X1610283Y1719942D1*
Y1717090D1*
X1608824Y1712779D1*
X1605972Y1709894D1*
X1601661Y1708468D1*
X1597350D1*
X1593072Y1709894D1*
X1591646Y1711353D1*
X1590187Y1714205D1*
X753035Y1950480D2*
X751609Y1953332D1*
X748724Y1956217D1*
X745872Y1957643D1*
X740135D1*
X737250Y1956217D1*
X734398Y1953332D1*
X732939Y1950480D1*
X731513Y1946169D1*
Y1938973D1*
X732939Y1934695D1*
X734398Y1931810D1*
X737250Y1928958D1*
X740135Y1927499D1*
X745872D1*
X748724Y1928958D1*
X751609Y1931810D1*
X753035Y1934695D1*
X776658Y1927499D2*
Y1957610D1*
X762299Y1937547D1*
X783821D1*
X807443Y1927499D2*
Y1957610D1*
X793084Y1937547D1*
X814606D1*
X729578Y4335748D2*
X728152Y4338600D1*
X725267Y4341485D1*
X722415Y4342911D1*
X716678D1*
X713793Y4341485D1*
X710941Y4338600D1*
X709482Y4335748D1*
X708056Y4331437D1*
Y4324241D1*
X709482Y4319963D1*
X710941Y4317078D1*
X713793Y4314226D1*
X716678Y4312767D1*
X722415D1*
X725267Y4314226D1*
X728152Y4317078D1*
X729578Y4319963D1*
X753200Y4312767D2*
Y4342878D1*
X738841Y4322815D1*
X760363D1*
X786838Y4342878D2*
X772512D1*
X771086Y4329978D1*
X772512Y4331404D1*
X776823Y4332863D1*
X781101D1*
X785412Y4331404D1*
X788297Y4328552D1*
X789723Y4324241D1*
Y4321389D1*
X788297Y4317078D1*
X785412Y4314193D1*
X781101Y4312767D1*
X776823D1*
X772512Y4314193D1*
X771086Y4315652D1*
X769627Y4318504D1*
X1363124Y1605001D2*
X1361698Y1607853D1*
X1358813Y1610738D1*
X1355961Y1612164D1*
X1350224D1*
X1347339Y1610738D1*
X1344487Y1607853D1*
X1343028Y1605001D1*
X1341602Y1600690D1*
Y1593494D1*
X1343028Y1589216D1*
X1344487Y1586331D1*
X1347339Y1583479D1*
X1350224Y1582020D1*
X1355961D1*
X1358813Y1583479D1*
X1361698Y1586331D1*
X1363124Y1589216D1*
X1386746Y1582020D2*
Y1612131D1*
X1372387Y1592068D1*
X1393909D1*
X1420384Y1607853D2*
X1418958Y1610705D1*
X1414647Y1612131D1*
X1411795D1*
X1407484Y1610705D1*
X1404599Y1606394D1*
X1403173Y1599231D1*
Y1592068D1*
X1404599Y1586331D1*
X1407484Y1583446D1*
X1411795Y1582020D1*
X1413221D1*
X1417498Y1583446D1*
X1420384Y1586331D1*
X1421810Y1590642D1*
Y1592068D1*
X1420384Y1596379D1*
X1417498Y1599231D1*
X1413221Y1600657D1*
X1411795D1*
X1407484Y1599231D1*
X1404599Y1596379D1*
X1403173Y1592068D1*
X962945Y1189492D2*
X961519Y1192344D1*
X958634Y1195229D1*
X955782Y1196655D1*
X950045D1*
X947160Y1195229D1*
X944308Y1192344D1*
X942849Y1189492D1*
X941423Y1185181D1*
Y1177985D1*
X942849Y1173707D1*
X944308Y1170822D1*
X947160Y1167970D1*
X950045Y1166511D1*
X955782D1*
X958634Y1167970D1*
X961519Y1170822D1*
X962945Y1173707D1*
X986568Y1166511D2*
Y1196622D1*
X972209Y1176559D1*
X993731D1*
X1008731Y1166511D2*
X1023090Y1196622D1*
X1002994D1*
X758286Y942230D2*
X756860Y945082D1*
X753975Y947967D1*
X751123Y949393D1*
X745386D1*
X742501Y947967D1*
X739649Y945082D1*
X738190Y942230D1*
X736764Y937919D1*
Y930723D1*
X738190Y926445D1*
X739649Y923560D1*
X742501Y920708D1*
X745386Y919249D1*
X751123D1*
X753975Y920708D1*
X756860Y923560D1*
X758286Y926445D1*
X781908Y919249D2*
Y949360D1*
X767549Y929297D1*
X789071D1*
X805498Y949360D2*
X801220Y947934D1*
X799761Y945082D1*
Y942197D1*
X801220Y939345D1*
X804072Y937886D1*
X809809Y936460D1*
X814120Y935034D1*
X816972Y932149D1*
X818398Y929297D1*
Y924986D1*
X816972Y922134D1*
X815546Y920675D1*
X811235Y919249D1*
X805498D1*
X801220Y920675D1*
X799761Y922134D1*
X798335Y924986D1*
Y929297D1*
X799761Y932149D1*
X802646Y935034D1*
X806924Y936460D1*
X812661Y937886D1*
X815546Y939345D1*
X816972Y942197D1*
Y945082D1*
X815546Y947934D1*
X811235Y949360D1*
X805498D1*
X1596663Y929765D2*
X1595237Y932617D1*
X1592352Y935502D1*
X1589500Y936928D1*
X1583764D1*
X1580878Y935502D1*
X1578027Y932617D1*
X1576567Y929765D1*
X1575141Y925454D1*
Y918258D1*
X1576567Y913980D1*
X1578027Y911095D1*
X1580878Y908243D1*
X1583764Y906784D1*
X1589500D1*
X1592352Y908243D1*
X1595237Y911095D1*
X1596663Y913980D1*
X1620286Y906784D2*
Y936895D1*
X1605927Y916832D1*
X1627449D1*
X1655383Y926880D2*
X1653923Y922569D1*
X1651071Y919684D1*
X1646760Y918258D1*
X1645335D1*
X1641023Y919684D1*
X1638172Y922569D1*
X1636712Y926880D1*
Y928306D1*
X1638172Y932617D1*
X1641023Y935469D1*
X1645335Y936895D1*
X1646760D1*
X1651071Y935469D1*
X1653923Y932617D1*
X1655383Y926880D1*
Y919684D1*
X1653923Y912521D1*
X1651071Y908210D1*
X1646760Y906784D1*
X1643909D1*
X1639598Y908210D1*
X1638172Y911095D1*
X1160953Y2013486D2*
X1159527Y2016338D1*
X1156642Y2019223D1*
X1153791Y2020649D1*
X1148054D1*
X1145168Y2019223D1*
X1142317Y2016338D1*
X1140857Y2013486D1*
X1139431Y2009175D1*
Y2001979D1*
X1140857Y1997701D1*
X1142317Y1994816D1*
X1145168Y1991964D1*
X1148054Y1990505D1*
X1153791D1*
X1156642Y1991964D1*
X1159527Y1994816D1*
X1160953Y1997701D1*
X1187428Y2020615D2*
X1173102D1*
X1171676Y2007716D1*
X1173102Y2009141D1*
X1177413Y2010601D1*
X1181691D1*
X1186002Y2009141D1*
X1188887Y2006290D1*
X1190313Y2001979D1*
Y1999127D1*
X1188887Y1994816D1*
X1186002Y1991931D1*
X1181691Y1990505D1*
X1177413D1*
X1173102Y1991931D1*
X1171676Y1993390D1*
X1170217Y1996242D1*
X1208199Y2020615D2*
X1203888Y2019189D1*
X1201002Y2014878D1*
X1199577Y2007716D1*
Y2003404D1*
X1201002Y1996242D1*
X1203888Y1991931D1*
X1208199Y1990505D1*
X1211050D1*
X1215362Y1991931D1*
X1218213Y1996242D1*
X1219673Y2003404D1*
Y2007716D1*
X1218213Y2014878D1*
X1215362Y2019189D1*
X1211050Y2020615D1*
X1208199D1*
X1218213Y2014878D2*
X1201002Y1996242D1*
X422240Y1860690D2*
X419389Y1859264D1*
X416503Y1856379D1*
X415078Y1853527D1*
Y1847790D1*
X416503Y1844905D1*
X419389Y1842053D1*
X422240Y1840594D1*
X426551Y1839168D1*
X433748D1*
X438025Y1840594D1*
X440910Y1842053D1*
X443762Y1844905D1*
X445222Y1847790D1*
Y1853527D1*
X443762Y1856379D1*
X440911Y1859264D1*
X438025Y1860690D1*
X415111Y1887164D2*
Y1872838D1*
X428011Y1871412D1*
X426585Y1872838D1*
X425126Y1877149D1*
Y1881427D1*
X426585Y1885738D1*
X429437Y1888623D1*
X433748Y1890049D1*
X436599D1*
X440911Y1888623D1*
X443796Y1885738D1*
X445222Y1881427D1*
Y1877149D1*
X443796Y1872838D1*
X442336Y1871412D1*
X439485Y1869953D1*
X420848Y1899313D2*
X419389Y1902198D1*
X415111Y1906509D1*
X445222D1*
X575685Y2345977D2*
X572833Y2344551D1*
X569948Y2341666D1*
X568522Y2338814D1*
Y2333077D1*
X569948Y2330192D1*
X572833Y2327340D1*
X575685Y2325881D1*
X579996Y2324455D1*
X587192D1*
X591470Y2325881D1*
X594355Y2327340D1*
X597207Y2330192D1*
X598666Y2333077D1*
Y2338814D1*
X597207Y2341666D1*
X594355Y2344551D1*
X591470Y2345977D1*
X568556Y2372452D2*
Y2358126D1*
X581456Y2356700D1*
X580030Y2358126D1*
X578570Y2362437D1*
Y2366715D1*
X580030Y2371026D1*
X582881Y2373911D1*
X587192Y2375337D1*
X590044D1*
X594355Y2373911D1*
X597240Y2371026D1*
X598666Y2366715D1*
Y2362437D1*
X597240Y2358126D1*
X595781Y2356700D1*
X592929Y2355241D1*
X575719Y2386059D2*
X574293D1*
X571407Y2387485D1*
X569982Y2388911D1*
X568556Y2391796D1*
Y2397533D1*
X569982Y2400385D1*
X571407Y2401811D1*
X574293Y2403270D1*
X577144D1*
X580030Y2401811D1*
X584307Y2398959D1*
X598666Y2384600D1*
Y2404696D1*
X936131Y3194457D2*
X934705Y3197309D1*
X931820Y3200194D1*
X928968Y3201620D1*
X923231D1*
X920346Y3200194D1*
X917494Y3197309D1*
X916035Y3194457D1*
X914609Y3190146D1*
Y3182950D1*
X916035Y3178672D1*
X917494Y3175787D1*
X920346Y3172935D1*
X923231Y3171476D1*
X928968D1*
X931820Y3172935D1*
X934705Y3175787D1*
X936131Y3178672D1*
X962605Y3201587D2*
X948279D1*
X946853Y3188687D1*
X948279Y3190113D1*
X952590Y3191572D1*
X956868D1*
X961179Y3190113D1*
X964064Y3187261D1*
X965490Y3182950D1*
Y3180098D1*
X964064Y3175787D1*
X961179Y3172902D1*
X956868Y3171476D1*
X952590D1*
X948279Y3172902D1*
X946853Y3174361D1*
X945394Y3177213D1*
X977639Y3201587D2*
X993391D1*
X984802Y3190113D1*
X989113D1*
X991965Y3188687D1*
X993391Y3187261D1*
X994850Y3182950D1*
Y3180098D1*
X993391Y3175787D1*
X990539Y3172902D1*
X986228Y3171476D1*
X981917D1*
X977639Y3172902D1*
X976213Y3174361D1*
X974754Y3177213D1*
X1775023Y3625515D2*
X1773597Y3628366D1*
X1770712Y3631252D1*
X1767860Y3632677D1*
X1762123D1*
X1759238Y3631252D1*
X1756386Y3628366D1*
X1754927Y3625515D1*
X1753501Y3621204D1*
Y3614007D1*
X1754927Y3609730D1*
X1756386Y3606844D1*
X1759238Y3603993D1*
X1762123Y3602533D1*
X1767860D1*
X1770712Y3603993D1*
X1773597Y3606844D1*
X1775023Y3609730D1*
X1801497Y3632644D2*
X1787171D1*
X1785745Y3619744D1*
X1787171Y3621170D1*
X1791482Y3622629D1*
X1795760D1*
X1800071Y3621170D1*
X1802956Y3618318D1*
X1804382Y3614007D1*
Y3611156D1*
X1802956Y3606844D1*
X1800071Y3603959D1*
X1795760Y3602533D1*
X1791482D1*
X1787171Y3603959D1*
X1785745Y3605419D1*
X1784286Y3608270D1*
X1828005Y3602533D2*
Y3632644D1*
X1813646Y3612581D1*
X1835168D1*
X930387Y2996396D2*
X927536Y2994970D1*
X924650Y2992085D1*
X923225Y2989233D1*
X923224Y2983496D1*
X924650Y2980611D1*
X927535Y2977759D1*
X930387Y2976300D1*
X934698Y2974874D1*
X941895D1*
X946172Y2976300D1*
X949057Y2977759D1*
X951909Y2980611D1*
X953369Y2983496D1*
Y2989233D1*
X951909Y2992085D1*
X949058Y2994970D1*
X946172Y2996396D1*
X923258Y3022870D2*
Y3008544D1*
X936158Y3007118D1*
X934732Y3008544D1*
X933273Y3012855D1*
Y3017133D1*
X934732Y3021444D1*
X937584Y3024329D1*
X941895Y3025755D1*
X944746D1*
X949057Y3024329D1*
X951943Y3021444D1*
X953369Y3017133D1*
Y3012855D1*
X951943Y3008544D1*
X950483Y3007118D1*
X947632Y3005659D1*
X923258Y3052230D2*
Y3037904D1*
X936158Y3036478D1*
X934732Y3037904D1*
X933273Y3042215D1*
Y3046493D1*
X934732Y3050804D1*
X937584Y3053689D1*
X941895Y3055115D1*
X944746D1*
X949057Y3053689D1*
X951943Y3050804D1*
X953368Y3046493D1*
Y3042215D1*
X951943Y3037904D1*
X950483Y3036478D1*
X947632Y3035019D1*
X781468Y3069060D2*
X780042Y3071912D1*
X777157Y3074797D1*
X774305Y3076223D1*
X768568D1*
X765683Y3074797D1*
X762831Y3071912D1*
X761372Y3069060D1*
X759946Y3064749D1*
Y3057553D1*
X761372Y3053275D1*
X762831Y3050390D1*
X765683Y3047539D1*
X768568Y3046079D1*
X774305D1*
X777157Y3047539D1*
X780042Y3050390D1*
X781468Y3053275D1*
X807942Y3076190D2*
X793616D1*
X792190Y3063290D1*
X793616Y3064716D1*
X797927Y3066175D1*
X802205D1*
X806516Y3064716D1*
X809401Y3061864D1*
X810827Y3057553D1*
Y3054701D1*
X809401Y3050390D1*
X806516Y3047505D1*
X802205Y3046079D1*
X797927D1*
X793616Y3047505D1*
X792190Y3048964D1*
X790731Y3051816D1*
X837302Y3071912D2*
X835876Y3074764D1*
X831565Y3076190D1*
X828713D1*
X824402Y3074764D1*
X821517Y3070453D1*
X820091Y3063290D1*
Y3056127D1*
X821517Y3050390D1*
X824402Y3047505D1*
X828713Y3046079D1*
X830139D1*
X834417Y3047505D1*
X837302Y3050390D1*
X838728Y3054701D1*
Y3056127D1*
X837302Y3060438D1*
X834417Y3063290D1*
X830139Y3064716D1*
X828713D1*
X824402Y3063290D1*
X821517Y3060438D1*
X820091Y3056127D1*
X1156797Y1844222D2*
Y1814078D1*
X1166845D1*
X1171156Y1815537D1*
X1174041Y1818389D1*
X1175467Y1821274D1*
X1176893Y1825552D1*
Y1832748D1*
X1175467Y1837059D1*
X1174041Y1839911D1*
X1171156Y1842796D1*
X1166845Y1844222D1*
X1156797D1*
X1187615Y1837026D2*
Y1838452D1*
X1189041Y1841337D1*
X1190467Y1842763D1*
X1193352Y1844189D1*
X1199089D1*
X1201941Y1842763D1*
X1203367Y1841337D1*
X1204826Y1838452D1*
Y1835600D1*
X1203367Y1832715D1*
X1200515Y1828437D1*
X1186156Y1814078D1*
X1206252D1*
X456084Y1457643D2*
Y1427499D1*
X466132D1*
X470443Y1428958D1*
X473328Y1431810D1*
X474754Y1434695D1*
X476180Y1438973D1*
Y1446169D1*
X474754Y1450480D1*
X473328Y1453332D1*
X470443Y1456217D1*
X466132Y1457643D1*
X456084D1*
X499802Y1427499D2*
Y1457610D1*
X485443Y1437547D1*
X506965D1*
X451434Y1290404D2*
Y1260260D1*
X461482D1*
X465793Y1261720D1*
X468679Y1264572D1*
X470105Y1267457D1*
X471530Y1271734D1*
Y1278931D1*
X470105Y1283242D1*
X468679Y1286093D1*
X465793Y1288979D1*
X461482Y1290404D1*
X451434D1*
X498005Y1290371D2*
X483679D1*
X482253Y1277471D1*
X483679Y1278897D1*
X487990Y1280356D1*
X492268D1*
X496579Y1278897D1*
X499464Y1276045D1*
X500890Y1271734D1*
Y1268883D1*
X499464Y1264572D1*
X496579Y1261686D1*
X492268Y1260260D1*
X487990D1*
X483679Y1261686D1*
X482253Y1263146D1*
X480794Y1265997D1*
X1082526Y1407643D2*
Y1377499D1*
X1092574D1*
X1096885Y1378958D1*
X1099770Y1381810D1*
X1101196Y1384695D1*
X1102622Y1388973D1*
Y1396169D1*
X1101196Y1400480D1*
X1099770Y1403332D1*
X1096885Y1406217D1*
X1092574Y1407643D1*
X1082526D1*
X1129097Y1403332D2*
X1127671Y1406184D1*
X1123360Y1407610D1*
X1120508D1*
X1116197Y1406184D1*
X1113312Y1401873D1*
X1111886Y1394710D1*
Y1387547D1*
X1113312Y1381810D1*
X1116197Y1378925D1*
X1120508Y1377499D1*
X1121934D1*
X1126212Y1378925D1*
X1129097Y1381810D1*
X1130523Y1386121D1*
Y1387547D1*
X1129097Y1391858D1*
X1126212Y1394710D1*
X1121934Y1396136D1*
X1120508D1*
X1116197Y1394710D1*
X1113312Y1391858D1*
X1111886Y1387547D1*
X1082869Y1236114D2*
Y1205970D1*
X1092917D1*
X1097228Y1207430D1*
X1100113Y1210281D1*
X1101539Y1213167D1*
X1102965Y1217444D1*
Y1224641D1*
X1101539Y1228952D1*
X1100113Y1231803D1*
X1097228Y1234689D1*
X1092917Y1236114D1*
X1082869D1*
X1117965Y1205970D2*
X1132324Y1236081D1*
X1112228D1*
X1856813Y1457643D2*
Y1427499D1*
X1866861D1*
X1871172Y1428958D1*
X1874057Y1431810D1*
X1875483Y1434695D1*
X1876909Y1438973D1*
Y1446169D1*
X1875483Y1450480D1*
X1874057Y1453332D1*
X1871172Y1456217D1*
X1866861Y1457643D1*
X1856813D1*
X1893336Y1457610D2*
X1889058Y1456184D1*
X1887599Y1453332D1*
Y1450447D1*
X1889058Y1447595D1*
X1891910Y1446136D1*
X1897647Y1444710D1*
X1901958Y1443284D1*
X1904810Y1440399D1*
X1906236Y1437547D1*
Y1433236D1*
X1904810Y1430384D1*
X1903384Y1428925D1*
X1899073Y1427499D1*
X1893336D1*
X1889058Y1428925D1*
X1887599Y1430384D1*
X1886173Y1433236D1*
Y1437547D1*
X1887599Y1440399D1*
X1890484Y1443284D1*
X1894762Y1444710D1*
X1900499Y1446136D1*
X1903384Y1447595D1*
X1904810Y1450447D1*
Y1453332D1*
X1903384Y1456184D1*
X1899073Y1457610D1*
X1893336D1*
X1232510Y1407643D2*
Y1377499D1*
X1242558D1*
X1246869Y1378958D1*
X1249754Y1381810D1*
X1251180Y1384695D1*
X1252606Y1388973D1*
Y1396169D1*
X1251180Y1400480D1*
X1249754Y1403332D1*
X1246869Y1406217D1*
X1242558Y1407643D1*
X1232510D1*
X1280539Y1397595D2*
X1279080Y1393284D1*
X1276228Y1390399D1*
X1271917Y1388973D1*
X1270491D1*
X1266180Y1390399D1*
X1263328Y1393284D1*
X1261869Y1397595D1*
Y1399021D1*
X1263328Y1403332D1*
X1266180Y1406184D1*
X1270491Y1407610D1*
X1271917D1*
X1276228Y1406184D1*
X1279080Y1403332D1*
X1280539Y1397595D1*
Y1390399D1*
X1279080Y1383236D1*
X1276228Y1378925D1*
X1271917Y1377499D1*
X1269065D1*
X1264754Y1378925D1*
X1263328Y1381810D1*
X1860247Y1289204D2*
Y1259060D1*
X1870295D1*
X1874606Y1260519D1*
X1877491Y1263371D1*
X1878917Y1266256D1*
X1880343Y1270534D1*
Y1277730D1*
X1878917Y1282041D1*
X1877491Y1284893D1*
X1874606Y1287778D1*
X1870295Y1289204D1*
X1860247D1*
X1889606Y1283434D2*
X1892491Y1284893D1*
X1896802Y1289171D1*
Y1259060D1*
X1914688Y1289171D2*
X1910377Y1287745D1*
X1907492Y1283434D1*
X1906066Y1276271D1*
Y1271960D1*
X1907492Y1264797D1*
X1910377Y1260486D1*
X1914688Y1259060D1*
X1917540D1*
X1921851Y1260486D1*
X1924703Y1264797D1*
X1926162Y1271960D1*
Y1276271D1*
X1924703Y1283434D1*
X1921851Y1287745D1*
X1917540Y1289171D1*
X1914688D1*
X1924703Y1283434D2*
X1907492Y1264797D1*
X1226799Y1235042D2*
Y1204898D1*
X1236847D1*
X1241158Y1206357D1*
X1244043Y1209209D1*
X1245469Y1212094D1*
X1246895Y1216372D1*
Y1223568D1*
X1245469Y1227879D1*
X1244043Y1230731D1*
X1241158Y1233616D1*
X1236847Y1235042D1*
X1226799D1*
X1256159Y1229272D2*
X1259044Y1230731D1*
X1263355Y1235009D1*
Y1204898D1*
X1272618Y1229272D2*
X1275503Y1230731D1*
X1279814Y1235009D1*
Y1204898D1*
X1574887Y4633231D2*
Y4603087D1*
X1584935D1*
X1589246Y4604546D1*
X1592131Y4607398D1*
X1593557Y4610283D1*
X1594983Y4614561D1*
Y4621757D1*
X1593557Y4626068D1*
X1592131Y4628920D1*
X1589246Y4631805D1*
X1584935Y4633231D1*
X1574887D1*
X1604247Y4627461D2*
X1607132Y4628920D1*
X1611443Y4633198D1*
Y4603087D1*
X1622165Y4626035D2*
Y4627461D1*
X1623591Y4630346D1*
X1625017Y4631772D1*
X1627902Y4633198D1*
X1633639D1*
X1636491Y4631772D1*
X1637917Y4630346D1*
X1639376Y4627461D1*
Y4624609D1*
X1637917Y4621724D1*
X1635065Y4617446D1*
X1620706Y4603087D1*
X1640802D1*
X1159548Y3435916D2*
Y3405772D1*
X1190333Y3428753D2*
X1188907Y3431605D1*
X1186022Y3434490D1*
X1183170Y3435916D1*
X1177433D1*
X1174548Y3434490D1*
X1171696Y3431605D1*
X1170237Y3428753D1*
X1168811Y3424442D1*
Y3417246D1*
X1170237Y3412968D1*
X1171696Y3410083D1*
X1174548Y3407231D1*
X1177433Y3405772D1*
X1183170D1*
X1186022Y3407231D1*
X1188907Y3410083D1*
X1190333Y3412968D1*
X1199597Y3430146D2*
X1202482Y3431605D1*
X1206793Y3435882D1*
Y3405772D1*
X742003Y3430084D2*
Y3399940D1*
X772789Y3422921D2*
X771363Y3425773D1*
X768478Y3428658D1*
X765626Y3430084D1*
X759889D1*
X757004Y3428658D1*
X754152Y3425773D1*
X752693Y3422921D1*
X751267Y3418610D1*
Y3411414D1*
X752693Y3407136D1*
X754152Y3404251D1*
X757004Y3401399D1*
X759889Y3399940D1*
X765626D1*
X768478Y3401399D1*
X771363Y3404251D1*
X772789Y3407136D1*
X783511Y3422888D2*
Y3424314D1*
X784937Y3427199D1*
X786363Y3428625D1*
X789248Y3430051D1*
X794985D1*
X797837Y3428625D1*
X799263Y3427199D1*
X800722Y3424314D1*
Y3421462D1*
X799263Y3418577D1*
X796411Y3414299D1*
X782052Y3399940D1*
X802148D1*
X1357434Y4146184D2*
X1387578D1*
X1364597Y4176970D2*
X1361746Y4175544D1*
X1358860Y4172659D1*
X1357434Y4169807D1*
Y4164070D1*
X1358860Y4161185D1*
X1361746Y4158333D1*
X1364597Y4156874D1*
X1368908Y4155448D1*
X1376105D1*
X1380382Y4156874D1*
X1383267Y4158333D1*
X1386119Y4161185D1*
X1387579Y4164070D1*
X1387578Y4169807D1*
X1386119Y4172659D1*
X1383267Y4175544D1*
X1380382Y4176970D1*
X1357468Y4189118D2*
Y4204870D1*
X1368942Y4196281D1*
Y4200592D1*
X1370368Y4203444D1*
X1371794Y4204870D1*
X1376105Y4206329D1*
X1378956D1*
X1383267Y4204870D1*
X1386153Y4202018D1*
X1387578Y4197707D1*
Y4193396D1*
X1386153Y4189118D1*
X1384693Y4187692D1*
X1381842Y4186233D1*
X1551798Y3491492D2*
Y3461348D1*
X1582584Y3484329D2*
X1581158Y3487181D1*
X1578272Y3490066D1*
X1575421Y3491492D1*
X1569684D1*
X1566799Y3490066D1*
X1563947Y3487181D1*
X1562488Y3484329D1*
X1561062Y3480018D1*
Y3472822D1*
X1562488Y3468545D1*
X1563947Y3465659D1*
X1566799Y3462808D1*
X1569684Y3461348D1*
X1575421D1*
X1578272Y3462808D1*
X1581158Y3465659D1*
X1582584Y3468545D1*
X1606206Y3461348D2*
Y3491459D1*
X1591847Y3471396D1*
X1613369D1*
X1538094Y2715485D2*
Y2685341D1*
X1568879Y2708322D2*
X1567453Y2711174D1*
X1564568Y2714059D1*
X1561716Y2715485D1*
X1555979D1*
X1553094Y2714059D1*
X1550242Y2711174D1*
X1548783Y2708322D1*
X1547357Y2704011D1*
Y2696814D1*
X1548783Y2692537D1*
X1550242Y2689652D1*
X1553094Y2686800D1*
X1555979Y2685341D1*
X1561716D1*
X1564568Y2686800D1*
X1567453Y2689652D1*
X1568879Y2692537D1*
X1595354Y2715451D2*
X1581028D1*
X1579602Y2702551D1*
X1581028Y2703977D1*
X1585339Y2705437D1*
X1589617D1*
X1593928Y2703977D1*
X1596813Y2701126D1*
X1598239Y2696814D1*
Y2693963D1*
X1596813Y2689652D1*
X1593928Y2686766D1*
X1589617Y2685341D1*
X1585339D1*
X1581028Y2686766D1*
X1579602Y2688226D1*
X1578143Y2691078D1*
X752181Y1519643D2*
Y1489499D1*
X782967Y1512480D2*
X781541Y1515332D1*
X778656Y1518217D1*
X775804Y1519643D1*
X770067D1*
X767182Y1518217D1*
X764330Y1515332D1*
X762871Y1512480D1*
X761445Y1508169D1*
Y1500973D1*
X762871Y1496695D1*
X764330Y1493810D1*
X767182Y1490958D1*
X770067Y1489499D1*
X775804D1*
X778656Y1490958D1*
X781541Y1493810D1*
X782967Y1496695D1*
X809441Y1515332D2*
X808016Y1518184D1*
X803704Y1519610D1*
X800853D1*
X796542Y1518184D1*
X793656Y1513873D1*
X792231Y1506710D1*
Y1499547D1*
X793656Y1493810D1*
X796542Y1490925D1*
X800853Y1489499D1*
X802279D1*
X806556Y1490925D1*
X809441Y1493810D1*
X810867Y1498121D1*
Y1499547D1*
X809441Y1503858D1*
X806556Y1506710D1*
X802279Y1508136D1*
X800853D1*
X796542Y1506710D1*
X793656Y1503858D1*
X792231Y1499547D1*
X1551452Y1519643D2*
Y1489499D1*
X1582237Y1512480D2*
X1580811Y1515332D1*
X1577926Y1518217D1*
X1575074Y1519643D1*
X1569338D1*
X1566452Y1518217D1*
X1563601Y1515332D1*
X1562141Y1512480D1*
X1560715Y1508169D1*
Y1500973D1*
X1562141Y1496695D1*
X1563601Y1493810D1*
X1566452Y1490958D1*
X1569338Y1489499D1*
X1575074D1*
X1577926Y1490958D1*
X1580811Y1493810D1*
X1582237Y1496695D1*
X1597238Y1489499D2*
X1611597Y1519610D1*
X1591501D1*
X751469Y869643D2*
Y839499D1*
X782254Y862480D2*
X780828Y865332D1*
X777943Y868217D1*
X775091Y869643D1*
X769354D1*
X766469Y868217D1*
X763617Y865332D1*
X762158Y862480D1*
X760732Y858169D1*
Y850973D1*
X762158Y846695D1*
X763617Y843810D1*
X766469Y840958D1*
X769354Y839499D1*
X775091D1*
X777943Y840958D1*
X780828Y843810D1*
X782254Y846695D1*
X798680Y869610D2*
X794403Y868184D1*
X792944Y865332D1*
Y862447D1*
X794403Y859595D1*
X797255Y858136D1*
X802992Y856710D1*
X807303Y855284D1*
X810154Y852399D1*
X811580Y849547D1*
Y845236D1*
X810154Y842384D1*
X808728Y840925D1*
X804417Y839499D1*
X798680D1*
X794403Y840925D1*
X792944Y842384D1*
X791518Y845236D1*
Y849547D1*
X792944Y852399D1*
X795829Y855284D1*
X800106Y856710D1*
X805843Y858136D1*
X808728Y859595D1*
X810154Y862447D1*
Y865332D1*
X808728Y868184D1*
X804417Y869610D1*
X798680D1*
X1552165Y844643D2*
Y814499D1*
X1582950Y837480D2*
X1581524Y840332D1*
X1578639Y843217D1*
X1575787Y844643D1*
X1570050D1*
X1567165Y843217D1*
X1564314Y840332D1*
X1562854Y837480D1*
X1561428Y833169D1*
Y825973D1*
X1562854Y821695D1*
X1564314Y818810D1*
X1567165Y815958D1*
X1570050Y814499D1*
X1575787D1*
X1578639Y815958D1*
X1581524Y818810D1*
X1582950Y821695D1*
X1610884Y834595D2*
X1609425Y830284D1*
X1606573Y827399D1*
X1602262Y825973D1*
X1600836D1*
X1596525Y827399D1*
X1593673Y830284D1*
X1592214Y834595D1*
Y836021D1*
X1593673Y840332D1*
X1596525Y843184D1*
X1600836Y844610D1*
X1602262D1*
X1606573Y843184D1*
X1609425Y840332D1*
X1610884Y834595D1*
Y827399D1*
X1609425Y820236D1*
X1606573Y815925D1*
X1602262Y814499D1*
X1599410D1*
X1595099Y815925D1*
X1593673Y818810D1*
X667324Y2022029D2*
X697468D1*
X674487Y2052815D2*
X671635Y2051389D1*
X668750Y2048504D1*
X667324Y2045652D1*
Y2039915D1*
X668750Y2037030D1*
X671635Y2034178D1*
X674487Y2032719D1*
X678798Y2031293D1*
X685994D1*
X690272Y2032719D1*
X693157Y2034178D1*
X696009Y2037030D1*
X697468Y2039915D1*
Y2045652D1*
X696009Y2048504D1*
X693157Y2051389D1*
X690272Y2052815D1*
X673094Y2062078D2*
X671635Y2064963D1*
X667357Y2069274D1*
X697468D1*
X667357Y2087160D2*
X668783Y2082849D1*
X673094Y2079964D1*
X680257Y2078538D1*
X684568D1*
X691731Y2079964D1*
X696042Y2082849D1*
X697468Y2087160D1*
Y2090012D1*
X696042Y2094323D1*
X691731Y2097175D1*
X684568Y2098634D1*
X680257D1*
X673094Y2097175D1*
X668783Y2094323D1*
X667357Y2090012D1*
Y2087160D1*
X673094Y2097175D2*
X691731Y2079964D1*
X1687117Y2134000D2*
X1717261D1*
X1694280Y2164786D2*
X1691428Y2163360D1*
X1688543Y2160475D1*
X1687117Y2157623D1*
Y2151886D1*
X1688543Y2149001D1*
X1691428Y2146149D1*
X1694280Y2144690D1*
X1698591Y2143264D1*
X1705787D1*
X1710065Y2144690D1*
X1712950Y2146149D1*
X1715802Y2149001D1*
X1717261Y2151886D1*
Y2157623D1*
X1715802Y2160475D1*
X1712950Y2163360D1*
X1710065Y2164786D1*
X1692887Y2174049D2*
X1691428Y2176934D1*
X1687150Y2181245D1*
X1717261D1*
X1692887Y2190509D2*
X1691428Y2193394D1*
X1687150Y2197705D1*
X1717261D1*
X455062Y4475788D2*
Y4452840D1*
X453636Y4448529D1*
X452177Y4447103D1*
X449325Y4445644D1*
X446440D1*
X443588Y4447103D1*
X442162Y4448529D1*
X440703Y4452840D1*
Y4455692D1*
X464326Y4460003D2*
X477259D1*
X481537Y4461429D1*
X482996Y4462888D1*
X484422Y4465740D1*
Y4470051D1*
X482996Y4472903D1*
X481537Y4474362D1*
X477259Y4475788D1*
X464326D1*
Y4445644D1*
X510896Y4475755D2*
X496570D1*
X495144Y4462855D1*
X496570Y4464281D1*
X500881Y4465740D1*
X505159D1*
X509470Y4464281D1*
X512355Y4461429D1*
X513781Y4457118D1*
Y4454266D1*
X512355Y4449955D1*
X509470Y4447070D1*
X505159Y4445644D1*
X500881D1*
X496570Y4447070D1*
X495144Y4448529D1*
X493685Y4451381D1*
X1330307Y4646819D2*
Y4616675D1*
X1347518D1*
X1356782Y4641049D2*
X1359667Y4642508D1*
X1363978Y4646786D1*
Y4616675D1*
X1842727Y2579746D2*
Y2549602D1*
X1859938D1*
X1870661Y2572550D2*
Y2573976D1*
X1872087Y2576861D1*
X1873513Y2578287D1*
X1876398Y2579713D1*
X1882135D1*
X1884987Y2578287D1*
X1886413Y2576861D1*
X1887872Y2573976D1*
Y2571124D1*
X1886413Y2568239D1*
X1883561Y2563961D1*
X1869202Y2549602D1*
X1889298D1*
X1708973Y2577580D2*
Y2547436D1*
X1726184D1*
X1738332Y2577547D2*
X1754084D1*
X1745495Y2566073D1*
X1749806D1*
X1752658Y2564647D1*
X1754084Y2563221D1*
X1755543Y2558910D1*
Y2556058D1*
X1754084Y2551747D1*
X1751232Y2548862D1*
X1746921Y2547436D1*
X1742610D1*
X1738332Y2548862D1*
X1736906Y2550321D1*
X1735447Y2553173D1*
X1858997Y3288244D2*
X1889141D1*
Y3305455D1*
Y3329078D2*
X1859031D1*
X1879093Y3314719D1*
Y3336241D1*
X822971Y4097143D2*
X820119Y4095751D1*
X817234Y4092865D1*
X815808Y4089980D1*
X814349Y4085669D1*
Y4078506D1*
X815808Y4074195D1*
X817234Y4071344D1*
X820119Y4068458D1*
X822971Y4067032D1*
X828708D1*
X831593Y4068458D1*
X834445Y4071344D1*
X835871Y4074195D1*
X837330Y4078506D1*
Y4085669D1*
X835871Y4089980D1*
X834445Y4092865D1*
X831593Y4095751D1*
X828708Y4097143D1*
X822971D1*
X827282Y4072769D2*
X835871Y4064147D1*
X846593Y4091373D2*
X849478Y4092832D1*
X853789Y4097110D1*
Y4066999D1*
X1359777Y2547228D2*
X1372677D1*
X1376988Y2548687D1*
X1378447Y2550113D1*
X1379873Y2552965D1*
Y2555850D1*
X1378447Y2558702D1*
X1376988Y2560161D1*
X1372677Y2561587D1*
X1359777D1*
Y2531443D1*
X1369825Y2547228D2*
X1379873Y2531443D1*
X1389136Y2555817D2*
X1392021Y2557276D1*
X1396332Y2561554D1*
Y2531443D1*
X1508724Y3796417D2*
X1521624D1*
X1525935Y3797876D1*
X1527395Y3799302D1*
X1528821Y3802154D1*
Y3805039D1*
X1527395Y3807891D1*
X1525935Y3809350D1*
X1521624Y3810776D1*
X1508724D1*
Y3780632D1*
X1518772Y3796417D2*
X1528821Y3780632D1*
X1539543Y3803580D2*
Y3805006D1*
X1540969Y3807891D1*
X1542395Y3809317D1*
X1545280Y3810743D1*
X1551017D1*
X1553869Y3809317D1*
X1555295Y3807891D1*
X1556754Y3805006D1*
Y3802154D1*
X1555295Y3799269D1*
X1552443Y3794991D1*
X1538084Y3780632D1*
X1558180D1*
X1480801Y3962808D2*
X1493701D1*
X1498012Y3964267D1*
X1499471Y3965693D1*
X1500897Y3968545D1*
Y3971430D1*
X1499471Y3974282D1*
X1498012Y3975741D1*
X1493701Y3977167D1*
X1480801D1*
Y3947023D1*
X1490849Y3962808D2*
X1500897Y3947023D1*
X1513045Y3977134D2*
X1528797D1*
X1520208Y3965660D1*
X1524519D1*
X1527371Y3964234D1*
X1528797Y3962808D1*
X1530256Y3958497D1*
Y3955645D1*
X1528797Y3951334D1*
X1525945Y3948449D1*
X1521634Y3947023D1*
X1517323D1*
X1513045Y3948449D1*
X1511619Y3949908D1*
X1510160Y3952760D1*
X1704984Y3799072D2*
X1717884D1*
X1722195Y3800531D1*
X1723654Y3801957D1*
X1725080Y3804809D1*
Y3807694D1*
X1723654Y3810546D1*
X1722195Y3812005D1*
X1717884Y3813431D1*
X1704984D1*
Y3783287D1*
X1715032Y3799072D2*
X1725080Y3783287D1*
X1748703D2*
Y3813398D1*
X1734344Y3793335D1*
X1755865D1*
X1721819Y3716812D2*
X1734719D1*
X1739030Y3718271D1*
X1740489Y3719697D1*
X1741915Y3722549D1*
Y3725434D1*
X1740489Y3728286D1*
X1739030Y3729745D1*
X1734719Y3731171D1*
X1721819D1*
Y3701027D1*
X1731867Y3716812D2*
X1741915Y3701027D1*
X1768389Y3731138D2*
X1754064D1*
X1752638Y3718238D1*
X1754064Y3719664D1*
X1758375Y3721123D1*
X1762652D1*
X1766964Y3719664D1*
X1769849Y3716812D1*
X1771275Y3712501D1*
Y3709649D1*
X1769849Y3705338D1*
X1766964Y3702453D1*
X1762652Y3701027D1*
X1758375D1*
X1754064Y3702453D1*
X1752638Y3703912D1*
X1751179Y3706764D1*
X1201377Y2426990D2*
X1214277D1*
X1218588Y2428449D1*
X1220047Y2429875D1*
X1221473Y2432727D1*
Y2435612D1*
X1220047Y2438464D1*
X1218588Y2439923D1*
X1214277Y2441349D1*
X1201377D1*
Y2411205D1*
X1211425Y2426990D2*
X1221473Y2411205D1*
X1247947Y2437038D2*
X1246521Y2439890D1*
X1242210Y2441316D1*
X1239358D1*
X1235047Y2439890D1*
X1232162Y2435579D1*
X1230736Y2428416D1*
Y2421253D1*
X1232162Y2415516D1*
X1235047Y2412631D1*
X1239358Y2411205D1*
X1240784D1*
X1245062Y2412631D1*
X1247947Y2415516D1*
X1249373Y2419827D1*
Y2421253D1*
X1247947Y2425564D1*
X1245062Y2428416D1*
X1240784Y2429842D1*
X1239358D1*
X1235047Y2428416D1*
X1232162Y2425564D1*
X1230736Y2421253D1*
X1516055Y3716629D2*
X1528955D1*
X1533266Y3718089D1*
X1534725Y3719515D1*
X1536151Y3722366D1*
Y3725252D1*
X1534725Y3728103D1*
X1533266Y3729563D1*
X1528955Y3730988D1*
X1516055D1*
Y3700844D1*
X1526103Y3716629D2*
X1536151Y3700844D1*
X1551152D2*
X1565511Y3730955D1*
X1545415D1*
X873179Y3947257D2*
Y3960157D1*
X871720Y3964468D1*
X870294Y3965927D1*
X867442Y3967353D1*
X864557D1*
X861705Y3965927D1*
X860246Y3964468D1*
X858820Y3960157D1*
Y3947257D1*
X888964D1*
X873179Y3957305D2*
X888964Y3967353D1*
X858853Y3983779D2*
X860279Y3979502D1*
X863131Y3978042D1*
X866016D1*
X868868Y3979502D1*
X870327Y3982353D1*
X871753Y3988090D1*
X873179Y3992401D1*
X876064Y3995253D1*
X878916Y3996679D1*
X883227D1*
X886079Y3995253D1*
X887538Y3993827D1*
X888964Y3989516D1*
Y3983779D1*
X887538Y3979501D1*
X886079Y3978042D1*
X883227Y3976616D1*
X878916D1*
X876064Y3978042D1*
X873179Y3980927D1*
X871753Y3985205D1*
X870327Y3990942D1*
X868868Y3993827D1*
X866016Y3995253D1*
X863131D1*
X860279Y3993827D1*
X858853Y3989516D1*
Y3983779D1*
X840571Y3796833D2*
X853471D1*
X857782Y3798292D1*
X859241Y3799718D1*
X860667Y3802570D1*
Y3805455D1*
X859241Y3808307D1*
X857782Y3809766D1*
X853471Y3811192D1*
X840571D1*
Y3781048D1*
X850619Y3796833D2*
X860667Y3781048D1*
X888601Y3801144D2*
X887142Y3796833D1*
X884290Y3793948D1*
X879979Y3792522D1*
X878553D1*
X874242Y3793948D1*
X871390Y3796833D1*
X869931Y3801144D1*
Y3802570D1*
X871390Y3806881D1*
X874242Y3809733D1*
X878553Y3811159D1*
X879979D1*
X884290Y3809733D1*
X887142Y3806881D1*
X888601Y3801144D1*
Y3793948D1*
X887142Y3786785D1*
X884290Y3782474D1*
X879979Y3781048D1*
X877127D1*
X872816Y3782474D1*
X871390Y3785359D1*
X1335324Y2876694D2*
X1348224D1*
X1352535Y2878153D1*
X1353994Y2879579D1*
X1355420Y2882431D1*
Y2885316D1*
X1353994Y2888168D1*
X1352535Y2889627D1*
X1348224Y2891053D1*
X1335324D1*
Y2860909D1*
X1345372Y2876694D2*
X1355420Y2860909D1*
X1364684Y2885283D2*
X1367569Y2886742D1*
X1371880Y2891020D1*
Y2860909D1*
X1389765Y2891020D2*
X1385454Y2889594D1*
X1382569Y2885283D1*
X1381143Y2878120D1*
Y2873809D1*
X1382569Y2866646D1*
X1385454Y2862335D1*
X1389765Y2860909D1*
X1392617D1*
X1396928Y2862335D1*
X1399780Y2866646D1*
X1401239Y2873809D1*
Y2878120D1*
X1399780Y2885283D1*
X1396928Y2889594D1*
X1392617Y2891020D1*
X1389765D1*
X1399780Y2885283D2*
X1382569Y2866646D1*
X1333522Y2967527D2*
X1346422D1*
X1350733Y2968986D1*
X1352192Y2970412D1*
X1353618Y2973264D1*
Y2976149D1*
X1352192Y2979001D1*
X1350733Y2980460D1*
X1346422Y2981886D1*
X1333522D1*
Y2951742D1*
X1343570Y2967527D2*
X1353618Y2951742D1*
X1362882Y2976116D2*
X1365767Y2977575D1*
X1370078Y2981853D1*
Y2951742D1*
X1382226Y2981853D2*
X1397978D1*
X1389389Y2970379D1*
X1393700D1*
X1396552Y2968953D1*
X1397978Y2967527D1*
X1399437Y2963216D1*
Y2960364D1*
X1397978Y2956053D1*
X1395126Y2953168D1*
X1390815Y2951742D1*
X1386504D1*
X1382226Y2953168D1*
X1380801Y2954627D1*
X1379341Y2957479D1*
X1664040Y3111059D2*
X1676940D1*
X1681251Y3112518D1*
X1682710Y3113944D1*
X1684136Y3116796D1*
Y3119681D1*
X1682710Y3122533D1*
X1681251Y3123992D1*
X1676940Y3125418D1*
X1664040D1*
Y3095274D1*
X1674088Y3111059D2*
X1684136Y3095274D1*
X1693400Y3119647D2*
X1696285Y3121107D1*
X1700596Y3125384D1*
Y3095274D1*
X1724218D2*
Y3125384D1*
X1709859Y3105322D1*
X1731381D1*
X1842856Y1966455D2*
X1842857Y1979355D1*
X1841397Y1983666D1*
X1839971Y1985125D1*
X1837120Y1986551D1*
X1834234D1*
X1831383Y1985125D1*
X1829923Y1983666D1*
X1828497Y1979355D1*
Y1966455D1*
X1858641D1*
X1842856Y1976503D2*
X1858641Y1986551D1*
X1834268Y1995815D2*
X1832809Y1998700D1*
X1828531Y2003011D1*
X1858641D1*
X1828531Y2029485D2*
Y2015160D1*
X1841431Y2013734D1*
X1840005Y2015160D1*
X1838545Y2019471D1*
Y2023748D1*
X1840005Y2028060D1*
X1842857Y2030945D1*
X1847168Y2032371D1*
X1850019D1*
X1854330Y2030945D1*
X1857216Y2028059D1*
X1858641Y2023748D1*
Y2019471D1*
X1857216Y2015160D1*
X1855756Y2013734D1*
X1852905Y2012275D1*
X1847684Y1492329D2*
X1860583D1*
X1864894Y1493788D1*
X1866354Y1495214D1*
X1867780Y1498066D1*
Y1500951D1*
X1866354Y1503803D1*
X1864894Y1505262D1*
X1860583Y1506688D1*
X1847684D1*
Y1476544D1*
X1857732Y1492329D2*
X1867780Y1476544D1*
X1877043Y1500918D2*
X1879928Y1502377D1*
X1884239Y1506655D1*
Y1476544D1*
X1910714Y1502377D2*
X1909288Y1505229D1*
X1904977Y1506655D1*
X1902125D1*
X1897814Y1505229D1*
X1894929Y1500918D1*
X1893503Y1493755D1*
Y1486592D1*
X1894929Y1480855D1*
X1897814Y1477970D1*
X1902125Y1476544D1*
X1903551D1*
X1907829Y1477970D1*
X1910714Y1480855D1*
X1912140Y1485166D1*
Y1486592D1*
X1910714Y1490903D1*
X1907829Y1493755D1*
X1903551Y1495181D1*
X1902125D1*
X1897814Y1493755D1*
X1894929Y1490903D1*
X1893503Y1486592D1*
X440852Y1212480D2*
X453752D1*
X458063Y1213939D1*
X459522Y1215365D1*
X460948Y1218217D1*
Y1221102D1*
X459522Y1223954D1*
X458063Y1225413D1*
X453752Y1226839D1*
X440852D1*
Y1196695D1*
X450900Y1212480D2*
X460948Y1196695D1*
X470211Y1221069D2*
X473096Y1222528D1*
X477407Y1226806D1*
Y1196695D1*
X492408D2*
X506767Y1226806D1*
X486671D1*
X1846867Y1636885D2*
X1859767D1*
X1864078Y1638344D1*
X1865537Y1639770D1*
X1866963Y1642622D1*
Y1645507D1*
X1865537Y1648359D1*
X1864078Y1649818D1*
X1859767Y1651244D1*
X1846867D1*
Y1621100D1*
X1856915Y1636885D2*
X1866963Y1621100D1*
X1876226Y1645474D2*
X1879112Y1646933D1*
X1883423Y1651211D1*
Y1621100D1*
X1899849Y1651211D2*
X1895571Y1649785D1*
X1894112Y1646933D1*
Y1644048D1*
X1895571Y1641196D1*
X1898423Y1639737D1*
X1904160Y1638311D1*
X1908471Y1636885D1*
X1911323Y1634000D1*
X1912749Y1631148D1*
Y1626837D1*
X1911323Y1623985D1*
X1909897Y1622526D1*
X1905586Y1621100D1*
X1899849D1*
X1895571Y1622526D1*
X1894112Y1623985D1*
X1892686Y1626837D1*
Y1631148D1*
X1894112Y1634000D1*
X1896997Y1636885D1*
X1901275Y1638311D1*
X1907012Y1639737D1*
X1909897Y1641196D1*
X1911323Y1644048D1*
Y1646933D1*
X1909897Y1649785D1*
X1905586Y1651211D1*
X1899849D1*
X441731Y1073699D2*
X454631D1*
X458942Y1075158D1*
X460401Y1076584D1*
X461827Y1079436D1*
Y1082321D1*
X460401Y1085173D1*
X458942Y1086632D1*
X454631Y1088058D1*
X441731D1*
Y1057914D1*
X451779Y1073699D2*
X461827Y1057914D1*
X471091Y1082288D2*
X473976Y1083747D1*
X478287Y1088025D1*
Y1057914D1*
X506221Y1078010D2*
X504761Y1073699D1*
X501909Y1070814D1*
X497598Y1069388D1*
X496173D1*
X491861Y1070814D1*
X489010Y1073699D1*
X487550Y1078010D1*
Y1079436D1*
X489010Y1083747D1*
X491861Y1086599D1*
X496173Y1088025D1*
X497598D1*
X501909Y1086599D1*
X504761Y1083747D1*
X506221Y1078010D1*
Y1070814D1*
X504761Y1063651D1*
X501909Y1059340D1*
X497598Y1057914D1*
X494747D1*
X490436Y1059340D1*
X489010Y1062225D1*
X1641840Y1717122D2*
X1654740D1*
X1659051Y1718581D1*
X1660510Y1720007D1*
X1661936Y1722859D1*
Y1725744D1*
X1660510Y1728596D1*
X1659051Y1730055D1*
X1654740Y1731481D1*
X1641840D1*
Y1701337D1*
X1651888Y1717122D2*
X1661936Y1701337D1*
X1672659Y1724285D2*
Y1725710D1*
X1674085Y1728596D1*
X1675511Y1730021D1*
X1678396Y1731447D1*
X1684133D1*
X1686985Y1730021D1*
X1688410Y1728596D1*
X1689870Y1725710D1*
Y1722859D1*
X1688410Y1719973D1*
X1685559Y1715696D1*
X1671200Y1701337D1*
X1691296D1*
X1709181Y1731447D2*
X1704870Y1730021D1*
X1701985Y1725710D1*
X1700559Y1718548D1*
Y1714237D1*
X1701985Y1707074D1*
X1704870Y1702763D1*
X1709181Y1701337D1*
X1712033D1*
X1716344Y1702763D1*
X1719196Y1707074D1*
X1720655Y1714237D1*
Y1718548D1*
X1719196Y1725710D1*
X1716344Y1730021D1*
X1712033Y1731447D1*
X1709181D1*
X1719196Y1725710D2*
X1701985Y1707074D1*
X671463Y1010052D2*
X684363D1*
X688674Y1011511D1*
X690133Y1012937D1*
X691559Y1015789D1*
Y1018674D1*
X690133Y1021526D1*
X688674Y1022985D1*
X684363Y1024411D1*
X671463D1*
Y994267D1*
X681511Y1010052D2*
X691559Y994267D1*
X702282Y1017215D2*
Y1018641D1*
X703708Y1021526D1*
X705134Y1022952D1*
X708019Y1024378D1*
X713756D1*
X716608Y1022952D1*
X718034Y1021526D1*
X719493Y1018641D1*
Y1015789D1*
X718034Y1012904D1*
X715182Y1008626D1*
X700823Y994267D1*
X720919D1*
X730182Y1018641D2*
X733067Y1020100D1*
X737378Y1024378D1*
Y994267D1*
X645820Y1701783D2*
X658720D1*
X663031Y1703242D1*
X664490Y1704668D1*
X665916Y1707520D1*
Y1710405D1*
X664490Y1713257D1*
X663031Y1714716D1*
X658720Y1716142D1*
X645820D1*
Y1685998D1*
X655868Y1701783D2*
X665916Y1685998D1*
X676639Y1708946D2*
Y1710372D1*
X678065Y1713257D1*
X679491Y1714683D1*
X682376Y1716109D1*
X688113D1*
X690965Y1714683D1*
X692391Y1713257D1*
X693850Y1710372D1*
Y1707520D1*
X692391Y1704635D1*
X689539Y1700357D1*
X675180Y1685998D1*
X695276D1*
X721750Y1716109D2*
X707424D1*
X705999Y1703209D1*
X707424Y1704635D1*
X711736Y1706094D1*
X716013D1*
X720324Y1704635D1*
X723209Y1701783D1*
X724635Y1697472D1*
Y1694620D1*
X723209Y1690309D1*
X720324Y1687424D1*
X716013Y1685998D1*
X711736D1*
X707424Y1687424D1*
X705999Y1688883D1*
X704539Y1691735D1*
X1618638Y1016345D2*
X1631538D1*
X1635849Y1017804D1*
X1637308Y1019230D1*
X1638734Y1022082D1*
Y1024967D1*
X1637308Y1027819D1*
X1635849Y1029278D1*
X1631538Y1030704D1*
X1618638D1*
Y1000560D1*
X1628686Y1016345D2*
X1638734Y1000560D1*
X1649456Y1023508D2*
Y1024934D1*
X1650882Y1027819D1*
X1652308Y1029245D1*
X1655193Y1030671D1*
X1660930D1*
X1663782Y1029245D1*
X1665208Y1027819D1*
X1666667Y1024934D1*
Y1022082D1*
X1665208Y1019197D1*
X1662356Y1014919D1*
X1647997Y1000560D1*
X1668093D1*
X1694568Y1026393D2*
X1693142Y1029245D1*
X1688831Y1030671D1*
X1685979D1*
X1681668Y1029245D1*
X1678783Y1024934D1*
X1677357Y1017771D1*
Y1010608D1*
X1678783Y1004871D1*
X1681668Y1001986D1*
X1685979Y1000560D1*
X1687405D1*
X1691683Y1001986D1*
X1694568Y1004871D1*
X1695994Y1009182D1*
Y1010608D1*
X1694568Y1014919D1*
X1691683Y1017771D1*
X1687405Y1019197D1*
X1685979D1*
X1681668Y1017771D1*
X1678783Y1014919D1*
X1677357Y1010608D1*
X442370Y1647165D2*
X455270D1*
X459581Y1648624D1*
X461040Y1650050D1*
X462466Y1652902D1*
Y1655787D1*
X461040Y1658639D1*
X459581Y1660098D1*
X455270Y1661524D1*
X442370D1*
Y1631380D1*
X452418Y1647165D2*
X462466Y1631380D1*
X473189Y1654328D2*
Y1655754D1*
X474615Y1658639D1*
X476041Y1660065D1*
X478926Y1661491D1*
X484663D1*
X487515Y1660065D1*
X488941Y1658639D1*
X490400Y1655754D1*
Y1652902D1*
X488941Y1650017D1*
X486089Y1645739D1*
X471730Y1631380D1*
X491826D1*
X506826D2*
X521185Y1661491D1*
X501089D1*
X1854942Y1078544D2*
X1867842D1*
X1872153Y1080003D1*
X1873612Y1081429D1*
X1875038Y1084281D1*
Y1087166D1*
X1873612Y1090018D1*
X1872153Y1091477D1*
X1867842Y1092903D1*
X1854942D1*
Y1062759D1*
X1864990Y1078544D2*
X1875038Y1062759D1*
X1885761Y1085707D2*
Y1087133D1*
X1887187Y1090018D1*
X1888612Y1091444D1*
X1891498Y1092870D1*
X1897235D1*
X1900086Y1091444D1*
X1901512Y1090018D1*
X1902971Y1087133D1*
Y1084281D1*
X1901512Y1081396D1*
X1898660Y1077118D1*
X1884301Y1062759D1*
X1904397D1*
X1920824Y1092870D2*
X1916546Y1091444D1*
X1915087Y1088592D1*
Y1085707D1*
X1916546Y1082855D1*
X1919398Y1081396D1*
X1925135Y1079970D1*
X1929446Y1078544D1*
X1932298Y1075659D1*
X1933724Y1072807D1*
Y1068496D1*
X1932298Y1065644D1*
X1930872Y1064185D1*
X1926561Y1062759D1*
X1920824D1*
X1916546Y1064185D1*
X1915087Y1065644D1*
X1913661Y1068496D1*
Y1072807D1*
X1915087Y1075659D1*
X1917972Y1078544D1*
X1922250Y1079970D1*
X1927987Y1081396D1*
X1930872Y1082855D1*
X1932298Y1085707D1*
Y1088592D1*
X1930872Y1091444D1*
X1926561Y1092870D1*
X1920824D1*
X1855737Y1218969D2*
X1868637D1*
X1872948Y1220428D1*
X1874407Y1221854D1*
X1875833Y1224706D1*
Y1227591D1*
X1874407Y1230443D1*
X1872948Y1231902D1*
X1868637Y1233328D1*
X1855737D1*
Y1203184D1*
X1865785Y1218969D2*
X1875833Y1203184D1*
X1886555Y1226132D2*
Y1227558D1*
X1887981Y1230443D1*
X1889407Y1231869D1*
X1892292Y1233295D1*
X1898029D1*
X1900881Y1231869D1*
X1902307Y1230443D1*
X1903766Y1227558D1*
Y1224706D1*
X1902307Y1221821D1*
X1899455Y1217543D1*
X1885096Y1203184D1*
X1905192D1*
X1933126Y1223280D2*
X1931667Y1218969D1*
X1928815Y1216084D1*
X1924504Y1214658D1*
X1923078D1*
X1918767Y1216084D1*
X1915915Y1218969D1*
X1914456Y1223280D1*
Y1224706D1*
X1915915Y1229017D1*
X1918767Y1231869D1*
X1923078Y1233295D1*
X1924504D1*
X1928815Y1231869D1*
X1931667Y1229017D1*
X1933126Y1223280D1*
Y1216084D1*
X1931667Y1208921D1*
X1928815Y1204610D1*
X1924504Y1203184D1*
X1921652D1*
X1917341Y1204610D1*
X1915915Y1207495D1*
X443442Y1494689D2*
X456342D1*
X460653Y1496148D1*
X462112Y1497574D1*
X463538Y1500425D1*
Y1503311D1*
X462112Y1506162D1*
X460653Y1507622D1*
X456342Y1509048D1*
X443442D1*
Y1478904D1*
X453490Y1494689D2*
X463538Y1478904D1*
X475687Y1509014D2*
X491439D1*
X482850Y1497540D1*
X487161D1*
X490013Y1496114D1*
X491439Y1494689D1*
X492898Y1490377D1*
Y1487526D1*
X491439Y1483215D1*
X488587Y1480329D1*
X484276Y1478904D1*
X479965D1*
X475687Y1480329D1*
X474261Y1481789D1*
X472802Y1484641D1*
X510784Y1509014D2*
X506472Y1507588D1*
X503587Y1503277D1*
X502161Y1496114D1*
Y1491803D1*
X503587Y1484641D1*
X506472Y1480329D1*
X510784Y1478904D1*
X513635D1*
X517946Y1480329D1*
X520798Y1484641D1*
X522257Y1491803D1*
Y1496114D1*
X520798Y1503277D1*
X517946Y1507588D1*
X513635Y1509014D1*
X510784D1*
X520798Y1503277D2*
X503587Y1484641D1*
X1857133Y626936D2*
Y639836D1*
X1855674Y644147D1*
X1854248Y645606D1*
X1851396Y647032D1*
X1848511D1*
X1845659Y645606D1*
X1844200Y644147D1*
X1842774Y639836D1*
Y626936D1*
X1872918D1*
X1857133Y636984D2*
X1872918Y647032D1*
X1842808Y659180D2*
Y674932D1*
X1854282Y666343D1*
Y670654D1*
X1855707Y673506D1*
X1857133Y674932D1*
X1861444Y676391D1*
X1864296D1*
X1868607Y674932D1*
X1871492Y672080D1*
X1872918Y667769D1*
Y663458D1*
X1871492Y659180D1*
X1870033Y657754D1*
X1867181Y656295D1*
X1848545Y685655D2*
X1847085Y688540D1*
X1842808Y692851D1*
X1872918D1*
X1211171Y667738D2*
X1224071D1*
X1228382Y669197D1*
X1229841Y670623D1*
X1231267Y673475D1*
Y676360D1*
X1229841Y679212D1*
X1228382Y680671D1*
X1224071Y682097D1*
X1211171D1*
Y651953D1*
X1221219Y667738D2*
X1231267Y651953D1*
X1243415Y682064D2*
X1259167D1*
X1250578Y670590D1*
X1254889D1*
X1257741Y669164D1*
X1259167Y667738D1*
X1260626Y663427D1*
Y660575D1*
X1259167Y656264D1*
X1256315Y653379D1*
X1252004Y651953D1*
X1247693D1*
X1243415Y653379D1*
X1241989Y654838D1*
X1240530Y657690D1*
X1271349Y674901D2*
Y676327D1*
X1272775Y679212D1*
X1274201Y680638D1*
X1277086Y682064D1*
X1282823D1*
X1285675Y680638D1*
X1287101Y679212D1*
X1288560Y676327D1*
Y673475D1*
X1287101Y670590D1*
X1284249Y666312D1*
X1269890Y651953D1*
X1289986D1*
X1076084Y667738D2*
X1088984D1*
X1093295Y669197D1*
X1094754Y670623D1*
X1096180Y673475D1*
Y676360D1*
X1094754Y679212D1*
X1093295Y680671D1*
X1088984Y682097D1*
X1076084D1*
Y651953D1*
X1086132Y667738D2*
X1096180Y651953D1*
X1108329Y682064D2*
X1124081D1*
X1115492Y670590D1*
X1119803D1*
X1122655Y669164D1*
X1124081Y667738D1*
X1125540Y663427D1*
Y660575D1*
X1124081Y656264D1*
X1121229Y653379D1*
X1116918Y651953D1*
X1112607D1*
X1108329Y653379D1*
X1106903Y654838D1*
X1105444Y657690D1*
X1137688Y682064D2*
X1153440D1*
X1144851Y670590D1*
X1149162D1*
X1152014Y669164D1*
X1153440Y667738D1*
X1154899Y663427D1*
Y660575D1*
X1153440Y656264D1*
X1150588Y653379D1*
X1146277Y651953D1*
X1141966D1*
X1137688Y653379D1*
X1136262Y654838D1*
X1134803Y657690D1*
X442925Y691607D2*
X455825D1*
X460136Y693066D1*
X461595Y694492D1*
X463021Y697344D1*
Y700229D1*
X461595Y703081D1*
X460136Y704540D1*
X455825Y705966D1*
X442925D1*
Y675822D1*
X452973Y691607D2*
X463021Y675822D1*
X475170Y705933D2*
X490921D1*
X482332Y694459D1*
X486643D1*
X489495Y693033D1*
X490921Y691607D1*
X492380Y687296D1*
Y684444D1*
X490921Y680133D1*
X488069Y677248D1*
X483758Y675822D1*
X479447D1*
X475170Y677248D1*
X473744Y678707D1*
X472284Y681559D1*
X516003Y675822D2*
Y705933D1*
X501644Y685870D1*
X523166D1*
X1394180Y1261459D2*
X1407080D1*
X1411391Y1262918D1*
X1412850Y1264344D1*
X1414276Y1267196D1*
Y1270081D1*
X1412850Y1272933D1*
X1411391Y1274392D1*
X1407080Y1275818D1*
X1394180D1*
Y1245674D1*
X1404228Y1261459D2*
X1414276Y1245674D1*
X1426425Y1275785D2*
X1442176D1*
X1433587Y1264311D1*
X1437898D1*
X1440750Y1262885D1*
X1442176Y1261459D1*
X1443635Y1257148D1*
Y1254296D1*
X1442176Y1249985D1*
X1439324Y1247100D1*
X1435013Y1245674D1*
X1430702D1*
X1426425Y1247100D1*
X1424999Y1248559D1*
X1423539Y1251411D1*
X1470110Y1275785D2*
X1455784D1*
X1454358Y1262885D1*
X1455784Y1264311D1*
X1460095Y1265770D1*
X1464373D1*
X1468684Y1264311D1*
X1471569Y1261459D1*
X1472995Y1257148D1*
Y1254296D1*
X1471569Y1249985D1*
X1468684Y1247100D1*
X1464373Y1245674D1*
X1460095D1*
X1455784Y1247100D1*
X1454358Y1248559D1*
X1452899Y1251411D1*
X960501Y1514622D2*
X973401D1*
X977712Y1516081D1*
X979171Y1517507D1*
X980597Y1520359D1*
Y1523244D1*
X979171Y1526096D1*
X977712Y1527555D1*
X973401Y1528981D1*
X960501D1*
Y1498837D1*
X970549Y1514622D2*
X980597Y1498837D1*
X992746Y1528947D2*
X1008498D1*
X999909Y1517473D1*
X1004220D1*
X1007072Y1516048D1*
X1008498Y1514622D1*
X1009957Y1510311D1*
Y1507459D1*
X1008498Y1503148D1*
X1005646Y1500263D1*
X1001335Y1498837D1*
X997024D1*
X992746Y1500263D1*
X991320Y1501722D1*
X989861Y1504574D1*
X1036431Y1524670D2*
X1035005Y1527521D1*
X1030694Y1528947D1*
X1027842D1*
X1023531Y1527521D1*
X1020646Y1523210D1*
X1019220Y1516048D1*
Y1508885D1*
X1020646Y1503148D1*
X1023531Y1500263D1*
X1027842Y1498837D1*
X1029268D1*
X1033546Y1500263D1*
X1036431Y1503148D1*
X1037857Y1507459D1*
Y1508885D1*
X1036431Y1513196D1*
X1033546Y1516048D1*
X1029268Y1517473D1*
X1027842D1*
X1023531Y1516048D1*
X1020646Y1513196D1*
X1019220Y1508885D1*
X1350369Y1103637D2*
X1363269D1*
X1367580Y1105096D1*
X1369039Y1106522D1*
X1370465Y1109374D1*
Y1112259D1*
X1369039Y1115111D1*
X1367580Y1116570D1*
X1363269Y1117996D1*
X1350369D1*
Y1087852D1*
X1360417Y1103637D2*
X1370465Y1087852D1*
X1382613Y1117963D2*
X1398365D1*
X1389776Y1106489D1*
X1394087D1*
X1396939Y1105063D1*
X1398365Y1103637D1*
X1399824Y1099326D1*
Y1096474D1*
X1398365Y1092163D1*
X1395513Y1089278D1*
X1391202Y1087852D1*
X1386891D1*
X1382613Y1089278D1*
X1381188Y1090737D1*
X1379728Y1093589D1*
X1414825Y1087852D2*
X1429184Y1117963D1*
X1409088D1*
X1411263Y502703D2*
X1424163D1*
X1428474Y504162D1*
X1429933Y505588D1*
X1431359Y508440D1*
Y511325D1*
X1429933Y514177D1*
X1428474Y515636D1*
X1424163Y517062D1*
X1411263D1*
Y486918D1*
X1421311Y502703D2*
X1431359Y486918D1*
X1443508Y517029D2*
X1459260D1*
X1450671Y505555D1*
X1454982D1*
X1457834Y504129D1*
X1459260Y502703D1*
X1460719Y498392D1*
Y495540D1*
X1459260Y491229D1*
X1456408Y488344D1*
X1452097Y486918D1*
X1447786D1*
X1443508Y488344D1*
X1442082Y489803D1*
X1440623Y492655D1*
X1477145Y517029D2*
X1472868Y515603D1*
X1471408Y512751D1*
Y509866D1*
X1472868Y507014D1*
X1475719Y505555D1*
X1481456Y504129D1*
X1485767Y502703D1*
X1488619Y499818D1*
X1490045Y496966D1*
Y492655D1*
X1488619Y489803D1*
X1487193Y488344D1*
X1482882Y486918D1*
X1477145D1*
X1472868Y488344D1*
X1471408Y489803D1*
X1469983Y492655D1*
Y496966D1*
X1471408Y499818D1*
X1474294Y502703D1*
X1478571Y504129D1*
X1484308Y505555D1*
X1487193Y507014D1*
X1488619Y509866D1*
Y512751D1*
X1487193Y515603D1*
X1482882Y517029D1*
X1477145D1*
X858977Y494805D2*
X871877D1*
X876188Y496264D1*
X877647Y497690D1*
X879073Y500542D1*
Y503427D1*
X877647Y506279D1*
X876188Y507738D1*
X871877Y509164D1*
X858977D1*
Y479020D1*
X869025Y494805D2*
X879073Y479020D1*
X891221Y509131D2*
X906973D1*
X898384Y497657D1*
X902695D1*
X905547Y496231D1*
X906973Y494805D1*
X908432Y490494D1*
Y487642D1*
X906973Y483331D1*
X904121Y480446D1*
X899810Y479020D1*
X895499D1*
X891221Y480446D1*
X889796Y481905D1*
X888336Y484757D1*
X936366Y499116D2*
X934907Y494805D1*
X932055Y491920D1*
X927744Y490494D1*
X926318D1*
X922007Y491920D1*
X919155Y494805D1*
X917696Y499116D1*
Y500542D1*
X919155Y504853D1*
X922007Y507705D1*
X926318Y509131D1*
X927744D1*
X932055Y507705D1*
X934907Y504853D1*
X936366Y499116D1*
Y491920D1*
X934907Y484757D1*
X932055Y480446D1*
X927744Y479020D1*
X924892D1*
X920581Y480446D1*
X919155Y483331D1*
X441950Y572808D2*
X454850D1*
X459161Y574267D1*
X460620Y575693D1*
X462046Y578545D1*
Y581430D1*
X460620Y584282D1*
X459161Y585741D1*
X454850Y587167D1*
X441950D1*
Y557023D1*
X451998Y572808D2*
X462046Y557023D1*
X485668D2*
Y587134D1*
X471309Y567071D1*
X492831D1*
X510717Y587134D2*
X506406Y585708D1*
X503521Y581397D1*
X502095Y574234D1*
Y569923D1*
X503521Y562760D1*
X506406Y558449D1*
X510717Y557023D1*
X513569D1*
X517880Y558449D1*
X520732Y562760D1*
X522191Y569923D1*
Y574234D1*
X520732Y581397D1*
X517880Y585708D1*
X513569Y587134D1*
X510717D1*
X520732Y581397D2*
X503521Y562760D1*
X1021110Y1685227D2*
X1034010D1*
X1038321Y1686686D1*
X1039780Y1688112D1*
X1041206Y1690964D1*
Y1693849D1*
X1039780Y1696701D1*
X1038321Y1698160D1*
X1034010Y1699586D1*
X1021110D1*
Y1669442D1*
X1031158Y1685227D2*
X1041206Y1669442D1*
X1064828D2*
Y1699552D1*
X1050469Y1679490D1*
X1071991D1*
X1081255Y1693815D2*
X1084140Y1695275D1*
X1088451Y1699552D1*
Y1669442D1*
X1844766Y571471D2*
X1857666D1*
X1861977Y572930D1*
X1863436Y574356D1*
X1864862Y577208D1*
Y580093D1*
X1863436Y582945D1*
X1861977Y584404D1*
X1857666Y585830D1*
X1844766D1*
Y555686D1*
X1854814Y571471D2*
X1864862Y555686D1*
X1888485D2*
Y585797D1*
X1874126Y565734D1*
X1895648D1*
X1906370Y578634D2*
Y580060D1*
X1907796Y582945D1*
X1909222Y584371D1*
X1912107Y585797D1*
X1917844D1*
X1920696Y584371D1*
X1922122Y582945D1*
X1923581Y580060D1*
Y577208D1*
X1922122Y574323D1*
X1919270Y570045D1*
X1904911Y555686D1*
X1925007D1*
X842651Y1703395D2*
X855551D1*
X859862Y1704854D1*
X861321Y1706280D1*
X862747Y1709132D1*
Y1712017D1*
X861321Y1714869D1*
X859862Y1716328D1*
X855551Y1717754D1*
X842651D1*
Y1687610D1*
X852699Y1703395D2*
X862747Y1687610D1*
X886369D2*
Y1717720D1*
X872010Y1697658D1*
X893532D1*
X905681Y1717720D2*
X921433D1*
X912844Y1706246D1*
X917155D1*
X920007Y1704821D1*
X921433Y1703395D1*
X922892Y1699084D1*
Y1696232D1*
X921433Y1691921D1*
X918581Y1689036D1*
X914270Y1687610D1*
X909959D1*
X905681Y1689036D1*
X904255Y1690495D1*
X902796Y1693347D1*
X1467457Y1022195D2*
X1480357D1*
X1484668Y1023654D1*
X1486127Y1025080D1*
X1487553Y1027932D1*
Y1030817D1*
X1486127Y1033669D1*
X1484668Y1035128D1*
X1480357Y1036554D1*
X1467457D1*
Y1006410D1*
X1477505Y1022195D2*
X1487553Y1006410D1*
X1511176D2*
Y1036521D1*
X1496817Y1016458D1*
X1518339D1*
X1541961Y1006410D2*
Y1036521D1*
X1527602Y1016458D1*
X1549124D1*
X1230296Y453904D2*
Y466804D1*
X1228837Y471115D1*
X1227411Y472574D1*
X1224559Y474000D1*
X1221674D1*
X1218822Y472574D1*
X1217363Y471115D1*
X1215937Y466804D1*
Y453904D1*
X1246081D1*
X1230296Y463952D2*
X1246081Y474000D1*
Y497623D2*
X1215970D1*
X1236033Y483264D1*
Y504785D1*
X1215970Y531260D2*
Y516934D1*
X1228870Y515508D1*
X1227444Y516934D1*
X1225985Y521245D1*
Y525523D1*
X1227444Y529834D1*
X1230296Y532719D1*
X1234607Y534145D1*
X1237459D1*
X1241770Y532719D1*
X1244655Y529834D1*
X1246081Y525523D1*
Y521245D1*
X1244655Y516934D1*
X1243196Y515508D1*
X1240344Y514049D1*
X733721Y2207341D2*
X746621D1*
X750932Y2208800D1*
X752391Y2210226D1*
X753817Y2213078D1*
Y2215963D1*
X752391Y2218815D1*
X750932Y2220274D1*
X746621Y2221700D1*
X733721D1*
Y2191556D1*
X743769Y2207341D2*
X753817Y2191556D1*
X777440D2*
Y2221667D1*
X763081Y2201604D1*
X784603D1*
X811077Y2217389D2*
X809651Y2220241D1*
X805340Y2221667D1*
X802489D1*
X798177Y2220241D1*
X795292Y2215930D1*
X793866Y2208767D1*
Y2201604D1*
X795292Y2195867D1*
X798177Y2192982D1*
X802489Y2191556D1*
X803914D1*
X808192Y2192982D1*
X811077Y2195867D1*
X812503Y2200178D1*
Y2201604D1*
X811077Y2205915D1*
X808192Y2208767D1*
X803914Y2210193D1*
X802489D1*
X798177Y2208767D1*
X795292Y2205915D1*
X793866Y2201604D1*
X1855296Y453904D2*
Y466804D1*
X1853837Y471115D1*
X1852411Y472574D1*
X1849559Y474000D1*
X1846674D1*
X1843822Y472574D1*
X1842363Y471115D1*
X1840937Y466804D1*
Y453904D1*
X1871081D1*
X1855296Y463952D2*
X1871081Y474000D1*
Y497623D2*
X1840970D1*
X1861033Y483264D1*
Y504785D1*
X1871081Y519786D2*
X1840970Y534145D1*
Y514049D1*
X1151825Y452946D2*
Y465845D1*
X1150366Y470156D1*
X1148940Y471616D1*
X1146088Y473042D1*
X1143203D1*
X1140351Y471616D1*
X1138892Y470156D1*
X1137466Y465845D1*
Y452946D1*
X1167610D1*
X1151825Y462994D2*
X1167610Y473041D1*
Y496664D2*
X1137499D1*
X1157562Y482305D1*
Y503827D1*
X1137499Y520253D2*
X1138925Y515976D1*
X1141777Y514516D1*
X1144662D1*
X1147514Y515976D1*
X1148973Y518827D1*
X1150399Y524564D1*
X1151825Y528875D1*
X1154710Y531727D1*
X1157562Y533153D1*
X1161873D1*
X1164725Y531727D1*
X1166184Y530301D1*
X1167610Y525990D1*
Y520253D1*
X1166184Y515976D1*
X1164725Y514516D1*
X1161873Y513091D1*
X1157562D1*
X1154710Y514516D1*
X1151825Y517402D1*
X1150399Y521679D1*
X1148973Y527416D1*
X1147514Y530301D1*
X1144662Y531727D1*
X1141777D1*
X1138925Y530301D1*
X1137499Y525990D1*
Y520253D1*
X430296Y454617D2*
Y467517D1*
X428837Y471828D1*
X427411Y473287D1*
X424559Y474713D1*
X421674D1*
X418822Y473287D1*
X417363Y471828D1*
X415937Y467517D1*
Y454617D1*
X446081D1*
X430296Y464665D2*
X446081Y474713D1*
Y498335D2*
X415970Y498336D1*
X436033Y483976D1*
Y505498D1*
X425985Y533432D2*
X430296Y531973D1*
X433181Y529121D1*
X434607Y524810D1*
Y523384D1*
X433181Y519073D1*
X430296Y516221D1*
X425985Y514762D1*
X424559D1*
X420248Y516221D1*
X417396Y519073D1*
X415970Y523384D1*
Y524810D1*
X417396Y529121D1*
X420248Y531973D1*
X425985Y533432D1*
X433181D1*
X440344Y531973D1*
X444655Y529121D1*
X446081Y524810D1*
Y521958D1*
X444655Y517647D1*
X441770Y516221D1*
X816479Y1013715D2*
X829379D1*
X833690Y1015174D1*
X835149Y1016600D1*
X836575Y1019452D1*
Y1022337D1*
X835149Y1025189D1*
X833690Y1026648D1*
X829379Y1028074D1*
X816479D1*
Y997930D1*
X826527Y1013715D2*
X836575Y997930D1*
X863050Y1028041D2*
X848724D1*
X847298Y1015141D1*
X848724Y1016567D1*
X853035Y1018026D1*
X857313D1*
X861624Y1016567D1*
X864509Y1013715D1*
X865935Y1009404D1*
Y1006552D1*
X864509Y1002241D1*
X861624Y999356D1*
X857313Y997930D1*
X853035D1*
X848724Y999356D1*
X847298Y1000815D1*
X845839Y1003667D1*
X883820Y1028041D2*
X879509Y1026615D1*
X876624Y1022304D1*
X875198Y1015141D1*
Y1010830D1*
X876624Y1003667D1*
X879509Y999356D1*
X883820Y997930D1*
X886672D1*
X890983Y999356D1*
X893835Y1003667D1*
X895294Y1010830D1*
Y1015141D1*
X893835Y1022304D1*
X890983Y1026615D1*
X886672Y1028041D1*
X883820D1*
X893835Y1022304D2*
X876624Y1003667D1*
X1443201Y1711847D2*
X1456101D1*
X1460412Y1713306D1*
X1461871Y1714732D1*
X1463297Y1717584D1*
Y1720469D1*
X1461871Y1723321D1*
X1460412Y1724780D1*
X1456101Y1726206D1*
X1443201D1*
Y1696062D1*
X1453249Y1711847D2*
X1463297Y1696062D1*
X1489771Y1726173D2*
X1475445D1*
X1474019Y1713273D1*
X1475445Y1714699D1*
X1479756Y1716158D1*
X1484034D1*
X1488345Y1714699D1*
X1491230Y1711847D1*
X1492656Y1707536D1*
Y1704684D1*
X1491230Y1700373D1*
X1488345Y1697488D1*
X1484034Y1696062D1*
X1479756D1*
X1475445Y1697488D1*
X1474019Y1698947D1*
X1472560Y1701799D1*
X1501920Y1720436D2*
X1504805Y1721895D1*
X1509116Y1726173D1*
Y1696062D1*
X1276522Y1682112D2*
X1289422D1*
X1293733Y1683572D1*
X1295192Y1684997D1*
X1296618Y1687849D1*
Y1690734D1*
X1295192Y1693586D1*
X1293733Y1695045D1*
X1289422Y1696471D1*
X1276522D1*
Y1666327D1*
X1286570Y1682112D2*
X1296618Y1666327D1*
X1323093Y1696438D2*
X1308767D1*
X1307341Y1683538D1*
X1308767Y1684964D1*
X1313078Y1686423D1*
X1317356D1*
X1321667Y1684964D1*
X1324552Y1682112D1*
X1325978Y1677801D1*
Y1674949D1*
X1324552Y1670638D1*
X1321667Y1667753D1*
X1317356Y1666327D1*
X1313078D1*
X1308767Y1667753D1*
X1307341Y1669212D1*
X1305882Y1672064D1*
X1336701Y1689275D2*
Y1690701D1*
X1338127Y1693586D1*
X1339553Y1695012D1*
X1342438Y1696438D1*
X1348175D1*
X1351026Y1695012D1*
X1352452Y1693586D1*
X1353912Y1690701D1*
Y1687849D1*
X1352452Y1684964D1*
X1349601Y1680686D1*
X1335242Y1666327D1*
X1355338D1*
X940652Y1105830D2*
X953552D1*
X957863Y1107289D1*
X959322Y1108715D1*
X960748Y1111567D1*
Y1114452D1*
X959322Y1117304D1*
X957863Y1118763D1*
X953552Y1120189D1*
X940652D1*
Y1090045D1*
X950700Y1105830D2*
X960748Y1090045D1*
X987223Y1120156D2*
X972897D1*
X971471Y1107256D1*
X972897Y1108682D1*
X977208Y1110141D1*
X981486D1*
X985797Y1108682D1*
X988682Y1105830D1*
X990108Y1101519D1*
Y1098667D1*
X988682Y1094356D1*
X985797Y1091471D1*
X981486Y1090045D1*
X977208D1*
X972897Y1091471D1*
X971471Y1092930D1*
X970012Y1095782D1*
X1002257Y1120156D2*
X1018008D1*
X1009419Y1108682D1*
X1013730D1*
X1016582Y1107256D1*
X1018008Y1105830D1*
X1019467Y1101519D1*
Y1098667D1*
X1018008Y1094356D1*
X1015156Y1091471D1*
X1010845Y1090045D1*
X1006534D1*
X1002257Y1091471D1*
X1000831Y1092930D1*
X999371Y1095782D1*
X892323Y1258761D2*
X905222D1*
X909533Y1260220D1*
X910993Y1261646D1*
X912419Y1264498D1*
Y1267383D1*
X910993Y1270235D1*
X909533Y1271694D1*
X905222Y1273120D1*
X892323D1*
Y1242976D1*
X902371Y1258761D2*
X912419Y1242976D1*
X938893Y1273087D2*
X924567D1*
X923141Y1260187D1*
X924567Y1261613D1*
X928878Y1263072D1*
X933156D1*
X937467Y1261613D1*
X940352Y1258761D1*
X941778Y1254450D1*
Y1251598D1*
X940352Y1247287D1*
X937467Y1244402D1*
X933156Y1242976D1*
X928878D1*
X924567Y1244402D1*
X923141Y1245861D1*
X921682Y1248713D1*
X965401Y1242976D2*
Y1273087D1*
X951042Y1253024D1*
X972564D1*
X1342431Y1519347D2*
X1355330D1*
X1359641Y1520806D1*
X1361101Y1522232D1*
X1362527Y1525084D1*
Y1527969D1*
X1361101Y1530821D1*
X1359641Y1532280D1*
X1355330Y1533706D1*
X1342431D1*
Y1503562D1*
X1352479Y1519347D2*
X1362527Y1503562D1*
X1389001Y1533673D2*
X1374675D1*
X1373249Y1520773D1*
X1374675Y1522199D1*
X1378986Y1523658D1*
X1383264D1*
X1387575Y1522199D1*
X1390460Y1519347D1*
X1391886Y1515036D1*
Y1512184D1*
X1390460Y1507873D1*
X1387575Y1504988D1*
X1383264Y1503562D1*
X1378986D1*
X1374675Y1504988D1*
X1373249Y1506447D1*
X1371790Y1509299D1*
X1418361Y1533673D2*
X1404035D1*
X1402609Y1520773D1*
X1404035Y1522199D1*
X1408346Y1523658D1*
X1412624D1*
X1416935Y1522199D1*
X1419820Y1519347D1*
X1421246Y1515036D1*
Y1512184D1*
X1419820Y1507873D1*
X1416935Y1504988D1*
X1412624Y1503562D1*
X1408346D1*
X1404035Y1504988D1*
X1402609Y1506447D1*
X1401150Y1509299D1*
X1148564Y1638198D2*
X1161464D1*
X1165775Y1639657D1*
X1167234Y1641083D1*
X1168660Y1643935D1*
Y1646820D1*
X1167234Y1649672D1*
X1165775Y1651131D1*
X1161464Y1652557D1*
X1148564D1*
Y1622413D1*
X1158612Y1638198D2*
X1168660Y1622413D1*
X1195135Y1648246D2*
X1193709Y1651098D1*
X1189398Y1652524D1*
X1186546D1*
X1182235Y1651098D1*
X1179350Y1646787D1*
X1177924Y1639624D1*
Y1632461D1*
X1179350Y1626724D1*
X1182235Y1623839D1*
X1186546Y1622413D1*
X1187972D1*
X1192250Y1623839D1*
X1195135Y1626724D1*
X1196561Y1631035D1*
Y1632461D1*
X1195135Y1636772D1*
X1192250Y1639624D1*
X1187972Y1641050D1*
X1186546D1*
X1182235Y1639624D1*
X1179350Y1636772D1*
X1177924Y1632461D1*
X1205824Y1646787D2*
X1208709Y1648246D1*
X1213020Y1652524D1*
Y1622413D1*
X1144311Y1485269D2*
X1157211D1*
X1161522Y1486728D1*
X1162981Y1488154D1*
X1164407Y1491006D1*
Y1493891D1*
X1162981Y1496743D1*
X1161522Y1498202D1*
X1157211Y1499628D1*
X1144311D1*
Y1469484D1*
X1154359Y1485269D2*
X1164407Y1469484D1*
X1190882Y1495317D2*
X1189456Y1498168D1*
X1185145Y1499594D1*
X1182293D1*
X1177982Y1498168D1*
X1175097Y1493857D1*
X1173671Y1486695D1*
Y1479532D1*
X1175097Y1473795D1*
X1177982Y1470910D1*
X1182293Y1469484D1*
X1183719D1*
X1187996Y1470910D1*
X1190882Y1473795D1*
X1192307Y1478106D1*
Y1479532D1*
X1190882Y1483843D1*
X1187996Y1486695D1*
X1183719Y1488120D1*
X1182293D1*
X1177982Y1486695D1*
X1175097Y1483843D1*
X1173671Y1479532D1*
X1203030Y1492431D2*
Y1493857D1*
X1204456Y1496743D1*
X1205882Y1498168D1*
X1208767Y1499594D1*
X1214504D1*
X1217356Y1498168D1*
X1218782Y1496743D1*
X1220241Y1493857D1*
Y1491006D1*
X1218782Y1488120D1*
X1215930Y1483843D1*
X1201571Y1469484D1*
X1221667D1*
X1142846Y1562465D2*
X1155746D1*
X1160057Y1563925D1*
X1161517Y1565350D1*
X1162942Y1568202D1*
Y1571087D1*
X1161517Y1573939D1*
X1160057Y1575398D1*
X1155746Y1576824D1*
X1142846D1*
Y1546680D1*
X1152894Y1562465D2*
X1162942Y1546680D1*
X1189417Y1572513D2*
X1187991Y1575365D1*
X1183680Y1576791D1*
X1180828D1*
X1176517Y1575365D1*
X1173632Y1571054D1*
X1172206Y1563891D1*
Y1556728D1*
X1173632Y1550991D1*
X1176517Y1548106D1*
X1180828Y1546680D1*
X1182254D1*
X1186532Y1548106D1*
X1189417Y1550991D1*
X1190843Y1555302D1*
Y1556728D1*
X1189417Y1561039D1*
X1186532Y1563891D1*
X1182254Y1565317D1*
X1180828D1*
X1176517Y1563891D1*
X1173632Y1561039D1*
X1172206Y1556728D1*
X1202992Y1576791D2*
X1218743D1*
X1210154Y1565317D1*
X1214465D1*
X1217317Y1563891D1*
X1218743Y1562465D1*
X1220202Y1558154D1*
Y1555302D1*
X1218743Y1550991D1*
X1215891Y1548106D1*
X1211580Y1546680D1*
X1207269D1*
X1202992Y1548106D1*
X1201566Y1549566D1*
X1200106Y1552417D1*
X1852850Y1026738D2*
X1865750D1*
X1870061Y1028197D1*
X1871520Y1029623D1*
X1872946Y1032475D1*
Y1035360D1*
X1871520Y1038212D1*
X1870061Y1039671D1*
X1865750Y1041097D1*
X1852850D1*
Y1010953D1*
X1862898Y1026738D2*
X1872946Y1010953D1*
X1899421Y1036786D2*
X1897995Y1039638D1*
X1893684Y1041064D1*
X1890832D1*
X1886521Y1039638D1*
X1883636Y1035327D1*
X1882210Y1028164D1*
Y1021001D1*
X1883636Y1015264D1*
X1886521Y1012379D1*
X1890832Y1010953D1*
X1892258D1*
X1896535Y1012379D1*
X1899421Y1015264D1*
X1900846Y1019575D1*
Y1021001D1*
X1899421Y1025312D1*
X1896535Y1028164D1*
X1892258Y1029590D1*
X1890832D1*
X1886521Y1028164D1*
X1883636Y1025312D1*
X1882210Y1021001D1*
X1924469Y1010953D2*
Y1041064D1*
X1910110Y1021001D1*
X1931632D1*
X1216322Y1031401D2*
X1229221D1*
X1233532Y1032860D1*
X1234992Y1034286D1*
X1236418Y1037138D1*
Y1040023D1*
X1234992Y1042875D1*
X1233532Y1044334D1*
X1229221Y1045760D1*
X1216322D1*
Y1015616D1*
X1226370Y1031401D2*
X1236418Y1015616D1*
X1262892Y1041449D2*
X1261466Y1044301D1*
X1257155Y1045727D1*
X1254303D1*
X1249992Y1044301D1*
X1247107Y1039990D1*
X1245681Y1032827D1*
Y1025664D1*
X1247107Y1019927D1*
X1249992Y1017042D1*
X1254303Y1015616D1*
X1255729D1*
X1260007Y1017042D1*
X1262892Y1019927D1*
X1264318Y1024238D1*
Y1025664D1*
X1262892Y1029975D1*
X1260007Y1032827D1*
X1255729Y1034253D1*
X1254303D1*
X1249992Y1032827D1*
X1247107Y1029975D1*
X1245681Y1025664D1*
X1290792Y1045727D2*
X1276467D1*
X1275041Y1032827D1*
X1276467Y1034253D1*
X1280778Y1035712D1*
X1285055D1*
X1289366Y1034253D1*
X1292252Y1031401D1*
X1293678Y1027090D1*
Y1024238D1*
X1292252Y1019927D1*
X1289366Y1017042D1*
X1285055Y1015616D1*
X1280778D1*
X1276467Y1017042D1*
X1275041Y1018501D1*
X1273582Y1021353D1*
X1063572Y1030442D2*
X1076472D1*
X1080783Y1031901D1*
X1082242Y1033327D1*
X1083668Y1036179D1*
Y1039064D1*
X1082242Y1041916D1*
X1080783Y1043375D1*
X1076472Y1044801D1*
X1063572D1*
Y1014657D1*
X1073620Y1030442D2*
X1083668Y1014657D1*
X1110143Y1040490D2*
X1108717Y1043342D1*
X1104406Y1044768D1*
X1101554D1*
X1097243Y1043342D1*
X1094358Y1039031D1*
X1092932Y1031868D1*
Y1024705D1*
X1094358Y1018968D1*
X1097243Y1016083D1*
X1101554Y1014657D1*
X1102980D1*
X1107257Y1016083D1*
X1110143Y1018968D1*
X1111569Y1023279D1*
Y1024705D1*
X1110143Y1029016D1*
X1107257Y1031868D1*
X1102980Y1033294D1*
X1101554D1*
X1097243Y1031868D1*
X1094358Y1029016D1*
X1092932Y1024705D1*
X1138043Y1040490D2*
X1136617Y1043342D1*
X1132306Y1044768D1*
X1129454D1*
X1125143Y1043342D1*
X1122258Y1039031D1*
X1120832Y1031868D1*
Y1024705D1*
X1122258Y1018968D1*
X1125143Y1016083D1*
X1129454Y1014657D1*
X1130880D1*
X1135158Y1016083D1*
X1138043Y1018968D1*
X1139469Y1023279D1*
Y1024705D1*
X1138043Y1029016D1*
X1135158Y1031868D1*
X1130880Y1033294D1*
X1129454D1*
X1125143Y1031868D1*
X1122258Y1029016D1*
X1120832Y1024705D1*
X437235Y1030425D2*
X450135D1*
X454446Y1031884D1*
X455905Y1033310D1*
X457331Y1036162D1*
Y1039047D1*
X455905Y1041899D1*
X454446Y1043358D1*
X450135Y1044784D1*
X437235D1*
Y1014640D1*
X447283Y1030425D2*
X457331Y1014640D1*
X483805Y1040473D2*
X482379Y1043325D1*
X478068Y1044751D1*
X475217D1*
X470905Y1043325D1*
X468020Y1039014D1*
X466594Y1031851D1*
Y1024688D1*
X468020Y1018951D1*
X470905Y1016066D1*
X475217Y1014640D1*
X476642D1*
X480920Y1016066D1*
X483805Y1018951D1*
X485231Y1023262D1*
Y1024688D1*
X483805Y1028999D1*
X480920Y1031851D1*
X476642Y1033277D1*
X475217D1*
X470905Y1031851D1*
X468020Y1028999D1*
X466594Y1024688D1*
X500232Y1014640D2*
X514591Y1044751D1*
X494495D1*
X1617304Y2284321D2*
X1630204D1*
X1634515Y2285780D1*
X1635974Y2287206D1*
X1637400Y2290058D1*
Y2292943D1*
X1635974Y2295795D1*
X1634515Y2297254D1*
X1630204Y2298680D1*
X1617304D1*
Y2268536D1*
X1627352Y2284321D2*
X1637400Y2268536D1*
X1663874Y2294369D2*
X1662449Y2297221D1*
X1658137Y2298647D1*
X1655286D1*
X1650975Y2297221D1*
X1648089Y2292910D1*
X1646664Y2285747D1*
Y2278584D1*
X1648089Y2272847D1*
X1650975Y2269962D1*
X1655286Y2268536D1*
X1656712D1*
X1660989Y2269962D1*
X1663874Y2272847D1*
X1665300Y2277158D1*
Y2278584D1*
X1663874Y2282895D1*
X1660989Y2285747D1*
X1656712Y2287173D1*
X1655286D1*
X1650975Y2285747D1*
X1648089Y2282895D1*
X1646664Y2278584D1*
X1681727Y2298647D2*
X1677449Y2297221D1*
X1675990Y2294369D1*
Y2291484D1*
X1677449Y2288632D1*
X1680301Y2287173D1*
X1686038Y2285747D1*
X1690349Y2284321D1*
X1693201Y2281436D1*
X1694627Y2278584D1*
Y2274273D1*
X1693201Y2271421D1*
X1691775Y2269962D1*
X1687464Y2268536D1*
X1681727D1*
X1677449Y2269962D1*
X1675990Y2271421D1*
X1674564Y2274273D1*
Y2278584D1*
X1675990Y2281436D1*
X1678875Y2284321D1*
X1683153Y2285747D1*
X1688890Y2287173D1*
X1691775Y2288632D1*
X1693201Y2291484D1*
Y2294369D1*
X1691775Y2297221D1*
X1687464Y2298647D1*
X1681727D1*
X1449326Y2282681D2*
X1462226D1*
X1466537Y2284140D1*
X1467996Y2285566D1*
X1469422Y2288418D1*
Y2291303D1*
X1467996Y2294155D1*
X1466537Y2295614D1*
X1462226Y2297040D1*
X1449326D1*
Y2266896D1*
X1459374Y2282681D2*
X1469422Y2266896D1*
X1495896Y2292729D2*
X1494470Y2295581D1*
X1490159Y2297007D1*
X1487307D1*
X1482996Y2295581D1*
X1480111Y2291270D1*
X1478685Y2284107D1*
Y2276944D1*
X1480111Y2271207D1*
X1482996Y2268322D1*
X1487307Y2266896D1*
X1488733D1*
X1493011Y2268322D1*
X1495896Y2271207D1*
X1497322Y2275518D1*
Y2276944D1*
X1495896Y2281255D1*
X1493011Y2284107D1*
X1488733Y2285533D1*
X1487307D1*
X1482996Y2284107D1*
X1480111Y2281255D1*
X1478685Y2276944D1*
X1525256Y2286992D2*
X1523797Y2282681D1*
X1520945Y2279796D1*
X1516634Y2278370D1*
X1515208D1*
X1510897Y2279796D1*
X1508045Y2282681D1*
X1506586Y2286992D1*
Y2288418D1*
X1508045Y2292729D1*
X1510897Y2295581D1*
X1515208Y2297007D1*
X1516634D1*
X1520945Y2295581D1*
X1523797Y2292729D1*
X1525256Y2286992D1*
Y2279796D1*
X1523797Y2272633D1*
X1520945Y2268322D1*
X1516634Y2266896D1*
X1513782D1*
X1509471Y2268322D1*
X1508045Y2271207D1*
X1445430Y1911059D2*
Y1923959D1*
X1443971Y1928270D1*
X1442545Y1929729D1*
X1439693Y1931155D1*
X1436808D1*
X1433956Y1929729D1*
X1432497Y1928270D1*
X1431071Y1923959D1*
Y1911059D1*
X1461215D1*
X1445430Y1921107D2*
X1461215Y1931155D1*
Y1946156D2*
X1431104Y1960515D1*
Y1940419D1*
Y1978400D2*
X1432530Y1974089D1*
X1436841Y1971204D1*
X1444004Y1969778D1*
X1448315D1*
X1455478Y1971204D1*
X1459789Y1974089D1*
X1461215Y1978400D1*
Y1981252D1*
X1459789Y1985563D1*
X1455478Y1988415D1*
X1448315Y1989874D1*
X1444004D1*
X1436841Y1988415D1*
X1432530Y1985563D1*
X1431104Y1981252D1*
Y1978400D1*
X1436841Y1988415D2*
X1455478Y1971204D1*
X1707279Y1906559D2*
Y1919459D1*
X1705820Y1923770D1*
X1704394Y1925229D1*
X1701542Y1926655D1*
X1698657D1*
X1695805Y1925229D1*
X1694346Y1923770D1*
X1692920Y1919459D1*
Y1906559D1*
X1723064D1*
X1707279Y1916607D2*
X1723064Y1926655D1*
Y1941656D2*
X1692953Y1956015D1*
Y1935919D1*
X1698690Y1965278D2*
X1697231Y1968163D1*
X1692953Y1972474D1*
X1723064D1*
X1921930Y2933708D2*
Y2946607D1*
X1920471Y2950918D1*
X1919045Y2952378D1*
X1916193Y2953804D1*
X1913308D1*
X1910456Y2952378D1*
X1908997Y2950918D1*
X1907571Y2946607D1*
Y2933708D1*
X1937715D1*
X1921930Y2943756D2*
X1937715Y2953803D1*
Y2968804D2*
X1907604Y2983163D1*
Y2963067D1*
X1914767Y2993886D2*
X1913341D1*
X1910456Y2995312D1*
X1909030Y2996738D1*
X1907604Y2999623D1*
Y3005360D1*
X1909030Y3008212D1*
X1910456Y3009638D1*
X1913341Y3011097D1*
X1916193D1*
X1919078Y3009638D1*
X1923356Y3006786D1*
X1937715Y2992427D1*
Y3012523D1*
X1881546Y2799460D2*
Y2777938D1*
X1882972Y2773627D1*
X1885857Y2770775D1*
X1890168Y2769316D1*
X1893020D1*
X1897331Y2770775D1*
X1900216Y2773627D1*
X1901642Y2777938D1*
Y2799460D1*
X1910905Y2793689D2*
X1913790Y2795149D1*
X1918101Y2799426D1*
Y2769316D1*
X545281Y3054973D2*
D37*
X550090Y3059782D1*
X552466Y3064590D1*
Y3071720D1*
X550090Y3076528D1*
X545281Y3081281D1*
X538096Y3083713D1*
X533343D1*
X526158Y3081281D1*
X521405Y3076528D1*
X518973Y3071720D1*
Y3064590D1*
X521405Y3059782D1*
X526158Y3054973D1*
X545281Y3016233D2*
X550090Y3021042D1*
X552466Y3025850D1*
Y3032980D1*
X550090Y3037788D1*
X545281Y3042541D1*
X538096Y3044973D1*
X533343D1*
X526158Y3042541D1*
X521405Y3037788D1*
X518973Y3032980D1*
Y3025850D1*
X521405Y3021042D1*
X526158Y3016233D1*
X544065Y3006233D2*
Y2978598D1*
X569213Y2968598D2*
X518973D1*
X545281D2*
X550090Y2963790D1*
X552466Y2959037D1*
Y2951852D1*
X550090Y2947098D1*
X545281Y2942290D1*
X538096Y2939913D1*
X533343D1*
X526158Y2942290D1*
X521405Y2947098D1*
X518973Y2951852D1*
Y2959037D1*
X521405Y2963790D1*
X526158Y2968598D1*
X552466Y2927482D2*
X518973Y2913167D1*
X509411Y2917920D1*
X504603Y2922728D1*
X502226Y2927482D1*
Y2929913D1*
X552466Y2898797D2*
X518973Y2913167D1*
X544065Y2888797D2*
Y2861162D1*
X545281Y2824854D2*
X550090Y2827230D1*
X552466Y2834415D1*
Y2841600D1*
X550090Y2848785D1*
X545281Y2851162D1*
X540528Y2848785D1*
X538096Y2843977D1*
X535720Y2832039D1*
X533343Y2827230D1*
X528535Y2824854D1*
X526158D1*
X521405Y2827230D1*
X518973Y2834415D1*
Y2841600D1*
X521405Y2848785D1*
X526158Y2851162D1*
X552466Y2786169D2*
X518973D1*
X545281D2*
X550090Y2790922D1*
X552466Y2795730D1*
Y2802860D1*
X550090Y2807669D1*
X545281Y2812422D1*
X538096Y2814854D1*
X533343D1*
X526158Y2812422D1*
X521405Y2807669D1*
X518973Y2802860D1*
Y2795730D1*
X521405Y2790922D1*
X526158Y2786169D1*
X1342750Y1872155D2*
D147*
X1392990D1*
Y1900840D1*
X1342750Y1947340D2*
Y1916279D1*
X1392990D1*
Y1947340D1*
X1366681Y1916279D2*
Y1935402D1*
X1342750Y1962780D2*
X1392990Y1962779D1*
Y1979526D1*
X1390558Y1986711D1*
X1385805Y1991520D1*
X1380996Y1993896D1*
X1373866Y1996273D1*
X1361873D1*
X1354688Y1993896D1*
X1349935Y1991520D1*
X1345126Y1986711D1*
X1342750Y1979526D1*
Y1962780D1*
X1344131Y2185949D2*
X1346508Y2181140D1*
X1351316Y2176387D1*
X1356070Y2173955D1*
X1363255Y2171579D1*
X1375248D1*
X1382378Y2173955D1*
X1387186Y2176387D1*
X1391940Y2181140D1*
X1394372Y2185949D1*
Y2195510D1*
X1391940Y2200263D1*
X1387186Y2205072D1*
X1382378Y2207448D1*
X1375248Y2209825D1*
X1363255D1*
X1356070Y2207449D1*
X1351317Y2205072D1*
X1346508Y2200263D1*
X1344131Y2195510D1*
Y2185949D1*
X1370440Y2225264D2*
Y2246819D1*
X1368063Y2253949D1*
X1365631Y2256381D1*
X1360878Y2258758D1*
X1353693D1*
X1348940Y2256381D1*
X1346508Y2253949D1*
X1344132Y2246819D1*
Y2225264D1*
X1394371D1*
X1344131Y2290944D2*
X1394371D1*
X1344131Y2274197D2*
Y2307690D1*
X1892306Y3598808D2*
D148*
Y3558616D1*
X1878909Y3598808D2*
X1905704D1*
X1918055D2*
X1944850Y3558616D1*
Y3598808D2*
X1918055Y3558616D1*
X1880716Y3849370D2*
X1897916D1*
X1903664Y3851315D1*
X1905609Y3853217D1*
X1907511Y3857019D1*
Y3860866D1*
X1905609Y3864668D1*
X1903664Y3866614D1*
X1897916Y3868515D1*
X1880716D1*
Y3828323D1*
X1894113Y3849370D2*
X1907511Y3828323D1*
X1919862Y3868515D2*
X1946657Y3828323D1*
Y3868515D2*
X1919862Y3828323D1*
X1793603Y4150502D2*
D147*
X1788794Y4145749D1*
X1786418Y4138564D1*
Y4129003D1*
X1788794Y4121818D1*
X1793603Y4117009D1*
X1798356D1*
X1803164Y4119441D1*
X1805541Y4121818D1*
X1807917Y4126571D1*
X1812726Y4140941D1*
X1815102Y4145749D1*
X1817534Y4148126D1*
X1822288Y4150502D1*
X1829473D1*
X1834226Y4145749D1*
X1836658Y4138564D1*
Y4129003D1*
X1834226Y4121818D1*
X1829472Y4117009D1*
X1786418Y4165942D2*
X1836658Y4177935D1*
X1786418Y4189873D1*
X1836658Y4201811D1*
X1786418Y4213805D1*
Y4229244D2*
X1836658D1*
Y4245991D1*
X1834226Y4253176D1*
X1829473Y4257984D1*
X1824664Y4260361D1*
X1817534Y4262738D1*
X1805541D1*
X1798356Y4260361D1*
X1793603Y4257984D1*
X1788794Y4253176D1*
X1786418Y4245991D1*
Y4229244D1*
X455859Y3887186D2*
D148*
Y3912035D1*
X415667D1*
Y3887186D1*
X436714Y3912035D2*
Y3896736D1*
X455859Y3874834D2*
X415667D1*
X455859Y3849086D2*
X415667D1*
X455859Y3862483D2*
Y3835688D1*
Y3823337D2*
X415667D1*
X455859Y3796542D2*
X415667D1*
X436714Y3823337D2*
Y3796542D1*
X455859Y3759342D2*
Y3784191D1*
X415667D1*
Y3759342D1*
X436714Y3784191D2*
Y3768892D1*
Y3746990D2*
Y3729790D1*
X438659Y3724042D1*
X440560Y3722097D1*
X444363Y3720196D1*
X448210D1*
X452012Y3722097D1*
X453958Y3724042D1*
X455859Y3729790D1*
Y3746990D1*
X415667D1*
X436714Y3733593D2*
X415667Y3720196D1*
X455859Y3668963D2*
X415667Y3659369D1*
X455859Y3649818D1*
X415667Y3640268D1*
X455859Y3630673D1*
X415667Y3587680D2*
X455859Y3603023D1*
X415667Y3618321D1*
X429064Y3612573D2*
Y3593428D1*
X455859Y3575329D2*
X436714Y3560030D1*
X415667D1*
X455859Y3544731D2*
X436714Y3560030D1*
X679595Y4522108D2*
Y4481916D1*
X692993D1*
X698741Y4483862D1*
X702587Y4487664D1*
X704489Y4491511D1*
X706390Y4497215D1*
Y4506810D1*
X704489Y4512558D1*
X702587Y4516360D1*
X698741Y4520207D1*
X692993Y4522108D1*
X679595D1*
X730237D2*
X726391Y4520207D1*
X722588Y4516360D1*
X720643Y4512558D1*
X718741Y4506810D1*
Y4497215D1*
X720643Y4491511D1*
X722588Y4487664D1*
X726391Y4483862D1*
X730237Y4481916D1*
X737887D1*
X741689Y4483862D1*
X745536Y4487664D1*
X747437Y4491511D1*
X749339Y4497215D1*
Y4506810D1*
X747437Y4512558D1*
X745536Y4516360D1*
X741689Y4520207D1*
X737887Y4522108D1*
X730237D1*
X788485D2*
Y4481916D1*
X761690Y4522108D1*
Y4481916D1*
X810431Y4522064D2*
X800836Y4510568D1*
X812332Y4520163D1*
X810431Y4522064D1*
X838081Y4522108D2*
Y4481916D1*
X824683Y4522108D2*
X851478D1*
X692482Y4453227D2*
X688679Y4457073D1*
X682931Y4458975D1*
X675282D1*
X669534Y4457073D1*
X665687Y4453227D1*
Y4449424D1*
X667633Y4445577D1*
X669534Y4443676D1*
X673336Y4441775D1*
X684832Y4437928D1*
X688679Y4436027D1*
X690581Y4434081D1*
X692482Y4430279D1*
Y4424531D1*
X688679Y4420728D1*
X682931Y4418783D1*
X675282D1*
X669534Y4420728D1*
X665687Y4424531D1*
X704833Y4458975D2*
Y4418783D1*
X731628Y4458975D2*
Y4418783D1*
X704833Y4439829D2*
X731628D1*
X755475Y4458975D2*
X751629Y4457073D1*
X747826Y4453227D1*
X745881Y4449424D1*
X743979Y4443676D1*
Y4434081D1*
X745881Y4428377D1*
X747826Y4424531D1*
X751629Y4420728D1*
X755475Y4418783D1*
X763125D1*
X766927Y4420728D1*
X770774Y4424531D1*
X772675Y4428377D1*
X774576Y4434081D1*
Y4443676D1*
X772675Y4449424D1*
X770774Y4453227D1*
X766927Y4457073D1*
X763125Y4458975D1*
X755475D1*
X786928Y4439829D2*
X804128D1*
X809876Y4441775D1*
X811821Y4443676D1*
X813723Y4447478D1*
Y4451325D1*
X811821Y4455128D1*
X809876Y4457073D1*
X804128Y4458975D1*
X786928D1*
Y4418783D1*
X800325Y4439829D2*
X813723Y4418783D1*
X839471Y4458975D2*
Y4418783D1*
X826074Y4458975D2*
X852869D1*
X867165Y4458930D2*
Y4432180D1*
Y4422629D2*
X865220Y4420684D1*
X867165Y4418783D1*
X869067Y4420684D1*
X867165Y4422629D1*
X584446Y4663491D2*
D147*
X577261Y4661114D1*
X572452Y4653929D1*
X570076Y4641991D1*
Y4634806D1*
X572452Y4622868D1*
X577261Y4615683D1*
X584446Y4613306D1*
X589199D1*
X596384Y4615683D1*
X601137Y4622868D1*
X603569Y4634806D1*
Y4641991D1*
X601137Y4653929D1*
X596384Y4661114D1*
X589199Y4663491D1*
X584446D1*
X601137Y4653929D2*
X572452Y4622868D1*
X621385Y4618115D2*
X619008Y4615683D1*
X621385Y4613306D1*
X623817Y4615683D1*
X621385Y4618115D1*
X670373Y4646799D2*
X667941Y4639614D1*
X663188Y4634806D1*
X656003Y4632429D1*
X653626D1*
X646441Y4634806D1*
X641688Y4639614D1*
X639256Y4646799D1*
Y4649176D1*
X641688Y4656361D1*
X646441Y4661114D1*
X653626Y4663491D1*
X656003D1*
X663188Y4661114D1*
X667941Y4656361D1*
X670373Y4646799D1*
Y4634806D1*
X667941Y4622868D1*
X663188Y4615683D1*
X656003Y4613306D1*
X651250D1*
X644065Y4615683D1*
X641688Y4620491D1*
X479201Y2129764D2*
X481633Y2124956D1*
X488763Y2117771D1*
X438578D1*
X443386Y2099955D2*
X440954Y2102332D1*
X438578Y2099955D1*
X440954Y2097523D1*
X443386Y2099955D1*
X488763Y2067714D2*
X486386Y2074899D1*
X479201Y2079707D1*
X467263Y2082084D1*
X460078D1*
X448139Y2079707D1*
X440954Y2074899D1*
X438578Y2067714D1*
Y2062961D1*
X440954Y2055776D1*
X448139Y2051022D1*
X460078Y2048591D1*
X467263D1*
X479201Y2051022D1*
X486386Y2055776D1*
X488763Y2062961D1*
Y2067714D1*
X479201Y2051022D2*
X448139Y2079707D1*
X1498176Y3144755D2*
D44*
X1515387D1*
X1502454Y3137559D2*
X1511076Y3151918D1*
X1502454D2*
X1511076Y3137559D1*
M02*
